<svg width="26" height="26" viewBox="0 0 26 26" fill="none" xmlns="http://www.w3.org/2000/svg">
<path fill-rule="evenodd" clip-rule="evenodd" d="M22.0626 2.30138C21.7082 1.39957 20.4343 1.39957 20.0799 2.30138L19.6163 3.48135L18.4412 3.9465C17.5428 4.30216 17.5428 5.57608 18.4412 5.93175L19.6163 6.39689L20.0799 7.57687C20.4343 8.47868 21.7082 8.47868 22.0626 7.57687L22.5263 6.39689L23.7013 5.93175C24.5998 5.57609 24.5998 4.30216 23.7013 3.9465L22.5263 3.48135L22.0626 2.30138ZM21.0713 2.74074L21.5206 3.88413C21.6285 4.15884 21.8454 4.37698 22.1204 4.48581L23.2655 4.93912L22.1204 5.39244C21.8454 5.50127 21.6285 5.71941 21.5206 5.99411L21.0713 7.13751L20.622 5.99411C20.514 5.71941 20.2971 5.50127 20.0222 5.39244L18.877 4.93912L20.0222 4.48581C20.2971 4.37698 20.514 4.15884 20.622 3.88413L21.0713 2.74074ZM17.873 8.60907C17.5186 7.70726 16.2447 7.70726 15.8903 8.60907L15.7229 9.03511L15.299 9.20291C14.4005 9.55857 14.4005 10.8325 15.299 11.1882L15.7229 11.356L15.8903 11.782C16.2447 12.6838 17.5186 12.6838 17.873 11.782L18.0404 11.356L18.4643 11.1882C19.3627 10.8325 19.3627 9.55857 18.4643 9.20291L18.0404 9.03511L17.873 8.60907ZM16.8816 9.04842L17.0347 9.43789C17.1426 9.7126 17.3596 9.93073 17.6345 10.0396L18.0285 10.1955L17.6345 10.3515C17.3596 10.4603 17.1426 10.6785 17.0347 10.9532L16.8816 11.3426L16.7286 10.9532C16.6207 10.6785 16.4037 10.4603 16.1288 10.3515L15.7348 10.1955L16.1288 10.0396C16.4037 9.93073 16.6207 9.7126 16.7286 9.43789L16.8816 9.04842Z" fill="#FFAA00"/>
<path fill-rule="evenodd" clip-rule="evenodd" d="M11.9355 3.03506C6.90161 3.56659 2.97916 7.82524 2.97916 13C2.97916 18.5344 7.46564 23.0209 13 23.0209C18.1748 23.0209 22.4334 19.0984 22.965 14.0645C21.5277 15.8891 19.297 17.0625 16.7917 17.0625C12.4539 17.0625 8.9375 13.5461 8.9375 9.20835C8.9375 6.70302 10.1109 4.47234 11.9355 3.03506ZM1.35416 13C1.35416 6.5682 6.56818 1.35419 13 1.35419C13.7763 1.35419 14.165 1.97305 14.2316 2.46598C14.2956 2.94016 14.1203 3.54323 13.5753 3.87258C11.7679 4.96473 10.5625 6.94616 10.5625 9.20835C10.5625 12.6486 13.3514 15.4375 16.7917 15.4375C19.0539 15.4375 21.0353 14.2321 22.1274 12.4247C22.4568 11.8797 23.0599 11.7044 23.534 11.7684C24.027 11.835 24.6458 12.2237 24.6458 13C24.6458 19.4318 19.4318 24.6459 13 24.6459C6.56818 24.6459 1.35416 19.4318 1.35416 13Z" fill="#FFAA00"/>
</svg>
