<svg width="26" height="26" viewBox="0 0 26 26" fill="none" xmlns="http://www.w3.org/2000/svg">
<path fill-rule="evenodd" clip-rule="evenodd" d="M22.0627 2.30138C21.7083 1.39957 20.4344 1.39957 20.08 2.30138L19.6164 3.48135L18.4413 3.9465C17.5428 4.30216 17.5428 5.57608 18.4413 5.93175L19.6164 6.39689L20.08 7.57687C20.4344 8.47868 21.7083 8.47868 22.0627 7.57687L22.5263 6.39689L23.7014 5.93175C24.5999 5.57609 24.5999 4.30216 23.7014 3.9465L22.5263 3.48135L22.0627 2.30138ZM21.0714 2.74074L21.5206 3.88413C21.6286 4.15884 21.8455 4.37698 22.1205 4.48581L23.2656 4.93912L22.1205 5.39244C21.8455 5.50127 21.6286 5.71941 21.5206 5.99411L21.0714 7.13751L20.6221 5.99411C20.5141 5.71941 20.2972 5.50127 20.0222 5.39244L18.8771 4.93912L20.0222 4.48581C20.2972 4.37698 20.5141 4.15884 20.6221 3.88413L21.0714 2.74074ZM17.873 8.60907C17.5187 7.70726 16.2447 7.70726 15.8904 8.60907L15.723 9.03511L15.2991 9.20291C14.4006 9.55857 14.4006 10.8325 15.2991 11.1882L15.723 11.356L15.8904 11.782C16.2447 12.6838 17.5187 12.6838 17.873 11.782L18.0405 11.356L18.4643 11.1882C19.3628 10.8325 19.3628 9.55857 18.4643 9.20291L18.0405 9.03511L17.873 8.60907ZM16.8817 9.04842L17.0348 9.43789C17.1427 9.7126 17.3596 9.93073 17.6346 10.0396L18.0286 10.1955L17.6346 10.3515C17.3596 10.4603 17.1427 10.6785 17.0348 10.9532L16.8817 11.3426L16.7287 10.9532C16.6207 10.6785 16.4038 10.4603 16.1289 10.3515L15.7349 10.1955L16.1289 10.0396C16.4038 9.93073 16.6207 9.7126 16.7287 9.43789L16.8817 9.04842Z" fill="#00AAFF"/>
<path fill-rule="evenodd" clip-rule="evenodd" d="M11.9356 3.03506C6.90169 3.56659 2.97925 7.82524 2.97925 13C2.97925 18.5344 7.46573 23.0209 13.0001 23.0209C18.1749 23.0209 22.4335 19.0984 22.965 14.0645C21.5278 15.8891 19.2971 17.0625 16.7917 17.0625C12.454 17.0625 8.93758 13.5461 8.93758 9.20835C8.93758 6.70302 10.111 4.47234 11.9356 3.03506ZM1.35425 13C1.35425 6.5682 6.56826 1.35419 13.0001 1.35419C13.7764 1.35419 14.1651 1.97305 14.2317 2.46598C14.2957 2.94016 14.1204 3.54323 13.5754 3.87258C11.768 4.96473 10.5626 6.94616 10.5626 9.20835C10.5626 12.6486 13.3515 15.4375 16.7917 15.4375C19.0539 15.4375 21.0354 14.2321 22.1275 12.4247C22.4569 11.8797 23.0599 11.7044 23.5341 11.7684C24.0271 11.835 24.6459 12.2237 24.6459 13C24.6459 19.4318 19.4319 24.6459 13.0001 24.6459C6.56826 24.6459 1.35425 19.4318 1.35425 13Z" fill="#00AAFF"/>
</svg>
