<svg width="16" height="16" viewBox="0 0 16 16" fill="none" xmlns="http://www.w3.org/2000/svg">
<path fill-rule="evenodd" clip-rule="evenodd" d="M14.6668 8.00001C14.6668 11.6819 11.6821 14.6667 8.00016 14.6667C4.31826 14.6667 1.3335 11.6819 1.3335 8.00001C1.3335 4.31811 4.31826 1.33334 8.00016 1.33334C11.6821 1.33334 14.6668 4.31811 14.6668 8.00001ZM10.687 5.97979C10.8823 6.17505 10.8823 6.49163 10.687 6.6869L7.35372 10.0202C7.15845 10.2155 6.84187 10.2155 6.64661 10.0202L5.31328 8.6869C5.11801 8.49164 5.11801 8.17505 5.31328 7.97979C5.50854 7.78453 5.82512 7.78453 6.02038 7.97979L7.00016 8.95957L8.49005 7.46968L9.97994 5.97979C10.1752 5.78453 10.4918 5.78453 10.687 5.97979Z" fill="#FFAA00"/>
</svg>
