<svg width="18" height="18" viewBox="0 0 18 18" fill="none" xmlns="http://www.w3.org/2000/svg">
<path fill-rule="evenodd" clip-rule="evenodd" d="M10.5744 1.79332C11.7155 0.652227 13.5656 0.652227 14.7067 1.79332C15.8478 2.93441 15.8478 4.78449 14.7067 5.92558L9.01117 11.6211C8.69017 11.9421 8.49414 12.1382 8.27565 12.3086C8.01823 12.5094 7.73969 12.6815 7.44498 12.822C7.19485 12.9412 6.93182 13.0288 6.50112 13.1724L4.49663 13.8405L4.01538 14.001C3.58462 14.1446 3.1097 14.0324 2.78863 13.7114C2.46756 13.3903 2.35545 12.9154 2.49903 12.4846L3.32761 9.99889C3.47115 9.56818 3.55881 9.30516 3.67802 9.05502C3.81848 8.76031 3.99062 8.48177 4.1914 8.22435C4.36182 8.00586 4.55788 7.80982 4.87892 7.48882L10.5744 1.79332ZM4.47068 12.6633L3.83665 12.0293L4.38297 10.3904C4.54203 9.91319 4.60773 9.71917 4.69359 9.53901C4.79889 9.31806 4.92794 9.10924 5.07848 8.91625C5.20121 8.75889 5.34537 8.61336 5.70104 8.25769L10.1193 3.83946C10.3016 4.29695 10.6102 4.84911 11.1305 5.36945C11.6509 5.88979 12.2031 6.19836 12.6605 6.38073L8.24231 10.799C7.88664 11.1546 7.74111 11.2988 7.58375 11.4215C7.39076 11.5721 7.18194 11.7011 6.96099 11.8064C6.78083 11.8923 6.58682 11.958 6.10963 12.117L4.47068 12.6633ZM13.557 5.4843C13.4641 5.46392 13.348 5.43324 13.216 5.38743C12.8529 5.26149 12.3754 5.02334 11.926 4.57396C11.4767 4.12458 11.2385 3.64707 11.1126 3.28405C11.0668 3.15203 11.0361 3.0359 11.0157 2.94303L11.3699 2.58881C12.0717 1.88706 13.2094 1.88706 13.9112 2.58881C14.6129 3.29057 14.6129 4.42833 13.9112 5.13009L13.557 5.4843ZM2.4375 16.5C2.4375 16.1893 2.68934 15.9375 3 15.9375H15V17.0625H3C2.68934 17.0625 2.4375 16.8107 2.4375 16.5Z" fill="#FFAA00"/>
</svg>
