<svg width="16" height="16" viewBox="0 0 16 16" fill="none" xmlns="http://www.w3.org/2000/svg">
<g clip-path="url(#clip0_452_30566)">
<path d="M8 11.8335C8.27614 11.8335 8.5 11.6096 8.5 11.3335V7.3335C8.5 7.05735 8.27614 6.8335 8 6.8335C7.72385 6.8335 7.5 7.05735 7.5 7.3335V11.3335C7.5 11.6096 7.72385 11.8335 8 11.8335Z" fill="white"/>
<path d="M8 4.66683C8.36818 4.66683 8.66666 4.96531 8.66666 5.3335C8.66666 5.70169 8.36818 6.00016 8 6.00016C7.6318 6.00016 7.33333 5.70169 7.33333 5.3335C7.33333 4.96531 7.6318 4.66683 8 4.66683Z" fill="white"/>
<path fill-rule="evenodd" clip-rule="evenodd" d="M0.833328 8.00016C0.833328 4.04212 4.04195 0.833496 8 0.833496C11.958 0.833496 15.1667 4.04212 15.1667 8.00016C15.1667 11.9582 11.958 15.1668 8 15.1668C4.04195 15.1668 0.833328 11.9582 0.833328 8.00016ZM8 1.8335C4.59424 1.8335 1.83333 4.59441 1.83333 8.00016C1.83333 11.4059 4.59424 14.1668 8 14.1668C11.4058 14.1668 14.1667 11.4059 14.1667 8.00016C14.1667 4.59441 11.4058 1.8335 8 1.8335Z" fill="white"/>
</g>
<defs>
<clipPath id="clip0_452_30566">
<rect width="16" height="16" fill="white"/>
</clipPath>
</defs>
</svg>
