<svg width="390" height="159" viewBox="0 0 390 159" fill="none" xmlns="http://www.w3.org/2000/svg">
<path d="M0 33.6668C13.8007 30.7617 29.4766 34.5739 36.0986 44.5256C38.3586 47.9218 42.285 49.7392 46.3467 49.3623C56.8544 48.3863 69.7449 54.1997 76.3098 63.7941C78.4696 66.951 82.5681 67.3608 85.4975 64.9014C92.9335 58.6618 102.214 61.2995 107.371 68.2608C108.723 70.086 111.075 70.771 113.225 70.036C118.408 68.2632 122.375 72.5079 122.179 77.1373C122.095 79.1064 123.419 80.8815 125.375 81.1153C129.326 81.5876 132.817 83.4363 135.215 85.9622C136.971 87.8108 139.927 87.5738 141.339 85.4507C146.654 77.461 155.227 74.2384 163.058 74.9188C166.864 75.2496 170.457 73.3094 172.652 70.1814C184.581 53.1808 216.178 49.1058 231.25 73.4674C233.311 76.7979 237.472 78.0022 241.099 76.5242C248.144 73.6527 256.841 75.5186 261.775 82.763C262.741 84.1808 264.728 84.4154 265.955 83.2158C270.018 79.2463 275.095 79.398 279.232 81.3452C280.691 82.0318 282.399 81.3812 282.999 79.8845C286.419 71.3552 294.079 70.861 299.175 73.7497C300.892 74.7233 303.131 74.0195 303.957 72.2264C307.699 64.1077 317.814 60.6097 326.962 65.5833C329.005 66.6937 331.481 65.4605 331.875 63.1693C332.728 58.2036 336.016 54.1724 340.72 52.9016C342.492 52.423 343.824 50.8801 343.872 49.0448C344.057 42.1366 349.287 35.0759 357.004 33.6668C360.493 33.0295 362.86 29.6067 362.199 26.1213C359.458 11.6739 371.986 -4.09357 391 0.965961V157H0V33.6668Z" fill="#A1AECE"/>
<path d="M0 33.6668C13.8007 30.7617 29.4766 34.5739 36.0986 44.5256C38.3586 47.9218 42.285 49.7392 46.3467 49.3623C56.8544 48.3863 69.7449 54.1997 76.3098 63.7941C78.4696 66.951 82.5681 67.3608 85.4975 64.9014C92.9335 58.6618 102.214 61.2995 107.371 68.2608C108.723 70.086 111.075 70.771 113.225 70.036C118.408 68.2632 122.375 72.5079 122.179 77.1373C122.095 79.1064 123.419 80.8815 125.375 81.1153C129.326 81.5876 132.817 83.4363 135.215 85.9622C136.971 87.8108 139.927 87.5738 141.339 85.4507C146.654 77.461 155.227 74.2384 163.058 74.9188C166.864 75.2496 170.457 73.3094 172.652 70.1814C184.581 53.1808 216.178 49.1058 231.25 73.4674C233.311 76.7979 237.472 78.0022 241.099 76.5242C248.144 73.6527 256.841 75.5186 261.775 82.763C262.741 84.1808 264.728 84.4154 265.955 83.2158C270.018 79.2463 275.095 79.398 279.232 81.3452C280.691 82.0318 282.399 81.3812 282.999 79.8845C286.419 71.3552 294.079 70.861 299.175 73.7497C300.892 74.7233 303.131 74.0195 303.957 72.2264C307.699 64.1077 317.814 60.6097 326.962 65.5833C329.005 66.6937 331.481 65.4605 331.875 63.1693C332.728 58.2036 336.016 54.1724 340.72 52.9016C342.492 52.423 343.824 50.8801 343.872 49.0448C344.057 42.1366 349.287 35.0759 357.004 33.6668C360.493 33.0295 362.86 29.6067 362.199 26.1213C359.458 11.6739 371.986 -4.09357 391 0.965961V157H0V33.6668Z" fill="#CDB390"/>
<path d="M59.1042 97.0399C64.0637 87.4659 76.187 82.0545 87.1279 87.7819C91.4907 90.0661 96.8442 89.5937 100.632 86.4478C116.325 73.4134 139.181 76.3068 145.42 100.302C145.714 101.437 147.057 101.985 148.04 101.346C152.246 98.6149 157.956 99.8129 159.364 105.162C159.672 106.332 161.003 106.946 162.012 106.278C164.741 104.476 168.518 104.231 171.633 106.594C172.684 107.392 174.216 106.859 174.462 105.562C177.543 89.3412 194.453 79.4989 210.053 87.1469C215.418 89.7775 221.887 88.6428 225.851 84.1714C245.178 62.3677 277.063 67.0127 291.326 88.75C293.572 92.1712 298.251 92.8734 301.431 90.2983C305.349 87.1258 310.792 85.5547 316.275 87.9265C318.413 88.8516 320.834 87.6646 321.562 85.4507C326.997 68.9146 349.258 64.1976 360.328 79.6561C363.443 84.0064 368.406 86.5674 373.755 86.7004C380.649 86.8708 388.05 89.019 390.999 92.4598V158H0V122.59C5.4388 104.46 30.1812 94.3029 50.2238 100.713C53.6607 101.812 57.4448 100.244 59.1042 97.0399Z" fill="#B6BDCF"/>
<path d="M59.1042 97.0399C64.0637 87.4659 76.187 82.0545 87.1279 87.7819C91.4907 90.0661 96.8442 89.5937 100.632 86.4478C116.325 73.4134 139.181 76.3068 145.42 100.302C145.714 101.437 147.057 101.985 148.04 101.346C152.246 98.6149 157.956 99.8129 159.364 105.162C159.672 106.332 161.003 106.946 162.012 106.278C164.741 104.476 168.518 104.231 171.633 106.594C172.684 107.392 174.216 106.859 174.462 105.562C177.543 89.3412 194.453 79.4989 210.053 87.1469C215.418 89.7775 221.887 88.6428 225.851 84.1714C245.178 62.3677 277.063 67.0127 291.326 88.75C293.572 92.1712 298.251 92.8734 301.431 90.2983C305.349 87.1258 310.792 85.5547 316.275 87.9265C318.413 88.8516 320.834 87.6646 321.562 85.4507C326.997 68.9146 349.258 64.1976 360.328 79.6561C363.443 84.0064 368.406 86.5674 373.755 86.7004C380.649 86.8708 388.05 89.019 390.999 92.4598V158H0V122.59C5.4388 104.46 30.1812 94.3029 50.2238 100.713C53.6607 101.812 57.4448 100.244 59.1042 97.0399Z" fill="#E0C7A6"/>
<path d="M0 79.4134C22.3229 68.3348 56.0505 79.1913 66.7967 104.474C68.7854 109.152 73.6087 112.005 78.6565 111.407C94.8103 109.495 109.596 117.854 115.683 134.636C117.559 139.805 123.529 142.173 128.465 139.749C140.823 133.682 156.608 137.502 164.872 153.055C165.799 154.799 168.029 155.459 169.687 154.384C173.281 152.054 178.571 152.067 182.342 154.983C183.995 156.262 186.378 155.903 187.442 154.104C190.001 149.774 195.139 147.479 200.357 148.726C202.173 149.16 203.988 148.017 204.443 146.207C211.797 116.865 243.087 102.048 273.074 115.988C274.686 116.737 276.617 116.063 277.406 114.471C280.729 107.769 289.359 105.08 296.23 108.762C298.059 109.742 300.344 108.928 301.006 106.959C304.312 97.1154 315.273 91.6493 325.946 95.9276C330.469 97.741 335.643 96.3632 338.909 92.7456C354.463 75.5198 378.336 74.2365 390.999 82.3544V158.5H0V79.4134Z" fill="#F2F2F2"/>
</svg>
