<svg width="390" height="159" viewBox="0 0 390 159" fill="none" xmlns="http://www.w3.org/2000/svg">
<path d="M0.000732422 33.6668C13.7661 30.7617 29.402 34.5739 36.007 44.5256C38.2612 47.9218 42.1776 49.7392 46.2289 49.3623C56.7097 48.3863 69.5672 54.1997 76.1153 63.7941C78.2697 66.951 82.3577 67.3608 85.2795 64.9014C92.6965 58.6618 101.954 61.2995 107.097 68.2608C108.445 70.086 110.792 70.771 112.936 70.036C118.106 68.2632 122.063 72.5079 121.867 77.1373C121.783 79.1064 123.104 80.8815 125.056 81.1153C128.996 81.5876 132.478 83.4363 134.87 85.9622C136.621 87.8108 139.57 87.5738 140.978 85.4507C146.28 77.461 154.831 74.2384 162.641 74.9188C166.438 75.2496 170.022 73.3094 172.211 70.1814C184.11 53.1808 215.626 49.1058 230.66 73.4674C232.715 76.7979 236.865 78.0022 240.483 76.5242C247.51 73.6527 256.185 75.5186 261.106 82.763C262.069 84.1808 264.052 84.4154 265.276 83.2158C269.328 79.2463 274.392 79.398 278.519 81.3452C279.973 82.0318 281.678 81.3812 282.276 79.8845C285.687 71.3552 293.328 70.861 298.41 73.7497C300.123 74.7233 302.356 74.0195 303.181 72.2264C306.913 64.1077 317.002 60.6097 326.127 65.5833C328.164 66.6937 330.634 65.4605 331.027 63.1693C331.878 58.2036 335.158 54.1724 339.849 52.9016C341.617 52.423 342.945 50.8801 342.993 49.0448C343.177 42.1366 348.394 35.0759 356.092 33.6668C359.572 33.0295 361.932 29.6067 361.273 26.1213C358.539 11.6739 371.036 -4.09357 390.001 0.965961V157H0.000732422V33.6668Z" fill="#A1AECE"/>
<path d="M0.000732422 33.6668C13.7661 30.7617 29.402 34.5739 36.007 44.5256C38.2612 47.9218 42.1776 49.7392 46.2289 49.3623C56.7097 48.3863 69.5672 54.1997 76.1153 63.7941C78.2697 66.951 82.3577 67.3608 85.2795 64.9014C92.6965 58.6618 101.954 61.2995 107.097 68.2608C108.445 70.086 110.792 70.771 112.936 70.036C118.106 68.2632 122.063 72.5079 121.867 77.1373C121.783 79.1064 123.104 80.8815 125.056 81.1153C128.996 81.5876 132.478 83.4363 134.87 85.9622C136.621 87.8108 139.57 87.5738 140.978 85.4507C146.28 77.461 154.831 74.2384 162.641 74.9188C166.438 75.2496 170.022 73.3094 172.211 70.1814C184.11 53.1808 215.626 49.1058 230.66 73.4674C232.715 76.7979 236.865 78.0022 240.483 76.5242C247.51 73.6527 256.185 75.5186 261.106 82.763C262.069 84.1808 264.052 84.4154 265.276 83.2158C269.328 79.2463 274.392 79.398 278.519 81.3452C279.973 82.0318 281.678 81.3812 282.276 79.8845C285.687 71.3552 293.328 70.861 298.41 73.7497C300.123 74.7233 302.356 74.0195 303.181 72.2264C306.913 64.1077 317.002 60.6097 326.127 65.5833C328.164 66.6937 330.634 65.4605 331.027 63.1693C331.878 58.2036 335.158 54.1724 339.849 52.9016C341.617 52.423 342.945 50.8801 342.993 49.0448C343.177 42.1366 348.394 35.0759 356.092 33.6668C359.572 33.0295 361.932 29.6067 361.273 26.1213C358.539 11.6739 371.036 -4.09357 390.001 0.965961V157H0.000732422V33.6668Z" fill="#CDB390"/>
<path d="M58.9538 97.0399C63.9005 87.4659 75.9929 82.0545 86.9058 87.7819C91.2574 90.0661 96.5973 89.5937 100.376 86.4478C116.029 73.4134 138.826 76.3068 145.048 100.302C145.342 101.437 146.682 101.985 147.662 101.346C151.857 98.6149 157.553 99.8129 158.957 105.162C159.265 106.332 160.591 106.946 161.598 106.278C164.321 104.476 168.087 104.231 171.195 106.594C172.243 107.392 173.771 106.859 174.016 105.562C177.089 89.3412 193.957 79.4989 209.516 87.1469C214.868 89.7775 221.32 88.6428 225.274 84.1714C244.552 62.3677 276.355 67.0127 290.582 88.75C292.821 92.1712 297.489 92.8734 300.661 90.2983C304.569 87.1258 309.998 85.5547 315.466 87.9265C317.6 88.8516 320.014 87.6646 320.74 85.4507C326.162 68.9146 348.366 64.1976 359.407 79.6561C362.514 84.0064 367.465 86.5674 372.8 86.7004C379.676 86.8708 387.059 89.019 390 92.4598V158H0.000732422V122.59C5.42562 104.46 30.1048 94.3029 50.0961 100.713C53.5242 101.812 57.2986 100.244 58.9538 97.0399Z" fill="#B6BDCF"/>
<path d="M58.9538 97.0399C63.9005 87.4659 75.9929 82.0545 86.9058 87.7819C91.2574 90.0661 96.5973 89.5937 100.376 86.4478C116.029 73.4134 138.826 76.3068 145.048 100.302C145.342 101.437 146.682 101.985 147.662 101.346C151.857 98.6149 157.553 99.8129 158.957 105.162C159.265 106.332 160.591 106.946 161.598 106.278C164.321 104.476 168.087 104.231 171.195 106.594C172.243 107.392 173.771 106.859 174.016 105.562C177.089 89.3412 193.957 79.4989 209.516 87.1469C214.868 89.7775 221.32 88.6428 225.274 84.1714C244.552 62.3677 276.355 67.0127 290.582 88.75C292.821 92.1712 297.489 92.8734 300.661 90.2983C304.569 87.1258 309.998 85.5547 315.466 87.9265C317.6 88.8516 320.014 87.6646 320.74 85.4507C326.162 68.9146 348.366 64.1976 359.407 79.6561C362.514 84.0064 367.465 86.5674 372.8 86.7004C379.676 86.8708 387.059 89.019 390 92.4598V158H0.000732422V122.59C5.42562 104.46 30.1048 94.3029 50.0961 100.713C53.5242 101.812 57.2986 100.244 58.9538 97.0399Z" fill="#E0C7A6"/>
<path d="M0.000793457 79.4134C22.2666 68.3348 55.908 79.1913 66.6267 104.474C68.6102 109.152 73.4213 112.005 78.4561 111.407C94.5686 109.495 109.316 117.854 115.388 134.636C117.259 139.805 123.214 142.173 128.137 139.749C140.464 133.682 156.208 137.502 164.451 153.055C165.375 154.799 167.6 155.459 169.253 154.384C172.839 152.054 178.115 152.067 181.876 154.983C183.525 156.262 185.902 155.903 186.963 154.104C189.515 149.774 194.641 147.479 199.846 148.726C201.657 149.16 203.467 148.017 203.92 146.207C211.256 116.865 242.466 102.048 272.376 115.988C273.984 116.737 275.91 116.063 276.697 114.471C280.012 107.769 288.62 105.08 295.473 108.762C297.298 109.742 299.577 108.928 300.237 106.959C303.534 97.1154 314.467 91.6493 325.113 95.9276C329.625 97.741 334.785 96.3632 338.043 92.7456C353.557 75.5198 377.369 74.2365 390 82.3544V159H0L0.000793457 79.4134Z" fill="#F2F2F2"/>
</svg>
