<svg width="390" height="140" viewBox="0 0 390 140" fill="none" xmlns="http://www.w3.org/2000/svg">
<path d="M390 66.5016C377.336 58.3717 353.463 59.6572 337.909 76.9086C334.644 80.5312 329.47 81.911 324.946 80.0949C314.274 75.8104 303.312 81.2844 300.007 91.1425C299.345 93.1137 297.06 93.9299 295.23 92.9479C288.36 89.2608 279.729 91.9539 276.406 98.6663C275.617 100.26 273.686 100.935 272.074 100.185C242.087 86.224 210.798 101.063 203.443 130.449C202.989 132.262 201.173 133.406 199.357 132.971C194.139 131.723 189.001 134.022 186.442 138.357C185.379 140.159 182.995 140.518 181.342 139.238C177.571 136.318 172.281 136.305 168.687 138.639C167.029 139.714 164.799 139.053 163.872 137.306C155.608 121.731 139.824 117.906 127.466 123.981C122.53 126.408 116.559 124.037 114.684 118.86C108.596 102.054 93.81 93.6825 77.6562 95.5974C72.6087 96.1955 67.7855 93.339 65.7969 88.6545C55.0507 63.3343 22.323 52.461 0 63.5559V0H390V66.5016Z" fill="#F2F2F2"/>
</svg>
