<svg width="390" height="89" viewBox="0 0 390 89" fill="none" xmlns="http://www.w3.org/2000/svg">
<path d="M58.1043 27.0889C63.0638 17.5149 75.1871 12.1035 86.1281 17.8308C90.4909 20.1151 95.8444 19.6427 99.6325 16.4967C115.326 3.46239 138.181 6.35579 144.42 30.3514C144.715 31.4861 146.057 32.0343 147.04 31.3954C151.246 28.6639 156.956 29.8619 158.365 35.2107C158.673 36.3806 160.003 36.9945 161.012 36.3274C163.742 34.5249 167.518 34.2802 170.633 36.6434C171.684 37.441 173.216 36.9077 173.462 35.6111C176.543 19.3902 193.454 9.54791 209.053 17.1959C214.418 19.8265 220.887 18.6918 224.851 14.2204C244.179 -7.58332 276.063 -2.93827 290.327 18.7989C292.572 22.2202 297.252 22.9224 300.432 20.3473C304.35 17.1747 309.793 15.6037 315.275 17.9755C317.414 18.9006 319.834 17.7135 320.562 15.4997C325.998 -1.03644 348.259 -5.75346 359.328 9.70508C362.444 14.0553 367.407 16.6164 372.756 16.7493C379.649 16.9198 387.051 19.068 390 22.5088V88.049H0V52.6392C5.43881 34.5093 29.1813 24.3519 49.2239 30.762C52.6608 31.8614 56.4449 30.2928 58.1043 27.0889Z" fill="#B6BDCF"/>
<path d="M58.1043 27.0889C63.0638 17.5149 75.1871 12.1035 86.1281 17.8308C90.4909 20.1151 95.8444 19.6427 99.6325 16.4967C115.326 3.46239 138.181 6.35579 144.42 30.3514C144.715 31.4861 146.057 32.0343 147.04 31.3954C151.246 28.6639 156.956 29.8619 158.365 35.2107C158.673 36.3806 160.003 36.9945 161.012 36.3274C163.742 34.5249 167.518 34.2802 170.633 36.6434C171.684 37.441 173.216 36.9077 173.462 35.6111C176.543 19.3902 193.454 9.54791 209.053 17.1959C214.418 19.8265 220.887 18.6918 224.851 14.2204C244.179 -7.58332 276.063 -2.93827 290.327 18.7989C292.572 22.2202 297.252 22.9224 300.432 20.3473C304.35 17.1747 309.793 15.6037 315.275 17.9755C317.414 18.9006 319.834 17.7135 320.562 15.4997C325.998 -1.03644 348.259 -5.75346 359.328 9.70508C362.444 14.0553 367.407 16.6164 372.756 16.7493C379.649 16.9198 387.051 19.068 390 22.5088V88.049H0V52.6392C5.43881 34.5093 29.1813 24.3519 49.2239 30.762C52.6608 31.8614 56.4449 30.2928 58.1043 27.0889Z" fill="#D3D3D3"/>
<path d="M0 9.46228C22.323 -1.61629 55.0506 9.24019 65.7969 34.523C67.7855 39.2009 72.6089 42.0536 77.6567 41.4562C93.8105 39.5442 108.596 47.903 114.684 64.6847C116.559 69.8537 122.529 72.2215 127.465 69.7981C139.823 63.7314 155.608 67.5507 163.872 83.1038C164.799 84.8477 167.029 85.5077 168.687 84.4333C172.282 82.1029 177.571 82.1162 181.342 85.0323C182.995 86.3108 185.379 85.9519 186.442 84.1525C189.001 79.8234 194.14 77.5282 199.358 78.7747C201.174 79.2087 202.989 78.0662 203.443 76.2559C210.798 46.9137 242.087 32.0964 272.074 46.0371C273.686 46.7863 275.618 46.1122 276.407 44.52C279.729 37.8175 288.36 35.129 295.23 38.8107C297.06 39.7913 299.345 38.9764 300.007 37.0082C303.312 27.1644 314.273 21.6982 324.946 25.9765C329.47 27.79 334.644 26.4121 337.909 22.7946C353.463 5.56869 377.336 4.28544 390 12.4034V88.549H0V9.46228Z" fill="#F2F2F2"/>
</svg>
