<svg width="390" height="140" viewBox="0 0 390 140" fill="none" xmlns="http://www.w3.org/2000/svg">
<path d="M390 66.4033C377.336 58.2854 353.463 59.5691 337.909 76.7949C334.644 80.4122 329.47 81.7899 324.946 79.9766C314.274 75.6983 303.312 81.1642 300.007 91.0078C299.345 92.976 297.06 93.791 295.23 92.8105C288.36 89.1289 279.729 91.818 276.406 98.5205C275.617 100.112 273.686 100.786 272.074 100.037C242.087 86.0966 210.798 100.914 203.443 130.256C202.989 132.066 201.173 133.208 199.357 132.774C194.139 131.528 189.001 133.823 186.442 138.152C185.379 139.952 182.995 140.311 181.342 139.032C177.571 136.116 172.281 136.103 168.687 138.434C167.029 139.508 164.799 138.847 163.872 137.104C155.608 121.551 139.824 117.731 127.466 123.798C122.53 126.221 116.559 123.854 114.684 118.685C108.596 101.903 93.81 93.5441 77.6562 95.4561C72.6087 96.0533 67.7855 93.201 65.7969 88.5234C55.0507 63.2407 22.323 52.3835 0 63.4619V0H390V66.4033Z" fill="#F2EFEB"/>
</svg>
