<svg width="40" height="40" viewBox="0 0 40 40" fill="none" xmlns="http://www.w3.org/2000/svg">
<path fill-rule="evenodd" clip-rule="evenodd" d="M10.4167 13.3333C10.4167 8.04061 14.7073 3.75 20 3.75C25.2928 3.75 29.5834 8.04061 29.5834 13.3333V18.3333C29.5834 23.6261 25.2928 27.9167 20 27.9167C14.7073 27.9167 10.4167 23.6261 10.4167 18.3333V13.3333ZM20 6.25C16.088 6.25 12.9167 9.42132 12.9167 13.3333V18.3333C12.9167 22.2454 16.088 25.4167 20 25.4167C23.912 25.4167 27.0834 22.2454 27.0834 18.3333V13.3333C27.0834 9.42132 23.912 6.25 20 6.25ZM17.0834 13.3333C17.0834 12.643 17.643 12.0833 18.3334 12.0833H21.6667C22.357 12.0833 22.9167 12.643 22.9167 13.3333C22.9167 14.0237 22.357 14.5833 21.6667 14.5833H18.3334C17.643 14.5833 17.0834 14.0237 17.0834 13.3333ZM6.66669 15.4167C7.35704 15.4167 7.91669 15.9763 7.91669 16.6667V18.3333C7.91669 25.0068 13.3266 30.4167 20 30.4167C26.6735 30.4167 32.0834 25.0068 32.0834 18.3333V16.6667C32.0834 15.9763 32.643 15.4167 33.3334 15.4167C34.0237 15.4167 34.5834 15.9763 34.5834 16.6667V18.3333C34.5834 25.9664 28.719 32.2298 21.25 32.8638V36.6667C21.25 37.357 20.6904 37.9167 20 37.9167C19.3097 37.9167 18.75 37.357 18.75 36.6667V32.8638C11.281 32.2298 5.41669 25.9664 5.41669 18.3333V16.6667C5.41669 15.9763 5.97633 15.4167 6.66669 15.4167ZM15.4167 18.3333C15.4167 17.643 15.9763 17.0833 16.6667 17.0833H23.3334C24.0237 17.0833 24.5834 17.643 24.5834 18.3333C24.5834 19.0237 24.0237 19.5833 23.3334 19.5833H16.6667C15.9763 19.5833 15.4167 19.0237 15.4167 18.3333Z" fill="white"/>
</svg>
