<svg width="36" height="36" viewBox="0 0 36 36" fill="none" xmlns="http://www.w3.org/2000/svg">
<path fill-rule="evenodd" clip-rule="evenodd" d="M16.5261 4.20236C9.55607 4.93832 4.125 10.8349 4.125 18C4.125 25.663 10.337 31.875 18 31.875C25.1651 31.875 31.0617 26.4439 31.7976 19.4739C29.8075 22.0003 26.7189 23.625 23.25 23.625C17.2439 23.625 12.375 18.7561 12.375 12.75C12.375 9.28107 13.9997 6.19245 16.5261 4.20236ZM1.875 18C1.875 9.09441 9.09441 1.875 18 1.875C19.0749 1.875 19.6131 2.73189 19.7053 3.4144C19.7939 4.07096 19.5512 4.90598 18.7966 5.36201C16.294 6.87421 14.625 9.61774 14.625 12.75C14.625 17.5135 18.4865 21.375 23.25 21.375C26.3823 21.375 29.1258 19.706 30.638 17.2034C31.094 16.4488 31.929 16.2061 32.5856 16.2947C33.2681 16.3869 34.125 16.9251 34.125 18C34.125 26.9056 26.9056 34.125 18 34.125C9.09441 34.125 1.875 26.9056 1.875 18Z" fill="white"/>
</svg>
