<svg width="18" height="18" viewBox="0 0 18 18" fill="none" xmlns="http://www.w3.org/2000/svg">
<path fill-rule="evenodd" clip-rule="evenodd" d="M2.4375 16.5C2.4375 16.1893 2.68934 15.9375 3 15.9375H15C15.3107 15.9375 15.5625 16.1893 15.5625 16.5C15.5625 16.8107 15.3107 17.0625 15 17.0625H3C2.68934 17.0625 2.4375 16.8107 2.4375 16.5Z" fill="white"/>
<path d="M7.9297 11.8651C8.12061 11.7162 8.29378 11.543 8.64006 11.1967L13.0776 6.75919C12.4736 6.50782 11.7583 6.09492 11.0818 5.41841C10.4052 4.74179 9.99225 4.02635 9.74089 3.42234L5.30329 7.85994L5.30327 7.85996C4.957 8.20624 4.78384 8.37939 4.63494 8.5703C4.45928 8.79551 4.30868 9.03919 4.18581 9.29702C4.08164 9.51558 4.00421 9.74789 3.84934 10.2125L3.03267 12.6625C2.95646 12.8911 3.01596 13.1432 3.18638 13.3136C3.35679 13.484 3.60887 13.5435 3.8375 13.4673L6.28751 12.6507C6.75211 12.4958 6.98442 12.4184 7.20299 12.3142C7.46082 12.1913 7.70449 12.0407 7.9297 11.8651Z" fill="white"/>
<path d="M14.3089 5.52783C15.2304 4.60641 15.2304 3.11249 14.3089 2.19107C13.3875 1.26964 11.8936 1.26964 10.9722 2.19107L10.4399 2.72329C10.4472 2.7453 10.4548 2.76761 10.4626 2.79021C10.6577 3.3525 11.0258 4.0896 11.7182 4.78201C12.4106 5.47442 13.1477 5.84249 13.71 6.03757C13.7325 6.04538 13.7547 6.0529 13.7766 6.06016L14.3089 5.52783Z" fill="white"/>
</svg>
