<svg width="20" height="20" viewBox="0 0 20 20" fill="none" xmlns="http://www.w3.org/2000/svg">
<path fill-rule="evenodd" clip-rule="evenodd" d="M15.3032 2.54785C15.6484 2.54785 15.9282 2.82767 15.9282 3.17285V6.70838C15.9282 7.05356 15.6484 7.33338 15.3032 7.33338H11.7677C11.4225 7.33338 11.1427 7.05356 11.1427 6.70838C11.1427 6.36321 11.4225 6.08338 11.7677 6.08338H13.7347C11.3635 4.21415 7.9155 4.37338 5.72781 6.56107C3.3684 8.92049 3.3684 12.7459 5.72781 15.1053C8.08723 17.4647 11.9126 17.4647 14.272 15.1053C15.8527 13.5246 16.3752 11.2855 15.8365 9.26806C15.7474 8.93457 15.9456 8.59203 16.2791 8.50297C16.6126 8.41391 16.9551 8.61206 17.0442 8.94555C17.6933 11.3764 17.0649 14.0802 15.1559 15.9892C12.3083 18.8367 7.6915 18.8367 4.84393 15.9892C1.99636 13.1416 1.99636 8.52476 4.84393 5.67719C7.53728 2.98384 11.8134 2.83797 14.6782 5.23957V3.17285C14.6782 2.82767 14.958 2.54785 15.3032 2.54785Z" fill="#FFAA00"/>
</svg>
