<svg width="18" height="18" viewBox="0 0 18 18" fill="none" xmlns="http://www.w3.org/2000/svg">
<path fill-rule="evenodd" clip-rule="evenodd" d="M1.55201 3.75629C1.5 4.03196 1.5 4.36291 1.5 5.02481V10.3125C1.5 13.1409 1.5 14.5551 2.37868 15.4338C3.25736 16.3125 4.67157 16.3125 7.5 16.3125H10.5C13.3284 16.3125 14.7426 16.3125 15.6213 15.4338C16.5 14.5551 16.5 13.1409 16.5 10.3125V8.66093C16.5 6.68665 16.5 5.69951 15.9229 5.05787C15.8698 4.99885 15.8136 4.94268 15.7546 4.8896C15.113 4.3125 14.1258 4.3125 12.1516 4.3125H11.8713C11.0061 4.3125 10.5734 4.3125 10.1703 4.19758C9.94879 4.13445 9.73533 4.04603 9.53409 3.93407C9.16775 3.73025 8.86183 3.42433 8.25 2.8125L7.83731 2.39981C7.63224 2.19474 7.52971 2.09221 7.42196 2.00289C6.95739 1.61778 6.38749 1.38171 5.78668 1.32553C5.64732 1.3125 5.50232 1.3125 5.21231 1.3125C4.55041 1.3125 4.21946 1.3125 3.94379 1.36451C2.73023 1.59348 1.78098 2.54273 1.55201 3.75629ZM9 8.25C9.31066 8.25 9.5625 8.50184 9.5625 8.8125V9.75H10.5C10.8107 9.75 11.0625 10.0018 11.0625 10.3125C11.0625 10.6232 10.8107 10.875 10.5 10.875H9.5625V11.8125C9.5625 12.1232 9.31066 12.375 9 12.375C8.68934 12.375 8.4375 12.1232 8.4375 11.8125V10.875H7.5C7.18934 10.875 6.9375 10.6232 6.9375 10.3125C6.9375 10.0018 7.18934 9.75 7.5 9.75H8.4375V8.8125C8.4375 8.50184 8.68934 8.25 9 8.25Z" fill="white"/>
</svg>
