<svg width="16" height="16" viewBox="0 0 16 16" fill="none" xmlns="http://www.w3.org/2000/svg">
<g clip-path="url(#clip0_452_30551)">
<path d="M10.7426 14.6213C9.43304 15.1637 7.99206 15.3057 6.60187 15.0291C5.21167 14.7526 3.93469 14.07 2.93241 13.0678C1.93014 12.0655 1.24758 10.7885 0.971052 9.39831C0.694525 8.00811 0.836449 6.56714 1.37888 5.2576C1.9213 3.94806 2.83987 2.82878 4.01843 2.0413C5.19698 1.25381 6.58258 0.833496 8.00001 0.833496C8.27616 0.833496 8.50001 1.05735 8.50001 1.3335C8.50001 1.60964 8.27616 1.8335 8.00001 1.8335C6.78036 1.8335 5.5881 2.19517 4.574 2.87277C3.55989 3.55037 2.7695 4.51347 2.30276 5.64028C1.83602 6.76709 1.7139 8.007 1.95184 9.20322C2.18978 10.3994 2.7771 11.4982 3.63952 12.3607C4.50195 13.2231 5.60074 13.8104 6.79696 14.0483C7.99317 14.2863 9.23308 14.1642 10.3599 13.6974C11.4867 13.2307 12.4498 12.4403 13.1274 11.4262C13.805 10.4121 14.1667 9.21982 14.1667 8.00016C14.1667 7.72402 14.3905 7.50016 14.6667 7.50016C14.9428 7.50016 15.1667 7.72402 15.1667 8.00016C15.1667 9.4176 14.7464 10.8032 13.9589 11.9818C13.1714 13.1603 12.0521 14.0789 10.7426 14.6213Z" fill="white"/>
<path d="M9.79131 1.05924C9.52388 0.990406 9.25129 1.1514 9.18246 1.41883C9.11363 1.68625 9.27462 1.95884 9.54205 2.02767C11.7083 2.58523 13.4149 4.2918 13.9724 6.45806C14.0413 6.72548 14.3139 6.88648 14.5813 6.81765C14.8487 6.74882 15.0097 6.47622 14.9409 6.2088C14.2925 3.6897 12.3104 1.70761 9.79131 1.05924Z" fill="white"/>
</g>
<defs>
<clipPath id="clip0_452_30551">
<rect width="16" height="16" fill="white"/>
</clipPath>
</defs>
</svg>
