<svg xmlns="http://www.w3.org/2000/svg" width="28" height="28" fill="none" viewBox="0 0 28 28"><path fill="#fc1a0a" fill-rule="evenodd" d="M16 27h-1q-.4 0-.3-.6.1-.4.5-.1l.3-.1h.1q-.2-.1 0-.4h.3c.2-.2 0-.5.3-.6q.3 0 .5.2l.5.2c.2.1.4-.2.5.1s.3.7 0 1h-.3q0-.2-.2-.2 0-.4-.2-.4t-.4.3v.1q-.2.3 0 .3l.4.1v.1q-.6.2-1 0" clip-rule="evenodd"/><path fill="#fd5549" fill-rule="evenodd" d="m10 26.6-.3-.1v-.1l.3-.6.1-.5c.2-.3-.2-.4-.1-.6q.8-.1 1.4-.6.3 0 .3.3c0 .1-.4.2-.1.5v.2c-.5 0-.3.4-.3.6q.1.7-.5.3v.6z" clip-rule="evenodd"/><path fill="#fd594f" fill-rule="evenodd" d="M0 15.1q0-1.4.2-2.7l.1-.4h.3q.3.4.3.8l.1.4q.2 0 .2.3l-.2.3-.1.1v.1l-.1.2v.3c-.2 0-.5-.3-.4.1v.1l-.1.2-.1.3z" clip-rule="evenodd"/><path fill="#fd5a4f" fill-rule="evenodd" d="M25.7 20.8q-.3.1-.2.3l-.2.3q-.2.2-.3 0-.2-.2.1-.5c-.4.3-.5-.1-.6-.3.1-.5-.4-.7-.5-1.2h.1l.1-.1h.6q.3 0 .2.4-.2.4.2.6l.1-.1.1-.2q.1-.2.4-.1v.2c.2.3-.1.5-.1.7" clip-rule="evenodd"/><path fill="#fd5448" fill-rule="evenodd" d="m2.5 5.7.4-.2H3V6h-.2q-.2.3 0 .4.3 0 .4.3v.1c0 .2.4.2.3.5q0 .2-.2.2h-.8q-.4 0-.5-.3V7q.3-.3.7-.2-.5 0-.5-.4t.3-.8" clip-rule="evenodd"/><path fill="#fd827b" fill-rule="evenodd" d="m7 1.4.2-.1h.2l.3-.2H8l.2-.1h.1l.1-.1.5-.2h.5l.1.1V1l-.1.2-.4.1h-.3l-.1.1c-.3.3-.6 0-.8.2l-.2.2-.4.2H7v-.5" clip-rule="evenodd"/><path fill="#fc2618" fill-rule="evenodd" d="m15.6 26.2-.1.1-.2.3v-.1l-.2-.2H15q-.2 0-.2.2l.2.4h.4l.2.1h-1.1l-.2-.2v-.1q.4-.4.4-.8h1z" clip-rule="evenodd"/><path fill="#fd8880" fill-rule="evenodd" d="m26.4 15.2.2.4v.7l-.2.2-.2.2-.3.2q-.2-.4.1-.6h.2-.1q-.2-.7.3-1" clip-rule="evenodd"/><path fill="#feaba6" fill-rule="evenodd" d="M26.2 18.3v.2h-.5l-.1-.2-.2-.7v-.1l.4-.1h.2v.6l.2.2z" clip-rule="evenodd"/><path fill="#fd9c96" fill-rule="evenodd" d="M9.7.5h.8v.2H10V1h-.1l-.2.1h-.1V.7h-.2L9.3.5zq0-.2.1 0" clip-rule="evenodd"/><path fill="#feaba6" fill-rule="evenodd" d="M26 16.9q0-.3.2-.3t0 .2v.5h-.3v.1q-.5-.3 0-.5" clip-rule="evenodd"/><path fill="#fda29b" fill-rule="evenodd" d="M25.8 18.5h.2l.2.1-.1.3v.2l-.2-.1-.1-.1z" clip-rule="evenodd"/><path fill="#fea9a4" fill-rule="evenodd" d="M26.7 9.3q.3.2 0 .3h-.2q-.5 0-.3-.4l.1-.1h.1z" clip-rule="evenodd"/><path fill="#fd7c73" fill-rule="evenodd" d="M10.5.6H10q.1-.4.5-.3h.2v.3z" clip-rule="evenodd"/><path fill="#fea5a0" fill-rule="evenodd" d="M26.4 9h.2q.2 0 0 .2h-.2z" clip-rule="evenodd"/><path fill="#fd857d" fill-rule="evenodd" d="M4.1 3.9v-.2h.1l.3.2z" clip-rule="evenodd"/><path fill="#fd4235" fill-rule="evenodd" d="M14.2 27v-.1q0-.2 0 0h.3z" clip-rule="evenodd"/><path fill="#fc2b1c" fill-rule="evenodd" d="M17.6 25.7h-.3q-.2-.4.1-.5l1-.8q.2-.1.4 0-.1-.4.4-.4l.3-.1q.3-.2.4 0l-.4 1.1-.1.3v.2q-.2 0-.3.2-.5 0-.3-.6 0-.2 0 0h-.2q-.4 0-.6.4 0 .2-.2.3z" clip-rule="evenodd"/><path fill="#fd3528" fill-rule="evenodd" d="M17.5 25.2q0 .2-.2.2v.3l-.7-.2-.2-.2h-.3q.1.4-.2.5h-.3l-.3.1h-.7l-.2-.2q-.1-.6.4-.3h.1q.5.3.9-.2t.9-.4q.1-.1.3.1v.2q0 .2.2 0z" clip-rule="evenodd"/><path fill="#fc1100" fill-rule="evenodd" d="M17.5 27h-.9l-.3-.2.1-.3h.1l.1-.3.4-.3.2.2v.4q.3 0 .2.2h.2q.3 0 .2.2z" clip-rule="evenodd"/><path fill="#fc1100" fill-rule="evenodd" d="M17.6 25.7h.1c.3 0 .5-.3.8 0v.1l.1.1q-.2.9-1 .8v-.9" clip-rule="evenodd"/><path fill="#fc2618" fill-rule="evenodd" d="M15.6 25.8h.3q0 .3-.3 0m0 .4" clip-rule="evenodd"/><path fill="#fd5d52" fill-rule="evenodd" d="M11.6 24.4v-.1l-.2-.1q-.2.2-.3.1l-.2.1-.3.4-.4-.1h-.4q-.4-.6-1.1-.5-.6.1-.9-.4 0-.2-.3 0h-.4l-.5-.1q-.5 0-.3-.4h.1l.6-.1v-1q-.2-.4.1-.6t.4.1q.2.6.9 1-.1.2.4.2.5-.1.5.4 0 .3.2.4.7.3 1 0v-.3q0-.3.4-.2.3 0 .1-.2c-.2 0-.4-.4-.7-.3q-.7.2-.5-.5.2 0 .2-.3.3 0 .5-.2.3-.5.6 0t.6.1q-.4 0-.6-.2 0-.3.3-.5l.5-.3q.5-.4.7.2l.1-.2q.1-.2.4-.2t.2.3.4.6q.2 0 .3.3t-.2.3-.4.2q-.1.4.2.4l.1.1v.1c-.3.1 0 .3 0 .4q-.1.6-.4.2h-.6q-.4 0-.3.3 0 .6-.6.7z" clip-rule="evenodd"/><path fill="#fd4235" fill-rule="evenodd" d="m13.7 26.8-.4.2-.6-.2c-.4 0-.2-.3-.2-.6q-.2.6-1.4.4h-.4l-.2-.7.6.2v-.4q0-.3.2-.2t.3.3.2.3q.2-.3 0-.3-.2-.3 0-.6.1-.3.5-.2l.5.1.2.2.1.2q-.1.3.2.2v.1q.1.3.4.1.5-.1.8.2.2.8-.6.6 0-.2-.3-.2l-.4-.1H13l.1.3z" clip-rule="evenodd"/><path fill="#fd4539" fill-rule="evenodd" d="m9.8 24.7.1.2q.2 0 .2.3v.1q-.2 0-.2.3l-.1.7c0 .3-.2 0-.2 0q-.4.2-.6-.1l.2-.2q.2 0 .1-.2l-.2-.2q-.3.2-.5 0-.2 0-.4-.3 0 .3-.3.3-.3-.1-.3-.4.2-.3.6-.3h.4q.1-.2.3-.1.5.3.8 0" clip-rule="evenodd"/><path fill="#fd4c40" fill-rule="evenodd" d="m12.7 25.2-.6-.1H12v.3h-.1v.2q.4.2.3.5h-.3l-.1.1-.3-.1q.3-.4-.1-.6l-.2.2v-.4L11 25h.5v-.2h-.2l-.1-.2.5-.2q.3.5.7.2t.3 0q.2.4.1.6" clip-rule="evenodd"/><path fill="#fd584d" fill-rule="evenodd" d="M8.7 25.6q0-.2.3 0 .2-.3.3-.1.2 0 .2.3l.1.2-.4.1v.1l.5.2H9l-.5-.3-.2-.2q.3 0 .2-.2z" clip-rule="evenodd"/><path fill="#fd6c63" fill-rule="evenodd" d="M1.8 7q.1 0 0-.2h.4l-.2.4-.1.4-.3 1q0-.5 1-.6l.8.1q.5.2.5.8-.3.3-.5-.2v.9q0 .4-.3.4-.4 0-.6-.3v-.2l-.3-.1q-.2 0-.2.2l-.2.6c-.3 0-.1-.5-.4-.5l.2.4q.1.2.2 0 .5 0 .3.7l-.2.4q.2.1.4 0 .3.2.3.6 0 .2-.3.2-1.1.2-.7 1.4l.4.4q.3.3 0 .5t-.8.3q-.2 0-.5-.4V14l.2-.2.2-.4-.1-.2-.2-.1v-.7l-.2-.2V12q0-.1-.2 0 0-.5.2-.7v-.1q0-.6.3-1v-.7l.2-.8.2-.4.3-.8z" clip-rule="evenodd"/><path fill="#fd6257" fill-rule="evenodd" d="m.7 14.2.5.4v.3h.1l.1.1q.4.3.4.6t-.3.5v.2q.6.3.3.8v.3q-.3.2 0 .4l.3.7v.1l.1.3.1.2.3.3v.5h-.5v-.1q-.2-.4-.6-.6V19l-.2-.6H1L.8 18v-.2q-.2-.2-.2-.5.3 0 .3.3l.2.3v-1.3H1l-.2-.2H.5v-.2l.1-.1h.1q.2 0 .2-.3-.3-.7-.1-1.4z" clip-rule="evenodd"/><path fill="#fc3225" fill-rule="evenodd" d="M.2 15.6v-.8h.1v-.1q.5-.1.5.3t0 .8v.2l-.1.1-.2.1c-.4 0-.2-.4-.3-.6" clip-rule="evenodd"/><path fill="#fd4337" fill-rule="evenodd" d="M.7 16q.2 0 0-.2-.3 0-.1-.2v-.3q.2-.5-.3-.5v-.5h.2q0 .3.3.2.1.1 0 .4v.4l.2.6q0 .3-.3.2" clip-rule="evenodd"/><path fill="#fd6257" fill-rule="evenodd" d="M1 13.5q.3.3-.1.4zm-.1.4-.1.2-.1-.2z" clip-rule="evenodd"/><path fill="#fd4e42" fill-rule="evenodd" d="m24 19.4.3.4.2.1q.1 0 0 .2v.5h-.2l.2.1v.3h-.1v.2l.2.1v.4h-.4q-.6-.5-1.4-.2 0 .3.3 0l.6.3q.2 0 .2.2t-.2.2h-.3l-.2.1H23q-.2-.2 0 .1-.3.3-.6 0 0-.5-.2-.8l-.1-.3H22q-.6.2-.7-.4 0-.2-.2-.3v-.3l.1-.1.1-.1q0-.2.2-.3t.3.2q0 .2-.2.3l.1.1q0 .2.2.2t0-.3l-.1-.3.1-.6q-.3 0-.3-.4l.3-.1q.3 0 .4-.3.3-.6.9-.1.3 0 .5.3v.2q-.4-.1-.4.4v.3c-.3.5-.3.5.2.9q0-.4.4-.6l-.2-.2q-.1-.4.4-.4" clip-rule="evenodd"/><path fill="#fd4235" fill-rule="evenodd" d="M24.4 21.3v-.7h.1l.2.1v.2h.2l.1-.2.2.1q0 .4-.2.4v.5l-.2.2q-.3.2-.3.6l-.1.1q0 .3-.3.3l-.6-.3-.2-.4.5-.2v-.1h-.2q-.3 0-.4-.2l-.1-.1h-.2l-.1-.1v-.2H24l.5.3h.1v-.3" clip-rule="evenodd"/><path fill="#fd4439" fill-rule="evenodd" d="M25.3 20.2v.3q-.2 0-.2-.2l-.2-.1v-.7l-.6-.1q0-.7.6-.4c.1 0 0 .3.2.1h.3c-.2.3.2.5.1.7v.3z" clip-rule="evenodd"/><path fill="#fd756b" fill-rule="evenodd" d="M25.4 20.1v-.5l-.1-.2V19l.4-.5h.1v.4l.2.9-.1.1h-.3q0 .3-.2.2" clip-rule="evenodd"/><path fill="#fd4439" fill-rule="evenodd" d="m24 19.4-.3.2v.2l-.2.3h-.1v-.7h.2l.1-.3v-.5h.5v-.1h.2v.2c.2.2-.2.3-.1.6l-.1.1z" clip-rule="evenodd"/><path fill="#fc3326" fill-rule="evenodd" d="M24.3 19.3 24 19h.2l.1-.1v-.2q.6-.2.8.4H25l-.4-.1z" clip-rule="evenodd"/><path fill="#fd4e42" fill-rule="evenodd" d="M24.3 19.3v.1h-.1" clip-rule="evenodd"/><path fill="#fc1000" fill-rule="evenodd" d="M17.5 26.7h.1q.3-.3.7-.2l-.1-.3.3-.1v-.3q.3-.1.5.1l.4-.4 1-.7.4-.8q.3-.4.5-.3h.2l.2.2.4.2.2.1v.4h-.1l.3.1-.5.3h-.2.1l-.3.3q-.2.3-.6.5-.3 0-.3-.2l-.4.6-.4.2q-.5 0-.8.3h-.6l-.7.1h-.1z" clip-rule="evenodd"/><path fill="#fd5347" fill-rule="evenodd" d="m23.5 23.6-.3.5-.6.4h-.1l-.1-.1v-.2l.2-.3h.1l.1-.2q.1-.9.6-.2z" clip-rule="evenodd"/><path fill="#fc2a1b" fill-rule="evenodd" d="M20.3 26.2v-.3l.4-.4h.1v.2h.2q0 .5-.6.5z" clip-rule="evenodd"/><path fill="#fc1c0d" fill-rule="evenodd" d="m21.8 25 .6-.3h-.5l.2-.1.2-.1h.1q.2 0 .1.2l-.5.5-.4.1zq.1 0 0-.1" clip-rule="evenodd"/><path fill="#fc1100" fill-rule="evenodd" d="M17.8 26.8h.7q-.3.2-.7 0" clip-rule="evenodd"/><path fill="#fd5347" fill-rule="evenodd" d="M23.7 23.3v.1l-.2.2q0-.4.2-.3" clip-rule="evenodd"/><path fill="#fc3023" fill-rule="evenodd" d="M22.5 24.7v-.2q.3 0 0 .2" clip-rule="evenodd"/><path fill="#fd6055" fill-rule="evenodd" d="M2.7 8q0 .2-.3 0-.2 0-.3.2l-.2.1q-.2 0-.2.2v.2h-.1q-.1 0 0 0l-.2-.1.1-.1.2-.5.2-.8H2v.1l.4.1.1.1q.3.2.2.4" clip-rule="evenodd"/><path fill="#fd463a" fill-rule="evenodd" d="M3.1 6.8q0-.2-.3-.3l-.2-.1v-.5H3v-.6h.6v.3q-.5.2 0 .5v.2l-.2.2v.1z" clip-rule="evenodd"/><path fill="#fd6c63" fill-rule="evenodd" d="m3.3 7.4.2-.1.1-.2.1-.3.3-.1.1.2.1.5-.1.6q-.2.5-.5 0z" clip-rule="evenodd"/><path fill="#fd6055" fill-rule="evenodd" d="M3.6 5.4h-.1v-.1H3v.2h-.2v-.3l.2-.1.2-.3q.3 0 .3-.2t.2-.3H4l-.2.8q0 .2-.2.3" clip-rule="evenodd"/><path fill="#fd5e54" fill-rule="evenodd" d="M3.3 7.4q0 .2.3.3V8l-.2.2h-.1L2.7 8l.1-.4z" clip-rule="evenodd"/><path fill="#fd6055" fill-rule="evenodd" d="m2 7.2.2-.4q-.2 0 0-.2 0-.2 0 0l.2.1H3l-.1.2h-.4z" clip-rule="evenodd"/><path fill="#fd463a" fill-rule="evenodd" d="M3.7 7.2h-.2L3.2 7q-.1 0 0-.1h.2q.2 0 .3.3" clip-rule="evenodd"/><path fill="#fd5e54" fill-rule="evenodd" d="m2.5 7.5.2-.1.2.1q-.3.1-.4 0" clip-rule="evenodd"/><path fill="#fd4e42" fill-rule="evenodd" d="M3.4 6.9h-.3v-.1q.2 0 .2-.3v.1l.1.1zm-.6-1.1-.1.1m.3-.1" clip-rule="evenodd"/><path fill="#fd5347" fill-rule="evenodd" d="M10.6.6q.3-.3.6-.1l.7-.2h.2q.1-.3.4-.1h.1l-.6.6-.8.3q.1.5 0 .8v.6H11q-.3 0-.3-.2c0-.7-.3-.3-.5-.2H10q-.2 0-.2.4 0 .3-.5.3l-.2-.3-.7-.1q0-.3.3-.4c-.5.1-.7-.4-1.1-.5v-.1h.7l.2-.1v-.1H9v.2q.4 0 .5-.4.1-.2.2 0h.2V.7h.3q.3 0 .5-.2" clip-rule="evenodd"/><path fill="#fd4033" fill-rule="evenodd" d="M7.7 1.5h.6l-.1.3h.3l.3.1.1.2h-.3l-.1.3H8q-.1-.5-.6-.5v-.2h.2z" clip-rule="evenodd"/><path fill="#fd4e42" fill-rule="evenodd" d="m6.4 2 .4-.2h.5l.1.1V2h-.2l-.4.1-.2.2v.1l-.2.2-.2.1v.1c-.3 0-.5.4-.8.3v-.2l.3-.4H6l.1-.2q0-.2.2-.2z" clip-rule="evenodd"/><path fill="#fd4235" fill-rule="evenodd" d="M9.5 1v.2l-.3.2q0 .2-.3.1h-.3l.2-.2.1-.1.5-.2" clip-rule="evenodd"/><path fill="#fd5a4f" fill-rule="evenodd" d="M9.2.7h.3l-.1.1z" clip-rule="evenodd"/><path fill="#fd766c" fill-rule="evenodd" d="M9.4.8V.7l.2.1z" clip-rule="evenodd"/><path fill="#fd5a4f" fill-rule="evenodd" d="M9.5.8V1m0 0" clip-rule="evenodd"/><path fill="#fd4e42" fill-rule="evenodd" d="m7.6 1.6-.1.1m-.1 0v.1h-.1z" clip-rule="evenodd"/><path fill="#fd3e30" fill-rule="evenodd" d="M26 16.9q-.4.2-.1.5l-.4.1-.3-.1q0 .3-.2.5l-.1.1q-.3.1-.3-.2h-.1v-.2h-.2l-.3-.3v-.1q0-.2.3-.1l.4.1q-.2-.3-.5-.1l-.6-.2v-.4l.2-.1h.7q-.3-.6-.3-1h1q.4 0 .6-.2c0-.2-.3-.5.1-.6l.3-.2q0-.2.3 0v.7q-.2 0 0 .1-.3.3-.3.5l-.1.4v.2l-.2.2z" clip-rule="evenodd"/><path fill="#fc3729" fill-rule="evenodd" d="M26.5 14.3q-.2 0-.2.2 0 .4-.3.2l-.4-.5q-.2-.3.2-.4.3 0 .5-.2c-.5.1-.8-.5-1.3-.3q-.2 0-.3-.2v-.3h.1l.3-.2.1.1q.4.5.8 0 .3 0 0-.4-.1-.2-.2.1-.2.4-.6.3l.1-.8q.2-.3 0-.6V11l.4-.1q.4 0 .3.3-.2.4.3.5.3.1.5-.1.3.2.1.5v2h-.1z" clip-rule="evenodd"/><path fill="#fe938c" fill-rule="evenodd" d="m26.8 14-.2-.2q0-.4.3-.4l.2.1-.1.4zm.3 0H27zm-.4.1" clip-rule="evenodd"/><path fill="#fc3b2d" fill-rule="evenodd" d="M26.4 9H26l-.2-.5-.7-1.1-.1-.2v-.1l-.2-.2v-.1l.1-.3h.1l.6.9q0 .2.3.2 0 .3.2.5v.2q0 .3.2.2v.1z" clip-rule="evenodd"/><path fill="#fd3e31" fill-rule="evenodd" d="M23.5 4.7h.1q0 .3.2.5.3 0 .5.4l.5.7.2.3h-.3l-.1-.1L24 6v-.1l-.1-.2a2 2 0 0 1-.8-1q.3-.2.4 0" clip-rule="evenodd"/><path fill="#fd3528" fill-rule="evenodd" d="M14 26.7q.4 0 .5-.4V26l.1-.2v.3q.2.5-.3.5l-.1.1v.1h-.4v-.3z" clip-rule="evenodd"/><path fill="#fd6c63" fill-rule="evenodd" d="M2.1 19.9h.2l.3-.1-.1-.4-.3-.3.5-.4q.7-.5 1.4-.3l.5.2q.3 0 .3.2l-.2.2-.4.2v.3l.2-.1q.2-.3.4-.1.5.2.8-.1.5-.2.5.3l-.1.2q-.1.5.3.4h.3q-.3-.1-.2-.3t.2-.2q.3 0 .5.2.3.5-.2.7-.3 0-.4.2l-.2.3q0 .3-.2.3h-.1q-.5 0-.3-.4l-.1.2h-.1q.3.3.1.5c-.1.2-.3-.1-.5 0H5v-.2l-.5-.2-.2-.3q-.1-.6-.6-.2l.2.2v.3q0 .2-.2.1l-.2.1h-.2l-.5-.7.3-.2q-.2-.1-.3.2l-.3-.2v-.1z" clip-rule="evenodd"/><path fill="#fd5e54" fill-rule="evenodd" d="m3.5 21.4-.1-.3h.3q.1.2.2 0V21l-.4-.2.3-.3h.3l.2.1.1.2q.2 0 .2.3l.4.4h.1q0 .4-.3.7.3-.1.3.4-.1.3-.5.2h-.1l-.1-.3-.3-.3L4 22l-.3-.3z" clip-rule="evenodd"/><path fill="#fd6c63" fill-rule="evenodd" d="M3.9 21.9q.2 0 .2.3zm-.3-.3q.3 0 .3.3zm-.1-.2v.2z" clip-rule="evenodd"/><path fill="#fd8780" fill-rule="evenodd" d="m5.4 3-.1.3H5L4.7 3l.4-.2z" clip-rule="evenodd"/><path fill="#fd5044" fill-rule="evenodd" d="M8.8 25h-.6q0 .3-.2.2h-.2v.1l.1.1.1.2-.5-.3-.2-.2c0-.4.3-.1.4-.3q-.3-.2 0-.5l-.1-.5v-.2h.2q.3 0 .3.3v.2h.7q.3.3 0 .8" clip-rule="evenodd"/><path fill="#fd5044" fill-rule="evenodd" d="M6.3 23.3v.3h.3q.3-.2.5 0l.2.2h.2q.2.7-.6.7h-.8v-.6h-.2l-.1-.1v-.3q.1-.4.5-.3z" clip-rule="evenodd"/><path fill="#fd5b51" fill-rule="evenodd" d="m6.3 24.6.5-.3.3.1h.2l.2-.2v-.4l.1.1.2.3-.2.2q-.1.1 0 .2v.1l.3.3h-.6l-.1.1z" clip-rule="evenodd"/><path fill="#fd5044" fill-rule="evenodd" d="M8.7 25.6v.2l-.2.1h-.1q-.3 0-.4-.3l.2-.1.1-.3h.1v.1q.2 0 .3.3" clip-rule="evenodd"/><path fill="#fd5d52" fill-rule="evenodd" d="M6 23.8h.2v.2q-.3 0-.2.4l-.3-.3z" clip-rule="evenodd"/><path fill="#fd675d" fill-rule="evenodd" d="m6 23.8-.3.3v-.3z" clip-rule="evenodd"/><path fill="#fd5145" fill-rule="evenodd" d="M24.6 17.8v.2h.3v-.3q.3 0 .1-.2l.2-.3q0 .2.3.3l-.5 1.2q-.2 0-.2-.2v-.1h-.4q-.4-.4.1-.6z" clip-rule="evenodd"/><path fill="#fd6156" fill-rule="evenodd" d="M25 18.7v-.2q0-.3.2-.5v-.3l.2-.1.1.2q.3.2.1.5t-.5.4m.5-.4.1.2z" clip-rule="evenodd"/><path fill="#fd8c84" fill-rule="evenodd" d="M26.8 12v-.2l-.1-.2-.1-.3V11l.2-.2v-.2h.3v.4l.1.4v1h.1v.6l-.2-.2q-.2 0 0-.2V12z" clip-rule="evenodd"/><path fill="#fd675d" fill-rule="evenodd" d="M4.6 22.8q.3 0 .5-.2v-.2l-.4-.1-.2-.2V22H5l-.2-.1H5l.2-.2.1-.2h.2l.2.2q.2-.1 0-.3v-.6h.2v.2q0 .3.3.4.1.7-.4 1.2-.2.3.2.4.3 0 0 .3t-.2.5h-.1l-.2-.1q0-.3-.3-.4z" clip-rule="evenodd"/><path fill="#fd3c2f" fill-rule="evenodd" d="M15 .2h1.2l.5.1q0 .3-.4.3l.6.3q.4.3.1.6-.2.3-.3 0l-.7-.1-.2-.2q-.3-.3-.5-.1-.4.4-1 0-.4-.2-.4-.5.1-.2.5 0z" clip-rule="evenodd"/><path fill="#fd4a3f" fill-rule="evenodd" d="m15 .2-.3.4q-.2.2-.5 0l-.3.1.5.4q0 .3-.3.4-.5.5-.5-.3.2-.4-.1-.4-.5 0-.4-.5l.2-.1h.3V0h1.2z" clip-rule="evenodd"/><path fill="#fd5c51" fill-rule="evenodd" d="M11.1 26.7h.2q.5-.3 1-.2v-.4h.1q.3.1.1.4 0 .2.2.3H11z" clip-rule="evenodd"/><path fill="#fc2b1c" fill-rule="evenodd" d="m16 1.4.2-.1h.1q.3 0 .4.2h.2l.1-.2V1q-.4-.4-.9-.4l.3-.1.3-.1q.6-.1 1.1.2l.5.2.6.2.2.2.2.1v.3l.1.1v.2q-.4.1-.5-.2 0 .3-.2.3l-.5.1h-.5l.1-.4q.3-.3-.1-.5-.2 0-.3-.2-.1 0 0 0v1.3h-.1l-.6-.3q-.5 0-.7-.6" clip-rule="evenodd"/><path fill="#fd6e64" fill-rule="evenodd" d="m12.7.2.1-.2z" clip-rule="evenodd"/><path fill="#fd483c" fill-rule="evenodd" d="M.2 15.6v.2q0 .3.3.4h.3l.2.1.1.3q0 .4.2.7 0 .4-.3.4l-.3-.4-.1-.2-.2-.2-.2-.9z" clip-rule="evenodd"/><path fill="#fd766c" fill-rule="evenodd" d="M10.6.6q-.2.4-.5.3 0-.3.2-.2z" clip-rule="evenodd"/><path fill="#fd7c73" fill-rule="evenodd" d="M10.3.7q-.2 0-.2.2h-.2V.7q.3-.3.4 0" clip-rule="evenodd"/><path fill="#fd9c96" fill-rule="evenodd" d="M11.3.5h-.6V.4l.3-.1h.2q.3 0 0 .3" clip-rule="evenodd"/><path fill="#fc3629" fill-rule="evenodd" d="m21 2.5.3.1V3q-.1.3-.5.4-.3-.2 0-.5h-.2q-.2 0-.1-.2 0-.3.4-.2z" clip-rule="evenodd"/><path fill="#fd4c3f" fill-rule="evenodd" d="M21.7 3h.2q.2.4.5.5t.1.2c-.2 0-.3.4-.6.2v-.1l-.2-.2z" clip-rule="evenodd"/><path fill="#fd7d73" fill-rule="evenodd" d="M22.5 3.7v-.2h.1l.1.2q0 .3.4.3 0 .4.3.6l.1.1h-.3l-.7-.7z" clip-rule="evenodd"/><path fill="#fc3629" fill-rule="evenodd" d="M21.4 2.8h.1V3zm.1.1h.2V3z" clip-rule="evenodd"/><path fill="#fd6e64" fill-rule="evenodd" d="M13.3.2q0 .3-.3.2l-.2-.1V.2zm.3-.1h-.3z" clip-rule="evenodd"/><path fill="#fc3023" fill-rule="evenodd" d="M23.7 23.3q-.2 0-.3.3l-.3-.3H23v.2q0 .3-.2.4l-.2-.4q.3-.5-.1-.8 0-.2.2-.1l.2-.1q.1-.2.4-.3l.3.3q.3 0 .5.4z" clip-rule="evenodd"/><path fill="#fd7269" fill-rule="evenodd" d="m25.9 19-.1-.1h.1" clip-rule="evenodd"/><path fill="#fc1303" fill-rule="evenodd" d="m26 9 .3.2v.2l.1.2h.2v.7q-.4.6-.9.2l-.2-.2v-.5l.1-.2h.1z" clip-rule="evenodd"/><path fill="#fd6f66" fill-rule="evenodd" d="m26.6 9.3-.2-.1z" clip-rule="evenodd"/><path fill="#fd8780" fill-rule="evenodd" d="m4.6 3.4.3-.2q.3.2.2.3-.2.3-.4.2z" clip-rule="evenodd"/><path fill="#fd6055" fill-rule="evenodd" d="M4.7 3.7q0-.2.2-.2 0 .6-.6.4v-.2zm-.7.5.1-.3q.3 0 .4.4-.3.2-.4 0" clip-rule="evenodd"/><path fill="#fd5d53" fill-rule="evenodd" d="M26.5 10.3v-.2q.2 0 .1.1v.1l.2.3v.2l-.1.1-.3-.2z" clip-rule="evenodd"/><path fill="#fd5d53" fill-rule="evenodd" d="m27 10.5-.1.1h-.1v-.3h.2z" clip-rule="evenodd"/><path fill="#fc3124" fill-rule="evenodd" d="m14 26.7-.2.1H13l-.3-.2.2-.4h.3l.2.2h.5z" clip-rule="evenodd"/><path fill="#fd4235" fill-rule="evenodd" d="M13.7 26.9h.3z" clip-rule="evenodd"/><path fill="#fc1d0f" fill-rule="evenodd" d="M19.4 2v-.4l-.1-.1v-.1l.5.1.3.2.2.2q-.4.6 0 1h.1q0 .4-.4.3h-.8v-.5h.2q.5-.1.1-.5l-.1-.3" clip-rule="evenodd"/><path fill="#fc3022" fill-rule="evenodd" d="M19.4 1.4h-.1l-.2-.2h.2z" clip-rule="evenodd"/><path fill="#fd4133" fill-rule="evenodd" d="M20.8 2.7V3q-.2.2 0 .4-.5.1-.4-.4-.5-.3 0-.6l.1-.2h.1l.2.2.1.1q-.2 0-.4.3z" clip-rule="evenodd"/><path fill="#fc3023" fill-rule="evenodd" d="M20.5 2.1v.4h-.3l.1.3v.1l-.3-.1V2l.3-.2z" clip-rule="evenodd"/><path fill="#fea7a1" fill-rule="evenodd" d="M26.4 9q-.3 0-.2-.2l.1-.1z" clip-rule="evenodd"/><path fill="#fd4e42" fill-rule="evenodd" d="M4 4.3h.5q.2 0 .3.2h.3v-.3h-.6L4 4h.4q.5 0 .5-.4v-.2l.2-.1.1.2v.3l.3-.1.3.1V4h.5q.2-.4.4-.4c0-.4-.3-.7.2-.8q.2 0 0 0c-.4-.4.4-.4.3-.7h.2l.2.2.1.2.5.4q-.1-.3-.4-.4v-.2h.6L9 3v.5h-.3q-.5 0-.5.5v.3l-.1.2-.3-.1v-.2l-.1-.4-.2-.5v-.1.1l-.2.5-.2.1q-.5 0-.2.5c.2 0 .2-.5.6-.2v.5q-.1 0 0 0V5h-.9q-.4 0-.4.4 0 .3.3.3c.2-.2-.3-.4 0-.6q.6.4 1 .9v.3h-1l-.1.1-.2.3q0 .3-.3.2t-.2-.3q0-.5-.4-.6l-.2-.4c-.1.2-.5.2-.4.6q-.2.2-.1.5c-.1.2-.1.6-.5.3q-.2-.4 0-.8l.1-.4q.2-.1.2-.5-.2.2-.2.5h-.4l.2.4q-.2.3-.5.1l-.3-.2q-.3-.2 0-.5l.3-.2.3-.6z" clip-rule="evenodd"/><path fill="#fda29b" fill-rule="evenodd" d="M26 19.4v-.2z" clip-rule="evenodd"/><path fill="#fe9d97" fill-rule="evenodd" d="M2.2 6.6v.2H2v-.3z" clip-rule="evenodd"/><path fill="#fd4235" fill-rule="evenodd" d="m17.5 25.2-.6.2v-.2l.1-.2-.2-.2q-.2 0-.4.3H16q-.2 0-.2.2 0 .4-.3.3h-.2l-.1.1-.4-.2h-.1q-.1-.2-.1 0l-.1.2c-.4 0-.2-.4-.3-.6l.2-.4h.7q.2 0 0-.4 0-.3.3-.3.4 1 1.2.4.3-.4.6 0l.2-.2h.2q.4 0 .5-.2l.1-.1h.6q.2-.2.4 0v.1H19v.3q.2 0 0 .2l-.4-.2-.7.7zm4.8-3.6q.3.3.1.7-.2.1-.3.5t-.5.1-.4.2l-.5.4v.1q-.3.2-.4 0-.3 0-.3.2h-.3l-.3.3q-.2.2-.2 0v-.3q.7-.4 1-1t.8-.9q-.3-.4.2-.6l-.1-.1q-.3-.4 0-.6h.3q0 .4.2.6h.2v-.1q0-.2.2 0 .3 0 .2.2l-.2.3.1.1z" clip-rule="evenodd"/><path fill="#fc1404" fill-rule="evenodd" d="M21.4 23.8h-.5l.2.2-.2.2h-.1q-.2 0-.2.2t-.2.4q-.3 0-.4-.3 0 .6-.6.9-.2 0-.2-.2l.3-.8.4-.6q.4 0 .7-.2l.8-.6h.5v.4z" clip-rule="evenodd"/><path fill="#fc1a0a" fill-rule="evenodd" d="M18.5 25.7H18l-.2.1v-.2l.1-.1q0-.3.3-.4h.4v.1l.1-.4.3.2v.1q-.3.2-.1.4 0 .1.2 0 0 .4-.2.3z" clip-rule="evenodd"/><path fill="#fc1100" fill-rule="evenodd" d="M19.4 25.4q0-.3.4-.5v-.1l.2-.5.2.4.2.1-.1.1-.4.2-.3.2v.3h-.1zm-.9.3h.3q.4.2.3-.1l.3-.1-.2.5h-.3z" clip-rule="evenodd"/><path fill="#fd4c40" fill-rule="evenodd" d="m14.2 25.1.1.1v.2l.2.3v.4L14 26h-.3l-.3.1q-.2 0-.2-.2.4-.1.5-.4l.3-.4" clip-rule="evenodd"/><path fill="#fd4235" fill-rule="evenodd" d="M14.5 26.1v-.4l.1.2z" clip-rule="evenodd"/><path fill="#fc1a0a" fill-rule="evenodd" d="M16.5 26.5h.1m1.9-.8v.1h-.1z" clip-rule="evenodd"/><path fill="#fd685e" fill-rule="evenodd" d="m14 21.8-.2-.1q0-.3-.3-.1h-.1v-.3l-.2-.1v-.5h-.4v.4l-.2.2-.2-.3q0-.3-.3-.2l-.2.2-.3.1q-.4 0-.5.6l-.3-.2-.3.3v.2h-.2q-.1-.2-.3 0l-.2-.8 1.3-.5v.3q.4-1 1.3-.6.4.1.4-.2.3-.6.7-.3.5.4.7-.2.2-.2.6 0h.5q.5.3.7.8l.4.7q.1.4.5.6.6.1.7-.5t-.1-1l-.1-.3v-.2l-.2-.2v-.3q0-.6.5-.2l.6.7.6 1.7q.1.7-.4.8l-.2.1v.1q.2.4.5.5v.1H18q-.4-.2-.3.3v.2q0 .2-.3 0h-.1v-.2h-.1v-.2H17v.7q-.7.2-.9-.4 0-.3-.3-.3t-.3.3v.1q-.6.2-.6-.4-.1-.5.1-1.1c.2-.3-.3-.4-.5-.4l-.1-.2-.2-.4h-.1v-.4q-.3.2 0 .5.4.3 0 .7z" clip-rule="evenodd"/><path fill="#fd6c62" fill-rule="evenodd" d="M9.8 21.2v.1l.2.6q0 .3-.3.3-.7.2-.3-.7c-.3.1-.6-.2-1 0l.2.1q.6.1.2.6v.4q.3 0 .1.2h-.2l-.4-.1-.7-.5q-.1 0 0-.2l-.1-.2q-.1-.4.2-.4-.2 0-.3-.3.2-.2-.1-.3l-.3-.1v-.2l.8-.6q.7-.2 1.3.2l.1.1.2-.2v-.1q0-.4.4-.3h.3l-.2 1z" clip-rule="evenodd"/><path fill="#fd5448" fill-rule="evenodd" d="m15.4 24-.2.2v.1q.2.5-.1.6h-.2l-.5-.1q-.5-.4-1-.4 0 .4-.3.6c-.2 0 .2.3 0 .3l-.4-.1-.1-.3-.1-.2v-.2l-.2.2v.1h-.7v-.3h.4v-.1q0-.2.2-.3l.1-.5v-.2h.3l.4-.2h.1l.4.3v-.2q.6.3 0 .5l-.3.1.3.1h.3q.3-.1 0-.4c.1-.2-.2-.4 0-.6v-.3l.4.1q.2.3.2.8.1-.2.4-.3t.3.3c0 .2.4.2.3.4" clip-rule="evenodd"/><path fill="#fd6257" fill-rule="evenodd" d="M14 24q-.3.4-.5.1v-.4q.4-.1.1-.3v-.1l-.1-.1q-.2 0 0-.2h.1v-.3h-.2q0 .2 0 0-.2 0-.1-.3V22q.1-.1.4 0l.3-.1h.1q.3 0 .5-.2l.3-.1.2.2q.3.3 0 .5t0 .6v.4q0 .3.2.3h.3l-.1.4h-.1q-.3-.2-.4-.5h-.5q0 .3-.2.1h-.1V23l-.3-.2v.9z" clip-rule="evenodd"/><path fill="#fd655a" fill-rule="evenodd" d="M8.3 22.7h.2l.4.1-.1-.2q-.3-.1-.1-.4l.2-.2v-.2h-.2q-.3 0-.4-.3v-.1q.4-.2.8 0h.2l.1-.1.1.2-.1.3q-.1.4.2.3h.2l.1.1v.4h.8q0 .3.2.2h.1l.3.2q0 .4-.3.3h-.5l-.5-.2q0 .3-.3.5l-.2.1h-.3v-.4l-.1-.3h-.4l-.2.1h-.2z" clip-rule="evenodd"/><path fill="#fd665c" fill-rule="evenodd" d="M7.4 21q0 .3.4.2v.2l-.2.2-.1.2-.1-.1H7v.5q.3 0 .2.3v.9h-.9q-.1-.1 0-.4v-1c-.2-.4.2-.3.3-.4z" clip-rule="evenodd"/><path fill="#fd5549" fill-rule="evenodd" d="M8.8 25q-.2-.3 0-.4v-.1l-.2-.1.1-.2q0-.2.1-.1h.4q.1.1.2 0h.2l.1.2.1.4-.1.2v.2h-.2l-.5-.2z" clip-rule="evenodd"/><path fill="#fd5246" fill-rule="evenodd" d="M10.5 23.4q0 .3.2.2v.1h-.1q-.3 0-.4.2l-.2.2h-.1l-.4-.3v-.1q.4-.5 1-.3" clip-rule="evenodd"/><path fill="#fd685e" fill-rule="evenodd" d="M11.1 21.7h.5l.3.2-.4.1q-.3.2-.4-.2zm-1.1.5h-.2q0-.2.2-.3z" clip-rule="evenodd"/><path fill="#fd5448" fill-rule="evenodd" d="M13.6 22.8q.2 0 0 .1" clip-rule="evenodd"/><path fill="#fd4c40" fill-rule="evenodd" d="M13 25.3v-.2h-.1V25q.3 0 .4-.3v-.1l-.1-.3h.6q.4 0 .5.3v.2l-.1.3q-.1-.3-.4-.3-.3.1-.3.5 0 .3-.2.4l-.4.1h-.1v-.1l.2-.2z" clip-rule="evenodd"/><path fill="#fd5448" fill-rule="evenodd" d="M13.3 25.7v-.3l.1-.2q-.1-.5.4-.5h.3v.4q0 .3-.2.5l-.3.3h-.3z" clip-rule="evenodd"/><path fill="#fd4235" fill-rule="evenodd" d="m11.8 26.1-.1-.2h.1zm0-.1v-.1" clip-rule="evenodd"/><path fill="#fd4539" fill-rule="evenodd" d="M8.6 25.7q.3 0 .2.2h-.3z" clip-rule="evenodd"/><path fill="#fd756b" fill-rule="evenodd" d="m1.2 14.6.7-.3.2-.3q-.3 0-.3-.2l-.1-.1q-.3-.2-.2-.5l-.1-.1v-.3q.1-.2 0-.4l.1-.1.4-.4h.6l-.1-.5h-.5l-.2-.1.3-.6q.1 0 0-.2v-.3h-.2V10q.3-.3 0-.6l.4-.1q.5-.1.4.4l.1.1H3q.2.3.3 0 .2 0 .1-.1v-.9l.1-.2h.2V9h.2v-.1h.3l.2-1q.3-.2.7 0 .5 0 .6.4 0 .3-.2.2h-.6q.5 0 .3.5l-.8.4q.4.3.2.5-.3.7-1.1.4.3.3.2.7t-.5.4q-.3.3 0 .7.8.9 0 1.5h-.5l-.1-.3.1.3q.2.4 0 .7-.3.1-.1.4.5.5-.1.9-.4 0-.7-.3l-.4-.2V15q-.2-.3 0-.4" clip-rule="evenodd"/><path fill="#fd6459" fill-rule="evenodd" d="M5 9v-.5h-.2l-.1-.2h.2q.4.3.7.1-.2-.6-1-.5V8q-.3.3-.2.5V9q0 .2-.2 0h-.3l-.2-.3v-.3h-.1l-.2-.1.2-.2.2.2.3-.9.1-.4q.2.3.3 0v-.3l.3.1q.3.5.9.5 0-.3.3-.1t.4.5q.2 0 .3-.3h.1q.1.4.3 0 .3-.4.7 0l.1.2h.5q.7 0 .8.6v.2l.1-.1q.3-.2.4 0l.1.5v-.2l.1-.1q-.2-.2-.2-.6l.4-.1v-.1q0-.7.7-.6l.2.6v.1l-.2.6q-.6.5-.3 1.2 0 .3-.3.2h-.5q-.4-.2-.4-.5 0-.6-.4-.6l-1.5-.2q-.3 0-.3.2-.1.3-.5.3-.3 0-.1-.4l-.2-.4-.1.6-.5.2-.2.1q0 .3-.3.2z" clip-rule="evenodd"/><path fill="#fd5e54" fill-rule="evenodd" d="M1.8 10.2h-.2l-.2-.3q0-.2-.2 0v-.3q.3-.3.4 0v.3z" clip-rule="evenodd"/><path fill="#fd756b" fill-rule="evenodd" d="m3 8.2.3.2v.1H3l-.2-.2m-1.4 5.4" clip-rule="evenodd"/><path fill="#fd756c" fill-rule="evenodd" d="m10.1 19.5-.1.1h-.5v.3l.2.1h-.3v.4h-.2q-.2-.3-.5-.3h-.2q-.2-.3-.5 0h-.4q-.2.3-.4.3H7q0 .2 0 0 .2 0 .2-.2v-.4h-.6v.1l.3.2h-.2l-.2.1h-.3q-.5 0-.3-.4l.1-.2v-.4h-.2v.2h-.4q-.2.2-.4 0h-.3q-.1 0 0 .2h-.1q0 .2-.1 0l-.3-.1q-.1-.1 0-.2V19q.2-.3.5-.2l.1-.1q0-.2-.3-.1h-.3v-.2h-1q-.4.1-.6.4 0 .4-.3.2-.2 0-.2-.2v-.3q.3-.4.7-.3l-.4-.1-.1-.1q-.4 0-.7-.2v-.6h.2l.4-.1c-.5-.1-.2-.6-.5-.9.5-.1.4-.8.8-.8q1 0 1 1 0 .4.4.3.4-.3.5.1.4.8 1 1.2.1.2.4 0 .9-.3 1.8.4l.6.4h.3v-.3q-.4-.6.3-.7l.2-.1q.4 0 .3-.3t-.5-.1l-.6.3q-.1.2-.2 0-.1 0 0-.2V17l.6-.4q-.5 0-.6-.3-.1-.6-.8-.5-.3 0-.5-.3t-.5-.4-.3-.4q0-.2.4-.2.3 0 .5.2l.1-.3q.2-.4-.2-.3-.2 0-.3-.2l.1-.2q.3-.2.3-.5-.1-.6.5-.7.3 0 .4-.3.3-.4.5 0l.3.4.4-.4.2.1v.8q-.5.3-.9 0H8q.4.3.2.7 0 .7.2 1.3v.1l.6.7.2.1.5.1q.1.5 0 .8l.4.1q.3 0 .4.4 0 .4-.4.3v-.1.4q.6 0 .4-.7V17q0-.3.3 0 .1.3.5.2l.3.1v.2c0 .3-.4.4-.4.7l-.1.2v.2l-.2.3q-.3.4-.8.7" clip-rule="evenodd"/><path fill="#fd6c63" fill-rule="evenodd" d="m2.5 15.5-.2.2v.1q0 .3-.2.4H2v.6q0 .2.3.2h.1q.2 0 .1.1-.2.5-.5.2h-.1V17q-.2 0 0-.2v-.2l-.1-.2h-.2q-.4-.1-.1-.4 0-.2.3-.3.1-.5-.4-.7h.4q.3.4.7.4zm-.9 2.4h.6l.1.1q.4.3.7.2h.1v.2h-.3q-.4-.1-.6.1-.3 0-.4-.3z" clip-rule="evenodd"/><path fill="#fd5448" fill-rule="evenodd" d="M1 17.7q.3 0 .3-.4l.1.1v.6h-.2zm.3-.4q-.2 0-.2-.2v-.5h.3l-.1.2z" clip-rule="evenodd"/><path fill="#fd483c" fill-rule="evenodd" d="M.7 16q.2 0 .3-.2.2 0 0 .2l-.3.1z" clip-rule="evenodd"/><path fill="#fd5448" fill-rule="evenodd" d="M1.1 16.6H1v-.3z" clip-rule="evenodd"/><path fill="#fd6c63" fill-rule="evenodd" d="M2.1 18.6v.3-.1q-.2-.1 0-.2m-.9-4v.4-.1z" clip-rule="evenodd"/><path fill="#fd483c" fill-rule="evenodd" d="M.5 16.2h.2z" clip-rule="evenodd"/><path fill="#fd6c63" fill-rule="evenodd" d="m1.8 17.2-.1.1M1.2 15h.1" clip-rule="evenodd"/><path fill="#fd6156" fill-rule="evenodd" d="M21.4 20.3h-.2c0 .2-.4.1-.3.3l-.1.1h-.2c0-.4-.8 0-.7-.7q-.5-.2-.7-.5v-.2h.1v-.4l-.2-1v-.2l-.5-.2-1-.2-.6-.7-.3-.6h-.3q-.2.5-.5 0-.3-.2-.8 0v.2-.1q.3-.3.5 0l-.3.3q-.3.2-.5 0-.2-.1-.4 0l-.6-.4q-.3 0-.2-.3l.2-.3.3.2c.3.4.2-.1.4-.2.1-.3.3 0 .5-.1l.2-.2.1-.2.2-.3.8-.3.1.7.1.2v.2l.4.1.3.1.4.2-.1.3.1.2q.6 0 .4.6.6 0 .7-.7l.9-1.6.6-.2q.4 0 .6-.4-.9-.2-.1-.8c.1-.3.5 0 .7-.3l.2-.2q.2-.5.5-.6-.5 0 0-.4.2-.4.5-.6l-.1-.2q-.2 0 0-.2l.8-.2.2.2v.2l-.2.5v.7q.1.6-.4.8l-.2.1q-.2.4-.4.4-.1.2-.4.2v.7h-.1v.5l-.2.4h-.1q0-.3-.2-.2-.5.2-.7-.3c.2.4.7.8 0 1.1q-.5 0-.5-.5l-.3-.2q.2.8.5 1.2t.2.8q0 .3-.3.2-.5.2-.4.7t.3.6l.1.2q0 .3.4.3.1 0 0-.4l.2-.3 1 .2-.2.3q-.1.3-.5.3.3.5.3 1.1" clip-rule="evenodd"/><path fill="#fd584e" fill-rule="evenodd" d="m21.4 20.3-.2-.4v-.1l-.2-.4v-.3h.1l.4-.1.2-.4h-.8q0-.2-.2 0l.1.1q.2 0 .1.1l-.2.5q-.3 0-.4-.2l-.2-.2v-.2c0-.2.4-.2.3-.5l-.1-.1q-.3-.5 0-.7c.4-.2.4.3.5.5v.1l.2-.4q.4-.5.9-.1h.2q-.3-.2-.2-.3V17q-.2-.1-.4 0h-.4v-.6h-.5q-.4 0 0-.3c.1-.1-.2-.3 0-.4l.1-.1q.4-.5-.2-.7l-.2-.2.3-.1.2-.2v.4q.2.2.4 0t.3 0v.2q.3-.2.1-.3v-.4h.1l.1-.5v-.2q-.2 0-.1-.2h.5l-.2-.2V13h.2v.2h.3V13l.1-.2h.2l.1.2q.2 0 .1.3v.2c0 .4-.3.2-.4.2-.3 0-.1.3-.3.3q.3 0 .4.4l-.2.6-.2.4q0 .5-.4.9c.3 0 .7-.7 1-.3q.5.7-.2 1 .3 0 .2.4 0 .3.4.5.4.1.7.4.2 0 .3.2l-.1.2-.1-.1-.2-.1h-.1v.3l-.5-.2-.2-.1q0-.2-.2-.2h-.4l-.1.2v.1q-.1.4-.6.3h-.1v.2l.3.1v.4q0 .2-.2.3t-.3-.2zm-1.5-.3v.1q.2.4.4.2h.3v.3h.2v-.1l.4-.2v.3q-.3.4 0 .6v.3q-.2 0-.2.3v.3q-.4 0-.5.4l-.2.3-.8.7q-.3.2-.4 0H19v-.1c-.1.4-.5.2-.7.3l-.3.2q-.2-.1-.2-.3v-.1q0-.5.4-.4h.6q.2-.4.6-.3v.2-.2l.1-.2v.1q0-.6.4-.9-.3.2-.7 0-.1-.4.2-.4h.5c-.1-.3-.4-.5 0-.7l-.4-.1q-.2 0-.1-.3.1-.7-.5-.5h-.2l-.1-.1q-.3-.2-.1-.5.2-.1.4 0l.3.2.5.4z" clip-rule="evenodd"/><path fill="#fc2618" fill-rule="evenodd" d="M21.9 23.1h-.5l-.1.1-.3.2-.4.2q0-.4.4-.4V23l.2-.3h.2l.4.3.2-.3.1-.2q0-.4.3-.2l.1.4.2.1.1.3-.1.6v.2q-.4 0-.4-.3 0-.4-.3-.4z" clip-rule="evenodd"/><path fill="#fd584e" fill-rule="evenodd" d="M23.6 19.8h.1l.3.1v.3l-.4.2.1.2h-.4l-.5-.5v-.2h.1q.3-.2.3-.5V19q0-.2.2-.1l.3.1q.1.4-.2.4v.2q-.2.2 0 .4zm-2.1.6q0-.2.2-.3h.1q.3.1.5.4v.1q-.3 0-.3.2-.2 0-.2-.3v-.1z" clip-rule="evenodd"/><path fill="#fc3224" fill-rule="evenodd" d="M22.3 21.6v.2h-.4v-.4h.3z" clip-rule="evenodd"/><path fill="#fd4235" fill-rule="evenodd" d="M22.5 22.7q-.3 0 0-.3h.5v.2q-.2.2-.4 0" clip-rule="evenodd"/><path fill="#fd4235" fill-rule="evenodd" d="M23 22.5v-.1h-.3v-.2l.3-.2q0 .2.3.2z" clip-rule="evenodd"/><path fill="#fd392c" fill-rule="evenodd" d="M22.7 21.4h.3v.2q0 .2-.2.2z" clip-rule="evenodd"/><path fill="#fd5a4f" fill-rule="evenodd" d="M24.4 20.6v.2q-.2-.1-.3-.4.2 0 .3.2" clip-rule="evenodd"/><path fill="#fd584e" fill-rule="evenodd" d="M22 19.2h.1l-.1.1z" clip-rule="evenodd"/><path fill="#fd4235" fill-rule="evenodd" d="M21.5 20.4h.1" clip-rule="evenodd"/><path fill="#fd4e42" fill-rule="evenodd" d="m23 21.5-.2-.1z" clip-rule="evenodd"/><path fill="#fd4235" fill-rule="evenodd" d="M25.6 18.3v.5q0 .3-.3.2l-.1.1-.1-.1-.2-.1q-.2-.2-.6-.2v-.2h.1l.4-.1.3.3.1-.2z" clip-rule="evenodd"/><path fill="#fd756b" fill-rule="evenodd" d="M25 19.1v.1" clip-rule="evenodd"/><path fill="#fd5a4f" fill-rule="evenodd" d="M25.4 19.9q.2 0 0 .1z" clip-rule="evenodd"/><path fill="#fd4e42" fill-rule="evenodd" d="M23.6 19.8h.1v.2l-.1.1h-.2zm-.1-.4.2-.4.1.2q0 .2-.3.2m.9-1H24v-.2h.2zm-1 1.6v-.4zm0-.4.1-.2zm.5-1h.2zm-.2.1" clip-rule="evenodd"/><path fill="#fc2213" fill-rule="evenodd" d="m21.4 23.8.1-.2.2-.2.2-.1q.4.4.3.9H22q-.4 0-.3-.3z" clip-rule="evenodd"/><path fill="#fc1404" fill-rule="evenodd" d="m21.4 23.8.3.1z" clip-rule="evenodd"/><path fill="#fc2213" fill-rule="evenodd" d="M22.4 24.2h-.2zm-.1.3v-.1m.1-.1q0 .2 0 0" clip-rule="evenodd"/><path fill="#fc1c0d" fill-rule="evenodd" d="M21.7 25q0-.2.1 0" clip-rule="evenodd"/><path fill="#fc3023" fill-rule="evenodd" d="M22.4 24.2h-.2V24l-.2-.4q.1-.2-.1-.3v-.2h.3l.2.2v.2q0 .4.3.4v.2h-.1zm-.1.2" clip-rule="evenodd"/><path fill="#fd6c63" fill-rule="evenodd" d="M2.5 7.5h.4q0 .3-.2.5z" clip-rule="evenodd"/><path fill="#fd5448" fill-rule="evenodd" d="M4.2 6.9v.4q-.3-.2-.2-.5h-.1q-.2 0-.2.4l-.3-.3v-.4q0-.2.2-.1h.2l.2-.1h.2v.2z" clip-rule="evenodd"/><path fill="#fd4e42" fill-rule="evenodd" d="m3.1 5.4.2-.1zm.2-.1h.1m-.1 1.1" clip-rule="evenodd"/><path fill="#fd463a" fill-rule="evenodd" d="M3.3 6.6h.1v.1" clip-rule="evenodd"/><path fill="#fd6960" fill-rule="evenodd" d="M11.3 2q0-.4.4-.2h1q0-.2-.2-.2t-.3-.2l.3-.3q.3 0 .4-.2.5-.3.7.3-.2.3 0 .5.7.4.3 1v.2c.2.4.1 1 .6 1.3q.2.2 0 .5l-.2.1h.1q.2.4-.2.4-.6 0-.2.6V6q0 .5.5.4l.4.1v.2q-.3 0-.4.3h-.1q0 .1-.1 0l-.1.1-.1.1h-.4l-.1-.2.2-.2-.3-.2h-.3l-.1-.1c-.3.3-.7.1-1 .3H12q-.5 0-.3-.4 0-.2.3-.3.6 0 1-.5l.1.2q0 .1.1 0-.2-.2 0-.5-.5 0-.2-.6v-.5l-.3.2h-.3l-.2-.2q-.2 0-.3-.3.1-.2.5-.2c-.3-.1-.6.3-1 0v-.2.1q0 .4.2.7-.1.2-.4 0c-.2 0-.2-.3-.4-.1q-.6-.2-.4-.8-.3.2-.4 0-.2-.6.4-.6.4 0 .7-.3h.2q0 .2.2.3v-.1q0-.2-.2-.1l-.1-.1v-.3h.1z" clip-rule="evenodd"/><path fill="#fd5e54" fill-rule="evenodd" d="M11.1 2.5v.3l-.3.1q0 .2-.2.2 0-.3-.2-.2L10 3v.4q.1.7.5 1.1-.4.4-.1.7v.5h.1V6l.1.2v.2l.2.4v.1c-.2.2-.6 0-.7.4l-.3-.1q.1-.2-.1-.3t-.4-.2q0-.4.3-.4l.3.1.1.2h.1l-.2-.2q.2-.6-.4-.6c-.1.2.4.2.2.5q-.4.1-.6-.2l-.2.5q-.4-.1-.6.4-.1.3-.5.2-.4-.2-.2-.5v-.2l.2-.3q.2 0 0-.1v-.2l.3-.4q.3.3.5 0c.2-.2-.1-.2 0-.4-.3 0 0 .5-.4.5q-.4-.2-.6-.5v-.3q.1-.3.4-.4l.2.1v-.9l.6-.2.3.2v-.4l-.4-.4q-.2 0-.2-.2v-.1h.4q.2 0 .3-.2h.2v.4h.2q.2 0 .2-.2v-.3L10 2h.1l.1.1h.2q.1-.2.4-.2t.1.3l.1.2.2.2M13 1v.2h-.5l-.2.2h.3l.3.3v.1h-1.6V2l-.1-.1v-.4l.1-.2-.1-.1q0-.3.3-.3h.3q.1-.2.3 0c.3-.2.5.2.7 0z" clip-rule="evenodd"/><path fill="#fd3f32" fill-rule="evenodd" d="M12.8 1q-.2.2-.5 0 0-.2-.2-.2 0-.2.2-.3.1-.3.4-.2h.2q.3.5 0 .6" clip-rule="evenodd"/><path fill="#fd5e54" fill-rule="evenodd" d="m11.3 2.2-.1.2zm0-.2v.2z" clip-rule="evenodd"/><path fill="#fc2d1f" fill-rule="evenodd" d="M7.7 2.4q-.3 0-.2-.3l-.1-.2H8q.2 0 0 .2v.2z" clip-rule="evenodd"/><path fill="#fd4033" fill-rule="evenodd" d="M7.3 2q0 .4-.2.5v.2h.2L7 3v.6l.2.1H7q-.2 0-.3.4l-.1.2h-.2L5.7 4q-.1 0 0-.2l.1-.2-.3.1-.1.2h-.1l-.1-.3v-.4l.2-.1q.2 0 .3-.2.2-.2.5-.2 0 .2.2.2l.1-.2c0-.2.4-.3.3-.6q0-.2.2-.2z" clip-rule="evenodd"/><path fill="#fd3528" fill-rule="evenodd" d="M6.8 2v.1q.3 0 .2.2l-.2.2-.2.4v.2h-.2L6 3l.1-.3.1-.2h.1v-.1h.2l-.1-.1q0-.2.1-.1z" clip-rule="evenodd"/><path fill="#fd4033" fill-rule="evenodd" d="M7.3 2h.2zm.1-.2V2m-1.1.5v.1" clip-rule="evenodd"/><path fill="#fd5145" fill-rule="evenodd" d="M24 18.4h-.3q0-.4-.4-.3l-.4-.2v-.5q0-.2-.3-.3h-.1l.3-.2h.2v-.4h-.2V16h-.4l-.2.3-.4.2q-.2 0-.1-.2l.3-.4.1-.1v-.5l.4-.5v-.2l.1-.2q.1-.2.5-.3h-.6v-.4h.2l.2-.1v-.1h.2l-.1-.2-.2-.3q.4-.3.5.2h.3v.2h.1l.1-.1.3-.1q.4.2 0 .5l-.3.2h-.1q-.5.4 0 .8h.1v.3l-.1.2-.2.1v.1l-.1.2.2.3.2.4-.2.1v.4h.3q.2-.1.4.1v.1l-.3.1q-.4.1-.6-.2l.2.4q.1.4.5.6z" clip-rule="evenodd"/><path fill="#fd463b" fill-rule="evenodd" d="m23.8 14.9-.2-.1-.2-.1-.1-.4q0-.2.2-.3h.2l.2-.3h.2q.3-.1 0-.4 0-.3.3-.1h.8q.3 0 .5.2h.6l-.1.5h-.7v.2l.1.2q.3 0 .2.3v.4h.1v.1q-.3 0-.4-.2 0-.3-.3-.4H25q-.5-.2-.9 0v.2q.1.6-.5.4z" clip-rule="evenodd"/><path fill="#fd493d" fill-rule="evenodd" d="M23.3 15.7v-.2l.1-.2h.2q.3-.2.6 0 0 .4.3.7 0 .3.2.3 0 .3-.2.2h-.7q0-.2-.3-.3V16h.1q0-.2-.3-.3" clip-rule="evenodd"/><path fill="#fd4f43" fill-rule="evenodd" d="m25.5 14.9.2.1.2.1q0 .3-.3.5h-.4q-.2-.3-.5 0l-.1-.1-.3-.2q.1-.5.5-.6c.3-.4.5.1.7.2" clip-rule="evenodd"/><path fill="#fd584e" fill-rule="evenodd" d="m24.2 18.3-.1-.2h-.3q-.2 0 0-.3v-.1l-.3-.2v-.2l-.2-.2h-.1V17h.3l.5.2q0 .3.3.4h.1l.1.2q-.3.2 0 .5v.1z" clip-rule="evenodd"/><path fill="#fc2c1e" fill-rule="evenodd" d="M24.3 17.1v-.2h.2l.3.2v.2l-.3.1q-.2 0-.2-.3" clip-rule="evenodd"/><path fill="#fd5145" fill-rule="evenodd" d="M24.3 17.6q-.2 0-.3-.3.3 0 .3.3" clip-rule="evenodd"/><path fill="#fd4f43" fill-rule="evenodd" d="m25.6 15.9-.2-.1.2-.1z" clip-rule="evenodd"/><path fill="#fd493d" fill-rule="evenodd" d="m23.6 16.9-.1-.3.1-.1z" clip-rule="evenodd"/><path fill="#fd3a2d" fill-rule="evenodd" d="m24.6 17.8.2-.2q0 .2-.2.2m.3.1" clip-rule="evenodd"/><path fill="#fd5145" fill-rule="evenodd" d="M24.5 17.8v-.2zm.7-.6" clip-rule="evenodd"/><path fill="#fd463b" fill-rule="evenodd" d="m23.3 13.4-.2-.1q0-.3-.3-.2v-.2l.3-.2v-.5h.1c.3 0 .1-.6.5-.4q.4.1.7-.1h.1l.1.1.6-.1v.2l.1.2q.1.1 0 .2v.1l-.2.2H25l-.2.2q-.2-.2 0-.4-.5 0-.5.6-.1.2-.3 0t-.5-.2v.5z" clip-rule="evenodd"/><path fill="#fc2c1d" fill-rule="evenodd" d="M26.5 10.3v.3c0 .3-.3.5 0 .9l-.3.3-.4-.2-.1-.4h.1V11h-.6v-.5q0-.3.3-.3l.2.2h.2q.3.3.4 0z" clip-rule="evenodd"/><path fill="#fd392b" fill-rule="evenodd" d="M23.4 13.3q-.2-.5.2-.5t.4.2l.1.1h.5q0 .2.3.1l-.1.2q0 .2-.2 0H24l-.3.1z" clip-rule="evenodd"/><path fill="#fc291a" fill-rule="evenodd" d="m25 12.7.3-.1.4-.4q.2-.3.4 0v.7h-.3c-.2.3-.4 0-.5.1h-.1z" clip-rule="evenodd"/><path fill="#fc1606" fill-rule="evenodd" d="M26.2 11.8v-.3h.1v-.6l.2-.3.2.3v.9z" clip-rule="evenodd"/><path fill="#fd574c" fill-rule="evenodd" d="M24.3 13v-.6q0-.2.2-.1h.3l.1-.1h.1v.2q-.2.2-.1.4-.2 0-.3.3z" clip-rule="evenodd"/><path fill="#fc2c1d" fill-rule="evenodd" d="M25.2 11.9v-.2q-.5-.5 0-.7l.2.3q.3.3-.2.6" clip-rule="evenodd"/><path fill="#fd463b" fill-rule="evenodd" d="m24.5 13 .2-.2v.3z" clip-rule="evenodd"/><path fill="#fc2718" fill-rule="evenodd" d="m24.7 6.5.1.1V7q0 .3.2.4h.2l.2.3.1.4.3.2v.3q0 .2-.2 0h-.3l-.1-.1L25 8q-.1-.3-.5-.4l-.3-.3q-.1-.5 0-.8z" clip-rule="evenodd"/><path fill="#fc2213" fill-rule="evenodd" d="M25.5 8.5h.4v.3c.2 0 0 .2.2.3q0 .3-.4.5-.2-.3 0-.7l-.2-.3" clip-rule="evenodd"/><path fill="#fc3427" fill-rule="evenodd" d="M25 7.3h-.3l.1-.3h.3zm-.2-.4-.1-.1.1-.2h.2zm.4.4H25z" clip-rule="evenodd"/><path fill="#fd392b" fill-rule="evenodd" d="m24.6 6.4-.2.1c-.3 0-.5-.4-1 0l-.3-.4-.2-.4-.1-.3-.1-.4-.2-.2c-.6.2-.5-.2-.5-.5q0 .5-.3.3-.7-.3-.6-1 .2-.4.6-.2v.1l.2.2v.1h.2v-.2h.1l.3.1.1.3q.4.1.5.5v.2l.2.1q.3 0 .1.3l.1.2q.3 0 .4.3l.2.2-.1.1-.4-.1.4.1h.2l.1.2q0 .2.3.3m.1.1" clip-rule="evenodd"/><path fill="#fd5145" fill-rule="evenodd" d="M2.8 20.7v-.4h.3l.2.3v.1q0 .2-.2 0z" clip-rule="evenodd"/><path fill="#fd665c" fill-rule="evenodd" d="M7 20.5v.2q-.3.3-.5 0v-.1q.2-.3.4-.1" clip-rule="evenodd"/><path fill="#fd675d" fill-rule="evenodd" d="M5 21.5h-.2q-.2 0-.2-.3l.1-.1H5z" clip-rule="evenodd"/><path fill="#fd665c" fill-rule="evenodd" d="m6.2 21.3.1-.3q0-.3.2-.4l.1.3q0 .5-.3.5" clip-rule="evenodd"/><path fill="#fd675d" fill-rule="evenodd" d="M5.1 21.6v-.1" clip-rule="evenodd"/><path fill="#fd5d52" fill-rule="evenodd" d="M6.1 21.3q.5.1.4-.4.4 0 0 .5v.1q0 .3-.2.2h-.1v.2q.3 0 .1.1v.3l-.1.7v.2l-.5.2H6v.1l-.2.3h-.1q-.1-.4.1-.5L6 23l-.4-.1q-.2 0 0-.3 0-.3.3-.5l.2-.2-.1-.2q-.2-.1 0-.4zM6 23.8h-.2z" clip-rule="evenodd"/><path fill="#fd6156" fill-rule="evenodd" d="M24.9 18.4h-.1" clip-rule="evenodd"/><path fill="#fd9d97" fill-rule="evenodd" d="M26.8 10.6q.2.1 0 .3z" clip-rule="evenodd"/><path fill="#fc3729" fill-rule="evenodd" d="M26.7 11.6v-.3z" clip-rule="evenodd"/><path fill="#fd584d" fill-rule="evenodd" d="M13.7 3q0-.4.2-.6V2l-.3-.1q-.2-.2-.2-.5t.2-.2v.2l.2.1v.1l.2-.1q.3-.1.4-.4l.3.1h.3q.2 0 .3-.4l.5.2h.1v.5q.4.3.2.7.1.4-.5.2l-.1-.1-.3-.2v.3H15q-.3 0-.4.3-.3.5-1 .2" clip-rule="evenodd"/><path fill="#fd4539" fill-rule="evenodd" d="M15.6 2.3h.2q.1.1.2 0 .2 0 0-.2V2l.1-.1v-.1q-.4 0-.2-.3v-.1L16 1l.1.3h.3v.3l.1.2h.5V2q.5-.1.4.4l-.3.1H17l-.5.1h-.2q0 .4-.4.4-.6-.1-.2-.7" clip-rule="evenodd"/><path fill="#fd584d" fill-rule="evenodd" d="M12.8 1q.3-.4.1-.6l.3-.1q0 .3.3.4l.3.1v.3h-.2l-.4-.2h-.3m1.1.6" clip-rule="evenodd"/><path fill="#fc1d0f" fill-rule="evenodd" d="M17.3 1H17V.7h.1q.3 0 .4.3h.3l.1.3q.2 0 0 .2 0 .3-.3.5v.4h-.4v-.8q-.2-.1 0-.3z" clip-rule="evenodd"/><path fill="#fc3022" fill-rule="evenodd" d="M17.5 2.5q.2 0 0-.2l.2-.2h.1q.2 0 .3.3h.1q.2.2.4.1l.3.1q0 .3-.2.5-.2 0-.3.2l-1 .3q-.2-.3.1-.4.3-.3 0-.7" clip-rule="evenodd"/><path fill="#fc3022" fill-rule="evenodd" d="m19.4 2 .3.2q.2.1 0 .4v.1h-.3v-.2l-.2-.2q-.5 0-.8.2h-.3c-.1-.2.2-.3 0-.4l.2-.2h.5v-.3l.2.1z" clip-rule="evenodd"/><path fill="#fd3f32" fill-rule="evenodd" d="m17.5 2.5.3.2q.2 0 0 .2 0 .3-.2.4v-.1l-.1-.1q-.5-.3-.2-.7z" clip-rule="evenodd"/><path fill="#fd4134" fill-rule="evenodd" d="M18.2 2h.2v.2q-.2 0-.3.3l-.3-.4h.4" clip-rule="evenodd"/><path fill="#fc3022" fill-rule="evenodd" d="m19.4 1.6.1.1-.1.1zm-.6 0h-.1zm.5-.1v.1q-.2 0 0-.1" clip-rule="evenodd"/><path fill="#fc2213" fill-rule="evenodd" d="M21.7 3.4q-.4 0-.6.3h-.2v-.1q-.2-.1 0-.2v-.1q0-.3.2-.3l.2-.2.2.1.2.1zm0 .1h-.1z" clip-rule="evenodd"/><path fill="#fc2d1e" fill-rule="evenodd" d="M25.7 8.9v.9h-.2q-.1.4-.5.3-.3 0-.3.2v.5h.1l-.1.2h-.2q-.4 0-.3-.5l.1-.5q.3-.5.9-.6-.3 0-.4-.2l-.1-.4v-.1q.2 0 .3-.2l.1-.1h.3v-.1h.1v.3q0 .2.2.3" clip-rule="evenodd"/><path fill="#fc2213" fill-rule="evenodd" d="m24.8 10.8-.3-.1.2-.1v-.1q-.2 0-.2-.2l.2-.3q.2-.2.3 0h.3l.2-.1v.3l-.2.2-.1.2zm.9-.4q-.2 0-.2-.2zm-.2-.5.1-.1" clip-rule="evenodd"/><path fill="#fd3b2e" fill-rule="evenodd" d="M4.5 4.3q.4-.3.8-.2v.3q0 .2-.2.2-.1.2-.3 0t-.3-.2z" clip-rule="evenodd"/><path fill="#fd4e42" fill-rule="evenodd" d="M20 3.2c.5 0 .4.4.5.8l-.4.4h-.5q.6.6-.2.7-.6.1-.7-.4c0-.3.5-.4.5-.7q.4 0 .7-.2c.1-.2-.3-.3-.1-.5z" clip-rule="evenodd"/><path fill="#fc3023" fill-rule="evenodd" d="M20.4 4v-.2q0-.4-.4-.6l.2-.1.2-.2V3q0 .4.4.4l.1.2-.2.2q0 .3-.3.3m-.4-.9h-.2v.4l-.2.2q-.3.1-.4-.1v-.6z" clip-rule="evenodd"/><path fill="#fc3022" fill-rule="evenodd" d="m19.3 2.7-.1.4q-.4-.3 0-.4m.2-.1-.1.1" clip-rule="evenodd"/><path fill="#fd574c" fill-rule="evenodd" d="m9.8 7 .2.3v-.1q0-.3.3-.4h.4l.2.2v.1h-.2l-.4.1q-.3.2 0 .4h.1l-.6.2q-.2 0-.2-.4-.2.4.2.4 0 .4.3.4v.1l-.2.1.1.1-.1.3h-.1l-.2-.3v-.2l-.1-.1q-.2 0-.1.1v.2h-.2Q9.2 8 9 8v-.1q.1-.1 0-.2h-.4l-.2-.2v-.3l-.5.1h-.5q0 .3-.3.4h-.2v-.3Q7 7 6.7 7t0 .2v.3l-.2.2q-.2 0-.2-.2 0-.4-.3-.5h-.1q-.2 0-.1.2l-.2.1q0 .1 0 0l-.3-.2H5l-.2-.3q0-.2-.2-.3v-.4H5c.1 0 .4.2.5-.2h.3q0 .4.4.6H6v.2l.4-.1v-.3h.2l.2.2q.3 0 .5-.3 0-.1.2 0h.4l-.1.4V7H8q.3-.1.3-.4t.3-.2H9l.2.1zM7.6 5q.2 0 .3.2.2 0 .2.2v.1q0 .3-.3.4h-.3q0 .2-.2 0l-.6-.7V5l.6-.1z" clip-rule="evenodd"/><path fill="#fd4032" fill-rule="evenodd" d="m7.6 3.3.3.5q.3.1.2.3h-.3q0 .2-.3.2l-.2-.1-.3.5-.2-.3V4q0-.3.2-.2h.4l-.1-.4z" clip-rule="evenodd"/><path fill="#fd3a2c" fill-rule="evenodd" d="m6.8 5-.2.3.3.4-.1.2q-.4 0-.6-.3v-.4l.4-.3z" clip-rule="evenodd"/><path fill="#fd3a2d" fill-rule="evenodd" d="M4.9 6.2h-.2v-.5H5l.1-.2v-.2q.3.3.3.7-.2.5-.5.2" clip-rule="evenodd"/><path fill="#fd655a" fill-rule="evenodd" d="M7.2 6.3q.1.3-.1.3h-.5l-.2-.3q.3-.3.6-.1z" clip-rule="evenodd"/><path fill="#fd5e54" fill-rule="evenodd" d="M4.3 5.8q-.2-.3 0-.6l.2-.1.2.1v.4l-.2.1z" clip-rule="evenodd"/><path fill="#fd4033" fill-rule="evenodd" d="M4.2 6.3H4q0-.4-.3-.7l.1-.1h.1q0 .4.4.3z" clip-rule="evenodd"/><path fill="#fd5c52" fill-rule="evenodd" d="M8 2.5h.2q.3 0 .2.4V3h-.2L8 2.8l-.2-.3z" clip-rule="evenodd"/><path fill="#fd574c" fill-rule="evenodd" d="M7.5 4.3q0-.2.3-.1H8q0 .3-.3.3l-.1.1z" clip-rule="evenodd"/><path fill="#fd4337" fill-rule="evenodd" d="m7.5 6 .3-.1v.5l-.2-.1z" clip-rule="evenodd"/><path fill="#fd574c" fill-rule="evenodd" d="M7.1 6.3h-.6v-.1z" clip-rule="evenodd"/><path fill="#fd4033" fill-rule="evenodd" d="M8 2.5h-.2l-.1-.1q0-.2.3-.1z" clip-rule="evenodd"/><path fill="#fd574c" fill-rule="evenodd" d="M7.6 4.7V5z" clip-rule="evenodd"/><path fill="#fd4032" fill-rule="evenodd" d="M7.6 3.3v-.1" clip-rule="evenodd"/><path fill="#fd5448" fill-rule="evenodd" d="M15.5 24v-.4q.1-.4.4-.4t.3.6v.2q0 .4.3.1l.6-.1.3.3v.3H17v-.2h-.2l-.4.2q0 .3-.4 0l-.1.1q0 .2-.1 0l-.3-.2q-.2-.1-.1-.5" clip-rule="evenodd"/><path fill="#fd4d41" fill-rule="evenodd" d="M19 23.4h.2q0 .3.1.1 0-.3.3-.2l.3-.3.4-.2-.1.2-.2.2v.2q-.2 0-.4.3 0 .3-.3.1v.1l-.1.1q-.2-.2-.5 0 0 .2-.2 0h-.2v-.1h-.1v-.2q.2-.2.5-.2l.1-.2z" clip-rule="evenodd"/><path fill="#fd584e" fill-rule="evenodd" d="M17.4 24.3q-.2 0-.3-.3H17v-.8q.2-.3.4.1-.2 0 0 .2v.4c.3.1.4-.2.6 0q.2.4-.4.3z" clip-rule="evenodd"/><path fill="#fd5448" fill-rule="evenodd" d="M17.6 24.2q.3.1.4-.4l.2-.1v.5l-.1.1z" clip-rule="evenodd"/><path fill="#fd3528" fill-rule="evenodd" d="M15 25.4h-.2zm0 0" clip-rule="evenodd"/><path fill="#fc2a1b" fill-rule="evenodd" d="M20.6 23.6v.1q-.3.3-.7.1v-.2l.2-.1h.2v.1z" clip-rule="evenodd"/><path fill="#fd584e" fill-rule="evenodd" d="M21 21.8h.1" clip-rule="evenodd"/><path fill="#fc2213" fill-rule="evenodd" d="m22 23.1-.1.2v-.2" clip-rule="evenodd"/><path fill="#fc2b1c" fill-rule="evenodd" d="m18.5 25.3-.1.1zm0 0 .1-.2v.2" clip-rule="evenodd"/><path fill="#7b190a" fill-rule="evenodd" d="m17.4 19.9.1.3q-.5 0-.8-.2l-.8-.2q-.3 0-.6-.4t.3-.3l-.1-.2q0-.4-.5-.4-.2 0-.5-.3 0 .6.4.8.3.3 0 .4-.5-.1-.9-.4-.2-.2-.5-.1-.2 0-.3-.2l-.3-.8.2-.3q.2-.4.7-.2h-.7q-.2 0-.2-.3 1.1-.3 2.1.2l.8.5q.5.3.9.8l.3.5.2.3v.2z" clip-rule="evenodd"/><path fill="#fd584e" fill-rule="evenodd" d="M17.2 19.4q-.2 0-.2-.3c-.1-.2.2-.4 0-.6l-.4.2-.2-.3-.6-.5c-.1-.3.3-.4.3-.6l.2-.3v-.1q.4-.3 0-.4H16q-.3 0-.1.4h-.1.1c.3.2 0 .3 0 .5q0 .4-.4 0v-.1l-.4.1q-1-.4-2-.3l-.2.1h-.3q.1-.2.5-.3h.9q.2 0 .1-.2v-.3l.2-.1q.2 0 .3-.2l.3.1q0 .3.2.2t.4-.2V16h-.2l-.2.1-.1-.2.1-.2.3.1h.5q.3 0 .1.2v.1l.3-.1.1-.1.3-.2v.3q.2 0 .3.3v.3q.3 0 .2.2 0 .6.4.4l.3.1h.5l.2.1-.2.2q-.7 0-1.2.5.1.4.6.8l.8.8q.3.3-.1.3l-.3-.1-.6-.8h-.2q0-.2-.1 0l.1.1q-.2 0-.2.2" clip-rule="evenodd"/><path fill="#fd6358" fill-rule="evenodd" d="M18.2 19.9h.5v-.2h.6q.2 0 .3.3l-.1.4q.2.2.5.2h.1v.1q-.5.2-.2.4l.2.3q-.3.2-.7 0l-.2.2.2.1q0 .2.3 0h.3l.1.1q-.4.3-.6.9v.1h-.1l-.6.3-.5-.2h-.2l.1-.2q.1-.1 0-.2-.2 0-.1-.2l.5-.1.1-.1.2-.3-.1-.2q-.2 0 0-.2l-.1-.3-.3-.5v-.4q-.3 0-.2-.3" clip-rule="evenodd"/><path fill="#fc6e65" fill-rule="evenodd" d="m14 18.9.8.4.3.1.1.2q.1 0 0 .2v.1h-.3l-.2-.2h-.4v.2q0 .4-.4.3h-.2l-.6-.3v.3q-.4 0-.3.3 0 .2-.3.1l-.2-.2H12l-.6.1q.1.2 0 .2-.4 0-.2.3v.1l-.2.1h-.2v-.3l.2-.2c0-.4.5-.6.6-.9l.2-.1h.4q.4.2.6-.3h-.6v-.2a1 1 0 0 1 1-.4z" clip-rule="evenodd"/><path fill="#761908" fill-rule="evenodd" d="m11.8 19.9-.5.5-.2.3-.4.3q-.3.3-.7.3h-.2v-.6q.8-.1 1-.8.3-.3.7-.4h.3q.1.3 0 .4" clip-rule="evenodd"/><path fill="#731605" fill-rule="evenodd" d="m15.3 19.8-.1-.2.1-.2h.1l.3.3h.3l.2.2.1-.1h.4l.2.2h.3l.3.2q-.6.6-1.1.2l.2.7v.2h-.2l-.4-.6z" clip-rule="evenodd"/><path fill="#731605" fill-rule="evenodd" d="m17.5 20.2.3.6v.3l-.1.2q0 .4-.3.6h-.6q-.5-.5.1-.5-.5 0-.2-.3.5-.4.8-.9" clip-rule="evenodd"/><path fill="#7a1a0b" fill-rule="evenodd" d="m17.5 20.2-.4.8-.3.1v.2l.3-.1v.3h-.3l-.1.1.1.3-.4-.4v-.3h.1l-.2-.4v-.4h-.1.7z" clip-rule="evenodd"/><path fill="#fd6257" fill-rule="evenodd" d="m17 24-.4.2v.1H16v-.7l-.3-.4q0 .4-.2.4V23h.4l.2.1.1.2q0 .3.2.3z" clip-rule="evenodd"/><path fill="#fd5d52" fill-rule="evenodd" d="M14.6 21.7v.3h-.3l-.2-.2.1-.2v-.4q-.3 0-.4-.3l.3-.3.1-.2h.2v.2h-.1q-.2.3 0 .4l.3.2h.2l-.2.1z" clip-rule="evenodd"/><path fill="#fd6358" fill-rule="evenodd" d="M18.5 23.1q0 .3-.3.1H18q-.2 0-.3.3v-.4q0-.4.3-.1h.3zm-1.1.9v-.4h.4l.2.2-.3.2zq-.2 0 0-.2" clip-rule="evenodd"/><path fill="#fd5d52" fill-rule="evenodd" d="M13.2 20.4h.3l.1.2v.1h-.2z" clip-rule="evenodd"/><path fill="#fd6358" fill-rule="evenodd" d="m17.4 23.3-.3-.2-.2.1v-.1q.3-.3.5 0z" clip-rule="evenodd"/><path fill="#fd584e" fill-rule="evenodd" d="M17.7 19.6h-.1z" clip-rule="evenodd"/><path fill="#fd6358" fill-rule="evenodd" d="M17.4 23.5h-.2l.2-.2z" clip-rule="evenodd"/><path fill="#fd584e" fill-rule="evenodd" d="m17.3 19.6-.1-.2z" clip-rule="evenodd"/><path fill="#fd6358" fill-rule="evenodd" d="M18.8 23.1q0 .2-.2 0zm-.4-1.1" clip-rule="evenodd"/><path fill="#fd584e" fill-rule="evenodd" d="m17.4 19.8-.1-.2zm0 .1" clip-rule="evenodd"/><path fill="#fd6358" fill-rule="evenodd" d="M17.7 23.5h.1m-.3.1" clip-rule="evenodd"/><path fill="#862214" fill-rule="evenodd" d="M11.8 19.9v-.3q-.4 0-.7.2l-.2.2-.2.3-.1.2q-.1.3-.5.2h-.3q0-.7.3-1.2l.5-.5.2-.2.7-.1q.3 0 .2-.2l.2-.4.1-.2h.7v-.1h.2l.2.2q0 .3.2.2v.5h.6l.2.2h-.9q-.3 0-.7.3l-.2.1-.4.5z" clip-rule="evenodd"/><path fill="#fd665c" fill-rule="evenodd" d="m7.3 20.8.1-.1.3.1v.1l-.3.1z" clip-rule="evenodd"/><path fill="#fd756c" fill-rule="evenodd" d="M8.2 20.5v-.2z" clip-rule="evenodd"/><path fill="#fd665c" fill-rule="evenodd" d="M7 20.7h.3q0 .3-.2.2t0-.2" clip-rule="evenodd"/><path fill="#fd6257" fill-rule="evenodd" d="M13.5 23.8q.1 0 0 .2v.1q-.3 0-.5-.2z" clip-rule="evenodd"/><path fill="#fd6257" fill-rule="evenodd" d="M14 24q-.5-.2 0-.3.3 0 .1.1z" clip-rule="evenodd"/><path fill="#fd5d52" fill-rule="evenodd" d="M10.5 23.4h-.2q0 .3-.2 0l-.5.3v-.1q.4-.3.3-.7h.2v.1q0 .2.2.2zm-.9.3" clip-rule="evenodd"/><path fill="#fd5a4f" fill-rule="evenodd" d="m7 20.7.1.2.2-.1v.2l-.3.3-.3.3q-.2 0-.2-.2.3 0 .2-.4l-.1-.1-.1-.3q.2.2.5 0" clip-rule="evenodd"/><path fill="#fd7b71" fill-rule="evenodd" d="M2.5 15.5v-.2l.1-.2-.1-.3q-.2-.1-.3-.4.5-.2.4-.8.6 0 .8-.5v-.2L3 12l-.1.1h-.1v-.6q0-.3.3-.3.4 0 .4-.3v-.1l-.1-.1v-.3l-.2-.2.1-.2h.1q0 .3.2.2H4q.3 0 .3-.3h.2q.2 0 .1-.3l-.2-.2-.2-.1.7-.4h.3q.1.4-.2.5h-.1q.4.1.4.4-.1.3.2.4l.2.3q0 .3-.3.3-.4 0-.6.4-.2.3-.6.2L4 11q.1-.3.4-.4h.3q-.3-.4-.7.2l-.2.6-.2.3-.1.3q0 .3.4.2H4q.3 0 .4.2c0 .2.2.6-.2.6q-.3.1-.5.4h-.1v.1q0 .7.7.7.5 0 .6.6 0 .2.3.2c0-.2-.3-.5.2-.5l.1-.2.2-.4q.5-.5-.1-.5-.2 0-.2-.4 0-.8 1-.6c-.1-.2-.5-.3-.3-.7q0-.7.5-.4.3 0 .5-.4.5.1.9.4l.7.3q.4.1.3.4v.2q-.2 0-.2.2t-.3.1l-.2-.2v-.2q-.3-.3-.4 0t-.5.3-.4.4v.3q0 .3-.2.4h-.1l-.2.2H7l.2.1v.3q-.2.2 0 .5l-.2.1-.1-.1q0-.2-.3-.2h-.3q-.3 0-.1.3 0 .2.3.1.4 0 .3.2l.5.5H8q0 .3.3.4v.3q0 .2.3.1h.3v.3h-.4l-.2.3v.4l-.2.2v.1q.2 0 .3-.2h.4q0-.4.3-.3h.2q.3 0 .3.3t-.3.4-.7.2 0 .4l.1.1.1.1-.2.3q0 .2-.3 0l-.4-.2-.4-.4q-.3-.3-.6-.1h-.4q-.2-.3-.5 0l-.4.1-.2-.2q-.1-.2-.4-.2l-.1-.4-.4-.3-.1-.4v-.1H4q0 .3-.3.1h-.3v-.6q-.2-.1-.2-.4-.1-.3-.4-.2z" clip-rule="evenodd"/><path fill="#fd7b71" fill-rule="evenodd" d="M2.3 13.2h.3q.2.1 0 .2v.2q-.3 0-.3-.3" clip-rule="evenodd"/><path fill="#fd6960" fill-rule="evenodd" d="M10.7 7v-.2l-.2-.4V6l-.1-.1v-.3q0-.3.2-.2v.1l.1-.1.5-.3h.4l.1-.2-.1-.1q-.4-.1-.4-.4l.4-.1.3-.1h.4v1.2h-.1q-.3.6-1 .5.1.2 0 .4v.2q.6.3.2.7v.2q.1-.5.5-.5t.5.2q.3.2.4 0 0-.3.2-.2h.2l.1.1c0 .2.3.3 0 .5q.5.6-.2.8H13c-.2-.2-.3-.6-.6 0h-.5c.4.1.2.5.3.8h.6q.5 0 .6.3.3 0 .3.4t.2.6q.3.3 0 .4t-.4 0c-.2-.4-.2.1-.3 0H13l-.7-.5q-.5-.2 0-.5v-.2l-.2.1q-.3.3-.7.2-.3-.2-.4 0l-.3.3q-.2.5-.8.6l-.5-.2H9l-.1-.1-.2-.2.2-.2q.6.2.8-.5h.4l.1.1h.1v-.2q-.3-.2 0-.4v-.4h-.2l.3-.2.2-.2h.1V8l.1-.2v-.3z" clip-rule="evenodd"/><path fill="#fd756b" fill-rule="evenodd" d="M9.8 9.5v.3l-.2.2q-.2.4-.5.1h-.3q-.2.2-.5-.1l-.7-.5q-.5-.3-.8.2-.4 0-.9.3t-.7-.1l-.4-.3v-.2q.3 0 .3-.3h.3v-.3H6l.1-.2q.3 0 .2-.3v-.4l.2.2.2.2.1.2-.1.1v.1H7v-.4h1.1l.1.1v.1H9l.5.2V9l.1.4z" clip-rule="evenodd"/><path fill="#fd473b" fill-rule="evenodd" d="M7.8 7.3q.3 0 .5-.3l.2.1q0 .3-.2.4l-.4.1q-.1 0 0-.2" clip-rule="evenodd"/><path fill="#fd463a" fill-rule="evenodd" d="M6.7 7.3 6.4 7h.2q0 .1.2 0H7v.2l-.1.3z" clip-rule="evenodd"/><path fill="#fd574c" fill-rule="evenodd" d="M8 7.6q0-.3.3 0zm-.2-.2v.2z" clip-rule="evenodd"/><path fill="#fc6f66" fill-rule="evenodd" d="M11.6 17.3q-.4-.3-.6 0l-.2-.1v-.3h-.2v.4q.1.2 0 .4-.2.3-.6.3v-.4l.3-.1v-.4l-.1-.1h-.7v-.4c.3-.1.1-.4.2-.5q0-.2.2-.2l.1.5.2.2q.2 0 .2-.2l.1-.4-.3-.1v-.2l.2-.3V15l-.2-1.2v-.3q.3 0 .3.3h.1q.8 0 1.4.6v.4l-.5.2-.4-.2q.5.3.6.7.3.4-.1.7-.5.1-.6-.3v.6q0 .2.2.2h.3q.2.1.4 0 0-.3.3-.4.4 0 .3.2-.3.6-1 .8" clip-rule="evenodd"/><path fill="#fc6a60" fill-rule="evenodd" d="m11.6 17.3.1-.1.7-.7.4.1.2-.8.4-.6c0-.4.8-.4 1 0l.2.2-.2.4-.1.1q-.4 0-.3-.3 0-.2-.2-.1-.3 0-.1.3l.1.2.6.2v.1h-.1l-.1.1q0 .2-.4 0l.4.2q0 .3-.2.4h-1q-.3 0-.4.2l-1.1.8q-.2.3-.6.4l.1-.3q0-.3.3-.4.2 0 .3-.3z" clip-rule="evenodd"/><path fill="#8d2819" fill-rule="evenodd" d="M9 12.1q-.2-.3-.6-.4l-.5-.2h.4l-.6-.6.5-.7q.3 0 .3.4.3-.4.4 0 0 .4.4.6.3.2.7.1h.3l.2.8c-.2.2-.3.7-.7.3h-.3q-.3 0-.4-.2" clip-rule="evenodd"/><path fill="#f86b62" fill-rule="evenodd" d="m9.1 12.2.4.2q.6 0 .8.6l-.2.4h-.3q-1-.4-1.3.5v.2l-.2 1V15l-.3-.6v-.2l.2-.9-.3-.1v-.1q0-.3.4-.2l.1.1H9l.2-.2z" clip-rule="evenodd"/><path fill="#751506" fill-rule="evenodd" d="m11 18.4.8-.7.9-.5h1l.1.2q-.4 0-.6.2v.2h-.5q0 .2-.2 0-.3 0-.4.2H12v.8h-1z" clip-rule="evenodd"/><path fill="#972c1d" fill-rule="evenodd" d="M8.3 15v-1h.4c.3-.5.8-.2 1.2-.4h.1q.4.7.3 1.6 0 .3-.3.2l-.8.1q-.2 0 0-.2l.4-.2q.4-.3.3-.7-.3-.3-.5-.1-.5 0-.5.3v.2q.3.2.2.5h-.3q-.3 0-.4-.5v.4z" clip-rule="evenodd"/><path fill="#8d2617" fill-rule="evenodd" d="M9.2 15.4h1v-1.1l-.1-.4-.2-.2h.3q.5.6.4 1.1v.3l-.1.3-.1.1-.1.2h-.1q0 .3-.3.2-.4.2-.8 0H9l.6-.2c0-.2-.3 0-.3-.3" clip-rule="evenodd"/><path fill="#7e1d0e" fill-rule="evenodd" d="m9.2 15.4.2.1.3.1.1.2h-.9q-.4 0-.5-.6v-.4l.4.4z" clip-rule="evenodd"/><path fill="#fc6f66" fill-rule="evenodd" d="M11.7 17.4v.2l-.2.2q-.4 0-.4.3l.2-.5z" clip-rule="evenodd"/><path fill="#fd7b71" fill-rule="evenodd" d="M4.4 18q0 .2-.2.3l-.2-.1V18h.3" clip-rule="evenodd"/><path fill="#f9675e" fill-rule="evenodd" d="M9.1 16h.7z" clip-rule="evenodd"/><path fill="#fc6f66" fill-rule="evenodd" d="M11 18.4v.1z" clip-rule="evenodd"/><path fill="#fd766d" fill-rule="evenodd" d="M10.1 13.4v-.2q0-.2.2-.2c.4-.1.5-.6 1-.6q0 .3.2.4.4 0 .3.5 0 .4.3.6h.2q.5-.5.8 0 .5.6.8-.1 0-.5.5-.6L14 13l-.1-.2c-.7-.6-.7-.6 0-1.2v-.1l.4-.2v.1-.1q.3-.2.4.1h.3q.3 0 .5.2.1.3-.1.6t-.5 0q0 .2.3.4l.1.4q.1.3-.2.4-.3 0-.4.3-.4 0-.3.4.1.3.5.3.2 0 .3-.2t.3-.3l.3.1q0 .3-.2.5l-.1.1-.1.3-.1.2H15q-.1-.1-.2 0l.1.1v.1l-.1.2-.2-.1h-.3l-.1-.3q-.2-.3-.5 0h-.2q-.2 0-.2.3v.3H13v.3q-.2 0-.2.2v.6l-.4-.2-.1-.1v-.1h-.2l-.4.4-.4.2v-.3h-.1l-.3.2q-.2-.1-.2-.4t.2-.9v.2q0 .3.3.4.3 0 .4-.2 0-.5-.3-.7V15H11l-.2-.1.2-.3h.1q.4.4.6.2.2 0 .2-.2l-.1-.2h-.2l-.3-.2-.1-.1q-.2 0-.5-.3h-.2q-.2 0-.4-.3z" clip-rule="evenodd"/><path fill="#fd655a" fill-rule="evenodd" d="M21.7 12.7q0 .2-.2.3h-.3v.2h-.5c-.5.4-.4-.2-.6-.3v-.1q.6 0 1-.4l.2-.3h-.5q-.3-.3 0-.7l-.5-.8q-.1-.4-.5-.6c-.1-.2-.1-.6-.5-.3H19q-.1-.6.1-1-.5.3-.8-.2l.1-.2c.3-.2.7 0 1-.3l.4.1.1.6.3.7v.1q.4-.5.7 0 .3.3.5.3-.1-.6-.6-.7c0-.2-.3-.2 0-.5q.1-.3.4 0 .5.2.8.6t.9.3h.1q.3 0 .2.4l-.4.2q-.7 0-1 .4h.4l.2.2q0 .3.2.2h.1v.1l-.2.2v.2q-.1.4-.5.4v.2h.4v.2h-.2q-.4 0-.3.3z" clip-rule="evenodd"/><path fill="#fd5347" fill-rule="evenodd" d="m20.4 18.1.3.3-.6.3h-.2q-.2 0 0-.2 0-.3-.2-.4v-.5q0-.3.2-.3h.5q0-.3-.2-.5.3 0 .1-.3 0-.3-.3-.5-.2 0-.2-.3v-.6l.2-.1.2.1v.3q.2 0 .2.2l.2.2v.2l.2.1v.2h-.3v.1l.4.1q.2 0 .3-.2h.1v.2q-.3.2-.1.3v.2h.2q.3-.4.4 0l.1.1v.2h.4v.1q-.3 0-.4.3h-.1v-.3h-.5l-.3.4v.1q0 .4-.2.2h-.1q0-.4-.2-.5v-.2q-.2 0-.2.2z" clip-rule="evenodd"/><path fill="#fd6d64" fill-rule="evenodd" d="m19.6 14.7-.2.6q0 .3-.2.2v.2l-.1.2q-.4.2-.4.6t-.2.3-.4.3h-.2v-.4l-.1-.3q-.3.1-.4 0V16l.1-.2.1-.1.2-.1q.4-.2.6-.8l.2-.4q.7-.2 1 .3" clip-rule="evenodd"/><path fill="#fd675c" fill-rule="evenodd" d="m19.6 14.7-.3-.2h-.7v-.2l-.2-.7q-.4-.8.5-.8.2 0 .2-.2t.4-.3v-.1q.4 0 0-.2l.5-.3.6.1q0 .3-.2.4-.1.4-.5.5-.7.4-.1.8l.4 1v.1z" clip-rule="evenodd"/><path fill="#fd5448" fill-rule="evenodd" d="m18.6 19.7-.4-.1v-.2l-.2-.2q-.2 0-.3-.3.3 0 .2-.4-.1-.6.6-1h.1l.4.1h.2v.3q.2.1.1.4v1l-.1.1h-.4l-.2-.2q-.2.3 0 .5" clip-rule="evenodd"/><path fill="#fd6c63" fill-rule="evenodd" d="m15.5 14.6.2-.3V14l-.2-.2q-.3 0-.3.3v.3H15q-.3.1-.5-.1l-.3-.2.2-.5q.2-.3.7-.4.2 0 .1-.3v-.4l.2.1.3.3q.6.2.5.9l.2.2v.1l-.1.1h-.1q-.3.4-.6.3z" clip-rule="evenodd"/><path fill="#fd594f" fill-rule="evenodd" d="M22.4 10.7h-.8q-.1-.3.4-.5l.2-.1q.2-.2.5-.1l.4-.2q0-.2-.2-.3 0-.2.2-.1.5 0 .7.6.1.3.4.5v.2q0 .2-.2.2t-.6-.2q-.1-.2-.2 0z" clip-rule="evenodd"/><path fill="#fd5044" fill-rule="evenodd" d="m23.4 10.7.7.2h.7v-.1q.3-.1.3.2l-.2.4q-.2 0-.5.3l-.2.2h-.4q0 .2-.1 0h-.2v.3h-.3l-.1-.3v-.5c.3-.2.5.2.8 0q-.5 0-.6-.5z" clip-rule="evenodd"/><path fill="#fd594f" fill-rule="evenodd" d="M20.2 14.4q-.2 0-.2-.4h-.2v-.6q-.1-.3.1-.4l.1-.1q.3 0 .4.4h.3l-.3.3v.1q0 .2.2.2h.3v.2l-.5.4z" clip-rule="evenodd"/><path fill="#79190a" fill-rule="evenodd" d="m16.3 14.3.1-.2q.3-.3.3 0v.5l.2.3q.1.3.5.4h.1q.3.2 0 .4h-.3l-.4-.1-.3-.3-.1-.2z" clip-rule="evenodd"/><path fill="#fd6c63" fill-rule="evenodd" d="M17.6 17.2q0 .3-.4.2v-.1l-.1-.2-.1-.1v-.4h.2l.1.2.1.1.2.2z" clip-rule="evenodd"/><path fill="#fd463b" fill-rule="evenodd" d="M23.3 10.9q.4 0 .2.3h.5v.1l-.1.1q-.2.3-.4 0h-.3V11z" clip-rule="evenodd"/><path fill="#fd6c63" fill-rule="evenodd" d="m15 15.3-.3-.1v-.4h.2l.2.2h.2q0 .4-.3.3" clip-rule="evenodd"/><path fill="#a33628" fill-rule="evenodd" d="m16.5 15.3.3.3q-.3 0-.3-.3" clip-rule="evenodd"/><path fill="#fd584e" fill-rule="evenodd" d="M19.9 20v-.4q.2.2 0 .3" clip-rule="evenodd"/><path fill="#8e2819" fill-rule="evenodd" d="M17.2 15.7h.4z" clip-rule="evenodd"/><path fill="#fd584e" fill-rule="evenodd" d="M19.4 19.3v-.2z" clip-rule="evenodd"/><path fill="#fd5145" fill-rule="evenodd" d="M22.8 12.9v.2l-.2-.2z" clip-rule="evenodd"/><path fill="#fd6c63" fill-rule="evenodd" d="M15.4 14.9v-.3zm-.1.1q.2.1 0 .2" clip-rule="evenodd"/><path fill="#fd584e" fill-rule="evenodd" d="M19.2 19.4h.2zm.2-.4h-.1q.2 0 0 0m-4.2-2.8" clip-rule="evenodd"/><path fill="#a33628" fill-rule="evenodd" d="M16.4 15.1v.2z" clip-rule="evenodd"/><path fill="#fd6156" fill-rule="evenodd" d="M22.5 13.8q0 .5.3.2h.4v.1l-.1.3h-.2l-.3.1q0-.2-.2-.2H22V14q.3 0 .3-.3v-.2l.2.2" clip-rule="evenodd"/><path fill="#fd4e42" fill-rule="evenodd" d="M21.8 18.5v-.1l.3-.2q.2.2.1.4h-.1z" clip-rule="evenodd"/><path fill="#fd6156" fill-rule="evenodd" d="M23 13.4v.2h-.2v-.1z" clip-rule="evenodd"/><path fill="#fd5347" fill-rule="evenodd" d="M22 17.1h-.1z" clip-rule="evenodd"/><path fill="#fd6358" fill-rule="evenodd" d="m20.2 22 .2-.5v.3zm-.8 1q0 .2-.2.2zm0-.2h.2l-.1.2h-.1zm.3-.1h-.1z" clip-rule="evenodd"/><path fill="#fd584e" fill-rule="evenodd" d="M24 18.4h.2z" clip-rule="evenodd"/><path fill="#fd5d53" fill-rule="evenodd" d="m13.7 3 .7-.1v-.1l.3-.2v-.3l.4.2h.1v.1l.1.2V3h.3c0 .4.4.5.3.8V4h-.4q-.4-.3-.6.1 0 .4-.5.6v-.5L14 4v-.5l-.3-.4" clip-rule="evenodd"/><path fill="#fd6257" fill-rule="evenodd" d="M12 6.8q-.3 0-.3.3l-.1.1q0 .2-.2.1-.2 0-.1-.1l.2-.4q.2-.2-.1-.3t-.3-.4h.1l.1-.1-.2-.1q.2-.3.5-.3h.4q0-.4.2-.4h.2q.5 0 .5.4V6h-.2q-.1.1-.4 0v.1q-.2.3-.4.1-.3.5.1.6" clip-rule="evenodd"/><path fill="#fd7b71" fill-rule="evenodd" d="m14.8 6.7.1-.2v-.3q1.1-.4 1.2.6V7q-.2 0-.3.2l.2.2v.3h-.2l-.4-.1v.1l-.2.2q0 .2-.2.2l-.2-.1v-.3l-.1.2h-.1l-.1-.1-.1-.1-.2-.1v-.1H14V7h.5l.3.3q0-.2-.3-.3l.2-.4" clip-rule="evenodd"/><path fill="#fd736a" fill-rule="evenodd" d="m14.5 6.5-.6-.1V6q0-.3-.2-.4v-.3l.2-.2h1.3q.2-.2.5-.2.4 0 .3.4.1.4-.4.4-.3 0-.5.2h-.5q-.2 0-.2.2z" clip-rule="evenodd"/><path fill="#fd7066" fill-rule="evenodd" d="m11.7 4.4-.4.1q.1.3.5.2l.2.1v.3l-.3.2-.3.2q0-.2-.2-.2v-.1l-.7-.7-.6-.5v-.2l.1-.3.2-.1h.2v.4q.2.1.3.4.4-.1.5.2h.2l.2-.1q.2 0 .1.1" clip-rule="evenodd"/><path fill="#fd7067" fill-rule="evenodd" d="M13 5.6q-.2 0-.2-.2l-.4-.1V5q-.3 0 0-.2 0-.1 0 0h.1q0-.1-.1 0l-.2-.2v-.2l.2-.1h.3V4l.2-.1h.2l.1.2v.2q.1.1-.1.3v.5h.4l-.1.2-.2.2v.2q0 .2-.2.3z" clip-rule="evenodd"/><path fill="#fd6257" fill-rule="evenodd" d="m13.4 9.3-.6-.2.2-.4q.3-.3.2-.6.4-.1.4-.5h-.4l.1-.2.2-.1q-.2-.1-.1-.4h.2l.1.3h.2l.2.2h.1l.2.1V8h-.6l.1.3q.1.3-.2.4l-.2.2.1.1v.2z" clip-rule="evenodd"/><path fill="#fd736a" fill-rule="evenodd" d="m11.7 4.4-.3-.3.1-.2v-.2q.4.2.7 0h.1q0-.3.2 0h.1q.1 0 0 .2H12V4h.1q.3 0 .3.4-.2-.2-.4 0z" clip-rule="evenodd"/><path fill="#fd6257" fill-rule="evenodd" d="M13.2 6.8V7H13l-.1-.1v.2l-.2.2h-.2q-.3-.4-.6-.5 0-.2.2-.2h.5l.3-.3.2.2z" clip-rule="evenodd"/><path fill="#fd756c" fill-rule="evenodd" d="M13.2 6.8v-.3h.4l.3.2v.2h-.5z" clip-rule="evenodd"/><path fill="#fd5d53" fill-rule="evenodd" d="M14.3 5.2V5h.4q.3-.1.5.2 0 .3-.3.4z" clip-rule="evenodd"/><path fill="#fd7067" fill-rule="evenodd" d="m14.8 6.7.2.1-.1.2q-.2 0-.3.2l-.2-.1v-.2q0-.3.3-.3zm-.3-.2-.1-.2v-.1h-.1q0-.2.3-.3v.2l.1-.3.3.2v.5z" clip-rule="evenodd"/><path fill="#fd5e54" fill-rule="evenodd" d="M11.3 2.5q.2-.2.2 0v.4h-.3zm-.1 1.9-.4-.2.2-.3zm.3-.8h-.4q0-.2.2-.2h.2z" clip-rule="evenodd"/><path fill="#fd7067" fill-rule="evenodd" d="M13.8 7.3h.3v.1z" clip-rule="evenodd"/><path fill="#fd5e54" fill-rule="evenodd" d="m10.8 3.7-.1-.1" clip-rule="evenodd"/><path fill="#fd7067" fill-rule="evenodd" d="m14.2 7-.1.2z" clip-rule="evenodd"/><path fill="#fd6459" fill-rule="evenodd" d="M9.7 6.2V6h-.2q-.2-.2-.2-.5h.2q.1.2.3.1.3 0 .3.3v.3q-.2 0-.2.2z" clip-rule="evenodd"/><path fill="#fd5347" fill-rule="evenodd" d="m8.1 5.4.2-.1v-.4h.2l.2.1.1.3v.1q-.3 0-.3.3v.2h-.1q0-.2-.3-.5" clip-rule="evenodd"/><path fill="#fd6960" fill-rule="evenodd" d="M10.5 4.5q0 .2.3.2l.4.3v.2q-.4-.1-.8.1L10 5q0-.3.2-.3z" clip-rule="evenodd"/><path fill="#fd4a3f" fill-rule="evenodd" d="M9 6.5q-.2-.3 0-.5h.2l.1.2q0 .1.2 0h.2v.1l-.2.1v.2z" clip-rule="evenodd"/><path fill="#fd6459" fill-rule="evenodd" d="M9 6.5h.3l.6.3v.3q-.3 0-.4-.2T9 7z" clip-rule="evenodd"/><path fill="#fd4438" fill-rule="evenodd" d="m10.5 5.7-.3-.1q0-.3.2-.3t0 .4" clip-rule="evenodd"/><path fill="#fd6459" fill-rule="evenodd" d="M10.1 6.6v-.2h.5z" clip-rule="evenodd"/><path fill="#fd6960" fill-rule="evenodd" d="M9.5 4.6h.3q0 .3-.3 0" clip-rule="evenodd"/><path fill="#fd574c" fill-rule="evenodd" d="m7.9 6.2-.1-.3H8V6z" clip-rule="evenodd"/><path fill="#fd6459" fill-rule="evenodd" d="M10.5 5.8V6h-.2v-.2zm-.6 1.3" clip-rule="evenodd"/><path fill="#fd3e30" fill-rule="evenodd" d="M25.5 14.9q-.3 0-.4-.2H25l-.5.4-.2.2h-.7v-.1l.1-.1h.2l.2-.2-.1-.2h-.1v-.2l.7-.2.6.1H25h.4l.2.3zm-2.2.8h.3l.1.3v.1h-.2V16q-.3 0-.3-.2zm.1-.4v.2z" clip-rule="evenodd"/><path fill="#fd463b" fill-rule="evenodd" d="m23.4 13.3.2.1zm-.4.2h.2zm.6-.2h.2zm-.1.3h.1" clip-rule="evenodd"/><path fill="#fd3e30" fill-rule="evenodd" d="M23.9 14.3h-.3q.2-.2.3 0m-.2-.3" clip-rule="evenodd"/><path fill="#fd382a" fill-rule="evenodd" d="M24.4 11.7q0-.4.4-.4.2 0 .2-.2t-.2-.3l.4-.2v.4q-.2.3 0 .6v.1l-.4.2h-.3z" clip-rule="evenodd"/><path fill="#fd463b" fill-rule="evenodd" d="M24.3 13h.2q-.1.2-.2 0" clip-rule="evenodd"/><path fill="#fc3729" fill-rule="evenodd" d="M25.7 12.8h-.1" clip-rule="evenodd"/><path fill="#fd3e31" fill-rule="evenodd" d="M23 5.6q.2 0 .2.2V6l.3.3q0-.2.2-.2.5 0 .7.3v.8q0 .2-.3.2 0-.4-.4-.2h-.1q-.5.4-1 .3l-.3.2q-.4-.1-.3-.5V7h.5l.1-.1c.2-.1.5-.4.7 0q.1-.7-.5-.3-.3.1-.5-.1l-.3-.2q-.4 0-.3-.4v-.2l-.6-.1q-.3-.2 0-.5.2 0 .2-.3v-.4q.3 0 .3.3l.1-.3q.2.1.2 0V4q.3 0 .2.2v.4h.3q.4-.1.4.2v.5h-.3q0 .3.3.5z" clip-rule="evenodd"/><path fill="#fc3427" fill-rule="evenodd" d="m24 7.5.4-.2.1.1.2.1h.3v.3l.3.6h-.1l-.1.1v.2h-.3v-.4.2q-.2 0 0 .2v.4q0 .3-.2.3l-.5.1h-.3q-.4.2-.5 0 0-.5.3-.5.6-.2.5-.8c0-.2-.3-.5 0-.7" clip-rule="evenodd"/><path fill="#fc3427" fill-rule="evenodd" d="M25.4 8.4q0 .2-.1 0zm.3.5h-.2q-.2 0 0-.3l.2.2" clip-rule="evenodd"/><path fill="#fd483d" fill-rule="evenodd" d="m21.7 4.5-.1.4v-.1l-.2-.2v.5q-.2 0 0 0l-.1.2H21q-.7-.4-.7-1.2l.3-.2v-.1q-.2 0 0-.2h.2v.1h.2l.2.1V4h-.1z" clip-rule="evenodd"/><path fill="#fd4a3f" fill-rule="evenodd" d="M23 5.6V6l-.2.2q-.3-.1-.3-.5l-.1-.2q0-.1.1 0h.4z" clip-rule="evenodd"/><path fill="#fd3e31" fill-rule="evenodd" d="m24 5.9-.5.1v-.4h.1z" clip-rule="evenodd"/><path fill="#fd665c" fill-rule="evenodd" d="m6.5 21.4.2.2h-.2z" clip-rule="evenodd"/><path fill="#fd5449" fill-rule="evenodd" d="M15.2 2.5H15v-.1q.2-.3.5-.1v.5l.2.1q0 .3-.2.2h-.2q-.3 0-.1-.4h-.1z" clip-rule="evenodd"/><path fill="#fd4539" fill-rule="evenodd" d="M15.6 2.3H15V2h.3q0 .2.2.3" clip-rule="evenodd"/><path fill="#fd5d53" fill-rule="evenodd" d="M15.6 3h.2l.4-.4h.2l.5-.1h.2q0 .3-.3.4-.3 0-.3.3.1.4.5.4h.1v.2l.5.1h.2q.4.2 0 .6l-.3.4h.4v.6q.2.2-.2.3H17q-.1 0 0-.2t-.1-.2q-.6 0-1-.4-.6-.1 0-1 .3-.4-.1-.7z" clip-rule="evenodd"/><path fill="#fd4f42" fill-rule="evenodd" d="M17 3.7q-.2.1-.4-.2l-.2-.2q0-.4.2-.4.3-.1.5-.4H17q0-.2.3-.1v.3q0 .2.2.3c-.2.2 0 .6-.4.7" clip-rule="evenodd"/><path fill="#fd4f42" fill-rule="evenodd" d="m17 2.5-.5.2-.1-.2z" clip-rule="evenodd"/><path fill="#fc3022" fill-rule="evenodd" d="M17.5 2.5h-.1z" clip-rule="evenodd"/><path fill="#fd4337" fill-rule="evenodd" d="m17 3.7.2-.1.1-.4q0-.3.2-.1l.1.2-.1.1-.1.1h.1l.5-.1q.3 0 .2-.3l.2-.2h.2q.1.1.2 0v-.3h-.4l-.3-.1q.3 0 .5-.2h.1l.3-.1h.1l.3.3v.1l-.1.1q-.3.2-.1.4l.2.3q-.2.3-.6.1-.6 0-1 .5h-.3z" clip-rule="evenodd"/><path fill="#fd4539" fill-rule="evenodd" d="m19.4 2.5-.2-.2h.4v.2z" clip-rule="evenodd"/><path fill="#fd483d" fill-rule="evenodd" d="M24 7.5v.2h.3V8q-.3.2 0 .3v.5q-.2 0-.2.3h-.3l-.5.3v.2h.5q.2 0 .3-.2h.6l.1-.1h.5v.4h-.1l-.1-.1-.3.1q0 .2-.2.2l-.2.2h-.6l-.3-.3-.4-.3-.2.1-.7-.2q-.3-.4 0-.7t.5 0q.1.4.5.4.2-.7-.3-1.2h-.6v-.1l.1-.2h.7l.4-.2h.1V7q.3.2.5 0h.1l-.1.5" clip-rule="evenodd"/><path fill="#fd3f31" fill-rule="evenodd" d="M23.8 10h.6v.9h.2v.1H24v-.4q0-.2-.3-.3z" clip-rule="evenodd"/><path fill="#fd483d" fill-rule="evenodd" d="M24.7 8.7h-.2v-.2l.3-.2z" clip-rule="evenodd"/><path fill="#fd3f31" fill-rule="evenodd" d="M24.8 10.9h-.2z" clip-rule="evenodd"/><path fill="#fd584d" fill-rule="evenodd" d="m20.4 4 .1.3.1.4.3.3.2.1v.5l.2.1h.5l.1.1V6q-.4.5-.9.3h-.4l-.2-.1q-.3-.6-.6-.1-.3.3-.6 0l-.1-.2q.4-.5 1-.6h-.4q-.4 0-.3-.2.7 0 .2-.5l-.2-.1.4-.2h.2v.2l.3.1-.2-.1q0-.3.3-.3M17.7 4v-.4h.2l.5-.1q.1-.3.4-.1t.5 0q.1.1 0 .2c-.3.2 0 .3 0 .5l-.3.3-.3.3-.4.2h-.4l-.5.2.5-.9z" clip-rule="evenodd"/><path fill="#fd655a" fill-rule="evenodd" d="M18.4 4.8q0-.2.3 0h.2q0 .3.3.2h.2q.2.3.5 0h.3v.1l-.2.3-.4.1-.2.2-.3.1q-.3 0-.4-.4 0-.4-.3-.6" clip-rule="evenodd"/><path fill="#fd4234" fill-rule="evenodd" d="m19.3 4-.3-.2v-.2h.3v.2h.3v-.3q0-.2.2-.2l.1.2.2.2v.2h-.3q0 .2-.3.1z" clip-rule="evenodd"/><path fill="#fd6459" fill-rule="evenodd" d="M9.8 7.8h-.4v-.2q0-.2.2-.3l.1.4z" clip-rule="evenodd"/><path fill="#fd4e42" fill-rule="evenodd" d="m4.9 6.2.2-.1.1.2q-.4.3-.6 0" clip-rule="evenodd"/><path fill="#fd5e54" fill-rule="evenodd" d="M10.7 6.8V7z" clip-rule="evenodd"/><path fill="#fd6459" fill-rule="evenodd" d="M10 8.4q-.2 0 0 0" clip-rule="evenodd"/><path fill="#fd3e31" fill-rule="evenodd" d="M7.8 5.4h-.3l.2-.2z" clip-rule="evenodd"/><path fill="#fd584e" fill-rule="evenodd" d="M19 23.4v.1zm-.7.6v-.2z" clip-rule="evenodd"/><path fill="#841e0f" fill-rule="evenodd" d="m15 19.5-.2-.2h.2l-.1-.2-.5-.5V18h.2l.1.2.2.2h.3q.3-.1.3.2t.2.5l.1.2h-.4v-.1.2z" clip-rule="evenodd"/><path fill="#fa493d" fill-rule="evenodd" d="M16.1 17.3v.2q-.2.1-.3.4l-.7-.5h.1q0-.2.3-.2v.1l.1.1q.2.3.3 0t.2 0" clip-rule="evenodd"/><path fill="#fa483b" fill-rule="evenodd" d="m16.6 18.7.2-.3h.2q.3.1 0 .6v.1z" clip-rule="evenodd"/><path fill="#fd473b" fill-rule="evenodd" d="m18.6 17.4-.1.3q-.4.1-.5.5v.6h.2-.3l-.2.1-.4-.2v-.2q0-.2-.4-.6h.4q.2 0 .2-.2l.4-.2z" clip-rule="evenodd"/><path fill="#fd6459" fill-rule="evenodd" d="M16.1 17.3h-.2q-.2 0 0 0V17l-.1-.2-.2-.2.3-.2h.1q.3-.2.4 0l.3.3q0 .3-.3.3l-.1.2z" clip-rule="evenodd"/><path fill="#fd6156" fill-rule="evenodd" d="M14.2 16.6h-.3v-.2h.3zm-.2.4.2-.4v.4z" clip-rule="evenodd"/><path fill="#fd6459" fill-rule="evenodd" d="M15.6 17.3v-.2z" clip-rule="evenodd"/><path fill="#fd6156" fill-rule="evenodd" d="M13.7 17h.2zm3-1" clip-rule="evenodd"/><path fill="#fb6358" fill-rule="evenodd" d="M12 19.8q0-.3.3-.5 0 .2.2.1l.3-.2h.2v.4q-.3.4-.6.3z" clip-rule="evenodd"/><path fill="#7b190a" fill-rule="evenodd" d="m15 19.5.4-.1-.2.2zM12.1 18v-.3h.4l.2.2q0 .2-.3 0zm.6-.1q.2-.2.2 0z" clip-rule="evenodd"/><path fill="#fd7d75" fill-rule="evenodd" d="M5.2 9.9h.4l.2.1.1-.2.1-.1.6-.2.2.1v.3q-.3.5 0 .8.4.1.3.4 0 .3-.2.4h-.4l-.2-.1v.2l-.1.3q-.1.1 0 .2l.2.2q.3.2 0 .4l-.4-.2q-.2 0-.5.3v.5l.1.1h.5q0 .4-.3.6l-.2.6v.2h-.2q-.2-.1-.2 0 0 .2.2.3v.2H5l-.2-.3v-.5l-.6-.1q-.4 0-.5-.2-.2 0 0-.2v-.1l-.1-.5h.2q.1-.5.5-.4v-.6h-.8q-.7-.2 0-.6v-.3l.2-.3V11l.2-.3q0-.2.3-.2.2-.3.5 0l.2.1-.1.2h-.2L4 11q0 .3.2.4h.2l.5-.5.5-.1.1-.2-.4-.3q-.2-.1 0-.3z" clip-rule="evenodd"/><path fill="#7e1e10" fill-rule="evenodd" d="m7.1 11-.3-.3q-.5-.3-.2-.8v-.1l.2-.2.1-.1q.3-.5.8 0v.2q-1 .8 0 1.2H8l.3.6h-.4z" clip-rule="evenodd"/><path fill="#fd756b" fill-rule="evenodd" d="m4 12.7-.1.1h-.2l.1-.2zm.8-3.3q-.1 0 0 0" clip-rule="evenodd"/><path fill="#fd7067" fill-rule="evenodd" d="M13.6 9h-.2q0-.4.4-.4.2 0 .1-.3l.6-.3.2-.3h.1q.3 0 .1.2V8h.2q.2.4-.3.4c-.1-.2 0 .2-.1.1l-.2.4q-.5.3 0 .6-.3.7.5 1l.1.1c.4.5.3.5-.4 1l-.1-.3h-.2q-.1.3-.4.2t-.4-.2c0-.2-.4-.3-.3-.6v-.1q0-.3.4-.2v.1l.1.2.2-.1v-.2l-.2-.1q0-.3-.2-.4v-.5h-.1l.2-.2z" clip-rule="evenodd"/><path fill="#fd766d" fill-rule="evenodd" d="m13.2 10.7.3.4v.2q0 .2.3.2h.1q-.5.6-.8 0l-.3-.5-.1.6q0 .3-.3.4-.3 0-.5-.2l-.2-.2q-.2 0-.2.4v.3q0 .2-.2.1l-.1-.1q0-.7-.6-1 0-.3-.2-.4v-.1l-.1.1H10l-.1-.2.2-.1q.3-.1.3-.4l.2-.2q.5-.1.5.4v.2q-.1.3.1.4.4 0 .4-.4.1-.6.5-.2l.9.2z" clip-rule="evenodd"/><path fill="#fd7067" fill-rule="evenodd" d="M13.1 10.6h-.3q-.3.2-.4 0l-.5-.2h-.1v.2l-.2.5h-.4l-.1-.3v-.6l-.4-.2.4-.5h.2l.1.2.6-.1.2-.3h.2l.2.2q0 .3-.2.2l-.2.1v.3h.2q.2 0 .1.1l.2.1z" clip-rule="evenodd"/><path fill="#fd5145" fill-rule="evenodd" d="M13.2 8q0 .4.3.4-.3 0-.4.3 0 .3-.3.4h-.6c-.2-.2 0-.8.3-.8L13 8z" clip-rule="evenodd"/><path fill="#fd6257" fill-rule="evenodd" d="M13 8q-.2.4-.5.4t-.1.1q0 .2-.2.3v.4q-.2 0-.2-.3l.1-.2v-.1l-.1-.2-.1-.1-.2-.2V8h.2l.4.1h.1v-.3h.3q.2 0 .3.2" clip-rule="evenodd"/><path fill="#781b0b" fill-rule="evenodd" d="M9.3 11.2H9l-.3-.7v.2h-.3q.1-.3-.2-.4-.2-.3 0-.4.4 0 .6.3l.2.1c0 .3.4.6.3 1" clip-rule="evenodd"/><path fill="#691000" fill-rule="evenodd" d="m9.3 11.2-.3-.6v-.3h.1l.3.1.5.3.1.1q-.1.7-.7.4" clip-rule="evenodd"/><path fill="#fd5e54" fill-rule="evenodd" d="m10.5 5.7-.1-.3.1-.1q0-.2.2-.2t.5.2l-.5.4z" clip-rule="evenodd"/><path fill="#fd7067" fill-rule="evenodd" d="M13 10h.5l-.2.1-.2.1H13zm0 0q-.2 0-.2-.2v-.1l.1.1z" clip-rule="evenodd"/><path fill="#781b0b" fill-rule="evenodd" d="M9.4 10.4h-.3z" clip-rule="evenodd"/><path fill="#983223" fill-rule="evenodd" d="M8.3 9.9q-.2 0-.1.2v.4q0 .3-.4.3 0 .2-.2.1h-.2q-.2 0-.2-.2l-.1-.3V10l.3-.2q.2 0 .3-.2z" clip-rule="evenodd"/><path fill="#f9675e" fill-rule="evenodd" d="m10 16 .2-.2h.4v.5l-.1.3-.2.2q-.4.1-.4-.4zm.5-.6v-.3zm.2.3" clip-rule="evenodd"/><path fill="#fd766d" fill-rule="evenodd" d="M11 14.3q0 .2-.1.1" clip-rule="evenodd"/><path fill="#f9675e" fill-rule="evenodd" d="M10.3 15.7v-.2z" clip-rule="evenodd"/><path fill="#972c1d" fill-rule="evenodd" d="M10.1 13.5v.2q-.1 0 0-.2" clip-rule="evenodd"/><path fill="#fd766d" fill-rule="evenodd" d="M14.3 15.6H14z" clip-rule="evenodd"/><path fill="#781b0b" fill-rule="evenodd" d="m9.3 11.2.5-.1.1-.3h.3l.4.4.5.3q.3.1.2.3v.6l-.3.1q-.2.5-.7.5-.3-.4-.8-.6v-.2q.4 0 .5.2h.2l-.1-.2h.2q.2-.1.1-.3-.3-.1-.1-.4l-.1-.1h-.4q-.4.2-.5-.2" clip-rule="evenodd"/><path fill="#872212" fill-rule="evenodd" d="M10.1 13.5v.2h-.3q-.2.3-.5 0-.3 0-.3.2l-.2.2-.2.1h-.2V14q0-.3.2-.5.3-.5 1-.4.3 0 .5.3z" clip-rule="evenodd"/><path fill="#a43224" fill-rule="evenodd" d="M9.1 15.3 9 15h-.1q-.2 0-.2-.2l.1-.2.2-.2q.2-.2.3-.1h.2q0-.2.3 0 .2 0 .2.2v.2q.1.2 0 .4-.3.3-.9.3" clip-rule="evenodd"/><path fill="#8d2617" fill-rule="evenodd" d="M9.1 15.4q0 .2-.2 0v-.2z" clip-rule="evenodd"/><path fill="#fd7c73" fill-rule="evenodd" d="M11.3 12.4V12q0-.3.2-.5 0-.2.2 0l.2.2q.1.3.4.2l.2-.2v-.2q0-.4.2-.6h.1q0-.2.1 0-.2.1 0 .2l.2.2v.4h.4l.3-.2q0 .3-.3.4l-.1.2v.2q0 .2.2.2.3.2.5.6h.2l.1-.1h.2v.1l-.1.1q-.3 0-.4.2l-.2.2v.3l-.3.3-.4.2-.3-.4q-.4-.3-.6 0l-.1.3H12q0-.3-.3-.5t0-.5l-.1-.2-.4-.2q-.2 0-.2-.2z" clip-rule="evenodd"/><path fill="#fd665b" fill-rule="evenodd" d="m14.6 11.5.3-.3h.2V11l-.2-.4h.3q.2.2.7.3.3 0 .1.4l-.1.5v.2l.1.2h.1l.1.1.1.3q0 .3-.4.3l-.5-.1-.2-.2-.3-.1-.2-.4V12h.1q.1.3.5.3l.1-.3-.1-.4z" clip-rule="evenodd"/><path fill="#fd6960" fill-rule="evenodd" d="M18.4 4.8h.2q.3.2.2.5l.1.3.2.2.2.2c0 .2-.3 0-.2.2h.3l.4.1v.5q-.5 0-.5.4.1.3.5.5V8q-.1.1-.4 0l-.1-.1-.1-.1q-.2-.5-.7-.6l-.2-.1q-.8-1.1-2-1v.3q.3-.3.6 0 .1.2-.1.3l-.6.5H16l-.2-.1v-.2h.3q0-.5-.3-.6l-.2-.1h-.7v-.1L15 6c.4-.5.3-.4.9-.3v-.5q-.5 0-.9.2h-.6l-.1-.2h.6q0-.2.2-.2v-.2h-.7l.2-.2.2-.4V4q0-.2.2-.1h.4l.2-.1V4h.2q0 .3-.2.5.1.4.5.5l.3.1q.1.2.4.1h.1q0 .3.2.1h.1v.2q-.2 0-.2.2h.9v-.3l-.3-.1q0-.2.2-.2l.1-.2z" clip-rule="evenodd"/><path fill="#fd584d" fill-rule="evenodd" d="m23.2 9-.2.1-.5-.4q0-.3-.3 0V9l.1.1.4.1q0 .2.2.2 0 .3-.2.1h-.4l-.4-.3q0-.3-.3-.4-.2 0-.4-.3h-.3v.1l-.2.1q.3.2.4.5.4 0 .3.2v.1q.2 0 .1.2l-.1.1h-.1l-.2-.1q-.2 0-.1-.1l-.2-.2-.1-.1q0-.2-.2 0l-.3.1L20 9q0-.3-.4-.6l.2-.3v-.3q.1-.4.5-.2.5 0 .6.3 0 .6.6.5h.1q-.1-.4-.4-.5-.5-.2-.5-.8l-.1-.2.1-.1q.4-.2.5.2c.3-.1.1-.4.3-.5q.3-.2.6 0v.7q0 .3-.4.5l.7.1h.3l.2-.2q0 .4-.3.5h-.1q.6 0 .5.5z" clip-rule="evenodd"/><path fill="#fd7b71" fill-rule="evenodd" d="m16.4 6.4-.4-.2V6l.2-.1h.2q.2.2.3 0h.2l.5.3.7.3.2.3q0 .3.5.3.2 0 .2.2t.3.5h.2V8l-.2.2-.2.1h-.6q-.8 0-.3-.7-.8.1-1-.7c.2.5-.2.7-.3 1q-.2.5-.5 0l-.4-.4.4-.6q0-.2.4-.3v-.1l-.4-.3z" clip-rule="evenodd"/><path fill="#fd7269" fill-rule="evenodd" d="M16 7.5h.2l.2.2v.2l.2.1h.2v-.3l.3-.2v-.7l.1-.2.2.1q0 .4.3.6 0 .2.4 0l.3.1v.2l-.2.1-.1.2.4.3-.2.1q-.4 0-.4.3 0 .4-.4.3l-.5-.6c-.2-.1-.5.3-.7 0l-.2-.1H16l-.5-.7-.1-.2h.3z" clip-rule="evenodd"/><path fill="#fd5a4f" fill-rule="evenodd" d="M19.8 12.4h.3l.4-.6-.4-.1H20l-.4.2-.1-.2v-.8h.4l.4-.3q.2 0 .3.3l.3.3v.4q-.2 0 0 .2v.2q-.2 0 0 0v.1l.3-.1h.2q.2 0 0 .1l-.1.3-.3.1q-.2 0 0 .2l-.2.1H20l-.3-.2z" clip-rule="evenodd"/><path fill="#7a1708" fill-rule="evenodd" d="M19.6 11h-.2l-.2.1q-.2-.4-.7-.7V10q.6-.5 1.4-.1.4.2.4.6v.2q-.2.3-.4.2z" clip-rule="evenodd"/><path fill="#fc564b" fill-rule="evenodd" d="M19.9 9.9h-.6q-.1-.2-.2 0-.4 0-.6.2h-.2l-.3-.4q.4-.2 0-.5-.2-.5.3-.8l.5.4q.2 0 .3-.2l.1.1q.2.1 0 .2H19v.7h.2v-.2l.4.1q.2 0 .1.2z" clip-rule="evenodd"/><path fill="#fd736a" fill-rule="evenodd" d="m19.8 12.4.1.2.2.2-.1.2q0 .3-.3.4h-.1l-.2-.5v-.1l.2-.1z" clip-rule="evenodd"/><path fill="#fd584d" fill-rule="evenodd" d="M20.2 9.6H20" clip-rule="evenodd"/><path fill="#9b2b1c" fill-rule="evenodd" d="M18.6 14.3v.2l-.1.4q-.3 0-.4.2-.3.4-.6.2-.3 0-.4-.2V15l.1-.1h.1l.7-.2V14h-1q-.1-.5.5-.6 1 0 1 .9z" clip-rule="evenodd"/><path fill="#8e2819" fill-rule="evenodd" d="M17.5 15.3q.5 0 .8-.6h.1v.2q0 .5-.4.6l-.2.2h-.2z" clip-rule="evenodd"/><path fill="#8b2111" fill-rule="evenodd" d="M18.6 14.3h-.1v-.1l-.2-.4-.2-.3h-.7q-.1-.2-.2 0v.1q-.3 0-.2.4v.4l-.3.1-.1-.3V14h-.2q0-.3.2-.5l.7-.5h.3q.6-.1.8.4t.2.8" clip-rule="evenodd"/><path fill="#fc5145" fill-rule="evenodd" d="m18.4 13.5-.8-.3q0-.2.2-.3.2.1.4 0v-.6l.1-.1q.8-.1 1.2-.5l.1.2v.4l-.3.2q-.2 0 0 .1l-.2.2h-.5q0 .3-.3.4z" clip-rule="evenodd"/><path fill="#fd5448" fill-rule="evenodd" d="m19.2 14.3-.3-.1V14l.3.1z" clip-rule="evenodd"/><path fill="#fd5a4f" fill-rule="evenodd" d="m19.5 12.3.1-.2h.1z" clip-rule="evenodd"/><path fill="#fd665b" fill-rule="evenodd" d="m16.6 13.6-.2.5H16v-.2q.3-.3 0-.5 0-.2-.3-.3l-.1-.1.7.1.1.2.2.1zm-.9-.5" clip-rule="evenodd"/><path fill="#fd5044" fill-rule="evenodd" d="m24 10.5.2.2z" clip-rule="evenodd"/><path fill="#fd6156" fill-rule="evenodd" d="M23.4 11.7h-.1" clip-rule="evenodd"/><path fill="#9b2b1c" fill-rule="evenodd" d="m16.7 14.6.1-.2q.4.2.4.6H17l-.2-.1v-.2z" clip-rule="evenodd"/><path fill="#8e2819" fill-rule="evenodd" d="M16.8 14.9h.2v.2h.3l.2.2h-.1q-.4 0-.6-.4" clip-rule="evenodd"/><path fill="#fd5449" fill-rule="evenodd" d="m15.6 3 .3.2q.3 0 .2.4T16 4t-.1-.4h-.2V3m-.3.2q-.2 0 0 0" clip-rule="evenodd"/><path fill="#fd584d" fill-rule="evenodd" d="M15.2 2.5v.1m.1 0v.1h-.1" clip-rule="evenodd"/><path fill="#fd7067" fill-rule="evenodd" d="M15.1 7.5q-.3 0-.4-.2v-.2h.2z" clip-rule="evenodd"/><path fill="#fd6358" fill-rule="evenodd" d="M14.7 8.4q.3-.2 0-.3V8h.4q.2.3 0 .5t-.5 0" clip-rule="evenodd"/><path fill="#fd6960" fill-rule="evenodd" d="M14.6 7.7q0 .2-.2.3-.2-.2 0-.4z" clip-rule="evenodd"/><path fill="#fd7269" fill-rule="evenodd" d="M16.2 7.2q0 .3-.3.2v-.1z" clip-rule="evenodd"/><path fill="#fd7067" fill-rule="evenodd" d="M15.2 8H15l.2-.2z" clip-rule="evenodd"/><path fill="#fd6960" fill-rule="evenodd" d="M13.8 7.3h.3l.1.1z" clip-rule="evenodd"/><path fill="#fd7067" fill-rule="evenodd" d="m15.4 7.4.2.1q0 .3-.2.2z" clip-rule="evenodd"/><path fill="#fd7269" fill-rule="evenodd" d="m15.7 7 .1.3q-.2 0 0-.2" clip-rule="evenodd"/><path fill="#fd7067" fill-rule="evenodd" d="M15.2 7.8q0-.2.2-.2v.2zm0 .2H15v-.1z" clip-rule="evenodd"/><path fill="#fd6960" fill-rule="evenodd" d="M14.4 6.2q.1 0 0 .2zm.4-.4-.1.3zm-2.2-1h.3V5h-.1q-.2 0-.2-.2m2 3.2-.3.2q0 .2-.3.1l-.2-.3.5-.1z" clip-rule="evenodd"/><path fill="#fd7067" fill-rule="evenodd" d="M14.1 7.9q-.2.3-.5 0z" clip-rule="evenodd"/><path fill="#fd6960" fill-rule="evenodd" d="M13.9 7.7q-.1 0 0 0M13.6 9q.1.1 0 .2zm.8-2.8" clip-rule="evenodd"/><path fill="#fd4f43" fill-rule="evenodd" d="M25.2 14.4q-.3.2-.4.1z" clip-rule="evenodd"/><path fill="#fd463b" fill-rule="evenodd" d="m24.5 11.9.1-.1" clip-rule="evenodd"/><path fill="#fd4a3f" fill-rule="evenodd" d="M22 7.2v-.5q0-.3-.2-.2H21l-.2-.1v-.2h.2V6h.4l.3-.1v.4h.2l.4.1v.3q.3 0 .5-.2h.2q.2 0 .4.3l-.2.4-.1-.3h-.4q0 .3-.3.2z" clip-rule="evenodd"/><path fill="#fd4a3f" fill-rule="evenodd" d="m22.4 7.8-.5.1h-.2l-.2-.3q.5 0 .6-.4v.6zm-.5-1.9" clip-rule="evenodd"/><path fill="#fc2718" fill-rule="evenodd" d="M24.7 7.8q0 .2-.1.1l-.1-.1v-.1z" clip-rule="evenodd"/><path fill="#fd483d" fill-rule="evenodd" d="M24.9 8.3h-.1m.1 0" clip-rule="evenodd"/><path fill="#fd584d" fill-rule="evenodd" d="M17 3.8q.4 0 .5.2H17" clip-rule="evenodd"/><path fill="#fc3022" fill-rule="evenodd" d="M19 2.6h.1m-.1 0" clip-rule="evenodd"/><path fill="#fd6257" fill-rule="evenodd" d="M22.5 8q.3 0 .4-.4l.3.1v.6l.1.3v.1q.3.3-.1.4-.2 0-.3-.3v-.4q0-.2-.3-.2z" clip-rule="evenodd"/><path fill="#fd655a" fill-rule="evenodd" d="m20.6 6.9.3.1v.2h-.1l.2.4.1.1h.2V8l.4.2q.3 0 0 .3l-.4.2-.2-.1-.2-.3-.1-.4-.4-.1h-.2l-.4.1-.2-.1q-.4-.2-.5-.6t.3-.3.3-.2v-.4h-.2l-.3.2h-.3v-.3l.4-.1h.4q0-.3.2-.3h.4q.2 0 .2.2 0 .4.2.4z" clip-rule="evenodd"/><path fill="#fd4e42" fill-rule="evenodd" d="M20 4.4h.4v.2h-.2z" clip-rule="evenodd"/><path fill="#fd473b" fill-rule="evenodd" d="M21 6.2h-.3z" clip-rule="evenodd"/><path fill="#fd584e" fill-rule="evenodd" d="M16.4 17h-.1v-.2z" clip-rule="evenodd"/><path fill="#fd756b" fill-rule="evenodd" d="m6.8 9.6-.1.2z" clip-rule="evenodd"/><path fill="#fd594f" fill-rule="evenodd" d="M15.2 8v-.2q.4 0 .5.2l.4.2.2.1.3.1.2-.1q0-.2.3-.1 0 .6.4.7v.7q0 .4-.3.3l-.1-.1v-.6H17q0-.2-.2-.3h-.3q-.2 0 0 .2.1.6-.7.5h-.1q-.3-.3-.6-.2-.1-.3.1-.4.3 0 .3-.2l-.4.2H15c-.4.3 0 .3.1.4s-.2.4.2.4l.2.2-.3.6h-.3v-.2q0-.3-.3-.2h-.1q-.3-.3-.1-.7l-.5-.2v-.1q.5-.3.6-.7 0-.1.2 0l-.2.3.7-.4z" clip-rule="evenodd"/><path fill="#fd665b" fill-rule="evenodd" d="M14.4 9.5q-.1.3.2.6.1-.3.4 0v.4l-.5-.2q-.3-.2-.2-.6z" clip-rule="evenodd"/><path fill="#fd6358" fill-rule="evenodd" d="M14.6 8.4q0-.2.1 0m.1-.5" clip-rule="evenodd"/><path fill="#fd6960" fill-rule="evenodd" d="m10.6 11.2-.4-.3.2-.1h.1q.3.2.1.4m-.4-.3" clip-rule="evenodd"/><path fill="#941c0e" fill-rule="evenodd" d="M15.8 11.8q-.1-.3.1-.4 0-.3.3-.4l1.2-.5h.2l.3.1q.7.2.1.6l-.2.2q-.4 0-.5.4c-.5.5-1 .2-1.5 0" clip-rule="evenodd"/><path fill="#7b1404" fill-rule="evenodd" d="M15.8 11.8q.1-.2.2 0h.2l.4.2.4-.2.2-.1q.4.1.5-.4h.1c.2 0 .7-.2.5.4l-1 .5-.9.2h-.3l-.1-.1-.4-.3z" clip-rule="evenodd"/><path fill="#fd4e42" fill-rule="evenodd" d="m16.3 11.1-.4.3V11l-.1-.2-.2.1h-.3v-.3h-.1v-.3q0-.2.3-.3.4 0 .6.3l.1.2c.6 0 .2.3 0 .5" clip-rule="evenodd"/><path fill="#fa5a4f" fill-rule="evenodd" d="M15.6 13h.5q.3 0 .4-.3.3 0 .4.2.1.4-.2.7h-.1l-.1-.2-.3-.1zm.1-1 .3.2h-.2V12m.5.5-.1-.2q.2 0 0 .2m-.1-.2" clip-rule="evenodd"/><path fill="#fd655a" fill-rule="evenodd" d="M19.8 7.8v.3z" clip-rule="evenodd"/><path fill="#fd473b" fill-rule="evenodd" d="m21.2 6.4.2.1q.2.4-.1.7H21V7l-.1-.2h-.3v-.4h.3q0-.1.2 0" clip-rule="evenodd"/><path fill="#fd655a" fill-rule="evenodd" d="m20.6 9.1-.2.1z" clip-rule="evenodd"/><path fill="#fd6257" fill-rule="evenodd" d="M22.5 8v.2h-.2V8z" clip-rule="evenodd"/><path fill="#fd473b" fill-rule="evenodd" d="m20.6 6.9.1-.1" clip-rule="evenodd"/><path fill="#fd655a" fill-rule="evenodd" d="M17.5 9h.3v-.5h.5q-.4.4-.1.8l.3.2-.4.3H18l-.3-.3q-.2 0 0-.2z" clip-rule="evenodd"/><path fill="#fd6358" fill-rule="evenodd" d="M16.1 8.2h-.3l-.5-.4v-.2h.3l.1.1q0 .4.4.5" clip-rule="evenodd"/><path fill="#fd594f" fill-rule="evenodd" d="M17.2 8H17v-.1q.3 0 .4-.2h.1q0 .4-.3.4" clip-rule="evenodd"/><path fill="#fd6358" fill-rule="evenodd" d="m16.3 8.3-.2-.1z" clip-rule="evenodd"/><path fill="#fa3427" fill-rule="evenodd" d="m17.4 12.1.5-.3.5-.2q.2-.3.8-.4.2.1.3.4v.1q-.2.4-.6.6h-.7q0 .6-.5.4c0-.2-.4-.3-.3-.6" clip-rule="evenodd"/><path fill="#fc5145" fill-rule="evenodd" d="m19.5 11.6-.2-.2-.1-.2.2-.1h.1q.3.3 0 .5" clip-rule="evenodd"/><path fill="#fd655a" fill-rule="evenodd" d="m20 12.8-.1-.2q.2 0 .2.2" clip-rule="evenodd"/><path fill="#841909" fill-rule="evenodd" d="m19.6 11 .3-.1zm-.2 0h.1m-.1 0-.2.2-.8.4v-.2h-.2q-.2 0-.3-.2l.3-.3-.5-.2q-.2 0 0-.2.1-.3.7-.4 0 .3.3.3h.2q.3.1.3.5l.2.2" clip-rule="evenodd"/><path fill="#fd4b3e" fill-rule="evenodd" d="m18.4 10-.5.4-.3.1h-.1q-.4-.3-.3-.7 0 .2.2 0v-.2q.4-.1.6.1.3.1.4.4" clip-rule="evenodd"/><path fill="#a43122" fill-rule="evenodd" d="m17.2 15-.4-.6.1-.2.1-.1.2-.1h.4l.4-.1h.1v.6l-.2.4zm-.2.2h.2z" clip-rule="evenodd"/><path fill="#fc3e31" fill-rule="evenodd" d="M17.7 12.6h.4v-.3l.2.1h.1v.5q-.1.3-.4.2h-.4v.1h-.3V13h-.1q-.1-.4.2-.3z" clip-rule="evenodd"/><path fill="#fc4e42" fill-rule="evenodd" d="M17.3 12.9v.3q-.4.1-.7.4v-.9q.5-.3.8-.1l-.1.1q-.2 0 0 .2" clip-rule="evenodd"/><path fill="#fd483c" fill-rule="evenodd" d="M14.6 8.4q0 .2.2 0h.3q0 .4-.4.4-.2 0-.2.2h-.1v-.4z" clip-rule="evenodd"/><path fill="#fd6358" fill-rule="evenodd" d="M15.3 7.8V8z" clip-rule="evenodd"/><path fill="#fd584d" fill-rule="evenodd" d="M21.2 6.4H21q0-.1.2 0m-.5.5v-.4zm.9 1.6" clip-rule="evenodd"/><path fill="#fc3a2d" fill-rule="evenodd" d="M17.2 9.8v.3l.3.4-.4.2-.8.4q0-.2.2-.3l-.1-.1h-.2l-.1-.2-.2-.2-.4-.2-.2-.2q.1-.3.4-.4h.5q.5 0 .6.6z" clip-rule="evenodd"/><path fill="#fd4b3e" fill-rule="evenodd" d="M16 9.6h-.2l.1-.2.2.1.3-.1v-.2l-.1-.4.3-.2.2.2q.3 0 .3.4-.2 0-.3.3l.3-.3v.6l-.2.4h-.3V10q.2-.2 0-.2h-.2q0-.2-.2-.2z" clip-rule="evenodd"/><path fill="#fd685d" fill-rule="evenodd" d="m15.1 9.4-.3.1-.1-.1V9h.3q.2-.1.3-.4h.3l.1.3-.1.2h-.3q-.2 0-.2.2z" clip-rule="evenodd"/><path fill="#fd483d" fill-rule="evenodd" d="m15.1 9.4.4-.2.2.3q0 .3-.2.2t-.2.2H15q-.2 0-.2-.2z" clip-rule="evenodd"/><path fill="#fc564b" fill-rule="evenodd" d="M18 9.7h-.5v-.2l.3-.2z" clip-rule="evenodd"/><path fill="#fd4b3e" fill-rule="evenodd" d="M17.8 9.3q0 .2-.3.1v-.3h.2zm-.3.1" clip-rule="evenodd"/><path fill="#841909" fill-rule="evenodd" d="M17.8 11.3v.3l-.3.3v-.1l-.2-.1.1-.3q.1-.2.4 0" clip-rule="evenodd"/><path fill="#fc4e42" fill-rule="evenodd" d="M17.7 12.6h-.2q-.4-.2-.9.1l-.3-.2-.1-.2h.2q.6 0 1-.2 0 .2.2.2z" clip-rule="evenodd"/><path fill="#fa5a4f" fill-rule="evenodd" d="M16.5 12.3h-.1" clip-rule="evenodd"/><path fill="#fd594f" fill-rule="evenodd" d="M17.7 9.2V9h.1" clip-rule="evenodd"/><path fill="#fa5a4f" fill-rule="evenodd" d="M16.6 12.7v-.3l.9.2h-.6z" clip-rule="evenodd"/><path fill="#fc3a2d" fill-rule="evenodd" d="M16.7 9.6q-.1-.5.4-.4l-.1.2v.2zm.3 0" clip-rule="evenodd"/></svg>