<svg width="26" height="26" viewBox="0 0 26 26" fill="none" xmlns="http://www.w3.org/2000/svg">
<path fill-rule="evenodd" clip-rule="evenodd" d="M19.9862 2.15347C21.0522 1.08751 22.7804 1.08751 23.8464 2.15347C24.9123 3.21943 24.9123 4.94769 23.8464 6.01364L19.2404 10.6196C19.2294 10.6306 19.2185 10.6415 19.2077 10.6523C18.9577 10.9024 18.7836 11.0765 18.5884 11.2288C18.3589 11.4078 18.1106 11.5613 17.8478 11.6865C17.6243 11.793 17.3908 11.8708 17.0552 11.9826C17.0408 11.9874 17.0262 11.9923 17.0114 11.9972L15.0207 12.6608C14.543 12.82 14.0163 12.6957 13.6602 12.3396C13.3042 11.9835 13.1798 11.4568 13.3391 10.9791L14.0026 8.98847C14.0076 8.97366 14.0124 8.95904 14.0172 8.94461C14.129 8.60904 14.2068 8.37549 14.3133 8.15202C14.4386 7.88927 14.592 7.64093 14.7711 7.41142C14.9233 7.21623 15.0974 7.04218 15.3475 6.79212C15.3583 6.78136 15.3692 6.77047 15.3802 6.75943L19.9862 2.15347ZM22.6973 3.30252C22.266 2.87117 21.5666 2.87117 21.1352 3.30252L20.9926 3.44521C20.9982 3.4628 21.0042 3.48093 21.0106 3.49953C21.0992 3.75482 21.2675 4.09311 21.5871 4.41274C21.9067 4.73237 22.245 4.90065 22.5003 4.98921C22.5189 4.99567 22.537 5.00168 22.5546 5.00729L22.6973 4.86459C23.1287 4.43324 23.1287 3.73387 22.6973 3.30252ZM21.3262 6.2357C21.0376 6.0739 20.732 5.85571 20.4381 5.56179C20.1441 5.26787 19.9259 4.96221 19.7641 4.67363L16.5293 7.90848C16.2344 8.20339 16.1356 8.30418 16.0524 8.41083C15.946 8.54728 15.8547 8.69492 15.7803 8.85113C15.7221 8.97323 15.6761 9.10668 15.5442 9.50234L15.3002 10.2346L15.7653 10.6997L16.4975 10.4556C16.8932 10.3237 17.0266 10.2778 17.1487 10.2196C17.3049 10.1451 17.4526 10.0539 17.589 9.94745C17.6957 9.86427 17.7965 9.76546 18.0914 9.47055L21.3262 6.2357Z" fill="#FFAA00"/>
<path fill-rule="evenodd" clip-rule="evenodd" d="M13 1.354L12.9379 1.354C10.4371 1.35399 8.4773 1.35398 6.94819 1.55956C5.38306 1.76999 4.14804 2.20911 3.17866 3.17849C2.20928 4.14786 1.77016 5.38289 1.55974 6.94802C1.35415 8.47713 1.35417 10.4369 1.35418 12.9377V13.062C1.35417 15.5628 1.35415 17.5225 1.55974 19.0517C1.77016 20.6168 2.20928 21.8518 3.17866 22.8212C4.14804 23.7906 5.38306 24.2297 6.94819 24.4401C8.47731 24.6457 10.4371 24.6457 12.9379 24.6457H13.0622C15.5629 24.6457 17.5227 24.6457 19.0518 24.4401C20.617 24.2297 21.852 23.7906 22.8214 22.8212C23.7907 21.8518 24.2299 20.6168 24.4403 19.0517C24.6459 17.5225 24.6459 15.5628 24.6458 13.062V12.9998C24.6458 12.5511 24.2821 12.1873 23.8333 12.1873C23.3846 12.1873 23.0208 12.5511 23.0208 12.9998C23.0208 15.5762 23.0191 17.4268 22.8298 18.8351C22.8223 18.8907 22.8146 18.9454 22.8066 18.9992L19.8014 16.2945C18.3937 15.0276 16.2973 14.9014 14.7478 15.9904L14.4248 16.2174C13.8864 16.5958 13.1539 16.5323 12.6886 16.067L8.0414 11.4198C6.81137 10.1898 4.83832 10.1241 3.5292 11.2696L2.98024 11.7499C2.98516 9.80828 3.01303 8.33395 3.17025 7.16455C3.35645 5.77961 3.71058 4.94466 4.32771 4.32753C4.94484 3.71041 5.77978 3.35627 7.16472 3.17007C8.57303 2.98073 10.4236 2.979 13 2.979C13.4487 2.979 13.8125 2.61524 13.8125 2.1665C13.8125 1.71777 13.4487 1.354 13 1.354ZM3.17025 18.8351C3.35645 20.2201 3.71058 21.055 4.32771 21.6721C4.94484 22.2893 5.77978 22.6434 7.16472 22.8296C8.57303 23.0189 10.4236 23.0207 13 23.0207C15.5764 23.0207 17.427 23.0189 18.8353 22.8296C20.2202 22.6434 21.0552 22.2893 21.6723 21.6721C21.9361 21.4083 22.1519 21.1047 22.327 20.7353C22.2849 20.7095 22.2445 20.6795 22.2065 20.6453L18.7143 17.5024C17.8697 16.7422 16.6119 16.6665 15.6822 17.3199L15.3591 17.5469C14.1747 18.3793 12.5632 18.2398 11.5396 17.2161L6.89235 12.5689C6.26725 11.9438 5.26456 11.9104 4.59926 12.4925L2.97959 13.9097C2.98239 16.0206 3.00397 17.5984 3.17025 18.8351Z" fill="#FFAA00"/>
</svg>
