<svg width="26" height="26" viewBox="0 0 26 26" fill="none" xmlns="http://www.w3.org/2000/svg">
<path fill-rule="evenodd" clip-rule="evenodd" d="M16.9376 2.30136C17.2919 1.39955 18.5659 1.39955 18.9202 2.30136L19.3839 3.48133L20.5589 3.94648C21.4574 4.30214 21.4574 5.57606 20.5589 5.93173L19.3839 6.39687L18.9202 7.57685C18.5659 8.47866 17.2919 8.47866 16.9376 7.57685L16.4739 6.39687L15.2989 5.93173C14.4004 5.57606 14.4004 4.30214 15.2989 3.94648L16.4739 3.48133L16.9376 2.30136ZM17.9289 2.74071L18.3782 3.88411C18.4861 4.15882 18.7031 4.37696 18.978 4.48579L20.1232 4.9391L18.978 5.39242C18.7031 5.50125 18.4861 5.71938 18.3782 5.99409L17.9289 7.13749L17.4796 5.99409C17.3717 5.71939 17.1547 5.50125 16.8798 5.39242L15.7346 4.9391L16.8798 4.48579C17.1547 4.37696 17.3717 4.15882 17.4796 3.88411L17.9289 2.74071Z" fill="#FFAA00"/>
<path fill-rule="evenodd" clip-rule="evenodd" d="M3.59038 3.59038C5.12755 2.05321 7.6198 2.05321 9.15698 3.59038L22.4096 16.843C23.9468 18.3802 23.9468 20.8724 22.4096 22.4096C20.8724 23.9468 18.3802 23.9468 16.843 22.4096L3.59038 9.15698C2.05321 7.6198 2.05321 5.12755 3.59038 3.59038ZM8.00793 4.73943C7.10536 3.83686 5.642 3.83686 4.73943 4.73943C3.83686 5.642 3.83686 7.10536 4.73943 8.00793L6.4579 9.7264L9.7264 6.4579L8.00793 4.73943ZM17.9921 21.2606L7.60695 10.8754L10.8754 7.60695L21.2606 17.9921C22.1631 18.8946 22.1631 20.358 21.2606 21.2606C20.358 22.1631 18.8946 22.1631 17.9921 21.2606Z" fill="#FFAA00"/>
<path fill-rule="evenodd" clip-rule="evenodd" d="M23.1096 9.69214C22.7553 8.79034 21.4813 8.79034 21.127 9.69214L20.9596 10.1182L20.5357 10.286C19.6372 10.6416 19.6372 11.9156 20.5357 12.2712L20.9596 12.439L21.127 12.8651C21.4813 13.7669 22.7553 13.7669 23.1096 12.8651L23.277 12.439L23.7009 12.2712C24.5994 11.9156 24.5994 10.6416 23.7009 10.286L23.277 10.1182L23.1096 9.69214ZM22.1183 10.1315L21.9653 10.521C21.8573 10.7957 21.6404 11.0138 21.3654 11.1226L20.9714 11.2786L21.3654 11.4346C21.6404 11.5434 21.8573 11.7615 21.9653 12.0363L22.1183 12.4257L22.2713 12.0363C22.3793 11.7615 22.5962 11.5434 22.8711 11.4346L23.2652 11.2786L22.8711 11.1226C22.5962 11.0138 22.3793 10.7957 22.2713 10.521L22.1183 10.1315Z" fill="#FFAA00"/>
<path fill-rule="evenodd" clip-rule="evenodd" d="M5.05682 16.3847C5.41118 15.4829 6.68512 15.4829 7.03947 16.3847L7.20688 16.8107L7.63077 16.9785C8.52925 17.3342 8.52925 18.6081 7.63077 18.9638L7.20688 19.1316L7.03947 19.5576C6.68512 20.4594 5.41118 20.4594 5.05682 19.5576L4.88941 19.1316L4.46553 18.9638C3.56705 18.6081 3.56705 17.3342 4.46553 16.9785L4.88941 16.8107L5.05682 16.3847ZM5.89511 17.2135L6.04815 16.824L6.20118 17.2135C6.30913 17.4882 6.52607 17.7064 6.801 17.8152L7.195 17.9712L6.801 18.1271C6.52607 18.236 6.30913 18.4541 6.20118 18.7288L6.04815 19.1183L5.89511 18.7288C5.78717 18.4541 5.57022 18.236 5.29529 18.1271L4.90129 17.9712L5.29529 17.8152C5.57022 17.7064 5.78717 17.4882 5.89511 17.2135Z" fill="#FFAA00"/>
</svg>
