<svg width="26" height="26" viewBox="0 0 26 26" fill="none" xmlns="http://www.w3.org/2000/svg">
<path fill-rule="evenodd" clip-rule="evenodd" d="M17.7601 2.18949L17.8321 2.20879C19.0231 2.52791 19.9669 2.7808 20.7093 3.04897C21.4686 3.32327 22.0878 3.63706 22.598 4.11485C23.3408 4.81057 23.8606 5.71095 24.0917 6.70211C24.2504 7.38278 24.2126 8.07594 24.0704 8.87071C23.9315 9.64771 23.6786 10.5916 23.3595 11.7826L22.7794 13.9474C22.4603 15.1384 22.2074 16.0822 21.9392 16.8245C21.6649 17.5838 21.3511 18.2031 20.8734 18.7132C20.1998 19.4324 19.3343 19.9425 18.3804 20.184C18.1017 20.823 17.6947 21.4015 17.1813 21.8824C16.6712 22.3602 16.052 22.6739 15.2926 22.9483C14.5503 23.2164 13.6065 23.4693 12.4155 23.7884L12.3435 23.8077C11.1525 24.1268 10.2087 24.3797 9.43165 24.5187C8.63688 24.6608 7.94372 24.6987 7.26305 24.54C6.27189 24.3089 5.37151 23.789 4.67579 23.0462C4.198 22.5361 3.88422 21.9169 3.60991 21.1575C3.34174 20.4151 3.08885 19.4713 2.76973 18.2803L2.18966 16.1155C1.87053 14.9245 1.61763 13.9807 1.4787 13.2037C1.33658 12.4089 1.29872 11.7158 1.45743 11.0351C1.68853 10.044 2.20837 9.14358 2.95118 8.44785C3.46131 7.97007 4.08053 7.65628 4.83988 7.38197C5.58223 7.1138 6.52604 6.86092 7.71703 6.5418L7.75305 6.53215C8.03955 6.45538 8.31063 6.38287 8.56728 6.31506C8.99152 4.79934 9.36485 3.72787 10.0925 2.95102C10.7882 2.2082 11.6886 1.68837 12.6797 1.45726C13.3604 1.29855 14.0535 1.33641 14.8483 1.47853C15.6253 1.61746 16.5691 1.87036 17.7601 2.18949ZM8.07627 8.12787C6.89232 8.44518 6.04398 8.67478 5.39198 8.91031C4.73177 9.1488 4.34412 9.36967 4.06202 9.63388C3.55378 10.1099 3.1981 10.726 3.03998 11.4041C2.95221 11.7805 2.95476 12.2267 3.07832 12.9177C3.20367 13.6186 3.43802 14.4959 3.76894 15.7309L4.32972 17.8238C4.66064 19.0588 4.89631 19.9357 5.13825 20.6054C5.37674 21.2656 5.5976 21.6533 5.86182 21.9354C6.33784 22.4436 6.95389 22.7993 7.63205 22.9574C8.00846 23.0452 8.45461 23.0426 9.14561 22.9191C9.84659 22.7937 10.7238 22.5594 11.9589 22.2284C13.1939 21.8975 14.0708 21.6618 14.7405 21.4199C15.4007 21.1814 15.7884 20.9606 16.0705 20.6963C16.2195 20.5567 16.3554 20.4051 16.4771 20.2435C16.2831 20.2162 16.0835 20.1813 15.877 20.1402C15.1492 19.9955 14.2749 19.7612 13.1959 19.4721L13.1337 19.4554C11.9427 19.1363 10.9989 18.8834 10.2565 18.6152C9.4972 18.3409 8.87797 18.0271 8.36785 17.5494C7.62503 16.8536 7.1052 15.9533 6.87409 14.9621C6.71538 14.2814 6.75324 13.5883 6.89536 12.7935C7.0343 12.0165 7.2872 11.0727 7.60633 9.88173L8.07627 8.12787ZM14.5623 3.07815C13.8713 2.95459 13.4251 2.95204 13.0487 3.03981C12.3706 3.19794 11.7545 3.55361 11.2785 4.06185C10.806 4.56628 10.5153 5.34557 10.0097 7.19667C9.9275 7.49751 9.84062 7.82175 9.74638 8.17346L9.18561 10.2663C8.85469 11.5013 8.62034 12.3786 8.49499 13.0795C8.37143 13.7705 8.36888 14.2167 8.45664 14.5931C8.61477 15.2713 8.97044 15.8873 9.47869 16.3633C9.76079 16.6276 10.1484 16.8484 10.8086 17.0869C11.4784 17.3288 12.3553 17.5645 13.5903 17.8954C14.7012 18.1931 15.5244 18.4133 16.1939 18.5464C16.8604 18.6789 17.3127 18.7114 17.6834 18.6657C17.7641 18.6558 17.8416 18.642 17.9171 18.6244C18.5953 18.4663 19.2113 18.1106 19.6873 17.6024C19.9515 17.3203 20.1724 16.9326 20.4109 16.2724C20.6528 15.6027 20.8885 14.7258 21.2194 13.4908L21.7802 11.3979C22.1111 10.1629 22.3455 9.28564 22.4708 8.58467C22.5944 7.89366 22.5969 7.44752 22.5092 7.07111C22.351 6.39294 21.9954 5.7769 21.4871 5.30087C21.205 5.03666 20.8174 4.8158 20.1572 4.5773C19.4874 4.33537 18.6105 4.09969 17.3755 3.76877C16.1405 3.43785 15.2633 3.2035 14.5623 3.07815ZM11.9734 10.6229C12.0896 10.1894 12.5351 9.93221 12.9685 10.0483L18.2006 11.4503C18.6341 11.5664 18.8913 12.0119 18.7752 12.4454C18.659 12.8788 18.2135 13.1361 17.7801 13.0199L12.548 11.618C12.1145 11.5018 11.8573 11.0563 11.9734 10.6229ZM11.1318 13.7621C11.248 13.3286 11.6935 13.0714 12.127 13.1875L15.2662 14.0287C15.6997 14.1448 15.9569 14.5904 15.8407 15.0238C15.7246 15.4572 15.2791 15.7145 14.8456 15.5983L11.7064 14.7572C11.2729 14.641 11.0157 14.1955 11.1318 13.7621Z" fill="#FFAA00"/>
</svg>
