<svg width="26" height="26" viewBox="0 0 26 26" fill="none" xmlns="http://www.w3.org/2000/svg">
<path fill-rule="evenodd" clip-rule="evenodd" d="M17.7601 2.18967L17.8322 2.20898C19.0232 2.52809 19.967 2.78098 20.7093 3.04915C21.4687 3.32346 22.0879 3.63724 22.598 4.11503C23.3409 4.81075 23.8607 5.71113 24.0918 6.70229C24.2505 7.38296 24.2126 8.07612 24.0705 8.87089C23.9316 9.6479 23.6787 10.5917 23.3595 11.7828L22.7795 13.9476C22.4604 15.1386 22.2075 16.0823 21.9393 16.8247C21.665 17.584 21.3512 18.2033 20.8734 18.7134C20.1998 19.4326 19.3344 19.9427 18.3805 20.1842C18.1018 20.8231 17.6948 21.4017 17.1814 21.8826C16.6712 22.3603 16.052 22.6741 15.2927 22.9484C14.5503 23.2166 13.6065 23.4695 12.4156 23.7886L12.3436 23.8079C11.1526 24.127 10.2087 24.3799 9.43173 24.5189C8.63695 24.661 7.9438 24.6989 7.26313 24.5401C6.27196 24.309 5.37159 23.7892 4.67586 23.0464C4.19808 22.5363 3.88429 21.917 3.60998 21.1577C3.34182 20.4153 3.08893 19.4715 2.76981 18.2805L2.18974 16.1157C1.87061 14.9247 1.61771 13.9809 1.47877 13.2039C1.33665 12.4091 1.29879 11.716 1.4575 11.0353C1.68861 10.0441 2.20844 9.14376 2.95126 8.44804C3.46139 7.97025 4.08061 7.65646 4.83996 7.38216C5.58231 7.11399 6.52612 6.8611 7.71711 6.54198L7.75312 6.53233C8.03963 6.45556 8.31071 6.38305 8.56735 6.31524C8.9916 4.79952 9.36493 3.72805 10.0925 2.9512C10.7883 2.20838 11.6886 1.68855 12.6798 1.45744C13.3605 1.29873 14.0536 1.33659 14.8484 1.47871C15.6254 1.61765 16.5692 1.87054 17.7601 2.18967ZM8.07635 8.12805C6.8924 8.44537 6.04405 8.67496 5.39205 8.91049C4.73184 9.14899 4.3442 9.36985 4.0621 9.63406C3.55385 10.1101 3.19818 10.7261 3.04005 11.4043C2.95229 11.7807 2.95484 12.2269 3.0784 12.9179C3.20375 13.6188 3.4381 14.4961 3.76902 15.7311L4.32979 17.8239C4.66071 19.059 4.89639 19.9359 5.13832 20.6056C5.37681 21.2658 5.59768 21.6534 5.86189 21.9355C6.33792 22.4438 6.95396 22.7995 7.63213 22.9576C8.00854 23.0454 8.45468 23.0428 9.14569 22.9192C9.84666 22.7939 10.7239 22.5595 11.9589 22.2286C13.1939 21.8977 14.0708 21.662 14.7406 21.4201C15.4008 21.1816 15.7884 20.9607 16.0705 20.6965C16.2196 20.5569 16.3555 20.4053 16.4772 20.2437C16.2832 20.2164 16.0836 20.1814 15.8771 20.1404C15.1493 19.9957 14.275 19.7614 13.196 19.4723L13.1338 19.4556C11.9428 19.1365 10.999 18.8836 10.2566 18.6154C9.49727 18.3411 8.87805 18.0273 8.36793 17.5495C7.62511 16.8538 7.10528 15.9534 6.87417 14.9623C6.71546 14.2816 6.75332 13.5885 6.89544 12.7937C7.03438 12.0167 7.28727 11.0729 7.60641 9.88191L8.07635 8.12805ZM14.5624 3.07834C13.8713 2.95478 13.4252 2.95223 13.0488 3.03999C12.3706 3.19812 11.7546 3.55379 11.2786 4.06204C10.8061 4.56647 10.5154 5.34575 10.0098 7.19685C9.92758 7.4977 9.8407 7.82193 9.74646 8.17364L9.18568 10.2665C8.85476 11.5015 8.62041 12.3787 8.49507 13.0797C8.3715 13.7707 8.36895 14.2169 8.45672 14.5933C8.61485 15.2715 8.97052 15.8875 9.47876 16.3635C9.76086 16.6277 10.1485 16.8486 10.8087 17.0871C11.4785 17.329 12.3554 17.5647 13.5904 17.8956C14.7012 18.1933 15.5245 18.4135 16.194 18.5466C16.8605 18.6791 17.3128 18.7116 17.6835 18.6659C17.7642 18.656 17.8417 18.6422 17.9172 18.6246C18.5953 18.4665 19.2114 18.1108 19.6874 17.6025C19.9516 17.3204 20.1725 16.9328 20.411 16.2726C20.6529 15.6028 20.8886 14.7259 21.2195 13.4909L21.7803 11.3981C22.1112 10.1631 22.3456 9.28583 22.4709 8.58485C22.5945 7.89385 22.597 7.4477 22.5092 7.07129C22.3511 6.39313 21.9954 5.77708 21.4872 5.30106C21.2051 5.03684 20.8175 4.81598 20.1572 4.57749C19.4875 4.33555 18.6106 4.09988 17.3756 3.76896C16.1406 3.43804 15.2633 3.20368 14.5624 3.07834ZM11.9735 10.6231C12.0897 10.1896 12.5352 9.93239 12.9686 10.0485L18.2007 11.4505C18.6342 11.5666 18.8914 12.0121 18.7752 12.4456C18.6591 12.879 18.2136 13.1362 17.7801 13.0201L12.548 11.6182C12.1146 11.502 11.8574 11.0565 11.9735 10.6231ZM11.1319 13.7622C11.2481 13.3288 11.6936 13.0716 12.127 13.1877L15.2663 14.0289C15.6997 14.145 15.957 14.5905 15.8408 15.024C15.7247 15.4574 15.2792 15.7146 14.8457 15.5985L11.7064 14.7573C11.273 14.6412 11.0158 14.1957 11.1319 13.7622Z" fill="#00AAFF"/>
</svg>
