<svg width="26" height="26" viewBox="0 0 26 26" fill="none" xmlns="http://www.w3.org/2000/svg">
<path fill-rule="evenodd" clip-rule="evenodd" d="M22.0626 2.30119C21.7082 1.39939 20.4343 1.39938 20.0799 2.30119L19.6163 3.48117L18.4412 3.94631C17.5428 4.30198 17.5428 5.5759 18.4412 5.93157L19.6163 6.39671L20.0799 7.57669C20.4343 8.47849 21.7082 8.4785 22.0626 7.57669L22.5263 6.39671L23.7013 5.93157C24.5998 5.5759 24.5998 4.30198 23.7013 3.94631L22.5263 3.48117L22.0626 2.30119ZM21.0713 2.74055L21.5206 3.88395C21.6285 4.15866 21.8454 4.37679 22.1204 4.48563L23.2655 4.93894L22.1204 5.39226C21.8454 5.50109 21.6285 5.71922 21.5206 5.99393L21.0713 7.13733L20.622 5.99393C20.514 5.71922 20.2971 5.50109 20.0222 5.39226L18.877 4.93894L20.0222 4.48563C20.2971 4.37679 20.514 4.15866 20.622 3.88395L21.0713 2.74055ZM17.873 8.60888C17.5186 7.70707 16.2447 7.70707 15.8903 8.60888L15.7229 9.03493L15.299 9.20272C14.4005 9.55839 14.4005 10.8323 15.299 11.188L15.7229 11.3558L15.8903 11.7818C16.2447 12.6836 17.5186 12.6836 17.873 11.7818L18.0404 11.3558L18.4643 11.188C19.3627 10.8323 19.3627 9.55839 18.4643 9.20272L18.0404 9.03493L17.873 8.60888ZM16.8816 9.04824L17.0347 9.43771C17.1426 9.71241 17.3596 9.93055 17.6345 10.0394L18.0285 10.1953L17.6345 10.3513C17.3596 10.4601 17.1426 10.6783 17.0347 10.953L16.8816 11.3425L16.7286 10.953C16.6207 10.6783 16.4037 10.4601 16.1288 10.3513L15.7348 10.1953L16.1288 10.0394C16.4037 9.93055 16.6207 9.71241 16.7286 9.43771L16.8816 9.04824Z" fill="black" fill-opacity="0.3"/>
<path fill-rule="evenodd" clip-rule="evenodd" d="M11.9355 3.03488C6.90161 3.5664 2.97916 7.82505 2.97916 12.9998C2.97916 18.5342 7.46564 23.0207 13 23.0207C18.1748 23.0207 22.4334 19.0982 22.965 14.0643C21.5277 15.8889 19.297 17.0623 16.7917 17.0623C12.4539 17.0623 8.9375 13.5459 8.9375 9.20817C8.9375 6.70283 10.1109 4.47216 11.9355 3.03488ZM1.35416 12.9998C1.35416 6.56802 6.56818 1.354 13 1.354C13.7763 1.354 14.165 1.97287 14.2316 2.46579C14.2956 2.93998 14.1203 3.54305 13.5753 3.8724C11.7679 4.96454 10.5625 6.94598 10.5625 9.20817C10.5625 12.6484 13.3514 15.4373 16.7917 15.4373C19.0539 15.4373 21.0353 14.232 22.1274 12.4245C22.4568 11.8795 23.0599 11.7042 23.534 11.7683C24.027 11.8348 24.6458 12.2235 24.6458 12.9998C24.6458 19.4317 19.4318 24.6457 13 24.6457C6.56818 24.6457 1.35416 19.4317 1.35416 12.9998Z" fill="black" fill-opacity="0.3"/>
</svg>
