<svg width="22" height="22" viewBox="0 0 22 22" fill="none" xmlns="http://www.w3.org/2000/svg">
<path d="M1.83331 5.50004C1.83331 3.77156 1.83331 2.90732 2.37028 2.37034C2.90725 1.83337 3.7715 1.83337 5.49998 1.83337C7.22846 1.83337 8.0927 1.83337 8.62968 2.37034C9.16665 2.90732 9.16665 3.77156 9.16665 5.50004V16.5C9.16665 18.2285 9.16665 19.0928 8.62968 19.6297C8.0927 20.1667 7.22846 20.1667 5.49998 20.1667C3.7715 20.1667 2.90725 20.1667 2.37028 19.6297C1.83331 19.0928 1.83331 18.2285 1.83331 16.5V5.50004Z" fill="#FFAA00"/>
<path d="M12.8333 5.50004C12.8333 3.77156 12.8333 2.90732 13.3703 2.37034C13.9073 1.83337 14.7715 1.83337 16.5 1.83337C18.2285 1.83337 19.0927 1.83337 19.6297 2.37034C20.1666 2.90732 20.1666 3.77156 20.1666 5.50004V16.5C20.1666 18.2285 20.1666 19.0928 19.6297 19.6297C19.0927 20.1667 18.2285 20.1667 16.5 20.1667C14.7715 20.1667 13.9073 20.1667 13.3703 19.6297C12.8333 19.0928 12.8333 18.2285 12.8333 16.5V5.50004Z" fill="#FFAA00"/>
</svg>
