<svg width="20" height="20" viewBox="0 0 20 20" fill="none" xmlns="http://www.w3.org/2000/svg">
<path fill-rule="evenodd" clip-rule="evenodd" d="M9.11965 1.0415H10.8803C12.4118 1.04149 13.6248 1.04148 14.5742 1.16912C15.5512 1.30047 16.342 1.57724 16.9656 2.20087C17.5893 2.82451 17.866 3.6153 17.9974 4.59232C18.125 5.54166 18.125 6.75469 18.125 8.28616V11.7135C18.125 13.245 18.125 14.458 17.9974 15.4074C17.866 16.3844 17.5893 17.1752 16.9656 17.7988C16.342 18.4224 15.5512 18.6992 14.5742 18.8306C13.6248 18.9582 12.4118 18.9582 10.8803 18.9582H9.11966C7.58819 18.9582 6.37516 18.9582 5.42581 18.8306C4.4488 18.6992 3.65801 18.4224 3.03437 17.7988C2.41073 17.1752 2.13397 16.3844 2.00261 15.4074C1.87498 14.458 1.87499 13.245 1.875 11.7135V8.28616C1.87499 6.75469 1.87498 5.54166 2.00261 4.59232C2.13397 3.6153 2.41073 2.82451 3.03437 2.20087C3.65801 1.57724 4.4488 1.30047 5.42581 1.16912C6.37516 1.04148 7.58819 1.04149 9.11965 1.0415ZM5.59237 2.40797C4.75397 2.52069 4.27093 2.73208 3.91825 3.08476C3.56558 3.43743 3.35419 3.92047 3.24147 4.75888C3.12633 5.61526 3.125 6.74415 3.125 8.33317V11.6665C3.125 13.2555 3.12633 14.3844 3.24147 15.2408C3.35419 16.0792 3.56558 16.5622 3.91825 16.9149C4.27093 17.2676 4.75397 17.479 5.59237 17.5917C6.44876 17.7068 7.57765 17.7082 9.16667 17.7082H10.8333C12.4224 17.7082 13.5512 17.7068 14.4076 17.5917C15.246 17.479 15.7291 17.2676 16.0817 16.9149C16.4344 16.5622 16.6458 16.0792 16.7585 15.2408C16.8737 14.3844 16.875 13.2555 16.875 11.6665V8.33317C16.875 6.74415 16.8737 5.61526 16.7585 4.75888C16.6458 3.92047 16.4344 3.43743 16.0817 3.08476C15.7291 2.73208 15.246 2.52069 14.4076 2.40797C13.5512 2.29283 12.4224 2.2915 10.8333 2.2915H9.16667C7.57765 2.2915 6.44876 2.29283 5.59237 2.40797ZM6.04167 8.33317C6.04167 7.98799 6.32149 7.70817 6.66667 7.70817H13.3333C13.6785 7.70817 13.9583 7.98799 13.9583 8.33317C13.9583 8.67835 13.6785 8.95817 13.3333 8.95817H6.66667C6.32149 8.95817 6.04167 8.67835 6.04167 8.33317ZM6.04167 11.6665C6.04167 11.3213 6.32149 11.0415 6.66667 11.0415H10.8333C11.1785 11.0415 11.4583 11.3213 11.4583 11.6665C11.4583 12.0117 11.1785 12.2915 10.8333 12.2915H6.66667C6.32149 12.2915 6.04167 12.0117 6.04167 11.6665Z" fill="#FFAA00"/>
</svg>
