<svg width="34" height="34" viewBox="0 0 34 34" fill="none" xmlns="http://www.w3.org/2000/svg">
<path fill-rule="evenodd" clip-rule="evenodd" d="M17 1.77083C17.5868 1.77083 18.0625 2.24653 18.0625 2.83333V5.66667C18.0625 6.25347 17.5868 6.72917 17 6.72917C16.4132 6.72917 15.9375 6.25347 15.9375 5.66667V2.83333C15.9375 2.24653 16.4132 1.77083 17 1.77083ZM5.19729 5.26446C5.59325 4.83138 6.26532 4.8013 6.69839 5.19725L9.84625 8.07533C10.2793 8.47129 10.3094 9.14336 9.91345 9.57643C9.51749 10.0095 8.84543 10.0396 8.41235 9.64364L5.2645 6.76556C4.83142 6.3696 4.80134 5.69753 5.19729 5.26446ZM28.8028 5.26446C29.1987 5.69753 29.1687 6.3696 28.7356 6.76556L25.5877 9.64364C25.1547 10.0396 24.4826 10.0095 24.0866 9.57643C23.6907 9.14336 23.7208 8.47129 24.1538 8.07533L27.3017 5.19725C27.7348 4.8013 28.4068 4.83138 28.8028 5.26446ZM17 10.9792C13.6748 10.9792 10.9792 13.6748 10.9792 17C10.9792 20.3252 13.6748 23.0208 17 23.0208C20.3253 23.0208 23.0209 20.3252 23.0209 17C23.0209 13.6748 20.3253 10.9792 17 10.9792ZM8.85421 17C8.85421 12.5012 12.5012 8.85417 17 8.85417C21.4989 8.85417 25.1459 12.5012 25.1459 17C25.1459 21.4988 21.4989 25.1458 17 25.1458C12.5012 25.1458 8.85421 21.4988 8.85421 17ZM1.77087 17C1.77087 16.4132 2.24657 15.9375 2.83337 15.9375H5.66671C6.25351 15.9375 6.72921 16.4132 6.72921 17C6.72921 17.5868 6.25351 18.0625 5.66671 18.0625H2.83337C2.24657 18.0625 1.77087 17.5868 1.77087 17ZM27.2709 17C27.2709 16.4132 27.7466 15.9375 28.3334 15.9375H31.1667C31.7535 15.9375 32.2292 16.4132 32.2292 17C32.2292 17.5868 31.7535 18.0625 31.1667 18.0625H28.3334C27.7466 18.0625 27.2709 17.5868 27.2709 17ZM24.1195 24.119C24.5345 23.7041 25.2072 23.7041 25.6221 24.1191L28.77 27.2673C29.1849 27.6823 29.1849 28.355 28.7699 28.7699C28.3549 29.1849 27.6822 29.1848 27.2673 28.7699L24.1194 25.6216C23.7045 25.2067 23.7046 24.5339 24.1195 24.119ZM9.88082 24.1192C10.2958 24.5342 10.2957 25.2069 9.88082 25.6218L6.73267 28.77C6.31774 29.1849 5.645 29.1849 5.23007 28.77C4.81514 28.355 4.81514 27.6823 5.23007 27.2674L8.37822 24.1192C8.79315 23.7043 9.46589 23.7043 9.88082 24.1192ZM17 27.2708C17.5868 27.2708 18.0625 27.7465 18.0625 28.3333V31.1667C18.0625 31.7535 17.5868 32.2292 17 32.2292C16.4132 32.2292 15.9375 31.7535 15.9375 31.1667V28.3333C15.9375 27.7465 16.4132 27.2708 17 27.2708Z" fill="white"/>
</svg>
