<svg width="20" height="20" viewBox="0 0 20 20" fill="none" xmlns="http://www.w3.org/2000/svg">
<path fill-rule="evenodd" clip-rule="evenodd" d="M5.20833 6.66667C5.20833 4.0203 7.35364 1.875 10 1.875C12.6464 1.875 14.7917 4.0203 14.7917 6.66667V9.16667C14.7917 11.813 12.6464 13.9583 10 13.9583C7.35364 13.9583 5.20833 11.813 5.20833 9.16667V6.66667ZM10 3.125C8.04399 3.125 6.45833 4.71066 6.45833 6.66667V9.16667C6.45833 11.1227 8.04399 12.7083 10 12.7083C11.956 12.7083 13.5417 11.1227 13.5417 9.16667V6.66667C13.5417 4.71066 11.956 3.125 10 3.125ZM8.54167 6.66667C8.54167 6.32149 8.82149 6.04167 9.16667 6.04167H10.8333C11.1785 6.04167 11.4583 6.32149 11.4583 6.66667C11.4583 7.01185 11.1785 7.29167 10.8333 7.29167H9.16667C8.82149 7.29167 8.54167 7.01185 8.54167 6.66667ZM3.33333 7.70833C3.67851 7.70833 3.95833 7.98816 3.95833 8.33333V9.16667C3.95833 12.5034 6.66328 15.2083 10 15.2083C13.3367 15.2083 16.0417 12.5034 16.0417 9.16667V8.33333C16.0417 7.98816 16.3215 7.70833 16.6667 7.70833C17.0118 7.70833 17.2917 7.98816 17.2917 8.33333V9.16667C17.2917 12.9832 14.3595 16.1149 10.625 16.4319V18.3333C10.625 18.6785 10.3452 18.9583 10 18.9583C9.65482 18.9583 9.375 18.6785 9.375 18.3333V16.4319C5.6405 16.1149 2.70833 12.9832 2.70833 9.16667V8.33333C2.70833 7.98816 2.98816 7.70833 3.33333 7.70833ZM7.70833 9.16667C7.70833 8.82149 7.98816 8.54167 8.33333 8.54167H11.6667C12.0118 8.54167 12.2917 8.82149 12.2917 9.16667C12.2917 9.51185 12.0118 9.79167 11.6667 9.79167H8.33333C7.98816 9.79167 7.70833 9.51185 7.70833 9.16667Z" fill="white"/>
</svg>
