<svg width="18" height="18" viewBox="0 0 18 18" fill="none" xmlns="http://www.w3.org/2000/svg">
<path fill-rule="evenodd" clip-rule="evenodd" d="M4.6875 6C4.6875 3.61827 6.61827 1.6875 9 1.6875C11.3817 1.6875 13.3125 3.61827 13.3125 6V8.25C13.3125 10.6317 11.3817 12.5625 9 12.5625C6.61827 12.5625 4.6875 10.6317 4.6875 8.25V6ZM9 2.8125C7.23959 2.8125 5.8125 4.23959 5.8125 6V8.25C5.8125 10.0104 7.23959 11.4375 9 11.4375C10.7604 11.4375 12.1875 10.0104 12.1875 8.25V6C12.1875 4.23959 10.7604 2.8125 9 2.8125ZM7.6875 6C7.6875 5.68934 7.93934 5.4375 8.25 5.4375H9.75C10.0607 5.4375 10.3125 5.68934 10.3125 6C10.3125 6.31066 10.0607 6.5625 9.75 6.5625H8.25C7.93934 6.5625 7.6875 6.31066 7.6875 6ZM3 6.9375C3.31066 6.9375 3.5625 7.18934 3.5625 7.5V8.25C3.5625 11.253 5.99695 13.6875 9 13.6875C12.003 13.6875 14.4375 11.253 14.4375 8.25V7.5C14.4375 7.18934 14.6893 6.9375 15 6.9375C15.3107 6.9375 15.5625 7.18934 15.5625 7.5V8.25C15.5625 11.6849 12.9236 14.5034 9.5625 14.7887V16.5C9.5625 16.8107 9.31066 17.0625 9 17.0625C8.68934 17.0625 8.4375 16.8107 8.4375 16.5V14.7887C5.07645 14.5034 2.4375 11.6849 2.4375 8.25V7.5C2.4375 7.18934 2.68934 6.9375 3 6.9375ZM6.9375 8.25C6.9375 7.93934 7.18934 7.6875 7.5 7.6875H10.5C10.8107 7.6875 11.0625 7.93934 11.0625 8.25C11.0625 8.56066 10.8107 8.8125 10.5 8.8125H7.5C7.18934 8.8125 6.9375 8.56066 6.9375 8.25Z" fill="#FFAA00"/>
</svg>
