<svg width="20" height="20" viewBox="0 0 20 20" fill="none" xmlns="http://www.w3.org/2000/svg">
<path d="M12.8962 7.92961C13.0749 8.59644 12.8593 9.23358 12.4148 9.35269C11.9702 9.47181 11.465 9.0278 11.2863 8.36097C11.1077 7.69414 11.3232 7.057 11.7677 6.93788C12.2123 6.81876 12.7175 7.26277 12.8962 7.92961Z" fill="#FFAA00"/>
<path d="M8.0667 9.22375C8.24538 9.89059 8.02984 10.5277 7.58529 10.6468C7.14073 10.766 6.6355 10.322 6.45682 9.65512C6.27815 8.98829 6.49368 8.35115 6.93824 8.23203C7.38279 8.11291 7.88802 8.55692 8.0667 9.22375Z" fill="#FFAA00"/>
<path fill-rule="evenodd" clip-rule="evenodd" d="M10.0001 2.2915C5.74289 2.2915 2.29175 5.74264 2.29175 9.99984C2.29175 14.257 5.74289 17.7082 10.0001 17.7082C14.2573 17.7082 17.7084 14.257 17.7084 9.99984C17.7084 5.74264 14.2573 2.2915 10.0001 2.2915ZM1.04175 9.99984C1.04175 5.05229 5.05253 1.0415 10.0001 1.0415C14.9476 1.0415 18.9584 5.05229 18.9584 9.99984C18.9584 14.9474 14.9476 18.9582 10.0001 18.9582C5.05253 18.9582 1.04175 14.9474 1.04175 9.99984ZM14.3158 11.1172C14.5559 11.3652 14.5495 11.7609 14.3015 12.001C14.1598 12.1382 14.0107 12.2703 13.8548 12.397L14.0368 12.7678C14.4976 13.7067 14.1012 14.841 13.1559 15.2885C12.2294 15.7271 11.1224 15.3403 10.6707 14.4201L10.443 13.9563C9.34315 14.1649 8.25774 14.1299 7.27529 13.8837C6.94047 13.7998 6.73708 13.4603 6.821 13.1255C6.90492 12.7907 7.24437 12.5873 7.5792 12.6712C8.52112 12.9073 9.60278 12.9102 10.7009 12.6159C11.7991 12.3217 12.7343 11.7783 13.432 11.1029C13.68 10.8628 14.0757 10.8692 14.3158 11.1172ZM11.6707 13.6206L11.7928 13.8693C11.9433 14.176 12.3123 14.3049 12.6211 14.1587C12.9362 14.0096 13.0683 13.6315 12.9147 13.3186L12.809 13.1033C12.4515 13.3024 12.071 13.4762 11.6707 13.6206Z" fill="#FFAA00"/>
</svg>
