<svg width="20" height="20" viewBox="0 0 20 20" fill="none" xmlns="http://www.w3.org/2000/svg">
<path d="M12.058 6.27544C12.3021 6.51951 12.6978 6.51951 12.9419 6.27544C13.1859 6.03136 13.1859 5.63563 12.9419 5.39155L10.4419 2.89155C10.1978 2.64748 9.80205 2.64748 9.55798 2.89155L7.05798 5.39155C6.8139 5.63563 6.8139 6.03136 7.05798 6.27544C7.30205 6.51952 7.69778 6.51952 7.94186 6.27544L9.37492 4.84238V11.6668C9.37492 12.012 9.65474 12.2918 9.99992 12.2918C10.3451 12.2918 10.6249 12.012 10.6249 11.6668V4.84238L12.058 6.27544Z" fill="#FFAA00"/>
<path d="M17.2916 10.0002C17.2916 9.65498 17.0118 9.37516 16.6666 9.37516C16.3214 9.37516 16.0416 9.65498 16.0416 10.0002C16.0416 13.3369 13.3366 16.0418 9.99992 16.0418C6.6632 16.0418 3.95825 13.3369 3.95825 10.0002C3.95825 9.65498 3.67843 9.37516 3.33325 9.37516C2.98807 9.37516 2.70825 9.65498 2.70825 10.0002C2.70825 14.0272 5.97284 17.2918 9.99992 17.2918C14.027 17.2918 17.2916 14.0272 17.2916 10.0002Z" fill="#FFAA00"/>
</svg>
