<svg width="20" height="20" viewBox="0 0 20 20" fill="none" xmlns="http://www.w3.org/2000/svg">
<path fill-rule="evenodd" clip-rule="evenodd" d="M6.56565 1.04151C6.58784 1.04152 6.61035 1.04152 6.63318 1.04152C6.6425 1.04152 6.65169 1.04152 6.66077 1.04152C6.8922 1.0415 7.04681 1.04148 7.19831 1.05477C7.84897 1.11181 8.47046 1.3517 8.98084 1.74835C9.09981 1.84081 9.21082 1.94491 9.37346 2.09741L9.39398 2.11665L9.76081 2.46056C10.3292 2.9934 10.5316 3.17588 10.7638 3.29701C10.9017 3.36892 11.0486 3.42604 11.2016 3.46694C11.4622 3.53658 11.7499 3.54152 12.5523 3.54152L12.8405 3.54152C13.6847 3.5415 14.3734 3.54149 14.9201 3.60593C15.4876 3.67282 15.9888 3.81702 16.407 4.16962C16.4762 4.22795 16.5422 4.28981 16.6047 4.35498C16.988 4.75453 17.1484 5.24082 17.222 5.78942C17.2917 6.30924 17.2917 6.96123 17.2917 7.74708V9.44047C17.4699 9.62092 17.6256 9.82312 17.7553 10.0424C18.0877 10.6039 18.1562 11.2362 18.1138 11.9583C18.0725 12.6621 17.9182 13.5403 17.7252 14.6386L17.7126 14.7103C17.5743 15.4975 17.4625 16.1343 17.3204 16.6396C17.1732 17.1628 16.9783 17.6059 16.638 17.9769C16.4768 18.1527 16.2959 18.309 16.099 18.4424C15.6811 18.7255 15.218 18.8467 14.6878 18.9036C14.179 18.9582 13.5509 18.9582 12.7801 18.9582H7.21989C6.44916 18.9582 5.82105 18.9582 5.31221 18.9036C4.78201 18.8467 4.31893 18.7255 3.90101 18.4424C3.70408 18.309 3.52325 18.1527 3.36199 17.9769C3.0217 17.6059 2.8268 17.1628 2.67965 16.6396C2.53757 16.1343 2.4257 15.4975 2.28741 14.7102L2.2748 14.6385C2.08185 13.5402 1.92757 12.6621 1.88625 11.9583C1.84386 11.2362 1.91236 10.6039 2.24472 10.0424C2.37448 9.82311 2.53015 9.62092 2.70835 9.44047V4.76011C2.70835 4.73598 2.70834 4.7122 2.70834 4.68877C2.7082 4.20618 2.70811 3.87167 2.76687 3.5797C3.02514 2.29638 4.08548 1.32636 5.39675 1.09442C5.69672 1.04136 6.04218 1.04142 6.56565 1.04151ZM3.95835 8.74252C4.15872 8.69044 4.36975 8.65319 4.59093 8.62578C5.27109 8.54149 6.13662 8.5415 7.21202 8.54152H12.788C13.8634 8.5415 14.7289 8.54149 15.4091 8.62578C15.6303 8.65319 15.8413 8.69044 16.0417 8.74252V7.79021C16.0417 6.95015 16.0404 6.38255 15.9831 5.95556C15.9284 5.54787 15.8324 5.3555 15.7027 5.22035C15.6709 5.18715 15.637 5.1554 15.6012 5.12525C15.4491 4.99693 15.2264 4.90068 14.7738 4.84734C14.3089 4.79254 13.6943 4.79152 12.8014 4.79152H12.5523C12.5244 4.79152 12.4968 4.79153 12.4695 4.79153C11.78 4.79171 11.3177 4.79183 10.8789 4.67457C10.6382 4.61025 10.4056 4.52001 10.1857 4.40531C9.78302 4.19526 9.45193 3.88469 8.96576 3.42863C8.94606 3.41015 8.92611 3.39144 8.90589 3.37248L8.53905 3.02857C8.34845 2.84988 8.28144 2.78791 8.21379 2.73533C7.89827 2.49013 7.5066 2.33659 7.08915 2.29999C6.99885 2.29207 6.90187 2.29152 6.63318 2.29152C6.01811 2.29152 5.79187 2.29393 5.61447 2.32531C4.7683 2.47498 4.14108 3.08704 3.9923 3.82632C3.96144 3.97964 3.95835 4.1783 3.95835 4.76011V8.74252ZM4.74466 9.86629C4.16335 9.93833 3.86364 10.0703 3.65702 10.2614C3.52639 10.3823 3.41286 10.5229 3.32044 10.679C3.17107 10.9314 3.09811 11.2719 3.13411 11.885C3.17068 12.5081 3.31142 13.3149 3.51287 14.4616C3.6582 15.2888 3.75991 15.8635 3.88298 16.3012C4.00293 16.7278 4.12754 16.9623 4.28315 17.1319C4.3792 17.2367 4.48628 17.3291 4.60207 17.4075C4.7868 17.5326 5.02508 17.6156 5.44563 17.6607C5.87995 17.7073 6.44081 17.7082 7.25444 17.7082H12.7456C13.5592 17.7082 14.1201 17.7073 14.5544 17.6607C14.975 17.6156 15.2132 17.5326 15.398 17.4075C15.5138 17.3291 15.6208 17.2367 15.7169 17.1319C15.8725 16.9623 15.9971 16.7278 16.1171 16.3012C16.2401 15.8635 16.3418 15.2888 16.4872 14.4616C16.6886 13.3149 16.8294 12.5081 16.8659 11.885C16.9019 11.2719 16.829 10.9314 16.6796 10.679C16.5872 10.5229 16.4736 10.3823 16.343 10.2614C16.1364 10.0703 15.8367 9.93833 15.2554 9.86629C14.6611 9.79265 13.8733 9.79152 12.7456 9.79152H7.25444C6.12669 9.79152 5.33891 9.79265 4.74466 9.86629ZM7.70835 14.1665C7.70835 13.8213 7.98817 13.5415 8.33335 13.5415H11.6667C12.0119 13.5415 12.2917 13.8213 12.2917 14.1665C12.2917 14.5117 12.0119 14.7915 11.6667 14.7915H8.33335C7.98817 14.7915 7.70835 14.5117 7.70835 14.1665Z" fill="#FFAA00"/>
</svg>
