<svg width="20" height="20" viewBox="0 0 20 20" fill="none" xmlns="http://www.w3.org/2000/svg">
<path fill-rule="evenodd" clip-rule="evenodd" d="M13.0289 1.77027C13.3015 1.07658 14.2814 1.07657 14.554 1.77027L14.9107 2.67795L15.8145 3.03575C16.5057 3.30934 16.5057 4.28928 15.8145 4.56287L14.9107 4.92067L14.554 5.82834C14.2814 6.52204 13.3015 6.52205 13.0289 5.82835L12.6722 4.92067L11.7684 4.56287C11.0772 4.28928 11.0772 3.30934 11.7684 3.03575L12.6722 2.67795L13.0289 1.77027ZM13.7915 2.10824L14.1371 2.98778C14.2201 3.19909 14.387 3.36689 14.5985 3.45061L15.4793 3.79931L14.5985 4.14801C14.387 4.23173 14.2201 4.39953 14.1371 4.61084L13.7915 5.49038L13.4458 4.61084C13.3628 4.39953 13.1959 4.23173 12.9844 4.14801L12.1036 3.79931L12.9844 3.45061C13.1959 3.36689 13.3628 3.19909 13.4458 2.98778L13.7915 2.10824Z" fill="#FFAA00"/>
<path fill-rule="evenodd" clip-rule="evenodd" d="M2.76183 2.76183C3.94427 1.57939 5.86139 1.57939 7.04383 2.76183L17.2382 12.9562C18.4206 14.1386 18.4206 16.0557 17.2382 17.2382C16.0557 18.4206 14.1386 18.4206 12.9562 17.2382L2.76183 7.04383C1.57939 5.86139 1.57939 3.94427 2.76183 2.76183ZM6.15994 3.64571C5.46566 2.95143 4.34 2.95143 3.64571 3.64571C2.95143 4.34 2.95143 5.46566 3.64571 6.15994L4.96761 7.48184L7.48184 4.96761L6.15994 3.64571ZM13.8401 16.3543L5.8515 8.36572L8.36573 5.8515L16.3543 13.8401C17.0486 14.5343 17.0486 15.66 16.3543 16.3543C15.66 17.0486 14.5343 17.0486 13.8401 16.3543Z" fill="#FFAA00"/>
<path fill-rule="evenodd" clip-rule="evenodd" d="M17.7766 7.45549C17.504 6.7618 16.5241 6.7618 16.2515 7.45549L16.1227 7.78322L15.7967 7.91229C15.1055 8.18588 15.1055 9.16582 15.7967 9.43941L16.1227 9.56848L16.2515 9.89621C16.5241 10.5899 17.504 10.5899 17.7766 9.89621L17.9054 9.56848L18.2315 9.43941C18.9226 9.16582 18.9226 8.18588 18.2315 7.91229L17.9054 7.78322L17.7766 7.45549ZM17.0141 7.79346L16.8964 8.09305C16.8133 8.30436 16.6464 8.47216 16.435 8.55588L16.1319 8.67585L16.435 8.79583C16.6464 8.87954 16.8133 9.04734 16.8964 9.25865L17.0141 9.55824L17.1318 9.25865C17.2148 9.04734 17.3817 8.87954 17.5932 8.79583L17.8963 8.67585L17.5932 8.55588C17.3817 8.47216 17.2148 8.30436 17.1318 8.09305L17.0141 7.79346Z" fill="#FFAA00"/>
<path fill-rule="evenodd" clip-rule="evenodd" d="M3.88986 12.6036C4.16245 11.9099 5.1424 11.9099 5.41498 12.6036L5.54376 12.9313L5.86982 13.0604C6.56096 13.334 6.56096 14.3139 5.86982 14.5875L5.54376 14.7166L5.41498 15.0443C5.1424 15.738 4.16245 15.738 3.88986 15.0443L3.76109 14.7166L3.43502 14.5875C2.74388 14.3139 2.74388 13.334 3.43502 13.0604L3.76109 12.9313L3.88986 12.6036ZM4.5347 13.2412L4.65242 12.9416L4.77014 13.2412C4.85317 13.4525 5.02005 13.6203 5.23154 13.704L5.53462 13.824L5.23154 13.9439C5.02005 14.0277 4.85317 14.1955 4.77014 14.4068L4.65242 14.7064L4.5347 14.4068C4.45167 14.1955 4.28479 14.0277 4.0733 13.9439L3.77022 13.824L4.0733 13.704C4.28479 13.6203 4.45167 13.4525 4.5347 13.2412Z" fill="#FFAA00"/>
</svg>
