<svg width="20" height="20" viewBox="0 0 20 20" fill="none" xmlns="http://www.w3.org/2000/svg">
<path fill-rule="evenodd" clip-rule="evenodd" d="M9.95227 1.0415H10.0479C11.9716 1.04149 13.4791 1.04148 14.6553 1.19963C15.8593 1.36149 16.8093 1.69928 17.555 2.44495C18.3006 3.19063 18.6384 4.14064 18.8003 5.34459C18.9584 6.52083 18.9584 8.02836 18.9584 9.95203V10.0476C18.9584 11.9713 18.9584 13.4788 18.8003 14.6551C18.6384 15.859 18.3006 16.809 17.555 17.5547C16.8093 18.3004 15.8593 18.6382 14.6553 18.8C13.4791 18.9582 11.9716 18.9582 10.0479 18.9582H9.95227C8.02861 18.9582 6.52108 18.9582 5.34484 18.8C4.14089 18.6382 3.19087 18.3004 2.44519 17.5547C1.69952 16.809 1.36174 15.859 1.19987 14.6551C1.04173 13.4788 1.04174 11.9713 1.04175 10.0477V9.95202C1.04174 8.02836 1.04173 6.52083 1.19987 5.34459C1.36174 4.14064 1.69952 3.19063 2.44519 2.44495C3.19087 1.69928 4.14089 1.36149 5.34484 1.19963C6.52107 1.04148 8.0286 1.04149 9.95227 1.0415ZM5.51139 2.43848C4.44606 2.58171 3.80379 2.85412 3.32908 3.32883C2.85436 3.80355 2.58195 4.44581 2.43872 5.51115C2.29308 6.59447 2.29175 8.01798 2.29175 9.99984C2.29175 11.9817 2.29308 13.4052 2.43872 14.4885C2.58195 15.5539 2.85436 16.1961 3.32908 16.6708C3.80379 17.1456 4.44606 17.418 5.51139 17.5612C6.59471 17.7068 8.01823 17.7082 10.0001 17.7082C11.9819 17.7082 13.4055 17.7068 14.4888 17.5612C15.5541 17.418 16.1964 17.1456 16.6711 16.6708C17.1458 16.1961 17.4182 15.5539 17.5614 14.4885C17.7071 13.4052 17.7084 11.9817 17.7084 9.99984C17.7084 8.01798 17.7071 6.59447 17.5614 5.51115C17.4182 4.44581 17.1458 3.80355 16.6711 3.32883C16.1964 2.85412 15.5541 2.58171 14.4888 2.43848C13.4055 2.29283 11.9819 2.2915 10.0001 2.2915C8.01823 2.2915 6.59471 2.29283 5.51139 2.43848ZM10.0001 5.20817C10.3453 5.20817 10.6251 5.48799 10.6251 5.83317L10.6251 14.1665C10.6251 14.5117 10.3453 14.7915 10.0001 14.7915C9.6549 14.7915 9.37508 14.5117 9.37508 14.1665L9.37508 5.83317C9.37508 5.48799 9.6549 5.20817 10.0001 5.20817ZM5.83341 6.87484C6.17859 6.87484 6.45841 7.15466 6.45841 7.49984V12.4998C6.45841 12.845 6.17859 13.1248 5.83341 13.1248C5.48824 13.1248 5.20841 12.845 5.20841 12.4998V7.49984C5.20841 7.15466 5.48824 6.87484 5.83341 6.87484ZM14.1667 7.70817C14.5119 7.70817 14.7917 7.98799 14.7917 8.33317V11.6665C14.7917 12.0117 14.5119 12.2915 14.1667 12.2915C13.8216 12.2915 13.5417 12.0117 13.5417 11.6665V8.33317C13.5417 7.98799 13.8216 7.70817 14.1667 7.70817Z" fill="#FFAA00"/>
</svg>
