<svg width="20" height="20" viewBox="0 0 20 20" fill="none" xmlns="http://www.w3.org/2000/svg">
<path d="M9.99986 2.2915C9.18445 2.2915 8.48909 2.81236 8.23139 3.54145C8.11636 3.8669 7.75929 4.03747 7.43384 3.92245C7.10839 3.80742 6.93781 3.45034 7.05284 3.12489C7.48154 1.91199 8.63824 1.0415 9.99986 1.0415C11.3615 1.0415 12.5182 1.91199 12.9469 3.12489C13.0619 3.45034 12.8913 3.80742 12.5659 3.92245C12.2404 4.03747 11.8834 3.8669 11.7683 3.54145C11.5106 2.81236 10.8153 2.2915 9.99986 2.2915Z" fill="#FF0004"/>
<path d="M2.2915 4.99984C2.2915 4.65466 2.57133 4.37484 2.9165 4.37484H17.0832C17.4284 4.37484 17.7082 4.65466 17.7082 4.99984C17.7082 5.34501 17.4284 5.62484 17.0832 5.62484H2.9165C2.57133 5.62484 2.2915 5.34501 2.2915 4.99984Z" fill="#FF0004"/>
<path d="M4.92907 7.04159C4.90611 6.69718 4.6083 6.43659 4.26388 6.45955C3.91947 6.48251 3.65888 6.78033 3.68184 7.12474L4.06805 12.9179C4.1393 13.9868 4.19685 14.8503 4.33182 15.5278C4.47216 16.2322 4.71084 16.8206 5.20384 17.2819C5.69683 17.7431 6.29979 17.9421 7.012 18.0353C7.69703 18.1249 8.5624 18.1249 9.63372 18.1248H10.3661C11.4374 18.1249 12.3028 18.1249 12.9878 18.0353C13.7 17.9421 14.303 17.7431 14.796 17.2819C15.289 16.8206 15.5276 16.2322 15.668 15.5278C15.803 14.8503 15.8605 13.9868 15.9318 12.9179L16.318 7.12474C16.3409 6.78033 16.0803 6.48251 15.7359 6.45955C15.3915 6.43659 15.0937 6.69718 15.0707 7.04159L14.6874 12.7909C14.6126 13.9141 14.5592 14.6956 14.4421 15.2836C14.3284 15.854 14.1698 16.1559 13.942 16.369C13.7141 16.5822 13.4023 16.7204 12.8257 16.7958C12.2312 16.8736 11.4478 16.8748 10.3221 16.8748H9.67767C8.55197 16.8748 7.76863 16.8736 7.17413 16.7958C6.59746 16.7204 6.28566 16.5822 6.05782 16.369C5.82997 16.1559 5.67136 15.854 5.55774 15.2836C5.4406 14.6956 5.38724 13.9141 5.31236 12.7909L4.92907 7.04159Z" fill="#FF0004"/>
<path d="M7.85439 8.5446C8.19785 8.51026 8.50413 8.76085 8.53847 9.10431L8.95514 13.271C8.98949 13.6144 8.7389 13.9207 8.39543 13.9551C8.05197 13.9894 7.74569 13.7388 7.71134 13.3954L7.29468 9.22869C7.26033 8.88523 7.51092 8.57895 7.85439 8.5446Z" fill="#FF0004"/>
<path d="M12.7051 9.22869C12.7395 8.88523 12.4889 8.57895 12.1454 8.5446C11.802 8.51026 11.4957 8.76085 11.4613 9.10431L11.0447 13.271C11.0103 13.6144 11.2609 13.9207 11.6044 13.9551C11.9479 13.9894 12.2541 13.7388 12.2885 13.3954L12.7051 9.22869Z" fill="#FF0004"/>
</svg>
