<svg width="16" height="16" viewBox="0 0 16 16" fill="none" xmlns="http://www.w3.org/2000/svg">
<path fill-rule="evenodd" clip-rule="evenodd" d="M7.29572 0.833496H8.70428C9.92945 0.833486 10.8999 0.833477 11.6593 0.935586C12.441 1.04067 13.0736 1.26208 13.5725 1.76099C14.0714 2.2599 14.2928 2.89253 14.3979 3.67415C14.5 4.43362 14.5 5.40405 14.5 6.62922V9.3711C14.5 10.5963 14.5 11.5667 14.3979 12.3262C14.2928 13.1078 14.0714 13.7404 13.5725 14.2393C13.0736 14.7382 12.441 14.9597 11.6593 15.0647C10.8999 15.1668 9.92945 15.1668 8.70427 15.1668H7.29573C6.07055 15.1668 5.10013 15.1668 4.34065 15.0647C3.55904 14.9597 2.9264 14.7382 2.4275 14.2393C1.92859 13.7404 1.70718 13.1078 1.60209 12.3262C1.49998 11.5667 1.49999 10.5963 1.5 9.37111V6.62922C1.49999 5.40405 1.49998 4.43362 1.60209 3.67415C1.70718 2.89253 1.92859 2.2599 2.4275 1.76099C2.9264 1.26208 3.55904 1.04067 4.34065 0.935586C5.10013 0.833477 6.07055 0.833486 7.29572 0.833496ZM4.4739 1.92667C3.80317 2.01685 3.41674 2.18596 3.1346 2.4681C2.85246 2.75024 2.68335 3.13667 2.59317 3.8074C2.50106 4.4925 2.5 5.39562 2.5 6.66683V9.3335C2.5 10.6047 2.50106 11.5078 2.59317 12.1929C2.68335 12.8637 2.85246 13.2501 3.1346 13.5322C3.41674 13.8144 3.80317 13.9835 4.4739 14.0737C5.15901 14.1658 6.06212 14.1668 7.33333 14.1668H8.66667C9.93788 14.1668 10.841 14.1658 11.5261 14.0737C12.1968 13.9835 12.5833 13.8144 12.8654 13.5322C13.1475 13.2501 13.3167 12.8637 13.4068 12.1929C13.4989 11.5078 13.5 10.6047 13.5 9.3335V6.66683C13.5 5.39562 13.4989 4.49251 13.4068 3.8074C13.3167 3.13667 13.1475 2.75024 12.8654 2.4681C12.5833 2.18596 12.1968 2.01685 11.5261 1.92667C10.841 1.83456 9.93788 1.8335 8.66667 1.8335H7.33333C6.06212 1.8335 5.15901 1.83456 4.4739 1.92667ZM4.83333 6.66683C4.83333 6.39069 5.05719 6.16683 5.33333 6.16683H10.6667C10.9428 6.16683 11.1667 6.39069 11.1667 6.66683C11.1667 6.94297 10.9428 7.16683 10.6667 7.16683H5.33333C5.05719 7.16683 4.83333 6.94297 4.83333 6.66683ZM4.83333 9.3335C4.83333 9.05735 5.05719 8.8335 5.33333 8.8335H8.66667C8.94281 8.8335 9.16667 9.05735 9.16667 9.3335C9.16667 9.60964 8.94281 9.8335 8.66667 9.8335H5.33333C5.05719 9.8335 4.83333 9.60964 4.83333 9.3335Z" fill="white"/>
</svg>
