<svg width="16" height="16" viewBox="0 0 16 16" fill="none" xmlns="http://www.w3.org/2000/svg">
<path fill-rule="evenodd" clip-rule="evenodd" d="M7.34492 1.86788C4.24714 2.19497 1.83333 4.81568 1.83333 8.00016C1.83333 11.4059 4.59424 14.1668 8 14.1668C11.1845 14.1668 13.8052 11.753 14.1323 8.65524C13.2478 9.77806 11.8751 10.5002 10.3333 10.5002C7.66395 10.5002 5.5 8.33621 5.5 5.66683C5.5 4.12508 6.2221 2.75236 7.34492 1.86788ZM0.833328 8.00016C0.833328 4.04212 4.04195 0.833496 8 0.833496C8.47775 0.833496 8.71692 1.21433 8.75789 1.51767C8.7973 1.80948 8.68943 2.1806 8.35402 2.38328C7.24177 3.05537 6.5 4.27471 6.5 5.66683C6.5 7.78392 8.21624 9.50016 10.3333 9.50016C11.7254 9.50016 12.9448 8.75839 13.6169 7.64614C13.8196 7.31072 14.1907 7.20286 14.4825 7.24227C14.7858 7.28323 15.1667 7.52241 15.1667 8.00016C15.1667 11.9582 11.958 15.1668 8 15.1668C4.04195 15.1668 0.833328 11.9582 0.833328 8.00016ZM12 1.8335C11.7239 1.8335 11.5 1.60964 11.5 1.3335C11.5 1.05735 11.7239 0.833496 12 0.833496H14.6667C14.8689 0.833496 15.0512 0.955317 15.1286 1.14215C15.206 1.32899 15.1632 1.54405 15.0202 1.68705L13.2071 3.50016H14.6667C14.9428 3.50016 15.1667 3.72402 15.1667 4.00016C15.1667 4.27631 14.9428 4.50016 14.6667 4.50016H12C11.7978 4.50016 11.6154 4.37834 11.5381 4.1915C11.4607 4.00467 11.5034 3.78961 11.6464 3.64661L13.4596 1.8335H12ZM9 5.8335C8.72385 5.8335 8.5 5.60964 8.5 5.3335C8.5 5.05735 8.72385 4.8335 9 4.8335H11C11.2022 4.8335 11.3845 4.95532 11.4619 5.14215C11.5393 5.32899 11.4965 5.54405 11.3535 5.68705L10.2071 6.8335H11C11.2761 6.8335 11.5 7.05735 11.5 7.3335C11.5 7.60964 11.2761 7.8335 11 7.8335H9C8.79776 7.8335 8.61545 7.71168 8.53806 7.52484C8.46066 7.338 8.50344 7.12294 8.64644 6.97994L9.79289 5.8335H9Z" fill="white"/>
</svg>
