<svg width="16" height="16" viewBox="0 0 16 16" fill="none" xmlns="http://www.w3.org/2000/svg">
<path fill-rule="evenodd" clip-rule="evenodd" d="M8.00001 0.833496C8.27615 0.833496 8.50001 1.05735 8.50001 1.3335V2.66683C8.50001 2.94297 8.27615 3.16683 8.00001 3.16683C7.72387 3.16683 7.50001 2.94297 7.50001 2.66683V1.3335C7.50001 1.05735 7.72387 0.833496 8.00001 0.833496ZM2.44578 2.47755C2.63211 2.27375 2.94838 2.2596 3.15218 2.44593L4.63352 3.80032C4.83732 3.98665 4.85148 4.30292 4.66514 4.50672C4.47881 4.71052 4.16255 4.72468 3.95875 4.53834L2.4774 3.18395C2.2736 2.99762 2.25944 2.68135 2.44578 2.47755ZM13.5542 2.47755C13.7406 2.68135 13.7264 2.99762 13.5226 3.18395L12.0413 4.53834C11.8375 4.72468 11.5212 4.71052 11.3349 4.50672C11.1485 4.30292 11.1627 3.98665 11.3665 3.80032L12.8478 2.44593C13.0516 2.2596 13.3679 2.27375 13.5542 2.47755ZM8.00001 5.16683C6.4352 5.16683 5.16668 6.43536 5.16668 8.00016C5.16668 9.56497 6.4352 10.8335 8.00001 10.8335C9.56482 10.8335 10.8333 9.56497 10.8333 8.00016C10.8333 6.43536 9.56482 5.16683 8.00001 5.16683ZM4.16668 8.00016C4.16668 5.88307 5.88292 4.16683 8.00001 4.16683C10.1171 4.16683 11.8333 5.88307 11.8333 8.00016C11.8333 10.1173 10.1171 11.8335 8.00001 11.8335C5.88292 11.8335 4.16668 10.1173 4.16668 8.00016ZM0.833344 8.00016C0.833344 7.72402 1.0572 7.50016 1.33334 7.50016H2.66668C2.94282 7.50016 3.16668 7.72402 3.16668 8.00016C3.16668 8.27631 2.94282 8.50016 2.66668 8.50016H1.33334C1.0572 8.50016 0.833344 8.27631 0.833344 8.00016ZM12.8333 8.00016C12.8333 7.72402 13.0572 7.50016 13.3333 7.50016H14.6667C14.9428 7.50016 15.1667 7.72402 15.1667 8.00016C15.1667 8.27631 14.9428 8.50016 14.6667 8.50016H13.3333C13.0572 8.50016 12.8333 8.27631 12.8333 8.00016ZM11.3504 11.3503C11.5456 11.155 11.8622 11.1551 12.0575 11.3503L13.5388 12.8319C13.7341 13.0271 13.734 13.3437 13.5388 13.539C13.3435 13.7342 13.0269 13.7342 12.8317 13.5389L11.3503 12.0574C11.1551 11.8621 11.1551 11.5455 11.3504 11.3503ZM4.64979 11.3504C4.84505 11.5456 4.84505 11.8622 4.64979 12.0575L3.16831 13.539C2.97304 13.7342 2.65646 13.7342 2.4612 13.539C2.26594 13.3437 2.26594 13.0271 2.4612 12.8319L3.94268 11.3504C4.13794 11.1551 4.45453 11.1551 4.64979 11.3504ZM8.00001 12.8335C8.27615 12.8335 8.50001 13.0574 8.50001 13.3335V14.6668C8.50001 14.943 8.27615 15.1668 8.00001 15.1668C7.72387 15.1668 7.50001 14.943 7.50001 14.6668V13.3335C7.50001 13.0574 7.72387 12.8335 8.00001 12.8335Z" fill="white"/>
</svg>
