<svg width="16" height="16" viewBox="0 0 16 16" fill="none" xmlns="http://www.w3.org/2000/svg">
<path fill-rule="evenodd" clip-rule="evenodd" d="M8.29928 4.51852C7.78052 4.45564 7.23701 4.55447 6.75017 4.83555C5.5546 5.52582 5.14496 7.05459 5.83523 8.25016C6.20751 8.89498 6.82371 9.31118 7.5 9.4495V11.0003C7.5 11.2765 7.72386 11.5003 8 11.5003C8.27614 11.5003 8.5 11.2765 8.5 11.0003V9.45017C8.75704 9.39767 9.01013 9.30349 9.24983 9.1651C9.73667 8.88402 10.094 8.46274 10.2989 7.98204C10.5962 7.28482 10.5738 6.45901 10.1648 5.75049C9.75571 5.04198 9.0517 4.60973 8.29928 4.51852ZM7.25017 5.70158C7.54304 5.53249 7.86781 5.47354 8.17895 5.51126C8.6326 5.56625 9.05359 5.82587 9.29875 6.25049C9.54391 6.67512 9.55825 7.16951 9.37905 7.58988C9.25614 7.87819 9.04271 8.12998 8.74983 8.29908C8.03255 8.7132 7.11537 8.46744 6.70125 7.75016C6.28713 7.03288 6.53289 6.1157 7.25017 5.70158Z" fill="white"/>
<path fill-rule="evenodd" clip-rule="evenodd" d="M8 0.833496C7.37498 0.833496 6.77821 1.03788 5.81559 1.36757L5.33063 1.53359C4.34308 1.87163 3.58094 2.13251 3.03535 2.35415C2.76052 2.4658 2.52424 2.57394 2.33399 2.68443C2.1509 2.79077 1.96721 2.92339 1.84242 3.10119C1.71907 3.27694 1.65529 3.49299 1.61521 3.70098C1.57354 3.9172 1.54842 4.17659 1.5322 4.4744C1.5 5.06574 1.5 5.87584 1.5 6.92658V7.9944C1.5 12.0618 4.57202 14.0118 6.39889 14.8099L6.41695 14.8178C6.64348 14.9167 6.85641 15.0098 7.10107 15.0724C7.35938 15.1385 7.63383 15.1668 8 15.1668C8.36617 15.1668 8.64062 15.1385 8.89893 15.0724C9.14358 15.0098 9.3565 14.9168 9.58303 14.8178L9.60111 14.8099C11.428 14.0118 14.5 12.0618 14.5 7.9944V6.92671C14.5 5.8759 14.5 5.06576 14.4678 4.4744C14.4516 4.17659 14.4265 3.9172 14.3848 3.70098C14.3447 3.49299 14.2809 3.27694 14.1576 3.10119C14.0328 2.92339 13.8491 2.79077 13.666 2.68443C13.4758 2.57394 13.2395 2.4658 12.9646 2.35415C12.4191 2.13251 11.6569 1.87163 10.6694 1.53358L10.1844 1.36757C9.22179 1.03789 8.62502 0.833496 8 0.833496ZM6.05374 2.34303C7.1301 1.97459 7.56151 1.8335 8 1.8335C8.43849 1.8335 8.8699 1.97459 9.94626 2.34303L10.3281 2.47374C11.3365 2.81892 12.0719 3.07086 12.5883 3.28062C12.846 3.38532 13.0327 3.47306 13.1638 3.54918C13.2285 3.58676 13.2731 3.61777 13.3029 3.64198C13.3281 3.66249 13.3377 3.67411 13.3391 3.67582C13.3404 3.67789 13.3487 3.69174 13.3604 3.72452C13.3737 3.76193 13.3885 3.81555 13.4029 3.8902C13.432 4.04129 13.454 4.24884 13.4693 4.52877C13.4998 5.08957 13.5 5.87239 13.5 6.9446V7.9944C13.5 11.4445 10.9201 13.1425 9.20081 13.8935C8.95316 14.0017 8.81014 14.0629 8.65093 14.1037C8.49888 14.1426 8.31333 14.1668 8 14.1668C7.68667 14.1668 7.50112 14.1426 7.34907 14.1037C7.18986 14.0629 7.04684 14.0017 6.79919 13.8935C5.07993 13.1425 2.5 11.4445 2.5 7.9944V6.9446C2.5 5.87239 2.50018 5.08957 2.53072 4.52877C2.54596 4.24884 2.56803 4.04129 2.59714 3.8902C2.61153 3.81555 2.6263 3.76193 2.63962 3.72452C2.65129 3.69177 2.65957 3.67791 2.66086 3.67582C2.66224 3.67413 2.67186 3.6625 2.69711 3.64198C2.72689 3.61777 2.77148 3.58676 2.83619 3.54918C2.96727 3.47306 3.154 3.38532 3.41173 3.28062C3.92806 3.07086 4.66347 2.81892 5.67187 2.47374L6.05374 2.34303Z" fill="white"/>
</svg>
