<svg width="16" height="16" viewBox="0 0 16 16" fill="none" xmlns="http://www.w3.org/2000/svg">
<g clip-path="url(#clip0_451_30543)">
<path fill-rule="evenodd" clip-rule="evenodd" d="M7.52797 2.20556C7.26548 2.54832 6.96919 3.07717 6.53883 3.8492L6.32037 4.2411C6.3072 4.26473 6.2942 4.28813 6.28132 4.31129C6.08083 4.6721 5.91162 4.97662 5.63895 5.18361C5.36334 5.39284 5.02736 5.46834 4.63688 5.55609C4.61179 5.56173 4.58647 5.56742 4.56093 5.5732L4.13669 5.66919C3.29981 5.85854 2.73049 5.98882 2.34053 6.1425C1.96 6.29246 1.87967 6.41533 1.84906 6.51379C1.81674 6.6177 1.81578 6.77664 2.04328 7.13802C2.27418 7.50481 2.66371 7.96231 3.23339 8.62849L3.52261 8.96668C3.53941 8.98634 3.55607 9.00577 3.57256 9.025C3.84123 9.3384 4.06526 9.59972 4.16802 9.93017C4.27016 10.2586 4.2363 10.6038 4.19526 11.0222C4.19274 11.0479 4.1902 11.0739 4.18765 11.1001L4.14393 11.5513C4.05787 12.4394 3.99984 13.0509 4.01946 13.4915C4.03905 13.9311 4.13192 14.0527 4.20575 14.1087C4.27142 14.1586 4.39282 14.2138 4.7883 14.1004C5.19021 13.9853 5.72438 13.7409 6.508 13.3801L6.9052 13.1972C6.92967 13.186 6.9539 13.1748 6.97792 13.1636C7.34112 12.9957 7.65621 12.8501 8 12.8501C8.34378 12.8501 8.65887 12.9957 9.02207 13.1636C9.04609 13.1748 9.07032 13.186 9.09479 13.1972L9.492 13.3801C10.2756 13.7409 10.8098 13.9853 11.2117 14.1004C11.6072 14.2138 11.7286 14.1586 11.7942 14.1087C11.8681 14.0527 11.9609 13.9311 11.9805 13.4915C12.0002 13.0509 11.9421 12.4394 11.8561 11.5513L11.8123 11.1001C11.8098 11.0739 11.8073 11.0479 11.8047 11.0223C11.7637 10.6038 11.7298 10.2586 11.832 9.93017C11.9347 9.59972 12.1588 9.3384 12.4274 9.02499C12.4439 9.00576 12.4606 8.98633 12.4774 8.96668L12.7666 8.62848C13.3363 7.96231 13.7258 7.50481 13.9567 7.13802C14.1842 6.77664 14.1832 6.6177 14.1509 6.51379C14.1203 6.41533 14.04 6.29246 13.6595 6.1425C13.2695 5.98882 12.7002 5.85854 11.8633 5.66919L11.4391 5.5732C11.4135 5.56742 11.3882 5.56173 11.3631 5.55609C10.9726 5.46834 10.6367 5.39284 10.361 5.18361C10.0884 4.97662 9.91916 4.6721 9.71867 4.31129C9.70579 4.28813 9.69279 4.26472 9.67962 4.2411L9.46116 3.8492C9.0308 3.07717 8.73451 2.54832 8.47202 2.20556C8.20979 1.86312 8.07584 1.8335 8 1.8335C7.92415 1.8335 7.79021 1.86312 7.52797 2.20556ZM6.73403 1.59756C7.05181 1.18258 7.44459 0.833496 8 0.833496C8.5554 0.833496 8.94818 1.18258 9.26596 1.59756C9.57822 2.00532 9.90934 2.59934 10.314 3.32534L10.5531 3.7542C10.8148 4.22365 10.8817 4.32338 10.9657 4.38712C11.0465 4.44848 11.1508 4.4827 11.6597 4.59786L12.1264 4.70345C12.9102 4.88075 13.5559 5.02682 14.0261 5.21214C14.5142 5.4045 14.9414 5.68803 15.1058 6.21684C15.2686 6.74021 15.0857 7.22171 14.803 7.67077C14.5283 8.10708 14.0896 8.62006 13.5537 9.24668L13.2374 9.61661C12.8927 10.0197 12.8207 10.1183 12.7869 10.2271C12.7524 10.3381 12.7556 10.4663 12.8077 11.0036L12.8554 11.4957C12.9365 12.3331 13.0027 13.0159 12.9795 13.536C12.956 14.0653 12.8357 14.5736 12.3989 14.9052C11.9539 15.243 11.4361 15.205 10.9362 15.0618C10.4516 14.9229 9.84735 14.6447 9.11366 14.3068L8.67656 14.1056C8.19833 13.8854 8.09595 13.8501 8 13.8501C7.90404 13.8501 7.80166 13.8854 7.32343 14.1056L6.88633 14.3068C6.15264 14.6447 5.54842 14.9229 5.06375 15.0618C4.5639 15.205 4.04612 15.243 3.6011 14.9052C3.16425 14.5736 3.04403 14.0653 3.02045 13.536C2.99729 13.0159 3.06347 12.3331 3.14463 11.4957L3.19232 11.0036C3.24438 10.4663 3.24763 10.3381 3.21312 10.2271C3.17928 10.1183 3.10728 10.0197 2.76261 9.61661L2.44628 9.24671C1.91038 8.62008 1.47167 8.10708 1.197 7.67077C0.914314 7.22171 0.73141 6.74021 0.894162 6.21684C1.05861 5.68803 1.48576 5.4045 1.97389 5.21214C2.44413 5.02682 3.08981 4.88075 3.87357 4.70344L3.91601 4.69384L4.34025 4.59786C4.8492 4.4827 4.95347 4.44848 5.0343 4.38712C5.11827 4.32338 5.18522 4.22365 5.44691 3.7542L5.68598 3.32533C6.09066 2.59934 6.42177 2.00531 6.73403 1.59756Z" fill="white"/>
</g>
<defs>
<clipPath id="clip0_451_30543">
<rect width="16" height="16" rx="3.33333" fill="white"/>
</clipPath>
</defs>
</svg>
