<svg width="16" height="16" viewBox="0 0 16 16" fill="none" xmlns="http://www.w3.org/2000/svg">
<path fill-rule="evenodd" clip-rule="evenodd" d="M8.00004 0.833496C5.14657 0.833496 2.83337 3.14669 2.83337 6.00016V6.46957C2.83337 6.93418 2.69584 7.3884 2.43812 7.77498L1.67239 8.92358C0.783656 10.2567 1.46213 12.0687 3.00786 12.4903C3.5116 12.6276 4.01959 12.7438 4.53053 12.8389L4.53179 12.8423C5.04446 14.2102 6.41467 15.1668 7.99999 15.1668C9.58532 15.1668 10.9555 14.2102 11.4682 12.8423L11.4695 12.8389C11.9804 12.7439 12.4884 12.6276 12.9922 12.4903C14.5379 12.0687 15.2164 10.2567 14.3277 8.92358L13.562 7.77498C13.3042 7.3884 13.1667 6.93418 13.1667 6.46957V6.00016C13.1667 3.14669 10.8535 0.833496 8.00004 0.833496ZM10.251 13.0248C8.75567 13.2035 7.24431 13.2035 5.749 13.0248C6.22297 13.7058 7.04735 14.1668 7.99999 14.1668C8.95263 14.1668 9.77701 13.7058 10.251 13.0248ZM3.83337 6.00016C3.83337 3.69898 5.69885 1.8335 8.00004 1.8335C10.3012 1.8335 12.1667 3.69898 12.1667 6.00016V6.46957C12.1667 7.1316 12.3627 7.77883 12.7299 8.32968L13.4956 9.47828C14.0058 10.2435 13.6163 11.2835 12.7291 11.5255C9.63293 12.3699 6.36714 12.3699 3.27097 11.5255C2.38375 11.2835 1.99432 10.2435 2.50444 9.47828L3.27017 8.32968C3.63741 7.77883 3.83337 7.1316 3.83337 6.46957V6.00016Z" fill="white"/>
</svg>
