<svg width="16" height="16" viewBox="0 0 16 16" fill="none" xmlns="http://www.w3.org/2000/svg">
<path fill-rule="evenodd" clip-rule="evenodd" d="M6.87284 1.50001H9.12714C9.2714 1.49992 9.39708 1.49984 9.51576 1.51879C9.98463 1.59366 10.3904 1.8861 10.6097 2.30723C10.6652 2.41382 10.7048 2.53307 10.7504 2.66996L10.8248 2.89323C10.8374 2.93102 10.841 2.94172 10.844 2.95014C10.9608 3.27289 11.2635 3.49106 11.6066 3.49976C11.6156 3.49999 11.6266 3.50003 11.6667 3.50003H13.6667C13.9428 3.50003 14.1667 3.72388 14.1667 4.00003C14.1667 4.27617 13.9428 4.50003 13.6667 4.50003H2.33327C2.05712 4.50003 1.83327 4.27617 1.83327 4.00003C1.83327 3.72388 2.05712 3.50003 2.33327 3.50003H4.33332C4.37335 3.50003 4.3844 3.49999 4.39342 3.49976C4.73652 3.49106 5.0392 3.2729 5.15595 2.95016C5.15902 2.94168 5.16255 2.93121 5.17521 2.89323L5.24961 2.66998C5.29514 2.5331 5.33482 2.41382 5.39032 2.30723C5.60962 1.8861 6.01535 1.59366 6.48422 1.51879C6.6029 1.49984 6.72858 1.49992 6.87284 1.50001ZM6.00537 3.50003C6.03971 3.43268 6.07014 3.36269 6.09632 3.29032C6.10427 3.26834 6.11206 3.24495 6.12208 3.21489L6.18862 3.01528C6.2494 2.83294 6.26339 2.79575 6.27727 2.76909C6.35037 2.62872 6.48562 2.53124 6.64191 2.50628C6.67159 2.50154 6.71129 2.50003 6.9035 2.50003H9.09648C9.28869 2.50003 9.32839 2.50154 9.35807 2.50628C9.51436 2.53124 9.64961 2.62872 9.72271 2.76909C9.73659 2.79575 9.75058 2.83294 9.81136 3.01528L9.87786 3.21477L9.90367 3.29033C9.92985 3.3627 9.96027 3.43268 9.99461 3.50003H6.00537Z" fill="white"/>
<path d="M3.94333 5.63343C3.92496 5.3579 3.68671 5.14943 3.41117 5.1678C3.13564 5.18617 2.92717 5.42442 2.94554 5.69995L3.25451 10.3344C3.3115 11.1896 3.35755 11.8804 3.46553 12.4224C3.57779 12.986 3.76874 13.4567 4.16314 13.8256C4.55753 14.1946 5.0399 14.3538 5.60967 14.4284C6.15768 14.5 6.84996 14.5 7.707 14.5H8.29293C9.14997 14.5 9.8423 14.5 10.3903 14.4284C10.9601 14.3538 11.4424 14.1946 11.8368 13.8256C12.2312 13.4567 12.4222 12.986 12.5345 12.4224C12.6424 11.8804 12.6885 11.1896 12.7455 10.3345L13.0544 5.69995C13.0728 5.42442 12.8643 5.18617 12.5888 5.1678C12.3133 5.14943 12.075 5.3579 12.0567 5.63343L11.75 10.2328C11.6901 11.1314 11.6474 11.7566 11.5537 12.227C11.4628 12.6833 11.3359 12.9249 11.1537 13.0954C10.9714 13.2659 10.7219 13.3765 10.2606 13.4368C9.78501 13.499 9.15834 13.5 8.25778 13.5H7.7422C6.84164 13.5 6.21497 13.499 5.73937 13.4368C5.27803 13.3765 5.0286 13.2659 4.84632 13.0954C4.66404 12.9249 4.53716 12.6833 4.44626 12.227C4.35254 11.7566 4.30986 11.1314 4.24995 10.2328L3.94333 5.63343Z" fill="white"/>
<path d="M6.28358 6.83584C6.55835 6.80836 6.80337 7.00884 6.83085 7.28361L7.16418 10.6169C7.19166 10.8917 6.99119 11.1367 6.71641 11.1642C6.44164 11.1917 6.19662 10.9912 6.16914 10.7164L5.83581 7.38311C5.80833 7.10834 6.0088 6.86332 6.28358 6.83584Z" fill="white"/>
<path d="M9.71641 6.83584C9.99119 6.86332 10.1917 7.10834 10.1642 7.38311L9.83085 10.7164C9.80337 10.9912 9.55835 11.1917 9.28358 11.1642C9.0088 11.1367 8.80833 10.8917 8.83581 10.6169L9.16914 7.28361C9.19662 7.00884 9.44164 6.80836 9.71641 6.83584Z" fill="white"/>
</svg>
