<svg width="26" height="26" viewBox="0 0 26 26" fill="none" xmlns="http://www.w3.org/2000/svg">
<path d="M17.366 10.8662C17.6833 10.5488 17.6833 10.0344 17.366 9.7171C17.0487 9.3998 16.5343 9.3998 16.217 9.7171L11.3748 14.5592L9.7827 12.9671C9.46539 12.6498 8.95095 12.6498 8.63365 12.9671C8.31635 13.2844 8.31635 13.7988 8.63365 14.1162L10.8003 16.2828C11.1176 16.6001 11.6321 16.6001 11.9494 16.2828L17.366 10.8662Z" fill="#FFAA00"/>
<path fill-rule="evenodd" clip-rule="evenodd" d="M12.9998 1.35413C6.56802 1.35413 1.354 6.56814 1.354 13C1.354 19.4318 6.56802 24.6458 12.9998 24.6458C19.4317 24.6458 24.6457 19.4318 24.6457 13C24.6457 6.56814 19.4317 1.35413 12.9998 1.35413ZM2.979 13C2.979 7.46561 7.46548 2.97913 12.9998 2.97913C18.5342 2.97913 23.0207 7.46561 23.0207 13C23.0207 18.5343 18.5342 23.0208 12.9998 23.0208C7.46548 23.0208 2.979 18.5343 2.979 13Z" fill="#FFAA00"/>
</svg>
