<svg width="26" height="26" viewBox="0 0 26 26" fill="none" xmlns="http://www.w3.org/2000/svg">
<path fill-rule="evenodd" clip-rule="evenodd" d="M17.7601 2.18967L17.8321 2.20898C19.0231 2.52809 19.9669 2.78098 20.7093 3.04915C21.4686 3.32346 22.0878 3.63724 22.598 4.11503C23.3408 4.81075 23.8606 5.71113 24.0917 6.70229C24.2504 7.38296 24.2126 8.07612 24.0704 8.87089C23.9315 9.6479 23.6786 10.5917 23.3595 11.7828L22.7794 13.9476C22.4603 15.1386 22.2074 16.0823 21.9392 16.8247C21.6649 17.584 21.3511 18.2033 20.8734 18.7134C20.1998 19.4326 19.3343 19.9427 18.3804 20.1842C18.1017 20.8231 17.6947 21.4017 17.1813 21.8826C16.6712 22.3603 16.052 22.6741 15.2926 22.9484C14.5503 23.2166 13.6065 23.4695 12.4155 23.7886L12.3435 23.8079C11.1525 24.127 10.2087 24.3799 9.43165 24.5189C8.63688 24.661 7.94372 24.6989 7.26305 24.5401C6.27189 24.309 5.37151 23.7892 4.67579 23.0464C4.198 22.5363 3.88422 21.917 3.60991 21.1577C3.34174 20.4153 3.08885 19.4715 2.76973 18.2805L2.18966 16.1157C1.87053 14.9247 1.61763 13.9809 1.4787 13.2039C1.33658 12.4091 1.29872 11.716 1.45743 11.0353C1.68853 10.0441 2.20837 9.14376 2.95118 8.44804C3.46131 7.97025 4.08053 7.65646 4.83988 7.38216C5.58223 7.11399 6.52604 6.8611 7.71703 6.54198L7.75305 6.53233C8.03955 6.45556 8.31063 6.38305 8.56728 6.31524C8.99152 4.79952 9.36485 3.72805 10.0925 2.9512C10.7882 2.20838 11.6886 1.68855 12.6797 1.45744C13.3604 1.29873 14.0535 1.33659 14.8483 1.47871C15.6253 1.61765 16.5691 1.87054 17.7601 2.18967ZM8.07627 8.12805C6.89232 8.44537 6.04398 8.67496 5.39198 8.91049C4.73177 9.14899 4.34412 9.36985 4.06202 9.63406C3.55378 10.1101 3.1981 10.7261 3.03998 11.4043C2.95221 11.7807 2.95476 12.2269 3.07832 12.9179C3.20367 13.6188 3.43802 14.4961 3.76894 15.7311L4.32972 17.8239C4.66064 19.059 4.89631 19.9359 5.13825 20.6056C5.37674 21.2658 5.5976 21.6534 5.86182 21.9355C6.33784 22.4438 6.95389 22.7995 7.63205 22.9576C8.00846 23.0454 8.45461 23.0428 9.14561 22.9192C9.84659 22.7939 10.7238 22.5595 11.9589 22.2286C13.1939 21.8977 14.0708 21.662 14.7405 21.4201C15.4007 21.1816 15.7884 20.9607 16.0705 20.6965C16.2195 20.5569 16.3554 20.4053 16.4771 20.2437C16.2831 20.2164 16.0835 20.1814 15.877 20.1404C15.1492 19.9957 14.2749 19.7614 13.1959 19.4723L13.1337 19.4556C11.9427 19.1365 10.9989 18.8836 10.2565 18.6154C9.4972 18.3411 8.87797 18.0273 8.36785 17.5495C7.62503 16.8538 7.1052 15.9534 6.87409 14.9623C6.71538 14.2816 6.75324 13.5885 6.89536 12.7937C7.0343 12.0167 7.2872 11.0729 7.60633 9.88191L8.07627 8.12805ZM14.5623 3.07834C13.8713 2.95478 13.4251 2.95223 13.0487 3.03999C12.3706 3.19812 11.7545 3.55379 11.2785 4.06204C10.806 4.56647 10.5153 5.34575 10.0097 7.19685C9.9275 7.4977 9.84062 7.82193 9.74638 8.17364L9.18561 10.2665C8.85469 11.5015 8.62034 12.3787 8.49499 13.0797C8.37143 13.7707 8.36888 14.2169 8.45664 14.5933C8.61477 15.2715 8.97044 15.8875 9.47869 16.3635C9.76079 16.6277 10.1484 16.8486 10.8086 17.0871C11.4784 17.329 12.3553 17.5647 13.5903 17.8956C14.7012 18.1933 15.5244 18.4135 16.1939 18.5466C16.8604 18.6791 17.3127 18.7116 17.6834 18.6659C17.7641 18.656 17.8416 18.6422 17.9171 18.6246C18.5953 18.4665 19.2113 18.1108 19.6873 17.6025C19.9515 17.3204 20.1724 16.9328 20.4109 16.2726C20.6528 15.6028 20.8885 14.7259 21.2194 13.4909L21.7802 11.3981C22.1111 10.1631 22.3455 9.28583 22.4708 8.58485C22.5944 7.89385 22.5969 7.4477 22.5092 7.07129C22.351 6.39313 21.9954 5.77708 21.4871 5.30106C21.205 5.03684 20.8174 4.81598 20.1572 4.57749C19.4874 4.33555 18.6105 4.09988 17.3755 3.76896C16.1405 3.43804 15.2633 3.20368 14.5623 3.07834ZM11.9734 10.6231C12.0896 10.1896 12.5351 9.93239 12.9685 10.0485L18.2006 11.4505C18.6341 11.5666 18.8913 12.0121 18.7752 12.4456C18.659 12.879 18.2135 13.1362 17.7801 13.0201L12.548 11.6182C12.1145 11.502 11.8573 11.0565 11.9734 10.6231ZM11.1318 13.7622C11.248 13.3288 11.6935 13.0716 12.127 13.1877L15.2662 14.0289C15.6997 14.145 15.9569 14.5905 15.8407 15.024C15.7246 15.4574 15.2791 15.7146 14.8456 15.5985L11.7064 14.7573C11.2729 14.6412 11.0157 14.1957 11.1318 13.7622Z" fill="black" fill-opacity="0.3"/>
</svg>
