<svg width="22" height="22" viewBox="0 0 22 22" fill="none" xmlns="http://www.w3.org/2000/svg">
<path fill-rule="evenodd" clip-rule="evenodd" d="M4.68781 2C4.26817 2 3.92798 2.34019 3.92798 2.75984V7.05812C3.92798 7.47777 4.26817 7.81796 4.68781 7.81796H8.9861C9.40574 7.81796 9.74594 7.47777 9.74594 7.05812C9.74594 6.63847 9.40574 6.29828 8.9861 6.29828H6.59476C9.47746 4.02579 13.6693 4.21937 16.329 6.87903C19.1974 9.74746 19.1974 14.3981 16.329 17.2665C13.4606 20.135 8.80992 20.135 5.94148 17.2665C4.01973 15.3448 3.38451 12.6227 4.03949 10.17C4.14777 9.76458 3.90687 9.34814 3.50143 9.23986C3.09599 9.13159 2.67954 9.37249 2.57127 9.77793C1.78208 12.7332 2.54606 16.0203 4.86691 18.3411C8.32881 21.803 13.9417 21.803 17.4036 18.3411C20.8655 14.8792 20.8655 9.26636 17.4036 5.80445C14.1292 2.53005 8.93049 2.35271 5.44765 5.27242V2.75984C5.44765 2.34019 5.10746 2 4.68781 2Z" fill="#FFAA00"/>
<path d="M11.3909 15.7227C10.9141 15.7227 10.4961 15.636 10.137 15.4626C9.77781 15.2892 9.49296 15.0539 9.28241 14.7567C9.07497 14.4563 8.95731 14.1204 8.92945 13.7488L8.9248 13.6838H10.1973L10.2066 13.7163C10.2407 13.8804 10.3104 14.0306 10.4156 14.1668C10.524 14.3 10.6618 14.4068 10.829 14.4873C10.9962 14.5647 11.185 14.6034 11.3956 14.6034C11.6371 14.6034 11.8492 14.5508 12.0318 14.4455C12.2145 14.3402 12.3569 14.1962 12.4591 14.0136C12.5644 13.8278 12.617 13.6157 12.617 13.3773V13.368C12.617 13.1296 12.5644 12.9191 12.4591 12.7364C12.3569 12.5537 12.2145 12.4113 12.0318 12.3091C11.8492 12.2069 11.6386 12.1559 11.4002 12.1559C11.233 12.1559 11.0782 12.1806 10.9358 12.2302C10.7934 12.2766 10.6649 12.3478 10.5503 12.4438C10.4884 12.4933 10.4296 12.5506 10.3738 12.6156C10.3212 12.6776 10.2763 12.7441 10.2391 12.8153H9.03627L9.34743 8.84912H13.5366V9.96375H10.4388L10.2716 11.8726H10.3552C10.445 11.7208 10.5596 11.5908 10.6989 11.4824C10.8413 11.3741 11.0039 11.2905 11.1866 11.2316C11.3723 11.1728 11.572 11.1434 11.7857 11.1434C12.2037 11.1434 12.5737 11.2378 12.8957 11.4267C13.2208 11.6156 13.4747 11.8756 13.6573 12.2069C13.8431 12.5351 13.936 12.9129 13.936 13.3401V13.3494C13.936 13.8201 13.8276 14.2334 13.6109 14.5895C13.3973 14.9455 13.0985 15.2242 12.7145 15.4254C12.3337 15.6236 11.8925 15.7227 11.3909 15.7227Z" fill="#FFAA00"/>
</svg>
