<svg preserveAspectRatio="none" width="100%" height="100%" overflow="visible" style="display: block;" viewBox="0 0 13.125 15.375" fill="none" xmlns="http://www.w3.org/2000/svg">
<path id="Vector" fill-rule="evenodd" clip-rule="evenodd" d="M2.25 4.3125C2.25 1.93077 4.18077 0 6.5625 0C8.94423 0 10.875 1.93077 10.875 4.3125V6.5625C10.875 8.94423 8.94423 10.875 6.5625 10.875C4.18077 10.875 2.25 8.94423 2.25 6.5625V4.3125ZM6.5625 1.125C4.80209 1.125 3.375 2.55209 3.375 4.3125V6.5625C3.375 8.32291 4.80209 9.75 6.5625 9.75C8.32291 9.75 9.75 8.32291 9.75 6.5625V4.3125C9.75 2.55209 8.32291 1.125 6.5625 1.125ZM5.25 4.3125C5.25 4.00184 5.50184 3.75 5.8125 3.75H7.3125C7.62316 3.75 7.875 4.00184 7.875 4.3125C7.875 4.62316 7.62316 4.875 7.3125 4.875H5.8125C5.50184 4.875 5.25 4.62316 5.25 4.3125ZM0.5625 5.25C0.87316 5.25 1.125 5.50184 1.125 5.8125V6.5625C1.125 9.56555 3.55945 12 6.5625 12C9.56555 12 12 9.56555 12 6.5625V5.8125C12 5.50184 12.2518 5.25 12.5625 5.25C12.8732 5.25 13.125 5.50184 13.125 5.8125V6.5625C13.125 9.99739 10.4861 12.8159 7.125 13.1012V14.8125C7.125 15.1232 6.87316 15.375 6.5625 15.375C6.25184 15.375 6 15.1232 6 14.8125V13.1012C2.63895 12.8159 0 9.99739 0 6.5625V5.8125C0 5.50184 0.25184 5.25 0.5625 5.25ZM4.5 6.5625C4.5 6.25184 4.75184 6 5.0625 6H8.0625C8.37316 6 8.625 6.25184 8.625 6.5625C8.625 6.87316 8.37316 7.125 8.0625 7.125H5.0625C4.75184 7.125 4.5 6.87316 4.5 6.5625Z" fill="var(--fill-0, #FFAA00)"/>
</svg>
