<svg preserveAspectRatio="none" width="100%" height="100%" overflow="visible" style="display: block;" viewBox="0 0 22.8408 23.2892" fill="none" xmlns="http://www.w3.org/2000/svg">
<path id="Vector" fill-rule="evenodd" clip-rule="evenodd" d="M16.4059 0.835483L16.4779 0.854789C17.6689 1.17391 18.6127 1.42679 19.3551 1.69496C20.1144 1.96927 20.7337 2.28306 21.2438 2.76084C21.9866 3.45657 22.5064 4.35694 22.7375 5.3481C22.8963 6.02878 22.8584 6.72193 22.7163 7.5167C22.5773 8.29371 22.3244 9.23755 22.0053 10.4286L21.4252 12.5934C21.1061 13.7844 20.8532 14.7282 20.5851 15.4705C20.3108 16.2298 19.997 16.8491 19.5192 17.3592C18.8456 18.0784 17.9802 18.5885 17.0262 18.83C16.7475 19.469 16.3406 20.0475 15.8271 20.5284C15.317 21.0062 14.6978 21.3199 13.9384 21.5942C13.1961 21.8624 12.2523 22.1153 11.0613 22.4344L10.9894 22.4537C9.79833 22.7728 8.85448 23.0257 8.07748 23.1647C7.28271 23.3068 6.58955 23.3447 5.90888 23.186C4.91772 22.9548 4.01734 22.435 3.32162 21.6922C2.84383 21.1821 2.53004 20.5629 2.25574 19.8035C1.98757 19.0611 1.73468 18.1173 1.41556 16.9263L0.83549 14.7615C0.51636 13.5705 0.263462 12.6267 0.124524 11.8497C-0.0175942 11.0549 -0.0554553 10.3618 0.103255 9.68111C0.334362 8.68995 0.854193 7.78957 1.59701 7.09385C2.10714 6.61606 2.72636 6.30228 3.48571 6.02797C4.22806 5.7598 5.17187 5.50691 6.36286 5.1878L6.39887 5.17815C6.68538 5.10138 6.95646 5.02887 7.21311 4.96106C7.63735 3.44533 8.01068 2.37386 8.73828 1.59701C9.43401 0.854193 10.3344 0.334362 11.3255 0.103255C12.0062 -0.0554553 12.6994 -0.0175942 13.4941 0.124524C14.2711 0.26346 15.2149 0.516356 16.4059 0.835483ZM6.7221 6.77386C5.53815 7.09118 4.68981 7.32078 4.0378 7.55631C3.3776 7.7948 2.98995 8.01566 2.70785 8.27988C2.19961 8.7559 1.84393 9.37195 1.68581 10.0501C1.59804 10.4265 1.60059 10.8727 1.72415 11.5637C1.8495 12.2646 2.08385 13.1419 2.41477 14.3769L2.97554 16.4698C3.30646 17.7048 3.54214 18.5817 3.78407 19.2514C4.02257 19.9116 4.24343 20.2993 4.50765 20.5814C4.98367 21.0896 5.59971 21.4453 6.27788 21.6034C6.65429 21.6912 7.10043 21.6886 7.79144 21.5651C8.49241 21.4397 9.36967 21.2054 10.6047 20.8744C11.8397 20.5435 12.7166 20.3078 13.3863 20.0659C14.0465 19.8274 14.4342 19.6066 14.7163 19.3423C14.8653 19.2027 15.0013 19.0511 15.1229 18.8895C14.9289 18.8622 14.7294 18.8273 14.5228 18.7862C13.795 18.6415 12.9208 18.4072 11.8417 18.1181L11.7795 18.1014C10.5885 17.7823 9.64473 17.5294 8.90238 17.2612C8.14302 16.9869 7.5238 16.6731 7.01368 16.1954C6.27086 15.4996 5.75103 14.5993 5.51992 13.6081C5.36121 12.9274 5.39907 12.2343 5.54119 11.4395C5.68013 10.6625 5.93303 9.71871 6.25216 8.52772L6.7221 6.77386ZM13.2081 1.72415C12.5171 1.60059 12.071 1.59804 11.6945 1.68581C11.0164 1.84393 10.4003 2.19961 9.92431 2.70785C9.45186 3.21228 9.16113 3.99157 8.65551 5.84266C8.57333 6.14351 8.48645 6.46774 8.39221 6.81945L7.83144 8.91229C7.50051 10.1473 7.26616 11.0246 7.14082 11.7255C7.01725 12.4165 7.0147 12.8627 7.10247 13.2391C7.2606 13.9173 7.61627 14.5333 8.12452 15.0093C8.40662 15.2735 8.79426 15.4944 9.45447 15.7329C10.1242 15.9748 11.0011 16.2105 12.2361 16.5414C13.347 16.8391 14.1703 17.0593 14.8397 17.1924C15.5062 17.3249 15.9586 17.3574 16.3293 17.3117C16.4099 17.3018 16.4874 17.288 16.5629 17.2704C17.2411 17.1123 17.8571 16.7566 18.3332 16.2484C18.5974 15.9663 18.8182 15.5786 19.0567 14.9184C19.2987 14.2487 19.5343 13.3718 19.8653 12.1367L20.426 10.0439C20.757 8.8089 20.9913 7.93164 21.1167 7.23066C21.2402 6.53966 21.2428 6.09352 21.155 5.7171C20.9969 5.03894 20.6412 4.42289 20.133 3.94687C19.8509 3.68265 19.4632 3.46179 18.803 3.2233C18.1333 2.98136 17.2564 2.74569 16.0213 2.41477C14.7863 2.08385 13.9091 1.8495 13.2081 1.72415ZM10.6193 9.26887C10.7354 8.83543 11.1809 8.5782 11.6144 8.69434L16.8465 10.0963C17.2799 10.2124 17.5371 10.6579 17.421 11.0914C17.3049 11.5248 16.8593 11.7821 16.4259 11.6659L11.1938 10.264C10.7604 10.1478 10.5031 9.70231 10.6193 9.26887ZM9.77768 12.408C9.89382 11.9746 10.3393 11.7174 10.7728 11.8335L13.912 12.6747C14.3455 12.7908 14.6027 13.2364 14.4866 13.6698C14.3704 14.1032 13.9249 14.3605 13.4915 14.2443L10.3522 13.4032C9.91876 13.287 9.66154 12.8415 9.77768 12.408Z" fill="var(--fill-0, black)" fill-opacity="0.3"/>
</svg>
