<svg preserveAspectRatio="none" width="100%" height="100%" overflow="visible" style="display: block;" viewBox="0 0 390 158.5" fill="none" xmlns="http://www.w3.org/2000/svg">
<g id="Group">
<g id="Vector">
<path d="M0 33.6668C13.7654 30.7617 29.4013 34.5739 36.0063 44.5256C38.2605 47.9218 42.1769 49.7392 46.2282 49.3623C56.709 48.3863 69.5665 54.1997 76.1146 63.7941C78.2689 66.951 82.3569 67.3608 85.2788 64.9014C92.6958 58.6618 101.953 61.2995 107.096 68.2608C108.445 70.086 110.791 70.771 112.935 70.036C118.105 68.2632 122.062 72.5079 121.866 77.1373C121.783 79.1064 123.103 80.8815 125.055 81.1153C128.995 81.5876 132.477 83.4363 134.87 85.9622C136.621 87.8108 139.569 87.5738 140.978 85.4507C146.279 77.461 154.83 74.2384 162.641 74.9188C166.438 75.2496 170.021 73.3094 172.21 70.1814C184.109 53.1808 215.625 49.1058 230.659 73.4674C232.714 76.7979 236.864 78.0022 240.482 76.5242C247.509 73.6527 256.184 75.5186 261.105 82.763C262.069 84.1808 264.051 84.4154 265.275 83.2158C269.327 79.2463 274.392 79.398 278.518 81.3452C279.973 82.0318 281.677 81.3812 282.275 79.8845C285.686 71.3552 293.327 70.861 298.409 73.7497C300.122 74.7233 302.355 74.0195 303.18 72.2264C306.912 64.1076 317.001 60.6097 326.126 65.5833C328.163 66.6937 330.633 65.4605 331.026 63.1693C331.877 58.2036 335.157 54.1724 339.848 52.9016C341.616 52.423 342.944 50.8801 342.993 49.0448C343.177 42.1366 348.393 35.0759 356.091 33.6668C359.571 33.0295 361.932 29.6067 361.273 26.1213C358.539 11.6739 371.035 -4.09357 390 0.965961V157H0V33.6668Z" fill="var(--fill-0, #A1AECE)"/>
<path d="M0 33.6668C13.7654 30.7617 29.4013 34.5739 36.0063 44.5256C38.2605 47.9218 42.1769 49.7392 46.2282 49.3623C56.709 48.3863 69.5665 54.1997 76.1146 63.7941C78.2689 66.951 82.3569 67.3608 85.2788 64.9014C92.6958 58.6618 101.953 61.2995 107.096 68.2608C108.445 70.086 110.791 70.771 112.935 70.036C118.105 68.2632 122.062 72.5079 121.866 77.1373C121.783 79.1064 123.103 80.8815 125.055 81.1153C128.995 81.5876 132.477 83.4363 134.87 85.9622C136.621 87.8108 139.569 87.5738 140.978 85.4507C146.279 77.461 154.83 74.2384 162.641 74.9188C166.438 75.2496 170.021 73.3094 172.21 70.1814C184.109 53.1808 215.625 49.1058 230.659 73.4674C232.714 76.7979 236.864 78.0022 240.482 76.5242C247.509 73.6527 256.184 75.5186 261.105 82.763C262.069 84.1808 264.051 84.4154 265.275 83.2158C269.327 79.2463 274.392 79.398 278.518 81.3452C279.973 82.0318 281.677 81.3812 282.275 79.8845C285.686 71.3552 293.327 70.861 298.409 73.7497C300.122 74.7233 302.355 74.0195 303.18 72.2264C306.912 64.1076 317.001 60.6097 326.126 65.5833C328.163 66.6937 330.633 65.4605 331.026 63.1693C331.877 58.2036 335.157 54.1724 339.848 52.9016C341.616 52.423 342.944 50.8801 342.993 49.0448C343.177 42.1366 348.393 35.0759 356.091 33.6668C359.571 33.0295 361.932 29.6067 361.273 26.1213C358.539 11.6739 371.035 -4.09357 390 0.965961V157H0V33.6668Z" fill="var(--fill-1, #CDB390)"/>
</g>
<g id="Vector_2">
<path d="M58.9531 97.0399C63.8998 87.4659 75.9921 82.0545 86.9051 87.7819C91.2567 90.0661 96.5966 89.5937 100.375 86.4478C116.028 73.4134 138.825 76.3068 145.048 100.302C145.342 101.437 146.681 101.985 147.661 101.346C151.856 98.6149 157.552 99.8129 158.957 105.162C159.264 106.332 160.591 106.946 161.598 106.278C164.32 104.476 168.087 104.231 171.194 106.594C172.242 107.392 173.77 106.859 174.015 105.562C177.088 89.3412 193.956 79.4989 209.515 87.1469C214.867 89.7775 221.319 88.6428 225.273 84.1714C244.551 62.3677 276.354 67.0127 290.581 88.75C292.821 92.1712 297.488 92.8734 300.661 90.2983C304.568 87.1258 309.997 85.5547 315.466 87.9265C317.599 88.8516 320.013 87.6646 320.739 85.4507C326.161 68.9146 348.365 64.1976 359.406 79.6561C362.514 84.0064 367.464 86.5674 372.799 86.7004C379.675 86.8708 387.058 89.019 389.999 92.4598V158H0V122.59C5.42489 104.46 30.104 94.3029 50.0954 100.713C53.5235 101.812 57.2979 100.244 58.9531 97.0399Z" fill="var(--fill-0, #B6BDCF)"/>
<path d="M58.9531 97.0399C63.8998 87.4659 75.9921 82.0545 86.9051 87.7819C91.2567 90.0661 96.5966 89.5937 100.375 86.4478C116.028 73.4134 138.825 76.3068 145.048 100.302C145.342 101.437 146.681 101.985 147.661 101.346C151.856 98.6149 157.552 99.8129 158.957 105.162C159.264 106.332 160.591 106.946 161.598 106.278C164.32 104.476 168.087 104.231 171.194 106.594C172.242 107.392 173.77 106.859 174.015 105.562C177.088 89.3412 193.956 79.4989 209.515 87.1469C214.867 89.7775 221.319 88.6428 225.273 84.1714C244.551 62.3677 276.354 67.0127 290.581 88.75C292.821 92.1712 297.488 92.8734 300.661 90.2983C304.568 87.1258 309.997 85.5547 315.466 87.9265C317.599 88.8516 320.013 87.6646 320.739 85.4507C326.161 68.9146 348.365 64.1976 359.406 79.6561C362.514 84.0064 367.464 86.5674 372.799 86.7004C379.675 86.8708 387.058 89.019 389.999 92.4598V158H0V122.59C5.42489 104.46 30.104 94.3029 50.0954 100.713C53.5235 101.812 57.2979 100.244 58.9531 97.0399Z" fill="var(--fill-1, #E0C7A6)"/>
</g>
<path id="Vector_3" d="M0 79.4134C22.2658 68.3348 55.9072 79.1913 66.6259 104.474C68.6094 109.152 73.4205 112.005 78.4554 111.407C94.5678 109.495 109.315 117.854 115.387 134.636C117.258 139.805 123.213 142.173 128.137 139.749C140.463 133.682 156.207 137.502 164.45 153.055C165.374 154.799 167.599 155.459 169.253 154.384C172.838 152.054 178.114 152.067 181.875 154.983C183.524 156.262 185.902 155.903 186.962 154.104C189.515 149.774 194.64 147.479 199.845 148.726C201.656 149.16 203.466 148.017 203.92 146.207C211.256 116.865 242.465 102.048 272.375 115.988C273.983 116.737 275.91 116.063 276.697 114.471C280.011 107.769 288.619 105.08 295.472 108.762C297.297 109.742 299.576 108.928 300.236 106.959C303.533 97.1154 314.466 91.6493 325.112 95.9276C329.624 97.741 334.785 96.3632 338.042 92.7456C353.556 75.5198 377.368 74.2365 389.999 82.3544V158.5H0V79.4134Z" fill="var(--fill-0, #F2F2F2)"/>
</g>
</svg>
