<svg preserveAspectRatio="none" width="100%" height="100%" overflow="visible" style="display: block;" viewBox="0 0 23.2917 23.2917" fill="none" xmlns="http://www.w3.org/2000/svg">
<g id="Vector">
<path fill-rule="evenodd" clip-rule="evenodd" d="M20.7084 0.94719C20.3541 0.0453822 19.0801 0.0453802 18.7258 0.947189L18.2621 2.12717L17.0871 2.59231C16.1886 2.94797 16.1886 4.2219 17.0871 4.57756L18.2621 5.04271L18.7258 6.22268C19.0801 7.12449 20.3541 7.12449 20.7084 6.22268L21.1721 5.04271L22.3471 4.57756C23.2456 4.2219 23.2456 2.94798 22.3471 2.59231L21.1721 2.12717L20.7084 0.94719ZM19.7171 1.38655L20.1664 2.52995C20.2743 2.80465 20.4913 3.02279 20.7662 3.13162L21.9114 3.58494L20.7662 4.03825C20.4913 4.14708 20.2743 4.36522 20.1664 4.63993L19.7171 5.78333L19.2678 4.63993C19.1599 4.36522 18.9429 4.14708 18.668 4.03825L17.5228 3.58494L18.668 3.13162C18.9429 3.02279 19.1599 2.80465 19.2678 2.52995L19.7171 1.38655ZM16.5188 7.25488C16.1644 6.35307 14.8905 6.35307 14.5361 7.25488L14.3687 7.68092L13.9448 7.84872C13.0464 8.20438 13.0464 9.4783 13.9448 9.83397L14.3687 10.0018L14.5361 10.4278C14.8905 11.3296 16.1644 11.3296 16.5188 10.4278L16.6862 10.0018L17.1101 9.83397C18.0086 9.4783 18.0086 8.20438 17.1101 7.84872L16.6862 7.68092L16.5188 7.25488ZM15.5275 7.69424L15.6805 8.0837C15.7884 8.35841 16.0054 8.57655 16.2803 8.68538L16.6743 8.84135L16.2803 8.99731C16.0054 9.10614 15.7884 9.32428 15.6805 9.59899L15.5275 9.98845L15.3744 9.59899C15.2665 9.32428 15.0495 9.10614 14.7746 8.99731L14.3806 8.84135L14.7746 8.68538C15.0495 8.57655 15.2665 8.35841 15.3744 8.0837L15.5275 7.69424Z" fill="var(--fill-0, #FFAA00)"/>
<path fill-rule="evenodd" clip-rule="evenodd" d="M10.5813 1.68087C5.54744 2.2124 1.625 6.47105 1.625 11.6458C1.625 17.1802 6.11148 21.6667 11.6458 21.6667C16.8206 21.6667 21.0793 17.7442 21.6108 12.7103C20.1735 14.5349 17.9428 15.7083 15.4375 15.7083C11.0998 15.7083 7.58333 12.1919 7.58333 7.85417C7.58333 5.34883 8.75675 3.11816 10.5813 1.68087ZM0 11.6458C0 5.21402 5.21402 0 11.6458 0C12.4222 0 12.8108 0.618863 12.8774 1.11179C12.9415 1.58597 12.7662 2.18904 12.2211 2.51839C10.4137 3.61054 9.20833 5.59198 9.20833 7.85417C9.20833 11.2944 11.9972 14.0833 15.4375 14.0833C17.6997 14.0833 19.6811 12.878 20.7733 11.0705C21.1026 10.5255 21.7057 10.3502 22.1799 10.4143C22.6728 10.4808 23.2917 10.8695 23.2917 11.6458C23.2917 18.0777 18.0777 23.2917 11.6458 23.2917C5.21402 23.2917 0 18.0777 0 11.6458Z" fill="var(--fill-0, #FFAA00)"/>
</g>
</svg>
