<svg width="26" height="26" viewBox="0 0 26 26" fill="none" xmlns="http://www.w3.org/2000/svg">
<path fill-rule="evenodd" clip-rule="evenodd" d="M17.7599 2.18973L17.832 2.20904C19.0229 2.52815 19.9667 2.78104 20.7091 3.04921C21.4685 3.32352 22.0877 3.63731 22.5978 4.11509C23.3406 4.81082 23.8604 5.71119 24.0916 6.70235C24.2503 7.38303 24.2124 8.07618 24.0703 8.87095C23.9313 9.64796 23.6784 10.5918 23.3593 11.7828L22.7792 13.9477C22.4601 15.1386 22.2072 16.0824 21.9391 16.8247C21.6648 17.5841 21.351 18.2033 20.8732 18.7134C20.1996 19.4326 19.3342 19.9428 18.3802 20.1843C18.1015 20.8232 17.6946 21.4017 17.1811 21.8826C16.671 22.3604 16.0518 22.6742 15.2924 22.9485C14.5501 23.2167 13.6063 23.4695 12.4153 23.7887L12.3434 23.8079C11.1523 24.1271 10.2085 24.38 9.43148 24.5189C8.63671 24.6611 7.94356 24.6989 7.26288 24.5402C6.27172 24.3091 5.37135 23.7893 4.67562 23.0464C4.19784 22.5363 3.88405 21.9171 3.60974 21.1578C3.34157 20.4154 3.08868 19.4716 2.76956 18.2806L2.18949 16.1157C1.87036 14.9247 1.61747 13.9809 1.47853 13.204C1.33641 12.4092 1.29855 11.716 1.45726 11.0354C1.68837 10.0442 2.2082 9.14382 2.95102 8.4481C3.46114 7.97031 4.08036 7.65652 4.83971 7.38222C5.58207 7.11405 6.52588 6.86116 7.71686 6.54204L7.75288 6.53239C8.03938 6.45563 8.31046 6.38311 8.56711 6.3153C8.99136 4.79958 9.36469 3.72811 10.0923 2.95126C10.788 2.20844 11.6884 1.68861 12.6795 1.4575C13.3602 1.29879 14.0534 1.33665 14.8481 1.47877C15.6251 1.61771 16.5689 1.8706 17.7599 2.18973ZM8.07611 8.12811C6.89216 8.44543 6.04381 8.67502 5.39181 8.91055C4.7316 9.14905 4.34395 9.36991 4.06185 9.63413C3.55361 10.1101 3.19794 10.7262 3.03981 11.4044C2.95204 11.7808 2.95459 12.2269 3.07815 12.9179C3.2035 13.6189 3.43785 14.4962 3.76877 15.7312L4.32955 17.824C4.66047 19.059 4.89614 19.9359 5.13808 20.6057C5.37657 21.2659 5.59743 21.6535 5.86165 21.9356C6.33767 22.4439 6.95372 22.7995 7.63188 22.9577C8.0083 23.0454 8.45444 23.0429 9.14544 22.9193C9.84642 22.794 10.7237 22.5596 11.9587 22.2287C13.1937 21.8978 14.0706 21.6621 14.7403 21.4202C15.4005 21.1817 15.7882 20.9608 16.0703 20.6966C16.2193 20.557 16.3553 20.4054 16.4769 20.2437C16.2829 20.2164 16.0834 20.1815 15.8768 20.1404C15.149 19.9957 14.2748 19.7615 13.1957 19.4723L13.1335 19.4557C11.9425 19.1365 10.9987 18.8837 10.2564 18.6155C9.49703 18.3412 8.87781 18.0274 8.36768 17.5496C7.62486 16.8539 7.10503 15.9535 6.87393 14.9623C6.71522 14.2817 6.75308 13.5885 6.89519 12.7937C7.03413 12.0168 7.28703 11.073 7.60616 9.88197L8.07611 8.12811ZM14.5621 3.0784C13.8711 2.95484 13.425 2.95229 13.0485 3.04005C12.3704 3.19818 11.7543 3.55385 11.2783 4.0621C10.8059 4.56653 10.5151 5.34581 10.0095 7.19691C9.92733 7.49776 9.84045 7.82199 9.74621 8.1737L9.18544 10.2665C8.85452 11.5016 8.62017 12.3788 8.49482 13.0798C8.37126 13.7708 8.36871 14.2169 8.45648 14.5933C8.6146 15.2715 8.97028 15.8876 9.47852 16.3636C9.76062 16.6278 10.1483 16.8487 10.8085 17.0872C11.4782 17.3291 12.3551 17.5648 13.5901 17.8957C14.701 18.1933 15.5243 18.4135 16.1937 18.5466C16.8602 18.6792 17.3126 18.7117 17.6833 18.666C17.7639 18.656 17.8414 18.6423 17.9169 18.6246C18.5951 18.4665 19.2111 18.1108 19.6872 17.6026C19.9514 17.3205 20.1722 16.9329 20.4107 16.2726C20.6527 15.6029 20.8883 14.726 21.2193 13.491L21.78 11.3982C22.111 10.1631 22.3453 9.28589 22.4707 8.58491C22.5942 7.89391 22.5968 7.44777 22.509 7.07135C22.3509 6.39319 21.9952 5.77714 21.487 5.30112C21.2049 5.0369 20.8172 4.81604 20.157 4.57755C19.4873 4.33561 18.6104 4.09994 17.3754 3.76902C16.1403 3.4381 15.2631 3.20375 14.5621 3.0784ZM11.9733 10.6231C12.0894 10.1897 12.5349 9.93245 12.9684 10.0486L18.2005 11.4505C18.6339 11.5667 18.8911 12.0122 18.775 12.4456C18.6589 12.8791 18.2133 13.1363 17.7799 13.0202L12.5478 11.6182C12.1144 11.5021 11.8571 11.0566 11.9733 10.6231ZM11.1317 13.7623C11.2478 13.3289 11.6933 13.0716 12.1268 13.1878L15.266 14.0289C15.6995 14.1451 15.9567 14.5906 15.8406 15.024C15.7244 15.4575 15.2789 15.7147 14.8455 15.5986L11.7062 14.7574C11.2728 14.6413 11.0155 14.1957 11.1317 13.7623Z" fill="#E91E63"/>
</svg>
