<svg width="176" height="176" viewBox="0 0 176 176" fill="none" xmlns="http://www.w3.org/2000/svg">
<g filter="url(#filter0_d_326_14353)">
<path d="M100.586 136.918C88.4651 136.918 77.1975 133.271 67.816 127.017C67.0603 126.513 67.7398 125.388 68.5881 125.713C75.1504 128.224 82.2735 129.602 89.7191 129.601C90.034 129.601 90.3482 129.599 90.6618 129.594C91.5842 129.579 91.594 128.203 90.6877 128.031C80.3672 126.074 70.5058 121.103 62.5178 113.115C54.5304 105.128 49.5597 95.267 47.6022 84.9473C47.4303 84.041 46.0534 84.0508 46.0388 84.9732C46.0339 85.2861 46.0314 85.5996 46.0314 85.9137C46.0313 93.3595 47.4087 100.483 49.9202 107.046C50.2448 107.894 49.1201 108.573 48.6163 107.818C42.3619 98.436 38.7148 87.168 38.7148 75.0469C38.7148 42.3704 65.2043 15.8811 97.8809 15.8809C95.2029 15.5721 92.4796 15.4131 89.7191 15.4131C50.7829 15.4131 19.2188 46.9772 19.2188 85.9135C19.2188 105.382 27.1097 123.007 39.8677 135.765C52.6257 148.523 70.251 156.414 89.7191 156.414C128.655 156.414 160.22 124.85 160.22 85.9137C160.22 83.1533 160.061 80.4299 159.752 77.752C159.752 110.429 133.262 136.918 100.586 136.918Z" fill="white"/>
<path d="M130.604 34.6995C130.641 34.367 130.496 34.0383 130.223 33.8447C122.271 28.1968 112.552 24.8735 102.056 24.8735C87.3356 24.8735 74.141 31.404 65.2104 41.7255C74.0535 32.5077 86.4943 26.7681 100.277 26.7681C110.21 26.7681 119.447 29.7499 127.142 34.8659C127.922 35.3847 128.857 35.6188 129.788 35.5152C130.217 35.4674 130.556 35.1287 130.604 34.6995Z" fill="white"/>
<path d="M137.425 41.5206C136.996 41.5684 136.657 41.9071 136.61 42.3362C136.562 42.7683 136.7 43.1985 136.985 43.527C144.384 52.0531 148.865 63.1804 148.865 75.356C148.865 89.1382 143.126 101.579 133.908 110.422C144.23 101.491 150.76 88.2969 150.76 73.577C150.76 61.6741 146.488 50.7703 139.396 42.3103C138.912 41.734 138.173 41.4375 137.425 41.5206Z" fill="white"/>
</g>
<defs>
<filter id="filter0_d_326_14353" x="2.00272e-05" y="4.52995e-05" width="175.252" height="175.252" filterUnits="userSpaceOnUse" color-interpolation-filters="sRGB">
<feFlood flood-opacity="0" result="BackgroundImageFix"/>
<feColorMatrix in="SourceAlpha" type="matrix" values="0 0 0 0 0 0 0 0 0 0 0 0 0 0 0 0 0 0 127 0" result="hardAlpha"/>
<feOffset dx="-2.09313" dy="1.71256"/>
<feGaussianBlur stdDeviation="8.5628"/>
<feColorMatrix type="matrix" values="0 0 0 0 0 0 0 0 0 0 0 0 0 0 0 0 0 0 0.2 0"/>
<feBlend mode="normal" in2="BackgroundImageFix" result="effect1_dropShadow_326_14353"/>
<feBlend mode="normal" in="SourceGraphic" in2="effect1_dropShadow_326_14353" result="shape"/>
</filter>
</defs>
</svg>
