<svg width="20" height="20" viewBox="0 0 20 20" fill="none" xmlns="http://www.w3.org/2000/svg">
<path d="M8.29339 5.20817C7.93518 5.20811 7.60028 5.20806 7.32668 5.24893C7.0176 5.2951 6.70008 5.40425 6.44627 5.68626C6.20094 5.95885 6.11433 6.28367 6.07678 6.59395C6.04169 6.88397 6.04172 7.24349 6.04175 7.64945L6.04175 8.12484C6.04175 8.47001 6.32157 8.74984 6.66675 8.74984C7.01193 8.74984 7.29175 8.47001 7.29175 8.12484V7.68502C7.29175 7.23259 7.29283 6.94993 7.31773 6.74411C7.32942 6.64755 7.34402 6.5919 7.35583 6.56001C7.36579 6.53311 7.37291 6.52522 7.37527 6.5226L7.37594 6.52181C7.37708 6.52044 7.37792 6.51944 7.38543 6.51601C7.39928 6.50967 7.43482 6.49665 7.51136 6.48521C7.68145 6.4598 7.92101 6.45817 8.33341 6.45817H9.37508V13.5415H7.91675C7.57157 13.5415 7.29175 13.8213 7.29175 14.1665C7.29175 14.5117 7.57157 14.7915 7.91675 14.7915H12.5001C12.8453 14.7915 13.1251 14.5117 13.1251 14.1665C13.1251 13.8213 12.8453 13.5415 12.5001 13.5415H10.6251V6.45817H11.6667C12.0792 6.45817 12.3187 6.4598 12.4888 6.48521C12.5653 6.49665 12.6009 6.50967 12.6147 6.51601C12.6222 6.51944 12.6231 6.52044 12.6242 6.52181L12.6248 6.52247C12.6271 6.52509 12.6344 6.53311 12.6443 6.56001C12.6561 6.5919 12.6707 6.64755 12.6824 6.74411C12.7073 6.94993 12.7084 7.23259 12.7084 7.68502V8.12484C12.7084 8.47001 12.9882 8.74984 13.3334 8.74984C13.6786 8.74984 13.9584 8.47001 13.9584 8.12484L13.9584 7.64944C13.9584 7.24349 13.9585 6.88397 13.9234 6.59395C13.8858 6.28367 13.7992 5.95885 13.5539 5.68626C13.3001 5.40425 12.9826 5.2951 12.6735 5.24893C12.3999 5.20806 12.065 5.20811 11.7068 5.20817H8.29339Z" fill="#FFAA00"/>
<path fill-rule="evenodd" clip-rule="evenodd" d="M9.95227 1.0415C8.0286 1.04149 6.52107 1.04148 5.34484 1.19963C4.14089 1.36149 3.19087 1.69928 2.44519 2.44495C1.69952 3.19063 1.36174 4.14064 1.19987 5.34459C1.04173 6.52083 1.04174 8.02836 1.04175 9.95202V10.0477C1.04174 11.9713 1.04173 13.4788 1.19987 14.6551C1.36174 15.859 1.69952 16.809 2.44519 17.5547C3.19087 18.3004 4.14089 18.6382 5.34484 18.8C6.52107 18.9582 8.02861 18.9582 9.95227 18.9582H10.0479C11.9716 18.9582 13.4791 18.9582 14.6553 18.8C15.8593 18.6382 16.8093 18.3004 17.555 17.5547C18.3006 16.809 18.6384 15.859 18.8003 14.6551C18.9584 13.4788 18.9584 11.9713 18.9584 10.0476V9.95203C18.9584 8.02836 18.9584 6.52083 18.8003 5.34459C18.6384 4.14064 18.3006 3.19063 17.555 2.44495C16.8093 1.69928 15.8593 1.36149 14.6553 1.19963C13.4791 1.04148 11.9716 1.04149 10.0479 1.0415H9.95227ZM3.32908 3.32883C3.80379 2.85412 4.44606 2.58171 5.51139 2.43848C6.59471 2.29283 8.01823 2.2915 10.0001 2.2915C11.9819 2.2915 13.4055 2.29283 14.4888 2.43848C15.5541 2.58171 16.1964 2.85412 16.6711 3.32883C17.1458 3.80355 17.4182 4.44581 17.5614 5.51115C17.7071 6.59447 17.7084 8.01798 17.7084 9.99984C17.7084 11.9817 17.7071 13.4052 17.5614 14.4885C17.4182 15.5539 17.1458 16.1961 16.6711 16.6708C16.1964 17.1456 15.5541 17.418 14.4888 17.5612C13.4055 17.7068 11.9819 17.7082 10.0001 17.7082C8.01823 17.7082 6.59471 17.7068 5.51139 17.5612C4.44606 17.418 3.80379 17.1456 3.32908 16.6708C2.85436 16.1961 2.58195 15.5539 2.43872 14.4885C2.29308 13.4052 2.29175 11.9817 2.29175 9.99984C2.29175 8.01798 2.29308 6.59447 2.43872 5.51115C2.58195 4.44581 2.85436 3.80355 3.32908 3.32883Z" fill="#FFAA00"/>
</svg>
