<svg xmlns="http://www.w3.org/2000/svg" width="29" height="27" fill="none" viewBox="0 0 29 27"><path fill="#fde888" fill-rule="evenodd" d="M17 .5h.1l.2.1v.1h.3V1q-.2.2 0 .2l-.1.1v.2h-.2q-.2.1-.4 0h-.1q0-.2.2-.3h.1V.8l-.4-.1h-.1q-.3-.2-.5 0l-.5.1-.1-.3q-.1.3-.3 0V.3q0-.2.2-.2l.7.1q.3-.1.4.1z" clip-rule="evenodd"/><path fill="#feefb1" fill-rule="evenodd" d="M19.2 1.3h.3v.2l.1.2.2.1.4.2q-.4.2-.2.4h-.3q-.2-.3-.3-.1-.2.1-.3-.2-.2-.2-.4 0h-.3l-.2-.3q0-.2.3-.2h.2l-.3-.2q0-.2.4-.2.2.3.4.1" clip-rule="evenodd"/><path fill="#fef3c5" fill-rule="evenodd" d="M24.3 5.3v.3q-.4.5-.7-.2-.3-.4-.8-.4-.2 0-.2-.3v-.6h.4l.1.2h.3l.1.3v.2h.4V5h-.1l.1.2q0 .2.3 0z" clip-rule="evenodd"/><path fill="#fef4cb" fill-rule="evenodd" d="m20 2.4-.2-.2.3-.2v.3h.4q0 .3.4 0l.1.2.1.2V3h.1q0 .2-.2.3h-.5q0-.7-.5-.6-.4-.2 0-.3" clip-rule="evenodd"/><path fill="#fef6ce" fill-rule="evenodd" d="M18.6 24.9h-.3v.3H18l-.2.2h-.3l-.2.1v.1H17q-.4 0-.2-.3l.2-.1q.6-.2 1-.6h.6v.2z" clip-rule="evenodd"/><path fill="#feea95" fill-rule="evenodd" d="M25.4 7c-.4.1-.5-.3-.7-.2h-.1l-.3-.2-.2-.2v-.1q.3 0 .4-.2l.2-.1h.2v.2l.1.2c.2.2.4-.2.5 0l.1.2q-.2 0-.2.3" clip-rule="evenodd"/><path fill="#fef3c4" fill-rule="evenodd" d="M.5 9h.2v-.5l.2-.2q.2 0 .3-.3l.5-.3v.6q-.4.3-.5.7l-.5.1z" clip-rule="evenodd"/><path fill="#fef7d2" fill-rule="evenodd" d="M2.2 5.8h.5v.4q0 .3-.3.4H2q-.2 0-.1-.2l-.2-.2L2 6l.1-.2z" clip-rule="evenodd"/><path fill="#fde88a" fill-rule="evenodd" d="M16.2 25.8H16l-.3.1-.2.1q-.2-.2 0-.3l.2-.1q.5-.6 1.2-.2-.1.3-.6.3" clip-rule="evenodd"/><path fill="#fef8dd" fill-rule="evenodd" d="M1.7 7.7h-.1q0 .4-.3.3v-.2h-.1v-.1l.1-.2v-.2q.2 0 0-.2V7l.1-.1H2q.2 0 0 .2 0 .3-.2.4h-.2.1z" clip-rule="evenodd"/><path fill="#feeda5" fill-rule="evenodd" d="M26.3 7.6v.2h-.1l-.3.2h-.3q-.5-.2-.2-.6h.6z" clip-rule="evenodd"/><path fill="#feeda7" fill-rule="evenodd" d="M.8 9.3.9 9H1v.5l-.3.8H.3v-.4h.2v-.4z" clip-rule="evenodd"/><path fill="#fde062" fill-rule="evenodd" d="M8.2 25.7q0-.2-.3-.3h1.5v.2h.4l.1.1v.2l-1.4-.2z" clip-rule="evenodd"/><path fill="#fef6cd" fill-rule="evenodd" d="m12.8.2-.2.2-.6.4q-.2.1-.3-.1V.6l.2-.2.4-.1.1-.1z" clip-rule="evenodd"/><path fill="#fde685" fill-rule="evenodd" d="M13.5.1h.2v.2h.5v.2H14v.3h-.3q0-.2-.2-.2.1.3-.1.2l-.3-.1V.2z" clip-rule="evenodd"/><path fill="#fef4cb" fill-rule="evenodd" d="M21.8 3.3v.1l.1.1.3.2-.2.2h-.2l-.2-.1q-.2-.3-.2-.7h-.2q-.2-.2-.1-.3h.4l.2.1z" clip-rule="evenodd"/><path fill="#feeca4" fill-rule="evenodd" d="M3.8 4.6v-.2q.3 0 .4-.3l.3-.2h.1l.2-.1q.3.1 0 .4l-.6.3z" clip-rule="evenodd"/><path fill="#fef3c3" fill-rule="evenodd" d="m15.4.1-.3.3q0 .3-.3.2t-.3-.2l.1-.3h.4q.2-.2.2 0z" clip-rule="evenodd"/><path fill="#fef2be" fill-rule="evenodd" d="m17.3.7-.2-.2h.2V.3l.2-.1q.2 0 .1.3h.1q0 .2 0 0h.3l.1.3h-.5z" clip-rule="evenodd"/><path fill="#fde477" fill-rule="evenodd" d="M11.7 26h-.3q0 .2-.2 0H11q-.3.2-.3-.2l.2-.2.7.2z" clip-rule="evenodd"/><path fill="#feeda5" fill-rule="evenodd" d="m14.6 26-.4.2h-.1v-.4h.2l.2-.1h.2l.1.2z" clip-rule="evenodd"/><path fill="#feefb3" fill-rule="evenodd" d="m5.8 24.2-.2-.2h-.2v-.4h.1l.5.2q.2.3 0 .4z" clip-rule="evenodd"/><path fill="#feeda7" fill-rule="evenodd" d="M28 14.3q-.3 0-.3.2h-.1v-.2l-.1-.1V14q.3 0 .4-.4h.1l.1.3v.2z" clip-rule="evenodd"/><path fill="#fef3c5" fill-rule="evenodd" d="M24.6 5.5h.1l.1.2V6l-.2.2h-.1l-.1.1-.2-.2V6l.1-.3z" clip-rule="evenodd"/><path fill="#feefb3" fill-rule="evenodd" d="M8.8 1.3h.3v.1l-.1.2q-.3.5-.7 0v-.1h.3z" clip-rule="evenodd"/><path fill="#fef9e1" fill-rule="evenodd" d="M22.8 4q-.5.1-.6-.2l.1-.1v-.1h.2q.3 0 .1.2z" clip-rule="evenodd"/><path fill="#fddc4e" fill-rule="evenodd" d="M13.8 26h-.4q0-.2-.2 0 0-.4.3-.3zv.2" clip-rule="evenodd"/><path fill="#fef3c3" fill-rule="evenodd" d="M6.6 2.8v-.1l.5-.3q.2 0 .2.2-.3.4-.7.2" clip-rule="evenodd"/><path fill="#fef4cc" fill-rule="evenodd" d="m10.5 26 .2-.1h.3l.1.2z" clip-rule="evenodd"/><path fill="#feeca5" fill-rule="evenodd" d="M18.8 1h-.4l-.2-.1V.8q.4-.2.6.1" clip-rule="evenodd"/><path fill="#fef8dd" fill-rule="evenodd" d="m.8 9.3-.2.3H.3q0-.3.4-.3" clip-rule="evenodd"/><path fill="#fef3c3" fill-rule="evenodd" d="M7.5 2.2q0-.2.1 0v.3h-.3v-.2" clip-rule="evenodd"/><path fill="#fef6cd" fill-rule="evenodd" d="M11 .8h.2V.7l.1-.1h.3v.1h-.1c-.2.2-.3.5-.5.1" clip-rule="evenodd"/><path fill="#fef3c3" fill-rule="evenodd" d="M6.2 2.9h.2l.2-.1v.1l-.3.1z" clip-rule="evenodd"/><path fill="#feeca4" fill-rule="evenodd" d="M19 24.5v.2h-.3l.1-.3z" clip-rule="evenodd"/><path fill="#feedad" fill-rule="evenodd" d="M.7 16.9v.1H.5z" clip-rule="evenodd"/><path fill="#fef3c4" fill-rule="evenodd" d="M1.3 8h-.1v-.2h.2zm-.1 0H.9z" clip-rule="evenodd"/><path fill="#feefb3" fill-rule="evenodd" d="M6.3 24.5H6v-.2q.3 0 .2.2" clip-rule="evenodd"/><path fill="#fef3c4" fill-rule="evenodd" d="M.6 8.7H.4z" clip-rule="evenodd"/><path fill="#fdd633" fill-rule="evenodd" d="M1.9 18.8h-.2v-.2l-.1-.3q0-.3-.2-.5l-.2.1v-.7q-.2 0-.1-.1V17c0-.4-.4-.7-.1-1l.5-.3q.2-.1 0-.2v-.2q-.2 0-.2.3t-.3.3q-.5-.3-.2-.9l.3-.3h.3v.3h.5l.1-.1.3-.1q.4.3.3.7l-.2.1q-.2.3 0 .3.4 0 .6-.6l.2-.1.6.7q.3 0 .4.3 0 .3-.3.2l-.2.1h-.2q-.3 0-.5-.3 0 .6-.6.6H2q-.3.1-.4-.2v-.3q0-.3-.3-.2-.1.1 0 .2l.1.3q-.1.5.3.5v.4l.2.3z" clip-rule="evenodd"/><path fill="#fddc49" fill-rule="evenodd" d="m1.9 18.8.2-.1q.3-.3.4.2t.3.8l.2.3v.2-.3q.3 0 .4.2 0 .3.5.3v.5q-.2 0-.1.1v.1q.3.3.2.7l-.2-.2-.2-.1v-.3l-.3-.2-.2-.2-.3-.4-.3-.6q0-.2-.2-.3l-.3-.3z" clip-rule="evenodd"/><path fill="#fdd940" fill-rule="evenodd" d="m4.8 23-.2-.3-.2-.3-.3-.2V22l-.1-.3q.4-.4.9-.1.3-.3.5 0c.1.4-.3.3-.3.5q0 .3-.3.7" clip-rule="evenodd"/><path fill="#fcd012" fill-rule="evenodd" d="m4.8 23 .2-1h.3q.6-.1.4.3v.6q.1.4-.3.5L5 23q-.2 0-.2-.2" clip-rule="evenodd"/><path fill="#fde681" fill-rule="evenodd" d="M1 16v.5l.1.3v.2q-.2-.1-.2-.3v-.1H.6v-.7l-.3-.7V15l.1-.4-.1-.3v-.1h.4q.2-.1 0 .1v.6q0-.3.1-.2.2.1 0 .3v.2q-.2.1 0 .2v.2H1zm4 7.1q.3 0 .5.3h.1q0 .2-.2.2h-.1v-.1H5l-.1-.2z" clip-rule="evenodd"/><path fill="#fdd633" fill-rule="evenodd" d="M1.3 18.1v.1zm0 0" clip-rule="evenodd"/><path fill="#fdd93c" fill-rule="evenodd" d="m18.6 2 .3.3q.4.3-.1.6.4-.2.6.4.2-.5.6-.3.2.4-.2.7t-.3.6v.1q-.4.1-.4.5-.5.2-.8-.3v-.2h.3l.1.1v-.1q-.1-.2-.4-.3t-.2-.2v-.1q.1 0 0-.1-.2 0-.1-.2-.4 0-.5-.3-.3-.4-.4-1L17 2l-.1-.2h-.3l-.1-.2q0-.2.2 0h.1q.9.1 1.8.5" clip-rule="evenodd"/><path fill="#fde26c" fill-rule="evenodd" d="M18.6 2h-.4l-.3-.1h-.4l-.1-.2q0-.2-.3-.2h-.3.4l.2-.2 1 .1.4.1h.1q-.1.3-.4.2h-.2V2z" clip-rule="evenodd"/><path fill="#fdd529" fill-rule="evenodd" d="M16.7.7q.4 0 .4.2l.1.2q-.4 0-.5.2l-.2.1-.3-.2q-.2.2-.5 0V.8l.6-.2zl-.2.2z" clip-rule="evenodd"/><path fill="#fde26c" fill-rule="evenodd" d="M18.1.8q.2 0 .3.3h-.2q-.2.5-.6 0V.9z" clip-rule="evenodd"/><path fill="#feefb3" fill-rule="evenodd" d="M17.6 1.2h.5l.1-.1q0 .2.2.3h-1v-.2z" clip-rule="evenodd"/><path fill="#fde26c" fill-rule="evenodd" d="m16.5 1.4.2-.3.1-.2h.1l.2.2-.2.1-.2.2z" clip-rule="evenodd"/><path fill="#fcd015" fill-rule="evenodd" d="M15.6.8V1h-.5V.5h.1q.1.2.2 0z" clip-rule="evenodd"/><path fill="#fcd732" fill-rule="evenodd" d="M15.6.2v.1h-.2q.2-.2.2 0" clip-rule="evenodd"/><path fill="#fddd4f" fill-rule="evenodd" d="M15.3.6H15V.4q.3 0 .2.2" clip-rule="evenodd"/><path fill="#fef7d4" fill-rule="evenodd" d="M15.5.6V.3h.1z" clip-rule="evenodd"/><path fill="#feefb3" fill-rule="evenodd" d="M17.6 1h-.1q0-.2.1 0" clip-rule="evenodd"/><path fill="#fde26c" fill-rule="evenodd" d="M17.4 1.2v.1h-.1zm.2-.2h-.1V.7zm-.4 0q.2 0 0 0m.1-.2" clip-rule="evenodd"/><path fill="#fde57f" fill-rule="evenodd" d="m18.8 2.4-.1-.3v-.2q.3-.2.4 0v.3h.3V2h.2q0 .3.4.4l-.1.2h.5q.2 0 .2.3v.4q.3 0 .2.2h-.3l-.2-.3-.1-.2H20c-.5 0-.8-.5-1.2-.6" clip-rule="evenodd"/><path fill="#fddd50" fill-rule="evenodd" d="m20.4 3.2.2.1h.1v-.1l.3-.1h.2q.1.5.4.8V4q.2.4.6.3c.1.3.3 0 .5.2V5l.6.3q.2 0 .2.4V6l-.2.2q-.2.2 0 .3h.2l.4.1v.8q.5.2.2.6v.3q0 .2 0 0h.2l.2.2v.2q-.6 0-1 .4.4.3.8.3.3 0 .2.3l-.1 1q-.3.3-.4.7l-.1.2q-.3 0-.3-.2v-.6q0-.5-.2-.8v-.4h-.2l-.2.2q0 .4-.3 0-.1-.4.1-.8 0-.7.7-1v-.2h-.1q0-.6-.5-.6v.6q.1.4-.2.2h-.1q-.3-.3-.4-.7l-.1-.2q-.6-.2-.5-.7V6q.3-.3 0-.7l-.1-.1q-.3-.4-.3-.8l-.1-.2v-.4l-.2.1h-.3l-.4.3-1 .6H19v-.4c0-.2.2 0 .3-.2v-.5h.3l.3-.5V3h-.2q-.3 0-.4.2l-.2-.2q-.1-.2-.3-.1h-.1l.1-.2v-.1l-.1-.2h.3l.2.2q.2.4.5.1l.3.1.1.2z" clip-rule="evenodd"/><path fill="#feea98" fill-rule="evenodd" d="M21.6 4.1q0-.2.3-.2l.2-.2h.2l.1.2.3.2v.1q-.3.3-.6.2t-.5-.3" clip-rule="evenodd"/><path fill="#fde57c" fill-rule="evenodd" d="m23.4 5.7-.1-.2q.1-.1 0-.1-.3 0-.4-.2l-.1-.2h.5l.2.2.2.2q0 .3-.3.3" clip-rule="evenodd"/><path fill="#feea95" fill-rule="evenodd" d="M23.4 5.7q.3 0 .3-.3h.1v.2l.2.2.2-.1h.1l-.1.2q-.4.4-.7 0z" clip-rule="evenodd"/><path fill="#fde36e" fill-rule="evenodd" d="M22 4.4q.4 0 .6-.2v.4h-.2v-.1H22z" clip-rule="evenodd"/><path fill="#fde990" fill-rule="evenodd" d="M24 5.2h.2v.3H24z" clip-rule="evenodd"/><path fill="#fee992" fill-rule="evenodd" d="M22.6 4.6v-.2l.3.1v.2z" clip-rule="evenodd"/><path fill="#fde57e" fill-rule="evenodd" d="M22 3.9h-.3l-.1.2q-.2 0-.2-.2t-.4-.3v-.1q.3 0 0-.3.2 0 .2-.2h.3v.3q-.2 0 0 .1v.2l.2.1.1.1z" clip-rule="evenodd"/><path fill="#fde374" fill-rule="evenodd" d="m21 2.8.2.2H21l-.1-.1z" clip-rule="evenodd"/><path fill="#fddd53" fill-rule="evenodd" d="M2.6 6.2V6l.1-.2.2-.1.1-.1-.1-.2H3l.1-.1.2-.2q.3 0 .3.2v.2l-.1.2h-.1l-.3.4-.4.2" clip-rule="evenodd"/><path fill="#fde063" fill-rule="evenodd" d="m3.3 5.1.4-.4q.2.2 0 .3 0 .2-.3.1" clip-rule="evenodd"/><path fill="#fde063" fill-rule="evenodd" d="m3.8 4.6.3-.1q0 .4-.4.2" clip-rule="evenodd"/><path fill="#fdd93f" fill-rule="evenodd" d="m18.8 24.5-.1.1-.5.1c-.2 0-.3.3-.5 0v-1q0-.2.2 0t.7.3q.5 0 .2.5" clip-rule="evenodd"/><path fill="#fdda48" fill-rule="evenodd" d="M17 25.3h-.7l-.4.1v.1l-.2.2v-.2h-.2l-.4-.4q-.5-.1 0-.4l.2-.1h.2q.1.5.7.4h.9z" clip-rule="evenodd"/><path fill="#fde47a" fill-rule="evenodd" d="M17 25.2V25c.3 0 .4-.4.7-.3h.5l-.3.2q-.2.3-.4.2l-.1.2h-.1z" clip-rule="evenodd"/><path fill="#fddc4c" fill-rule="evenodd" d="M18.8 24.5v-.4h-.1l-.5-.1q-.2 0-.3-.2l-.2-.1h-.2q-.2-.2-.5-.1h-.3v-.2l.4-.6h.2-.3l-.1-.3.2-.1q.3 0 .5.2.4.4.7 0h.3l.2-.7q.3-.2.4 0 0-.3.3-.2h.2q.4 0 .7.2l.1.3q-.2.2-.6.2h-.3l-.2.1q0 .3.2.2.3-.2.6 0h.2q0-.2.2-.1v.3l-.5.3v.2q0 .2.2 0l.4-.2q.1-.4.4 0l.3-.1q.2-.2.6-.2l-1 .8q-.2.3-.6.2c-.1.2-.4 0-.5.3l-.5.1q-.3 0-.5.2z" clip-rule="evenodd"/><path fill="#fdd93b" fill-rule="evenodd" d="m22 23-.6.2-.2.1-.1-.1V23h-.2v.2l-.3.1-.2.2q-.4.1-.4-.3l.1-.1q.3-.1.5-.4.2 0 0-.2v.1h-.2l-.2.2-.1-.2H20l-.3.1h-.2l-.1-.4h.2l.2-.2h.2v.1q.5 0 .6-.2t.4-.2h.1q.1.2.3.2c.3 0 0-.3.1-.5h.1q.4 0 .3.6.4-.1.6-.4h.1v-.1q.4-.3.8.2v.2l-.2.2h-.3l-.6.3v.2z" clip-rule="evenodd"/><path fill="#fdd52d" fill-rule="evenodd" d="M24.5 8.4h-.3l-.1-.1.2-.3H24v-.5.1h-.2q-.1 0 0-.2v-.8l.1-.1.2-.1.2.3c0 .3.2 0 .3.1h.2v.5h.5c-.1.2.1.6-.3.6v.3q-.1.4-.5.2" clip-rule="evenodd"/><path fill="#fde063" fill-rule="evenodd" d="M24 6.6h-.2q-.1-.1-.2 0h-.3l-.1-.1q-.3-.1 0-.4l.2-.3h.1q.3.3.7.1h.1q.2 0 0 .1-.1.2.1.2h.1v.2h-.4z" clip-rule="evenodd"/><path fill="#fddc4c" fill-rule="evenodd" d="M25.3 7.4h-.4l-.2.1v-.7h.2l.1.1q0 .3.3.2zm-.7-.6-.2.1h-.2v-.3h.1v.1h.1z" clip-rule="evenodd"/><path fill="#fde063" fill-rule="evenodd" d="m24.3 6.6-.1-.1z" clip-rule="evenodd"/><path fill="#fef3c5" fill-rule="evenodd" d="m24.6 6 .1.2h-.1zm.2.2" clip-rule="evenodd"/><path fill="#fde063" fill-rule="evenodd" d="M24.3 6.7h.1" clip-rule="evenodd"/><path fill="#fde887" fill-rule="evenodd" d="m.1 11 .2-.1q0-.2.3-.2l.2-.2H1q.2-.2.3 0v.3l-.2.4v.1q0 .8-.6 1.2l-.1.2H.2V12h.2l.1-.1v-.3l-.2-.2h.2Q.4 11 .1 11" clip-rule="evenodd"/><path fill="#fde887" fill-rule="evenodd" d="M.2 13.2v-.5q.2 0 .3.2-.2 0-.3.3" clip-rule="evenodd"/><path fill="#fdd634" fill-rule="evenodd" d="M.8 14.7v.2H.6q-.3 0-.2-.3t.2-.3v-1.2l.1-.2H1l.3.3v.1h.1l.1-.5q0-.3.4-.1.5 0 .3.3v.8l.2.2.2.4v.3h-.3q-.3-.2-.7-.2-.2.1-.3-.2z" clip-rule="evenodd"/><path fill="#fde681" fill-rule="evenodd" d="m.8 13.7-.2.4-.1-.1H.2v.1H0V14l.3-.4v-.1l-.2-.2.1-.1.3-.1q.3.2.2.4z" clip-rule="evenodd"/><path fill="#fde26c" fill-rule="evenodd" d="m.1 13.3.1.2q-.3 0-.1-.2" clip-rule="evenodd"/><path fill="#fddd53" fill-rule="evenodd" d="M1.2 9q0-.4.2-.6l.3-.6.2-.7h.2q.2.2.5 0h.3q0-.5.4-.7.3 0 .3.3v-.2h.2l.1-.2q.2-.2.4 0 .4.2.7.6h.2l.1.1.1.1h.3l.1.1q.2.2.1.4 0 .3-.3.1 0-.1-.1 0h-.1L5 7.5v.1l-.4-.1v-.1l-.2.1h-.1q-.1.2-.3.1-.4-.3-.6 0v.1c-.6 0-.4.3-.4.6q-.1.3-.5.2l.2.3V9h-.4q-.3-.5-.9-.3V9zh-.1" clip-rule="evenodd"/><path fill="#feeda8" fill-rule="evenodd" d="M2 7.1v.3l-.2.3h-.1l-.1-.2q.2 0 .2-.3 0-.1.1 0" clip-rule="evenodd"/><path fill="#fdda47" fill-rule="evenodd" d="M1.2 9q.2.5-.2.5v-.4z" clip-rule="evenodd"/><path fill="#fddc4c" fill-rule="evenodd" d="m25.7 19.4-.2.1-.2.3v.4l-.4.4-.4.5-.2.2H24l-.1-1h.1q.6-.1.9-.6h-.4q0-.3.3-.4h.4l.1-.1.3-.2.1-.1h.2l-.2.3z" clip-rule="evenodd"/><path fill="#fde375" fill-rule="evenodd" d="M24 21.3h.3l-.4.4q-.2.4-.5.5l-.1.2q-.3 0-.4.2h-.6q0-.2.2-.2l.4-.2q.1.3.2 0l.3-.1V22q.2-.5.6-.7" clip-rule="evenodd"/><path fill="#fdd942" fill-rule="evenodd" d="M3.4 6.5q-.3 0-.4.3V7l.1.2v.1H3l-.2-.2q-.2.2-.5.2h-.2V7c-.2-.2.2-.3.2-.5l.3-.4.3-.1h.4v.1h-.1v.1q.2 0 .2.2" clip-rule="evenodd"/><path fill="#feeda8" fill-rule="evenodd" d="M2.3 6.6v.2q-.2 0-.2.3h-.2v-.3h.2z" clip-rule="evenodd"/><path fill="#fccf0d" fill-rule="evenodd" d="M13.6 25.8h-.2l-.2.1h-.6q-.3 0-.3-.4 0-.3.4-.1h.5q0 .2.1 0l.4.2z" clip-rule="evenodd"/><path fill="#fde268" fill-rule="evenodd" d="M12.6 25.8h.3l.2.1-.1.1h-.4q-.1.2-.3 0h-.6v-.2q.3-.3.7 0z" clip-rule="evenodd"/><path fill="#fde372" fill-rule="evenodd" d="m15.5 25.4.1.3-.4.1-.3.1h-.2v-.2q-.2-.2 0-.2c.2 0 .4-.3.5 0z" clip-rule="evenodd"/><path fill="#fef3c4" fill-rule="evenodd" d="m1.6 7.5-.1.1z" clip-rule="evenodd"/><path fill="#feeda8" fill-rule="evenodd" d="m1.4 7.5.1.1" clip-rule="evenodd"/><path fill="#fef3c4" fill-rule="evenodd" d="M1.4 7.6h.1m-.2.2h-.1v-.1" clip-rule="evenodd"/><path fill="#fddf60" fill-rule="evenodd" d="m11.6.7.2.1h.1V1l-.1.1h-1l-.4.2h-.2l-.2.2v.2l-.2.1h-.5l-.4.1-.4.3-.7.4q-.1 0 0-.1v-.3c.3 0 .3-.5.7-.6l.3.2q0-.2.3-.3v-.2h.3L10 1V.8h.2q.1-.2.3-.1h.1V1h.8l.2-.2" clip-rule="evenodd"/><path fill="#fdd93d" fill-rule="evenodd" d="M24.5 8.4h.1l.2-.1v-.5h.5l-.2-.3.2-.1.1.1v.3l.2.1q0 .3.3.4l-.2-.3h.4q.2.2 0 .3v.3h-.8l-.2-.1c-.1.6-.4 0-.6 0" clip-rule="evenodd"/><path fill="#fdd83a" fill-rule="evenodd" d="m25.7 8 .2.1v.4l-.1-.2-.1-.2z" clip-rule="evenodd"/><path fill="#fdda47" fill-rule="evenodd" d="M1.5 8.8h-.1v-.3H2q0 .3.1.1h.2l.3.4h.1v-.2l-.2-.1v-.3H3l.1-.1q.2-.2.3-.1v.2l-.1.4q.3 0 .3.2 0 .5-.3.6-.7.1-.7.8.2-.1.3.2v.4l.3.5q.2.4-.1.7h-.2c0-.2-.5.2-.5-.2q0-.4-.3-.6l-.3-.1h-.7v-.6l.2-.2H.5l.1-.6.1-.1.2-.2q.3-.2.6 0H2L1.9 9z" clip-rule="evenodd"/><path fill="#fdd633" fill-rule="evenodd" d="M1.5 8.8h.3q.2 0 .3.2l.2.1-.2.3v.3q0-.1-.1 0h-.4l-.3-.2-.3.1.2-.3V9l.1-.2z" clip-rule="evenodd"/><path fill="#fde887" fill-rule="evenodd" d="M.6 10.4H1v.1l-.3.2q-.3-.2-.1-.3" clip-rule="evenodd"/><path fill="#fddd53" fill-rule="evenodd" d="m7.9 25.2-.2.1-.3-.1-.1-.1H7l-.4-.4q0-.3.3-.4H7q.2 0 .3.2h.2l.1.2q.3 0 .3.4z" clip-rule="evenodd"/><path fill="#fddd53" fill-rule="evenodd" d="m6.3 24.5-.2-.2-.2-.1v-.3l.1-.3h.2q.1.4.4.6.2.2 0 .5zm1.7.9-.1-.2q.2 0 0 .2" clip-rule="evenodd"/><path fill="#fccf10" fill-rule="evenodd" d="m10.8 25.8-.1.1h-.1q-.3-.2-.6 0l-.1-.2h-.2l-.2-.1h-.1q-.3-.4-.6-.2h-.1l-.1-.2q-.5 0-.5-.4l-.2-.2q-.3 0-.2-.4l.4-.1q.5 0 .8.3.6.4 1 0h.4l.3-.2.3.1.4.6q.1.6-.4.5v.4" clip-rule="evenodd"/><path fill="#fdd839" fill-rule="evenodd" d="m7.8 24.2.1.4h.2l.2.5h.2q.3 0 .2.2v.2H8l-.1-.3-.1-.3-.2-.1q-.3 0-.1-.2-.2-.3 0-.4zm1 1.2v-.1h.3q0-.3.2 0 .3 0 .1.2H9zm.7.2h.2l-.1.2h-.1zm.4.1v.2z" clip-rule="evenodd"/><path fill="#fdde59" fill-rule="evenodd" d="m12.6.4.3-.1h.3v.4h.3q.2 0 0-.1l.3-.1.3.3q.1 0 0 .1V1h-.3q-.4-.2-.9.1l-.3-.1V.9h-.2l-.3-.1z" clip-rule="evenodd"/><path fill="#fdd62f" fill-rule="evenodd" d="m12 .8.5.1h.1l.3.2v.7l-.1.3a.4.4 0 0 1-.4-.4q0-.2-.3-.5z" clip-rule="evenodd"/><path fill="#fdde59" fill-rule="evenodd" d="M12.3.2v.1" clip-rule="evenodd"/><path fill="#fde474" fill-rule="evenodd" d="M14.2.8H14V.6l.1-.2q.2 0 .2.2z" clip-rule="evenodd"/><path fill="#fdde59" fill-rule="evenodd" d="M14 .3h.2zm.2.1" clip-rule="evenodd"/><path fill="#feea98" fill-rule="evenodd" d="M21.8 3.8h-.1q0-.1.1 0" clip-rule="evenodd"/><path fill="#fdd839" fill-rule="evenodd" d="M10 25.8h.2q0-.2.3-.2v.2l.2.1-.2.1h-.1q0-.3-.2-.1H10" clip-rule="evenodd"/><path fill="#fdd529" fill-rule="evenodd" d="M26 8.6q.4 0 .5.3v.2h-.3l-.5.2h-.5l.4.4q0 .3-.3.1l-.4-.2s-.3 0 0-.2c-.6 0-.3-.5-.4-.7v-.1h.5v-.2h.2l.5.2v.1z" clip-rule="evenodd"/><path fill="#fccf0e" fill-rule="evenodd" d="m25.7 9.2.6-.1q0-.1.2 0h.2l-.1.4q0 .3-.2.3h-.2l-.4-.4z" clip-rule="evenodd"/><path fill="#fde067" fill-rule="evenodd" d="M5.7 7.2h-.4V7H5l-.5-1q-.2 0-.3.2h-.1l-.2.1q0 .3-.2.2h-.1c-.2 0 0-.4-.3-.4L3.2 6l.1-.4.2-.1v-.2H4l.1-.2h.1q.5 0 .3-.5-.3.1-.3-.2l.6-.4.6.2.1.8v.4q.1.4-.5.4.7.2.7.7v.1-.1q0-.2.3-.3v.4q0 .2-.3.5" clip-rule="evenodd"/><path fill="#fdd73b" fill-rule="evenodd" d="M4.2 4.5q0 .3.2.1h.2q-.1.4-.4.6l-.4.2-.2-.1q-.2 0-.2-.2l.3-.2v-.2q.3 0 .4-.2" clip-rule="evenodd"/><path fill="#fde067" fill-rule="evenodd" d="m4.9 3.7.4-.2.4.1q0 .4-.3.4-.2.2-.6.2v-.4" clip-rule="evenodd"/><path fill="#fdd93d" fill-rule="evenodd" d="M14.2.4V.3h.3q0 .2.3.2v.1h-.3z" clip-rule="evenodd"/><path fill="#fde888" fill-rule="evenodd" d="m14.8.6.2-.2h.1v.3z" clip-rule="evenodd"/><path fill="#fddc49" fill-rule="evenodd" d="M5.7 3.7h-.2l-.2-.2.1-.1.4-.2.6-.2q.3 0 .2.2v.2h-.2q.2.5-.3.6z" clip-rule="evenodd"/><path fill="#fddf60" fill-rule="evenodd" d="M6.5 3.2V3l-.4.1h-.3.2l.2-.2h.7q.4 0 .7-.4.4.5 0 .6c-.4.1-.8.5-1.1 0" clip-rule="evenodd"/><path fill="#fde067" fill-rule="evenodd" d="m5.4 3.4-.1.1z" clip-rule="evenodd"/><path fill="#feeca4" fill-rule="evenodd" d="m4.9 3.7-.1.1" clip-rule="evenodd"/><path fill="#fcd11b" fill-rule="evenodd" d="M27.3 16.8q-.6.1-1 .5l-.2-.1H26v.1l.2.2q.2.4-.3.4h-.4q-.6-.3-.6-1 0-.4.4-.6v-.1q-.1-.5.2-.6-.4-.1-.4-.4 0-.5.3-.3l.5.4.3.1v-.3l-.1-.2.2-.4.1-.3q.3 0 .3.3 0 .4.3.4.5.1.5.7v.4l-.2.1v.2z" clip-rule="evenodd"/><path fill="#fddd52" fill-rule="evenodd" d="M27.5 15.6v-.2l-.1-.2-.2-.1-.2-.1q-.3-.2 0-.4 0-.3.3 0l.4.2v.2l.1.2v.3l-.1.2z" clip-rule="evenodd"/><path fill="#fddd54" fill-rule="evenodd" d="M28 13.6q-.1.5-.4.5v-.2q.1-.2-.2-.2l-.2-.4q0-.2.3-.4l-.2.1H27v-.1l.1-.2h.2v-.5l.3-.5.2.2q-.2 0 0 .2v.9q0 .3.2.5m-.4 1h.1v.3q-.3 0-.3-.3z" clip-rule="evenodd"/><path fill="#fdd323" fill-rule="evenodd" d="m11 25.7-.3-.3v-.1h.6v-.2l-.5-.8h-.1v.2h-.1q-.2-.1-.2 0l-.3-.4q-.2-.7.2-1.2.7-.3.6.5v.1q.5.5.8 1.2t.6.3v-.3l.2-.1.3-.3h.5v.4l.4.8v.1h-.4l-.1-.1h-.8q0 .3.2.3-.1.3-.2 0h-1zm4.5-.3q0 .3-.4.3v-.1h.1v-.1h-.4q-.3 0-.3.3h-.6v-.2h.1q0-.6.6-.4l-.4-.3.2-.2.2-.2h.3c.1 0 .2.3.3.1q0 .2-.3.3l.5.3z" clip-rule="evenodd"/><path fill="#fddc4d" fill-rule="evenodd" d="m14.5 25.8-.1-.2.2-.2.2.1v.2z" clip-rule="evenodd"/><path fill="#fddc4e" fill-rule="evenodd" d="m14 25.7.2.1-.1.1-.2.1-.2-.2zm.2.1" clip-rule="evenodd"/><path fill="#fcd119" fill-rule="evenodd" d="M27.6 11.7v.3l-.1.3-.1.3h-.1q-.3-.3-.3-.7v-.3c.2-.2-.1 0-.1-.2v-.1q-.4.2-.8.1l-.2-.2v-.4h.2q0 .3.2.3-.2-.3.1-.5h.1q.1.3.5.2h.2l.1.1q.2 0 .3.3z" clip-rule="evenodd"/><path fill="#fcd731" fill-rule="evenodd" d="M27.2 10.8H27q0 .2-.3 0l-.1-.2h.1l.1-.2q-.4-.2-.4-.6.3 0 .3-.3.2 0 .1.2v.1h.3l.1.2.1.4.1.1z" clip-rule="evenodd"/><path fill="#feeda5" fill-rule="evenodd" d="m27.6 11.2-.2-.1-.1-.2h.2z" clip-rule="evenodd"/><path fill="#fdd21e" fill-rule="evenodd" d="M6.2 23.7H6l-.2.1h-.1q-.3 0-.4-.2h.1v-.2q.3 0 .1-.3l-.1-.2.1-.2v-.3l.2-.2q-.4-.1-.8 0 0-.3.3-.3.3-.4.4-.1l.2.2.2.4-.1.2v.1q.3-.1.4.1 0 .3.3.7z" clip-rule="evenodd"/><path fill="#fdd836" fill-rule="evenodd" d="M27.6 14.5q-.1 0 0 .1l.1.2-.1.1h-.2l-.1-.2-.2-.1v.1H27v.3h-.2q0-.2-.3-.2v-.1l.1-.1v-.2l-.2-.1v.1q0 .4-.3.6-.3 0-.3-.2v-.6l.6-.2h.5q.4 0 .7.2z" clip-rule="evenodd"/><path fill="#fddd54" fill-rule="evenodd" d="m27.6 14.2-.2.1-.1.1v-.3q-.3.3-.5 0 .3-.5.7 0zm0 .2" clip-rule="evenodd"/><path fill="#fdda45" fill-rule="evenodd" d="m26.3 17.2.5-.5.4.1-.2.5h-.2l-.1.4v.2h-.3l-.2-.3q-.2-.2 0-.4" clip-rule="evenodd"/><path fill="#fdd632" fill-rule="evenodd" d="M26.6 17.9v.4h-.1q-.1-.3 0-.4" clip-rule="evenodd"/><path fill="#feea95" fill-rule="evenodd" d="M24.4 6.2h-.1q-.2 0 0-.2zm-.1-.4V6m.3 0v.2h-.1V6" clip-rule="evenodd"/><path fill="#fddc4e" fill-rule="evenodd" d="M9 1.4q0 .2-.1 0" clip-rule="evenodd"/><path fill="#fdd323" fill-rule="evenodd" d="M14 25.7q-.3 0-.1.3-.2 0-.3-.2v-.2z" clip-rule="evenodd"/><path fill="#fde888" fill-rule="evenodd" d="m16.7.3.1.1z" clip-rule="evenodd"/><path fill="#fcd013" fill-rule="evenodd" d="m26.6 17.9-.1.2v.2l-.1.2-.2.2-.2.1v.1h-.2l-.2.1h-.1q-.5-.4.2-.6l.7-.5z" clip-rule="evenodd"/><path fill="#fdd73b" fill-rule="evenodd" d="m26 18.8.2-.1z" clip-rule="evenodd"/><path fill="#fde374" fill-rule="evenodd" d="M7.6 2.5v.1q0 .2-.2.2v.1h-.8v-.1l.6-.2h.1z" clip-rule="evenodd"/><path fill="#feefae" fill-rule="evenodd" d="m8.4 1.6-.3.5-.1.1h-.3L8 2v-.2z" clip-rule="evenodd"/><path fill="#fef3c3" fill-rule="evenodd" d="m7.4 2.5-.1.1" clip-rule="evenodd"/><path fill="#feefb3" fill-rule="evenodd" d="m6 24.2.1.1" clip-rule="evenodd"/><path fill="#fddd4f" fill-rule="evenodd" d="M3.5 16.6v-.3h.6q.1-.1.4 0l.5.2.2.4q-.1.3.1.3 0 .3.3.4l.6-.3h.2q.2 0 .2.2.1.3-.4.5.4 0 .1.4l-.2.1-.2.1q0 .3-.2.2l-.2-.2h-.2l-.6.3-.1-.1q0-.3-.3-.2-.3-.1 0-.4-.1-.4-.4-.6-.3-.4-.7 0-.2 0-.2-.3 0-.4.4-.7" clip-rule="evenodd"/><path fill="#fd992d" fill-rule="evenodd" d="M4.6 16.3h-.4L4 16q-.2 0-.2-.2c0-.4.4-.8.1-1.3v-.2q0-.4-.3-.6v.2h-.3v-.3q0-.3.3-.3l.3-.1h.6q.2.3-.1.5l.1.1.2.4v.2q-.3.7.3 1l.5.2q.3.1 0 .4v.1q-.4.2-.4 0c-.1-.3-.4 0-.5 0z" clip-rule="evenodd"/><path fill="#fcd015" fill-rule="evenodd" d="M2.5 19q0-.3-.3-.4H2v-.7c.2 0 .3-.3.4 0q.1.3.4.2v-.3q.4-.3.6 0 .1.4.4.4-.2-.2-.1-.5t.4 0q.4.6-.2 1-.3.2-.2.5v.1l-.7.1q-.4-.1-.4-.5" clip-rule="evenodd"/><path fill="#fd861c" fill-rule="evenodd" d="M3.4 13.7v.3l.2-.3h.2l.2.4v.5q.3 0 .2.3v.2q-.2.1-.1.3-.2 0-.2.3l.1.2h-.2q-.4-.3-.6-.7-.3-.4-.2-.9l.1-.5.2-.1" clip-rule="evenodd"/><path fill="#fcd015" fill-rule="evenodd" d="M1.8 17.5v-.2q0-.2-.2 0h-.1q0-.2-.2-.3v-.2l.1-.4-.2-.2v-.1q.3-.2.4-.1.2 0 .2.2v.6l.3-.1.3.1q0 .6-.4.7z" clip-rule="evenodd"/><path fill="#fddc4d" fill-rule="evenodd" d="m3 14.3.1.6v.5h-.6v-.3l-.2-.3h.3q0-.3-.3-.5v-.2l.2-.2q.2-.2.3 0t.2.4" clip-rule="evenodd"/><path fill="#fdda46" fill-rule="evenodd" d="M.8 14.7q0-.2.2-.2h.2l.1-.2h.2l-.1.1v.1h.3q.2-.2.4 0 0 .3.2 0v.3L2 15l-.1.1h-.7v-.2l.2-.1v-.1h-.1l-.4.3z" clip-rule="evenodd"/><path fill="#fdd62f" fill-rule="evenodd" d="M1.8 17.5H2l.2-.2.2-.2v-.3q.3 0 .2.2l.1.1.1.1v.6l.2.2v.2h-.3q0-.2-.2 0h-.2v-.4q0 .2-.3.1z" clip-rule="evenodd"/><path fill="#fdda43" fill-rule="evenodd" d="M2.6 17.1q-.1.2-.2 0v-.3l.1-.1.4-.2v-.4q-.1 0 0-.1l.3.3.1.1q.2 0 .2.2 0 .4-.6.4v.1z" clip-rule="evenodd"/><path fill="#fcd014" fill-rule="evenodd" d="m1 16 .1-.2q.2 0 .1-.2v-.3l.4-.1v.3h.2v.2l-.4.1z" clip-rule="evenodd"/><path fill="#fcd21d" fill-rule="evenodd" d="M2.5 15.4h.1l.1-.1H3v.3q0 .2-.3.2v.2q0 .1-.2 0l-.1-.4z" clip-rule="evenodd"/><path fill="#fcd21d" fill-rule="evenodd" d="M2.5 16h-.3v-.3l.2-.1z" clip-rule="evenodd"/><path fill="#fdd633" fill-rule="evenodd" d="M2.8 17h.3l.2-.3h.1l-.1.3q-.2.2-.2.5h.1l.2-.1h.2q.3 0 .3.2l.2.2h.1q.3 0 .2.2v.4h-.2v.1q.2.1.4 0l.1.1v.3l.2-.1v-.2l.2.1h.1v-.2h.3l.1.2v.2q.1.6-.4.4-.2.4-.5.1l-.2-.3h-.1c0 .2-.2-.4-.2 0q0 .3-.4.5l.1.3c-.3.1 0 .3 0 .4h-.1v.3h-.4l-.1-.1q0-.3-.2-.4H3v.2q0 .2-.1 0l-.1-.2-.2-.2v-.4l-.3-.1V19v.1h.1l.2.1q0 .2.2.2 0 .1.1 0v-.1l.3.1h.2l-.1-.5h.1l.4-.3q.3-.2.2-.3-.2-.1-.1-.4l-.2-.2-.2.3h.1q.3.2 0 .5 0-.2-.2-.2h-.2L3 18v-.2l-.2.2-.2-.4v-.3zq.1 0 0 0" clip-rule="evenodd"/><path fill="#fdd839" fill-rule="evenodd" d="M5.9 22q-.2 0-.3-.2h-.2l-.2-.2H5q0 .2-.2.3l-.1-.2h-.5l-.3.1v-.4l-.2-.3q.4-.1.7.2 0-.5.6-.4.1.3.4.4h.2v.3l.3-.2.1.2q.1.3-.2.4" clip-rule="evenodd"/><path fill="#fdd221" fill-rule="evenodd" d="m5 21-.4.1v.2h-.2v-.1h-.2l-.2-.1h-.2v-.7H4q.1-.2.5-.3l.3.1.4.4q.3 0 0 .3" clip-rule="evenodd"/><path fill="#fdd839" fill-rule="evenodd" d="M3.8 21h-.1" clip-rule="evenodd"/><path fill="#fdd221" fill-rule="evenodd" d="M2.9 20v.2h-.1V20m.2.3v.2z" clip-rule="evenodd"/><path fill="#fddc49" fill-rule="evenodd" d="m17 1.8.2.3v.5l.3.5c0 .7 0 .7.5 1q.3.1 0 .3-.1 0 0 .2h-.1q-.4.3-.8 0t-1 0l-.3-.1q-.2-.2 0-.4.1-.4.5-.8v-.1q.2 0 0-.1v-.2l.2-.5q0-.4.5-.6" clip-rule="evenodd"/><path fill="#fdd529" fill-rule="evenodd" d="M16.4 3.2h-.1l-.3.4-.2.2q-.2 0-.2-.2l-.2-.2q-.1.4-.4.3-.6.3-.8-.2l.1-1.2q.2-.2 0-.4l.1-.4h.2v.1q.1.3.4.3v.5q.2.5.9.3-.6 0-.2-.5.7 0 1.1-.6h.1q.2 0 0 .2V2q0 .2-.2.2l-.1.2z" clip-rule="evenodd"/><path fill="#fcd015" fill-rule="evenodd" d="M16.8 1.6q0 .2-.2.3V2q-.2.3-.6.2h-.2l-.2-.2H15l-.3.1-.1-.2v-.2l1-.4h.6l.3.2v.2z" clip-rule="evenodd"/><path fill="#fdde59" fill-rule="evenodd" d="M18 4.6v-.4q-.3 0-.5-.3l-.2-.2v-.1l.1-.3.1-.2.2.2.3.1v.2h.4l-.2.2v.3h.4l.2.3h-.5z" clip-rule="evenodd"/><path fill="#fddd50" fill-rule="evenodd" d="M18 4.6q0-.3.3-.1l.2.3h.6q.2.6-.2.5h-.7l-.1-.5q-.3 0-.2-.2" clip-rule="evenodd"/><path fill="#fdd529" fill-rule="evenodd" d="M16.7 1.6h-.3l.1-.2q0 .3.2.2" clip-rule="evenodd"/><path fill="#fddd50" fill-rule="evenodd" d="M18.3 4.5h.4zm.4 0q.3.2 0 .2z" clip-rule="evenodd"/><path fill="#fcce04" fill-rule="evenodd" d="m15.7 1.2-.3.2h-.2l-.4.2h-.4l-.1-.2V1l.7-.2V.7h.1V.5h.1V1h.5z" clip-rule="evenodd"/><path fill="#fde684" fill-rule="evenodd" d="m16.2 1.2-.3-.1V1h.1z" clip-rule="evenodd"/><path fill="#fde888" fill-rule="evenodd" d="m16.4.8.3-.1z" clip-rule="evenodd"/><path fill="#fde991" fill-rule="evenodd" d="M16.4.8h-.1z" clip-rule="evenodd"/><path fill="#fdeeab" fill-rule="evenodd" d="m20.4 3.2-.2-.1V3h.2z" clip-rule="evenodd"/><path fill="#fde268" fill-rule="evenodd" d="M22.7 9.6q0 .3.3.2t.2.2l-.1.2-.9.5-.6-.7q0-.2-.3-.3h-.1l.1-.7c.2-.3.2-.2.2-.7l-.5.1h-.5l-.1-.1q-.5.3-.8-.2V6.4q-.1-.4.3-.4l.4.1.4.1v.1l.4.2h.1l.3.2q.2-.1 0 .2 0 .2.2.2.4 0 .6.4v.8h.1q-.5.6 0 1l.1.2h-.1.1z" clip-rule="evenodd"/><path fill="#fdde58" fill-rule="evenodd" d="M20.3 6.2H20l-.3-.1-.1.1.2.5-.2.1-.2.1h-.1l-.3-.2-.9-.6q-.2 0-.1-.3h.4q.2.2.3 0v-.2l-.1-.2.1-.2q.5 0 .4-.3h.2v-.2a1 1 0 0 0 1-.6l.3-.1h.3q0 .2.3.3v.2l-.1.1-.4.1q-.2.1-.3-.2 0 .3.2.3.4 0 .4.6l.2.2q.5-.2.5.6-.4 0-.5.4H21l-.2-.2h-.1q0-.6-.4-.2" clip-rule="evenodd"/><path fill="#fddf60" fill-rule="evenodd" d="m22.2 10.7.3-.1.7-.5-.4-.1q-.3 0 0-.3v.1h.1l.1-.2.3-.1v-.2l.4.4h-.3l.2.3v1.2l.3.2q0-.5.2-.6l.2-.3h.1q0 .6.3.8 0 .4-.2.6l-.2.3q0 .3-.3.3v.3l.1.1h.1q.3.3 0 .5l-.2.1h-.1l-.2-.1v-.1l-.3-.3-.3-.1q-.2 0 0-.3l.2-.1.1-.7q-.3-.4-.6 0-.3.2-.4 0v-.6q.1-.4.5-.3h.1v-.1h-.2l-.5.2-.1-.1z" clip-rule="evenodd"/><path fill="#fddf61" fill-rule="evenodd" d="m21.2 6.6.1-.4h.4v.2q0 .4.3.5h.2q.2 0 .2.2-.1.4.2.5v.3h.3l-.1-.2v-.8h.1q0 .3.2.2h.3v.6h.3q0 .4-.4.5H23q-.2.2 0 .4 0 .2-.2.3V9q.2.2 0 .2t-.2.4l-.2-.1v-.9l-.1-.4H22l.2-.4v-.2l-.2-.3-.3-.1h-.3v-.3h.1v-.1h-.3z" clip-rule="evenodd"/><path fill="#fdd93d" fill-rule="evenodd" d="M24.3 10.6V10q.3 0 .1-.1v-.6h-.1l-.5-.1-.3-.1-.1-.2q.3 0 .3-.3l.4-.2h.4l.1.6q0 .3.2.2v.2c0 .4.5.4.5.7q0 .3-.2.3h-.3l.2.3.5.2.2.2q0 .2-.2.2l-.4.1-.3-.1-.1-.3-.1-.1q0-.2 0 0c-.2 0 0-.4-.3-.4" clip-rule="evenodd"/><path fill="#fddf61" fill-rule="evenodd" d="m21.7 6.2-.1-.4-.3-.1h-.4q.1-.3 0-.4V5l-.3-.2q-.3 0-.3-.4l.3.2v-.2h.9l-.1.1q-.2 0 0 .3l.4.6v.1q0 .3.2.3V6zm-.5-1.9h-.3v-.6h.2v.6" clip-rule="evenodd"/><path fill="#fdd93d" fill-rule="evenodd" d="M24 7.9h.3v.3H24q-.3-.2 0-.3" clip-rule="evenodd"/><path fill="#fde26c" fill-rule="evenodd" d="M22 4.4h.1q-.1.3-.4 0l-.1-.3z" clip-rule="evenodd"/><path fill="#fdd93d" fill-rule="evenodd" d="M24 8.3h.2zh-.1zm.2 0h.1" clip-rule="evenodd"/><path fill="#fddf60" fill-rule="evenodd" d="m3.4 5.7-.1.4H3l.1-.3zm.4-.3-.2.1h-.1v-.1l.1-.1zm-.2.2v.2l-.2-.1z" clip-rule="evenodd"/><path fill="#fdd635" fill-rule="evenodd" d="M17.5 23.7h.1l.2.1v.9l-.3.1q0 .3-.4.2h-.2q-.2 0-.3-.2t-.4-.5V24q-.4.2-1 .2l-.1-.3v-.3q.1-.2.3 0 .3.3.5-.1.1-.2.6.3v.1q0-.2.2-.3l.2.2q0 .2.3.3c.1 0 0-.4.3-.4" clip-rule="evenodd"/><path fill="#fdd220" fill-rule="evenodd" d="M16.2 24.3q.4 0 .4.3t.3.3l-.5.2h-.1L16 25q-.6 0-.4-.5h.2l.1-.1z" clip-rule="evenodd"/><path fill="#fcd11b" fill-rule="evenodd" d="M15.9 24.5h-.4l-.2.1v-.5h.2l.6-.2q.2 0 .2.2l-.1.2H16z" clip-rule="evenodd"/><path fill="#fdd635" fill-rule="evenodd" d="m15.5 24.6.2-.1.1.3.1.1q.2-.2.2 0l.2.2h-.5l-.4-.2zm.9.5h.1q0 .1-.1 0m.1 0" clip-rule="evenodd"/><path fill="#fddd52" fill-rule="evenodd" d="M21.1 22q-.2 0-.2-.2h-.1l-.3.2-.3-.1-.2-.2h-.1q0 .3-.2.2l-.1-.2q.3-.4.7-.1-.1-.7.1-1.3l.4-.2q.1.2 0 .4c.5-.4.5-1 1-1.4q-.6.2-.9.5-.5-.1-.5.3-.4-.1-.4-.4v-.2h.1q.3-.3.1-.6 0-.3.2-.3l.5-.3q0-.3.3-.5h.1q.3 0 .2.4.4-.4.8-.1h.7l.1.1-.1.1h-.1.3q0-.2-.2-.2t-.3-.3q0-.2.3-.2-.3 0-.5-.3V17q0-.3-.2-.2l-.1-.4h.2q.6.1 1.2-.2h.1l.5.2q.1.1.4 0h.3v.5s-.4 0 0 .2q0 .2-.2.3-.4 0-.5.3h-.5q.3.3 0 .4-.3 0-.2.4 0-.4.3-.4t.3.3v.3q-.3 0-.1.4v.2h-.2l-.4-.2.6.7-.1.2q-.3.2-.6 0l.1.3h-.3c-.2 0-.3.3-.5 0v-.1h.2-.2l-.1.1h-.1v.3l-.2.1-.2-.1c0 .1.3.3-.1.3q-.3 0-.2.3l-.1.4q-.1.2-.4.1z" clip-rule="evenodd"/><path fill="#fddf5e" fill-rule="evenodd" d="M20.1 19.3q-.2 0 0 .2l.1.3h.2q.2.3 0 .4l-.3.5h-.3q-.4 0-.3.3l.1.1v.6h-.1v.3l-.1.1h-.2V22q0-.2-.1-.1H19v.4h-.2q-.2.1 0 .2v.2h-.1l-.2-.2-.3-.2q-.5.1-.7-.2v-.3H17l-.2.2-.5.3h-.1l-.2.1q-.3.3-.5-.1l-.1-.3a1 1 0 0 0-1-.4l-.1.2q.2 0 0 .3-.2.1-.4-.1 0-.3-.4-.2t-.9-.4l.2-.1h.1V21h.2l.1-.1q.3 0 .4-.3 0-.5.4-.1l.3-.2h.1v.4l.5.3q.3.2.2-.1.2-.3 0-.6l.3-.3q.4.2.3.3 0 .2.2.1c.2 0 .6-.2.4.3v.3h.3v.1c.5.2.7-.3.9-.5q.4-.6 1-.2l.3-.1q-.4.2-.6-.3-.4-.2 0-.5l.2-.5q0-.5.5-.5h.3l.2.5v.2c-.5-.2-.2.2-.3.3l.7-.5q.3 0 .3.2" clip-rule="evenodd"/><path fill="#fdd93f" fill-rule="evenodd" d="m17 22.5.1.4q-.1.4-.4.6v.1q-.3 0-.3-.2t-.4-.1v-.1l-.1-.1q0-.5.2-.8h.6q.3 0 .3.2m.3-.9.2.1v.3q.2 0 .2.2h.4V22v.2h.2l.1.2v.3H18l-.2.1h-.1v-.2l-.5-.2q-.4-.3-.5-.6h.1q.2-.2.4 0v-.3m.3 2.2-.1.3v.2q0 .2-.2 0H17q-.2-.2-.1-.4l-.1-.1v-.1l.4-.1.2-.1.1.2z" clip-rule="evenodd"/><path fill="#fddc4d" fill-rule="evenodd" d="m16.8 21.9.3.2.1.4H17l-.1-.1h-.2q-.3 0-.5-.2.3 0 .5-.2z" clip-rule="evenodd"/><path fill="#fdd93b" fill-rule="evenodd" d="m19.1 22.4.2.2zm.4.6h-.3v-.1zm.8-.9h-.1z" clip-rule="evenodd"/><path fill="#fdd93f" fill-rule="evenodd" d="m18.5 22.5.2.1q-.2.2-.2 0" clip-rule="evenodd"/><path fill="#fdd93b" fill-rule="evenodd" d="M20.5 22q.3 0 .1.1z" clip-rule="evenodd"/><path fill="#fddc4d" fill-rule="evenodd" d="M17.2 22.7h.1" clip-rule="evenodd"/><path fill="#fdd93f" fill-rule="evenodd" d="M17.1 22.9h.2zm.2 0v-.1" clip-rule="evenodd"/><path fill="#fddc4c" fill-rule="evenodd" d="M22.3 20.7v-.4l.2-.1h.2v.2q0 .4-.2.7h-.1l-.3.1h.3V21h.5v.1h.5V21q.4 0 .6.2l-.1.2q-.2 0-.2.2l-.3.3-.3-.2.1-.1h-.4l-.2.1q-.2.4-.6.5h-.2v-.1q0-.4-.2-.6v-.2q.1-.2-.1-.3l-.1-.1h.3l.1-.2h.2v-.1l-.1-.1v-.2h.2v.2z" clip-rule="evenodd"/><path fill="#fddc4c" fill-rule="evenodd" d="M21.1 22q-.1-.3.1-.5 0 .3.3 0l.1.3q.3.3-.1.4l-.2.1zm-.5.1V22q-.2-.2 0-.2h.2v-.2l.1.2.1.2z" clip-rule="evenodd"/><path fill="#fde375" fill-rule="evenodd" d="M22.9 22.2V22z" clip-rule="evenodd"/><path fill="#fddd50" fill-rule="evenodd" d="M24 6.6q-.2 0 0-.2zm-.2.7" clip-rule="evenodd"/><path fill="#fdd52d" fill-rule="evenodd" d="M24.3 6.7h.1" clip-rule="evenodd"/><path fill="#fdda45" fill-rule="evenodd" d="M1 13H.8l-.6-.5.2-.2.1-.1q.2 0 .1-.2v-.3l.1-.2v-.3H1v.5c.2-.1.4.2.6 0h.3l.2.4v.2q-.2 0-.3.2h-.4q-.3 0-.3.4z" clip-rule="evenodd"/><path fill="#fdde58" fill-rule="evenodd" d="M.3 12.5q.3 0 .5.3v.2q-.2.1-.3-.1l-.3-.2z" clip-rule="evenodd"/><path fill="#fddc4c" fill-rule="evenodd" d="m.6 10.7.3-.2q0 .2-.2.3z" clip-rule="evenodd"/><path fill="#fdda47" fill-rule="evenodd" d="M1 11.2H.8" clip-rule="evenodd"/><path fill="#fdde58" fill-rule="evenodd" d="M.5 13.1H.2l.1-.2h.2z" clip-rule="evenodd"/><path fill="#fdda45" fill-rule="evenodd" d="M.5 13.1v-.2h.2l.2.1-.2.2z" clip-rule="evenodd"/><path fill="#fddd4f" fill-rule="evenodd" d="M2 12.3q.1 0 0-.1l-.1-.4v-.2l.1-.1.1-.1.1-.1v.1l.1.2v.4h.3v-.1h.2v.3L3 12v-.2q.1-.2 0-.4l-.2-.1V11c0-.4.2 0 .3 0v.2l.1.1.1.1v.1q.1.3.4.2.3-.2.4 0l.4.2q.4.1.5.4t-.4.4-.3.4v.1h-.4q-.6 0-.6-.8h.4q.4 0 .3.3v-.5h-.6q-.2 0 0 .2-.1.3-.4.1l.2.4q-.3.3-.4 0h-.1v.1l-.3.3h-.1q.4 0 .4.2-.1.3-.5.3l-.2-.6V13l.2-.1v-.2H2q0 .1-.1 0v-.1l.2-.2h.2v-.1z" clip-rule="evenodd"/><path fill="#fddf61" fill-rule="evenodd" d="M3.4 12.5v.5q.3 0 .5.3l-.2.1-.1.1q-.2 0-.2.2l-.2.1-.2.5h-.2V14l-.2-.1v.2h-.2l-.2-.1q.1-.2.4-.3v-.1q-.4 0-.3-.2l.4-.4h.4q0-.3-.3-.4z" clip-rule="evenodd"/><path fill="#fdd221" fill-rule="evenodd" d="M1 13h.1c0-.5.4-.3.6-.4q.2 0 .2.2v.2h-.3v.4h-.1v.4l-.2-.3-.1-.1z" clip-rule="evenodd"/><path fill="#fdde58" fill-rule="evenodd" d="M.5 13.1h.2q.3.2 0 .4-.2 0 0-.2z" clip-rule="evenodd"/><path fill="#fde067" fill-rule="evenodd" d="M5.4 7.6H6q0-.7.6-1-.2.2-.5.2l.2-.5v-.1q0-.2.3-.2v.1H7c0 .2.4.3.3.6l.2-.1q-.1-.4.3-.6-.3-.2 0-.5.1 0 0 0Q8 5 7.7 5t-.2-.4q-.2.3-.6.2t0-.7h.4v-.2l.4-.2q.4.2.8-.3l.5-.8h.2q.7-.2.6.5v.7h-.4l-1 .3q.3 0 .3.2-.2.3.3.2.3-.3.7-.2h.1V4l.1-.2h.2v.8h.1l.3-.3h.2v.1h.1-.1q0-.2.3-.2.4.3.3.7V5l-.2.1q-.5-.2-.6.4v.1q-.5.2-.3-.2 0-.3-.2-.4t-.5.2q-.2 0-.1.4V6l-.1.2v.2q0 .6-.3.4-.4-.1-.6.2v.5q0 .2-.3.3t-.3-.3q-.3-.2-.6-.1-.6 0-.4.5 0 .4-.3.3L6.1 8v.3q-.2.1 0 .1t.2.2l-.1.1-.4.1c-.3-.2-.4.1-.6 0v-.1l-.1-1q0-.2.4 0" clip-rule="evenodd"/><path fill="#fddf60" fill-rule="evenodd" d="M5 7.8q.3.2.2.5-.2 0 0 .1v.2l-.2.1q-.3.4-.6.2l-.3.2H4L3.8 9l.2.2c.4.3.3 1 0 1.2h-.6.6q.4 0 .6.4 0 .3-.1.2h-.8q.4.3.4.6l-.3.1q0 .2-.3.1l-.2-.1v-.2l-.2-.2V11v.1H3q0-.1-.2 0v-.6h-.1l-.2.1q-.2 0-.1-.1l.2-.5v-.2q.1-.3.4-.3h.2q.3 0 .2-.2l.1-.2v-.2h-.2V9H3v-.5l.1-.2h-.2v-.1l-.1-.3.2-.3h.3v-.3h.2v.1l.5-.2v.4q.1-.2.3 0v.2l.3.3q0-.3-.3-.4v-.5h.1l.1.2H5l.1.2zm2.7-2.3-.2.2.1.3v.2h-.2v.5q-.2.2-.5 0h.2l-.3-.3v-.8q-.5-.3-.8 0v.1q-.2.3 0 .5l.2.1v.2q-.2 0-.2.2l.3-.1q-.1-.1.4 0l-.4.2-.2.1-.2.4-.1.3-.2-.4V7Q6 7 6 6.5v-.1q-.2 0-.1.1l-.2.2h-.2v-.1h.1l-.2-.4q-.4 0-.5-.3v-.1h.6q0-.3-.2-.2 0-.2.2-.2l-.1-.1q-.1-.1 0-.2.3-.3.7 0l.3-.1q0-.2-.2-.2-.4.1-.4-.4l-.1-.2h-.2l-.2-.1V4l.4-.3h.2l.2.2q0-.2.2-.2t0-.2h.2q.3-.5.3 0v.4l.1.2-.1.2v.4h.4l.1-.1.1-.2h.1v.5h.3L8 5v.2q0 .2-.2.3M4.6 6q0 .3.3.4H5V7h-.2v-.3l-.5-.4.1-.3.1-.2zm-1.2.2h.2v.5l-.1-.1-.1-.1-.2-.2z" clip-rule="evenodd"/><path fill="#fddf60" fill-rule="evenodd" d="M5 7.8v-.3l.4.1-.2.1zM3.8 6.6l.2-.2v.2l-.1.2zm1.8 1v-.2h.1zm-.1-.4" clip-rule="evenodd"/><path fill="#fdda47" fill-rule="evenodd" d="m1.5 8.8-.2.1zm-.2.2" clip-rule="evenodd"/><path fill="#fdd73b" fill-rule="evenodd" d="m22.5 21 .1-.6q.3 0 .4-.2l.2.1h.2v-.1q-.4-.1-.1-.2h.6v-.2h-.2v-.3l-.3-.3q-.2 0 0-.1.2-.2.4 0l.1.2v-.2q-.2-.2 0-.4h.2l.1-.7q0-.4.4-.1.1.2.4 0t.5 0 0 .4l-.6.4q-.3 0 0 .3v.3l-.3.3h.4v.3l-.2.1q-.1.4-.5.4-.2-.2-.2 0v.9H24q-.2-.2-.6-.1 0 .2-.4.1-.3 0-.5-.2" clip-rule="evenodd"/><path fill="#fdd326" fill-rule="evenodd" d="M25 19.3q-.3 0-.2-.2h-.3v-.3l.2-.2q.5 0 .8-.3h.3l-.1.2-.3.1v.2l.1.2v.2l-.2.1zc-.1-.3 0 0-.1 0" clip-rule="evenodd"/><path fill="#fdd73b" fill-rule="evenodd" d="M25 19.3v-.1l.3.1q-.1.3-.2 0zm.5-.1.3-.2zm-.9 1.2v.2z" clip-rule="evenodd"/><path fill="#fdd326" fill-rule="evenodd" d="M25.8 19h-.2l.2-.2z" clip-rule="evenodd"/><path fill="#fdd73b" fill-rule="evenodd" d="M24.3 20.8v.1m-.1.2" clip-rule="evenodd"/><path fill="#fddd53" fill-rule="evenodd" d="m3.3 6.3-.1.1M3.1 6h.2v.1zm.3.2h-.1M6.8 4v-.5l-.1-.1h-.1v-.2h.2l.2.1.2-.2h.4l.2-.1v-.5l.2-.1.1-.2h.2q.3 0 .2.2l.2.2h.1q-.1.5-.5.9 0 .4-.3.3V4h-.2q.2-.2 0-.2h-.2q-.2-.2-.2.1l-.3.2H7z" clip-rule="evenodd"/><path fill="#fdd93d" fill-rule="evenodd" d="M10.3 1.3h.2q.2-.2.4.1v.1c.1.3.4.6 0 .7q-.1 0 0 0l-.1.7q-.2.3 0 .5-.8 0-.7-.6l-.1-.2q-.2-.3-.5-.2l-.1-.2q0-.4.2-.4h.2v-.3h.3z" clip-rule="evenodd"/><path fill="#fddc4e" fill-rule="evenodd" d="M9.7 1.9h-.2v.4h.2V2h.1l.1.1v.3h.4v.1q-.2.1-.2.4l.3.3h.5q-.1.6-.5.5-.4-.2-.5.1l-.3-.1v-.4q-.2 0 0-.2v-.4h-.1v-.1h-.7q0-.5.4-.9h.5" clip-rule="evenodd"/><path fill="#fdd940" fill-rule="evenodd" d="m12.1 1 .4.4v.3q-.6.2-1 0-.4 0-.6-.2t0-.4L11 1h.9l.2.1" clip-rule="evenodd"/><path fill="#fdd73b" fill-rule="evenodd" d="M9.2 1.8v.3l-.2.3-.2.2-.1.1h-.1v-.2q-.2 0 0-.2l-.2-.2.4-.2q.1-.2.4 0" clip-rule="evenodd"/><path fill="#fddc4e" fill-rule="evenodd" d="M11 1v.3l-.1.2-.3-.1-.1-.2.2-.1zm-.7.3v.3l-.1.1q-.2 0 0-.1zm-1.1.5H9q0 .1-.2 0zm2.8-.6.2-.1zm-.4-.2h-.3zm-2.1.6v-.1m.3 0v.2h-.1zm1.4-.5q-.1.3-.2 0z" clip-rule="evenodd"/><path fill="#fccc01" fill-rule="evenodd" d="M25.7 8.7h.2V9h-.3z" clip-rule="evenodd"/><path fill="#fdd633" fill-rule="evenodd" d="M2 11.8h-.4q-.2.2-.2 0H1v.2-.7h.2l.3.1q.2 0 .2-.2l.3.1z" clip-rule="evenodd"/><path fill="#fddf60" fill-rule="evenodd" d="M2.5 11q-.2 0-.2-.2h.1z" clip-rule="evenodd"/><path fill="#fddd4f" fill-rule="evenodd" d="M3 11.7h-.2z" clip-rule="evenodd"/><path fill="#fdd630" fill-rule="evenodd" d="m6.2 23.7.4-.2.1-.1.4-.1.4-.2q.4.5-.2.6h-.5q.9.3.4.8h-.1l-.1-.2h-.1l-.1.2q0 .3-.2.2 0-.4-.2-.5l-.1-.2z" clip-rule="evenodd"/><path fill="#fcd21f" fill-rule="evenodd" d="M7.2 24.5v-.1q.1-.3 0-.4H7l-.6-.2.6-.1.2-.2.2-.2V23l.4-.2.2.2v.2q-.3.1-.1.2.2.5-.3.5l.3.1-.2.1-.3.1v.3z" clip-rule="evenodd"/><path fill="#fdd52d" fill-rule="evenodd" d="m8 24.1-.4-.1q0-.2.4-.1v-.2l-.2-.1v-.3H8V23h-.1q-.1-.2 0-.4 0-.2.1 0c.2.5.7.3 1 .4h.4v.4h.1l.2-.5.4-.2q.2 0 .3.2l-.2.2v.5q-.2 0 0 .1.2 0 .1.2v.1q-.1.2 0 .2v.3h-.2l-.2.1-.2.1q-.3 0-.4.2l-.2-.1q0-.2-.2-.3-.5-.4-.9-.4" clip-rule="evenodd"/><path fill="#fcd015" fill-rule="evenodd" d="M12.9 1.8q-.2 0-.2-.4l.2-.3.1-.2h.9l.2.1v.7c-.2.3-.6 0-.8.2z" clip-rule="evenodd"/><path fill="#fdd529" fill-rule="evenodd" d="M14 1.6v-.2q-.3-.1-.1-.2L14 1V.7h.1q.2 0 .2.3h-.2l.1.3.1.2z" clip-rule="evenodd"/><path fill="#fde88b" fill-rule="evenodd" d="M12.6 1q0-.3.3-.2z" clip-rule="evenodd"/><path fill="#fcd015" fill-rule="evenodd" d="M14.2 1H14" clip-rule="evenodd"/><path fill="#fdd21e" fill-rule="evenodd" d="M12.9 1.8h.4V2q.3.6-.2.5v.1q-.1.3-.4.2t-.4-.4l-.1-.5q0-.3.3-.2l.2.4h.1z" clip-rule="evenodd"/><path fill="#fcd015" fill-rule="evenodd" d="m14.4 1-.2-.2.2-.2h.4l.2.2h-.1l-.5.3" clip-rule="evenodd"/><path fill="#fddc4b" fill-rule="evenodd" d="M25.3 10.2 25 10q-.3 0-.1-.4l.4.1h.2v-.1l.4.1q.1.1.4 0v.1l.2.2q0 .3.3.3t0 .2l-.1.1h-.2l-.3.2q-.3-.2-.1-.4l-.4.1h-.2q0-.2-.2-.3" clip-rule="evenodd"/><path fill="#fdda45" fill-rule="evenodd" d="M25.7 9.2v.3h-.1v.1q-.5 0-.5-.4z" clip-rule="evenodd"/><path fill="#fdd529" fill-rule="evenodd" d="m25.5 9.6.1-.1.2-.1h.2q.3 0 .2.2v.4q-.3 0-.4-.3zm.8-.4q0 .2-.1 0V9zm0 .6" clip-rule="evenodd"/><path fill="#fddd53" fill-rule="evenodd" d="m5.7 4.1.2.3q0 .3.2.2h.1q0 .3.3.2V5q0 .3-.2.2H6V5h-.2l-.3.1-.1-.2v-.7zm-1.4 1q.3 0 .4-.4v.2q.2 0 0 .3zM5.4 4v.3H5l-.2-.1H5V4l.2-.2zm0 1.3h.3v.1zm-1.6.1.4-.2-.1.3z" clip-rule="evenodd"/><path fill="#fddf60" fill-rule="evenodd" d="M5.4 4.3q0-.1.1 0zM4.6 6h.2-.1m-.9-.6.1.1zm2 1.5" clip-rule="evenodd"/><path fill="#fddd53" fill-rule="evenodd" d="m3.8 5.4-.2-.1q.1-.1.2 0" clip-rule="evenodd"/><path fill="#fdd83a" fill-rule="evenodd" d="M24.9 16.9v-.3q-.2-.3-.5 0h-.1q0-.2-.1-.1H24l-.2-.3.6-1q.2.2.6.2v-.2h.3v.3h.3v.1l-.2.2v.4q.3 0 .2.2h-.3l-.3.5z" clip-rule="evenodd"/><path fill="#fdd632" fill-rule="evenodd" d="m25.5 18-.2-.1-.3.1-.2.2q-.1-.2-.3-.2v-.1h-.1v.1q0 .4-.3.7l-.1-.3q0-.2-.2-.2h-.2v.3q-.3-.1-.1-.4l.3-.1q0-.2-.3-.2v-.1h.6v-.1q.2-.4.5-.3h.2l-.1-.2h-.2l.4-.2q.3.3.2.5v.2h.2q.2 0 .2.2zm.2.5v-.2h-.2v-.4h.1q.1-.3.3-.1h.2v-.4h-.4v-.1h.2v-.1h.3l.1.4.1.3q-.2.4-.6.6z" clip-rule="evenodd"/><path fill="#fdd836" fill-rule="evenodd" d="m26.1 15 .2.1v.4H26l-.2-.1-.3-.3q-.1-.2-.3-.1v.2l-.3.1q-.2-.2 0-.4l.3-.3h.5c.2.1 0 .6.4.4" clip-rule="evenodd"/><path fill="#fccd00" fill-rule="evenodd" d="m26.8 15.8.1.1q.3.1.1.4l-.1.1-.4.1-.2.1H26v-.3q.2 0 .2-.2 0-.4.4-.2h.2" clip-rule="evenodd"/><path fill="#fddd52" fill-rule="evenodd" d="m25 17-.1-.1" clip-rule="evenodd"/><path fill="#fddc4d" fill-rule="evenodd" d="m26.5 14-.5.2h-.3v-.3q-.3-.5 0-.8 0-.5-.3-.8.2-.3.6-.3.2 0 .4.3 0-.3.4-.4h.3v.1q0 .4.2.6l-.2.2h-.6q-.5.3 0 .5.3.3 0 .7" clip-rule="evenodd"/><path fill="#fdd52e" fill-rule="evenodd" d="M26.5 14v-.5l-.3-.3V13l.5-.3.2.2h.2l-.1.1q0 .2.3 0l.2-.1q0 .3-.3.5l-.2.2-.2.3q0 .3-.3.2" clip-rule="evenodd"/><path fill="#fcd220" fill-rule="evenodd" d="M26.5 14h.2v-.5l.4-.2h.1l.1.1v.3h.5l-.1.1-.2.3-.2-.1h-.5l-.1.1z" clip-rule="evenodd"/><path fill="#fddc4d" fill-rule="evenodd" d="M27.4 12.6v-.3zm.1.3h.2z" clip-rule="evenodd"/><path fill="#fcd119" fill-rule="evenodd" d="m27.1 12.8.2-.2v.1z" clip-rule="evenodd"/><path fill="#fddc49" fill-rule="evenodd" d="m14.6 24.6-.1.1h-.3l-.1-.1v-.4l-.6-.2v-.1l-.1.3h-.1q-.3-.1-.4 0v.1c-.5-.2-.3.2-.4.3h-.1q-.2 0 0 .2v.4h-.6l-.1-.5v-.3q0-.2.2-.3h.2q.2 0 .1-.3v-.6q-.2 0-.1-.3l.1-.1q0-.2-.2-.3-.4 0-.4-.3 0-.4-.5-.4l-.2-.2q.2-.2-.1-.3-.2-.2-.2-.5l-.3-.1q-.2-.1-.1-.3 0-.3.3-.2c.3.2.6 0 .9.2l.2.2q0 .3.2.3t.4.2q-.1.2-.4.3.2.1.3.4t.3 0q.3 0 .1.4.3-.3.5-.1l.4.2h.1c-.2.4.2.6.1.8q0 .3-.3.4h.4q.3 0 .2.2l.2-.3q.3 0 .5.3l.1.2h.2q0 .4-.3.7" clip-rule="evenodd"/><path fill="#fdd942" fill-rule="evenodd" d="M11.7 24.4h.2v.1q-.2 0-.2.2-.3 0-.2-.3v-.1l-.3-.3q-.2 0-.2-.3l-.1-.2v-.3q0-.5-.5-.3l-.2-.1h-.1l-.1.2h-.1q0-.3-.2-.1l-.1-.2q0-.3-.2-.4v-.1q-.4-.2-.1-.8c.2 0 .4.4.6 0l.5.1q.2.1 0 .3c-.3 0 0 .4-.3.5q.3.2.5 0l.7.2q.3.3.6.3v.1q0 .2.3.3v.1l-.3.2q-.3.2-.6 0 .3.3.4.9" clip-rule="evenodd"/><path fill="#fccf0c" fill-rule="evenodd" d="m14 25.7-.3-.1-.2-.3q0-.2-.3-.3v-.6l.2-.2q.1.3.4.1.2 0 .2.2l.2.2.2.3.3.1.2.2h-.7v.4z" clip-rule="evenodd"/><path fill="#fdd835" fill-rule="evenodd" d="m13.4 24.2-.1.2H13q0-.2-.2 0l-.2.2h-.2v-.4h.4V24h.3zm-1.1.7-.3-.2h.4zm.1.1v-.3q.3 0 0 .2z" clip-rule="evenodd"/><path fill="#fccf10" fill-rule="evenodd" d="M11.4 25.6h-.2l.2-.1" clip-rule="evenodd"/><path fill="#fdd835" fill-rule="evenodd" d="M13.3 24.5v.1q-.1 0 0-.1" clip-rule="evenodd"/><path fill="#fdda48" fill-rule="evenodd" d="M14.6 24.6q0-.4.3-.6h.2l.2.1v.1q-.3 0-.4.3l-.1.1zm.7-.3v.3l-.2.1-.2-.1zm-.8.4q0-.2-.2-.2l.1-.1.2.2zm-.3-.1.3.1z" clip-rule="evenodd"/><path fill="#fdd52d" fill-rule="evenodd" d="m25.7 10.5.1-.1h.3q0-.2.2 0h-.1v.3l.1-.2h.1v.5l.1.1h-.3l-.2-.3v.4h-.3l-.2-.1q-.1-.4.2-.6m.4.9q.5 0 .8-.3v.4l-.1.4q-.6 0-.7-.4" clip-rule="evenodd"/><path fill="#fde066" fill-rule="evenodd" d="m26.8 11.5.1-.1q.2 0 .2.2v.3h-.3z" clip-rule="evenodd"/><path fill="#fdd52d" fill-rule="evenodd" d="m26 11.2.1.2s0 .3-.2.1q-.2-.1 0-.3" clip-rule="evenodd"/><path fill="#fddd53" fill-rule="evenodd" d="M26.9 11.2h.1z" clip-rule="evenodd"/><path fill="#fdea98" fill-rule="evenodd" d="M26.7 10.6v-.2h.1v.1z" clip-rule="evenodd"/><path fill="#fdd630" fill-rule="evenodd" d="M6.7 23.4h-.4v-.5l-.2-.2-.1.3h-.1v-.3l.2-.1q.3 0 .3-.2.4.1.3.4z" clip-rule="evenodd"/><path fill="#fdd940" fill-rule="evenodd" d="m5.9 22 .1-.2.1-.2.3.1-.1.5q-.2 0-.2.3z" clip-rule="evenodd"/><path fill="#fddd4f" fill-rule="evenodd" d="m6 22.5-.2.1z" clip-rule="evenodd"/><path fill="#fdd323" fill-rule="evenodd" d="M25.7 14.1v.4q.1.2 0 .2h-.1q-.1-.2-.3 0h-.1l-.2-.2q-.2 0-.3-.2 0-.5.4-.5 0-.4.2-.3.3 0 .3.3l.2.1z" clip-rule="evenodd"/><path fill="#fcd11b" fill-rule="evenodd" d="M25.7 14.7v-.3h.2v.4l.2.2h-.2q-.1.2-.1 0z" clip-rule="evenodd"/><path fill="#fde26b" fill-rule="evenodd" d="m6.3 18.4.1-.2h-.2V18q0-.2.2-.2t.2-.3v-.1l-.1-.1-.2-.1Q6 17 6 16.8q.1-.3.4-.4h.3l1 .1-.1-.5q-.3-.2 0-.5l.6.1c.2 0 .3.6.1.8l-.2.3h.4l.2.8v.4q.5 0 .5.5c-.2 0-.1.4-.4.2q-.2 0-.2-.4-.1.3-.3 0v-.3.2a1 1 0 0 1-1.1.4l-.4.1q.4 0 .3.3-.1.4-.5.2l-.2-.1z" clip-rule="evenodd"/><path fill="#fddf5e" fill-rule="evenodd" d="M8.3 18.1v.1h.3v.2l.2.2q0-.2.3-.2t.2.4q0 .2-.3.2c-.3 0 0 .2-.2.3q0 .2-.2.3.3.2.4-.1 0-.6.6-.3l.4.2q.2 0 .2.2t-.3.1l-.1.2h-.1q-.4-.2-.4.3.1.5-.4.2.2.2-.1.3h-.3q-.4-.2-.7.1h-.2v-.3q-.3-.5.1-.6.2 0 .2-.3c0-.2.3-.5 0-.8v.1q-.7 0-.4.5v.5q0 .3-.4.1l-.2-.2c-.7 0-.8-.6-1.2-.9l.2-.2v-.4l.2.2h.2v.4c0 .2.2 0 .2.2h.4v-.4l-.1.1h-.1v-.4H7q.2 0 .1.1h.5v-.1l.2-.1H8l.2-.2" clip-rule="evenodd"/><path fill="#fddf5f" fill-rule="evenodd" d="m6.3 16.5-.1.1q-.4.2 0 .4h.2l.1.3-.4.3q-.4 0-.3.2l-.2-.1-.2-.2v-.3h-.2v-.3l-.3-.1.1-.2.3-.1z" clip-rule="evenodd"/><path fill="#fd861c" fill-rule="evenodd" d="M5.3 16.6H5l-.4-.3q-.2 0-.1-.3v-.1q.2 0 .1.1v.1h.1l.1-.2H5v.1q0 .2.3.2h.2q0 .4-.2.4" clip-rule="evenodd"/><path fill="#fdd633" fill-rule="evenodd" d="M3.6 16.6h.1z" clip-rule="evenodd"/><path fill="#fdaa3b" fill-rule="evenodd" d="M5.5 16q.1 0 0 0v-.2H5q0-.3-.2-.2l-.1-.1-.2-.2q0-.2-.2-.3v-.2q0-.2.2-.3h.1q.4.3.2.5.1-.2.4-.2l.5.1.1.2-.2.1q.3 0 .3.2t.2 0q.4.3 0 .5l-.3.2h-.2l-.1.2h-.1zm-1-2-.3-.2v-.1h.3v-.1l-.1-.1v-.2l.9-.1q.2 0 0 .2v.1q0 .2.2 0 .4-.1.6.1.5.3 0 .4h-.3q-.4 0-.7.2-.1.3-.4.2l-.2-.1q-.1 0 0-.2z" clip-rule="evenodd"/><path fill="#fdb249" fill-rule="evenodd" d="m5.3 13.2-.2.1h-.9l.1-.1h.2V13H5l.2-.1h.5z" clip-rule="evenodd"/><path fill="#fddd4f" fill-rule="evenodd" d="M3.7 13.4h.2z" clip-rule="evenodd"/><path fill="#fd861c" fill-rule="evenodd" d="M4.3 16v.1" clip-rule="evenodd"/><path fill="#fd9f40" fill-rule="evenodd" d="M5.5 16v.2q-.1 0 0-.1" clip-rule="evenodd"/><path fill="#fd992d" fill-rule="evenodd" d="m3.2 13.8.2-.1z" clip-rule="evenodd"/><path fill="#fdd633" fill-rule="evenodd" d="M1.7 16.5h-.1M3 15.3h-.2q0-.2.2 0M2 15" clip-rule="evenodd"/><path fill="#fdda43" fill-rule="evenodd" d="M2.6 17.5q.2 0 .2.2v.2l-.2-.1zm0-.3q.3.1 0 .2z" clip-rule="evenodd"/><path fill="#fcd015" fill-rule="evenodd" d="M2.4 18v-.1m-.5 0v-.1" clip-rule="evenodd"/><path fill="#fdd633" fill-rule="evenodd" d="M2.5 16q-.2 0-.1-.2v-.1q.3 0 0 .4" clip-rule="evenodd"/><path fill="#fddd4f" fill-rule="evenodd" d="m8 18.7.2.5q-.3.3-.2.5t0 .2h-.2l-.2.2v.2l.1.2v.1h-.2l-.6-.4q-.4 0-.3-.3l-.2.7h-.5v.7q-.2.2-.3.1-.3-.1-.3-.4v-.7h-.7l-.2-.1q-.2 0-.2-.2c0-.6.3-.6.6-.8l.3.1q.2 0 .1-.2l.3.1.2-.3h.1q.2 0 .3.2t.3.5H7l.1.2q0 .2.2.2h.1v-.1h-.1v-.3h.1v-.4l-.1-.3.2-.1q0-.2.2 0z" clip-rule="evenodd"/><path fill="#fddc49" fill-rule="evenodd" d="m4.2 20 .2.2-.2.1-.3.1V20q-.3 0 0-.1l.1-.1q0-.2-.2-.3l.1-.2q.5-.1.3-.5v-.1l.4.2v.1q.2 0 .2.2t-.2.2l-.2.2h-.1q-.1.1 0 .2z" clip-rule="evenodd"/><path fill="#fddd4f" fill-rule="evenodd" d="M3.8 19.5q.2 0 .3.2H4z" clip-rule="evenodd"/><path fill="#fddc49" fill-rule="evenodd" d="m3.8 19.6.2.2h-.1q-.1 0 0-.2" clip-rule="evenodd"/><path fill="#fdda43" fill-rule="evenodd" d="M2.8 17H3v.1z" clip-rule="evenodd"/><path fill="#fddd4f" fill-rule="evenodd" d="M5.2 19.1H5zm.9 3.4v-.3l.2-.1v-.5H6l-.2-.1v-.2h.6v-.1l.2-.4v-.1q-.2 0-.2-.2.3-.4.6.2.1.4-.1.6-.2.4.2.7l.1.2q0 .2-.2.2t-.4 0h-.3z" clip-rule="evenodd"/><path fill="#fdd940" fill-rule="evenodd" d="m4.6 20.3.3-.1h.2q.2-.3.3 0v.8l.1.3h-.3q-.2 0-.2-.2v-.2l.2-.2h-.3l-.1-.1q0-.2-.2-.3m1.3 1v.2l-.1.1h-.4.1l.1-.2zm-1 .3v-.3zm-.3-.3v.1m.3.2" clip-rule="evenodd"/><path fill="#fdde59" fill-rule="evenodd" d="m17.9 4.6.2.1v.1q-.4 0-.7.4-.1.2-.5 0 0 .4.2.6l.1.3H17q-.4 0-.5.3H16q-.3 0-.3-.3V6q0-1-.9-.7H14q-.1-.4.2-.6h.3q0 .2.1 0 .2-.3.6 0 .4.1.7-.1h.2v-.2.1h.2q0-.1.2 0h.6l.1.1q.2 0 .3.2l.5-.1" clip-rule="evenodd"/><path fill="#fdd93d" fill-rule="evenodd" d="m15.8 4.5-.2.2v.1h-.2q-.1-.1-.2 0l-.2-.2q0-.1-.1 0h-.3V5h-.1q-.2 0-.2-.2h-.1l-.2-.2-.1-.2c.3-.2 0-.6.3-.8l.2.1v.2l.2-.1h.4l.4-.2-.2-.2q.3 0 .4.2l.1.1v.2q.2-.5.6-.6l.1.1v.1l-.2.2q-.2 0-.2.3v.3zm.6-1.3V3" clip-rule="evenodd"/><path fill="#fddc4e" fill-rule="evenodd" d="M14.2 3.5v.6q-.1.3-.2.2l.2.3-.1.2-.3.3q-.3 0-.4-.2h-.2l-.1-.2v-.1h.5l.1-.6-.2.1h-.1v.4H13v-.2h-.2V4q0-.2.2-.2-.3.1-.3-.2h-.3q-.2-.3 0-.4h.2-.3v.5h-.2c-.2 0-.2-.3-.5 0-.2.1-.8-.2-.8-.5h-.3v-.4q.3-.2.1-.3.2-.1 0-.3-.1-.2 0-.2h.4v-.1l-.1-.3.2.1h.2l.3.1q.3 0 .6.4.2.2-.2.3v.2q-.1.7.4.3h.1q.5.1.5-.4.5.1.5-.4.2-.4.7-.3.3.2.2.5v.8z" clip-rule="evenodd"/><path fill="#fdd83a" fill-rule="evenodd" d="M15.8 2.1v.1q-.2.1-.1.4h.3l-.2.2q0 .1-.2 0h-.2q-.2.2-.3 0l-.2-.3q-.2-.2 0-.4V2h.1l.3-.1.2.2h.1z" clip-rule="evenodd"/><path fill="#fdd62f" fill-rule="evenodd" d="M14.4 2.3V2q0-.2-.3-.2h-.3l-.2.3-.1.3H13v-.2l.2.1h.2v-.2h-.2v-.3l.2-.1h.4l.3-.2h.3V2q.3.2 0 .4" clip-rule="evenodd"/><path fill="#fcd015" fill-rule="evenodd" d="M14.5 1.6v-.1h.2z" clip-rule="evenodd"/><path fill="#fdd529" fill-rule="evenodd" d="M15.8 2.1q-.1 0 0-.1h.1z" clip-rule="evenodd"/><path fill="#fde062" fill-rule="evenodd" d="M16.4 6.4v-.2h.1V6h.6l-.2-.2V5l.2.1h.2V5l.3-.1q.3-.3.5-.1c.3.1 0 .3 0 .5h.5q0 .3.2.3l.1.2h-.1V6q-.2.3-.4 0l-.3-.1H18q.5.2.6.6h.1l.3.1v.2q-.2.7-.6.2c-.2-.2-.5 0-.5-.2q-.2.3-.3.2-.6.4-1 0-.2-.2-.2-.5" clip-rule="evenodd"/><path fill="#fdde58" fill-rule="evenodd" d="M18.2 5.3v-.5l.1.2zm.3.1h-.1l-.1-.1q.2-.1.2 0m-.2 0h-.1" clip-rule="evenodd"/><path fill="#fcd015" fill-rule="evenodd" d="M14.3 1.4q-.3-.2 0-.3.3.2 0 .3m.9-.4H15zM15 .9" clip-rule="evenodd"/><path fill="#fde36f" fill-rule="evenodd" d="M22.2 10.8v.3l.2.1q-.1.3 0 .4.1.4-.2.7v.3l-.4.4-.1-.2q0-.4-.3-.5t0-.4l.2-.2q-.4-.1-.8.5h-.3c-.8-.2-.8-.2-.7-1l.1-.2c.5.1.4-.5.7-.5h.5q-.4 0-.3-.4v-.2q-.2-.4.1-.7c0-.3-.7.1-.5-.4q-.2 0-.1.2.2 0 0 .3l-.5.2-.2-.3v-1h.2v.1q.3.3.5 0h.3q0 .3.3.2l.8-.2v.4l-.1.3h.1l.1.2h-.4l-.2.5h.4v.3q.2 0 0 .2h.3l.1.1q0 .3.2.4z" clip-rule="evenodd"/><path fill="#fde36f" fill-rule="evenodd" d="M17.5 6.9q.4 0 .3-.4v-.1h.1v.3l.3-.1h.1l.1.2.1.2h.3l.3-.3.2.1q0 .2.2 0h.1q.3 0 0 .3v.1l.1.2.1.6h-.3l.1.2-.2.3q-.2.2-.4 0l-.2-.2q-.2 0-.3-.2T19 8l.2-.1q0-.2.3-.3h-.6q-.3-.2-.4 0H18l-.1-.3q.2-.3-.2-.2-.2 0-.3-.2" clip-rule="evenodd"/><path fill="#fddf61" fill-rule="evenodd" d="M22.4 9.2H22v-.6l.1-.3h.2v.2l.2.2zM21 7.4q-.3 0-.2-.3v-.3h.2l.1.3q.1.3-.1.3" clip-rule="evenodd"/><path fill="#fddd50" fill-rule="evenodd" d="M22.4 9.2v-.5h.2v.5z" clip-rule="evenodd"/><path fill="#fddf61" fill-rule="evenodd" d="M20.3 6.2q.1-.4.4-.3v.4z" clip-rule="evenodd"/><path fill="#fddd50" fill-rule="evenodd" d="m22.6 8.7-.3-.1v-.4l.3.1v.1l.2.1z" clip-rule="evenodd"/><path fill="#fddf61" fill-rule="evenodd" d="M20.7 6.3h.2l.1.3z" clip-rule="evenodd"/><path fill="#fddd50" fill-rule="evenodd" d="M22.5 9.4h-.1" clip-rule="evenodd"/><path fill="#fde268" fill-rule="evenodd" d="M19.6 6.8h-.1v-.1zm-.1.1q0 .2-.2 0h.3" clip-rule="evenodd"/><path fill="#fddf61" fill-rule="evenodd" d="M21 6.2h-.1" clip-rule="evenodd"/><path fill="#fddd50" fill-rule="evenodd" d="M20.4 4.5h-.1" clip-rule="evenodd"/><path fill="#fdd836" fill-rule="evenodd" d="m25.8 14-.2-.1q-.1-.2-.4-.3v.3h-.1l-.1-.1h-.1v.6q0-.3.2-.1l.1.3q-.4.5-.6-.1 0-.2 0 0l-.5-.8-.2-.3h.7l.1.3q.3-.5-.2-1-.4-.3 0-.7.4-.5.6 0l.4.3h.2v.2l.1.3v.2q-.2.3 0 .4v.1q-.2 0-.2.2z" clip-rule="evenodd"/><path fill="#fde268" fill-rule="evenodd" d="m21.8 13 .3-.3v-.4q.4-.2.2-.5v-.2l.3.2h.1v-.2h.2l.3-.2v.3h.4v.2h-.2v.1q.3.2 0 .3v.2q-.2.2-.4.1h-.6l.1.4-.4.2z" clip-rule="evenodd"/><path fill="#fddd4f" fill-rule="evenodd" d="m24.6 12-.2.3.1.3.3.2.2.5v.2l-.2.4-.2-.5-.2.1h-.2v-.6H24l-.2-.4h.2v-.2l.1-.3.3-.1z" clip-rule="evenodd"/><path fill="#fdde56" fill-rule="evenodd" d="M22.5 13q0-.2-.2-.3v-.4l.4.2.3.1v.1l.2.1h.1l.1.2.3.3q-.3.2-.6.1h-.6z" clip-rule="evenodd"/><path fill="#fd941c" fill-rule="evenodd" d="m24 13.4.2.3q-.3.2-.1.5l-.1.3q-.5 0-.6-.5-.2-.5.3-.6h.2" clip-rule="evenodd"/><path fill="#fde268" fill-rule="evenodd" d="M22.4 11.2H22V11h.1l.4-.2.1-.2h.4v.3h-.2l-.2.1q-.2 0-.3.2" clip-rule="evenodd"/><path fill="#fddd50" fill-rule="evenodd" d="M24.6 11h.1v.3h-.3v-.7l.1.2h.1zm.2.3.2.1h.1q-.2.4-.6.5l.1-.4z" clip-rule="evenodd"/><path fill="#fde268" fill-rule="evenodd" d="M22.4 11.6q0-.1-.2 0v-.2l.2-.2zm1.6.9q0 .3.2.3H24zm-.3.8q-.2 0-.3-.3h.2zm-.2-.6h.1v.2zm.5.3h.2v.1z" clip-rule="evenodd"/><path fill="#fddd4f" fill-rule="evenodd" d="M24 12.2V12" clip-rule="evenodd"/><path fill="#fddd50" fill-rule="evenodd" d="M23.7 11.5q-.2 0 0 0" clip-rule="evenodd"/><path fill="#fde268" fill-rule="evenodd" d="M23.7 12.9q-.2 0 0 0" clip-rule="evenodd"/><path fill="#fddd4f" fill-rule="evenodd" d="M24 12.5q-.2 0 0-.1" clip-rule="evenodd"/><path fill="#fddd50" fill-rule="evenodd" d="M22.6 7.9h-.2zm.8-.2" clip-rule="evenodd"/><path fill="#fdd93f" fill-rule="evenodd" d="m24.5 11.9.2-.1q0-.3.4-.3.2-.3.4-.2l.2-.1h.2v.3h.2l.4.3h.2l.1.2q-.3 0-.3.3l-.1.2q-.3-.2-.3-.4H26q-.4 0-.5.2h-.2q-.1-.3-.4-.4h-.1l-.2.2z" clip-rule="evenodd"/><path fill="#fdd11c" fill-rule="evenodd" d="M25.7 10.5v.2l-.2.1.1.2h-.1l-.2.1q-.1 0 0-.1v-.1H25v.1h-.2v-.2h-.2v-.5h.2q.2.2.4-.1.3 0 .2.2z" clip-rule="evenodd"/><path fill="#fdd93f" fill-rule="evenodd" d="M24.8 11.3v-.2zm-.2-.3v-.2q.2 0 0 .1" clip-rule="evenodd"/><path fill="#fdd52a" fill-rule="evenodd" d="M15 24h-.3v-1l.1-.2c.4.2.8 0 1.1.3l.1.2.1-.2h.3q.2.2 0 .3l.3.2-.2.3-.1-.1-.4-.3h-.1v.3h-.2q-.3 0-.3-.2h-.1z" clip-rule="evenodd"/><path fill="#fdd220" fill-rule="evenodd" d="M17 24.3q.1.2.6.3l-.4.2v-.1h-.3zm0 .7v-.1" clip-rule="evenodd"/><path fill="#fdd635" fill-rule="evenodd" d="M16 24.4h.2zm.4.1" clip-rule="evenodd"/><path fill="#fdd323" fill-rule="evenodd" d="m15.3 24.3-.1.1-.3.2v-.2q0-.2.4-.2z" clip-rule="evenodd"/><path fill="#fde36f" fill-rule="evenodd" d="M14.3 20.8v-.1l.1-.1v-.2l.1-.2-.3-.1.1-.2h.1q0-.3.2-.4.5-.2.6.2h.2q.3 0 .5-.2h-.5q-.4-.2 0-.5.4-.4.9-.1h.3q.3-.3.6 0h.3l.6-.3.3-.2q.1-.4.5-.3.2 0 .3-.2v-.7l.3-.6q-.1.3-.6.6l-.3.1q-.2 0-.2-.2 0-.4-.4-.5V16l.2-.3q.1-.1.2.1.2.5.7.2l.3-.3q.2-.2.5-.1t.5-.2l.4-.4.2.4.6.8.2.1h.1l.1.1h.1l.2.3.2.3v.5h-.4c-.2-.5-.7-.3-1-.3H21l-.6.7v.2q0 .2-.2.3t-.2-.2l-.3-.2v.5h-.4l-.1.2h-.5q-.2 0-.2.3v.1l-.2.5v.1q-.3 0-.1.3l.1.2.2.2h.3q.2-.2.3 0H19l-.3.2-.2.1v-.1l-.3-.2q-.2 0-.2.2h-.2q0-.2-.2 0l-.1.3-.3.2v.1l-.3.2h-.3V21q-.3 0-.2-.4.2-.2-.2-.2t-.7-.3l.1-.2c-.3.2-.6 0-.8.4l.3.2-.2.3q-.4.1-.6-.1" clip-rule="evenodd"/><path fill="#fde063" fill-rule="evenodd" d="M19.2 18.7v-.3h.2q0 .2.1.1.4 0 .1-.4V18l.1-.2q.4.2.4.5h.1l.2-.1-.2-.2.5-.3v-.1l.1-.3q.3-.3.4-.1h.2c.2-.3.4.1.5 0h.2v.3q.1.2.4.1v-.4h.2l.1.1q0 .3.2 0v.3h-.2v.2h.2l.3.2-.1.3h-.3l.2-.2h-1.7v-.3H21v.5q-.3 0-.2.1h-.1l-.4.2v.2l.1.3-.2.3q-.1-.2-.3-.1-.2 0-.3.2h-.2l-.1.2-.3.2v-.5l.1-.2h.2V19l-.1-.2" clip-rule="evenodd"/><path fill="#fddc4c" fill-rule="evenodd" d="M19.6 21q-.2 0-.3-.2l.2-.1h.5l.1-.3.3-.3V20q0-.5.3-.5l.2.2v.1h-.1q0 .2.3 0H21v-.1l.2-.3.1-.1V19l.5-.1q.3 0 .1.1l-.2.4-.1.1q0 .3-.3.4v.2h.2-.1q-.3.2-.4.5h-.1l-.1-.3v-.1h.1-.3q0 .3-.2.4v.1l.1.6c-.1.1.2.2 0 .3h-.2l-.3-.1-.3.1z" clip-rule="evenodd"/><path fill="#fd861a" fill-rule="evenodd" d="M24 14.5v-.4l-.1-.2v-.2h.3q.3.1.3.5v.2l.1.1v.4l-.1.3-.2.4q0 .3-.4.5l-.1.1h-.2q-.4.3-.4-.2-.1-.4.4-.6l.1-.2c.4-.1.2-.5.3-.7" clip-rule="evenodd"/><path fill="#fd8d33" fill-rule="evenodd" d="M21.7 16.3q-.7-.3-.8-1l-.1-.3q-.1-.6.1-1l.1-.1q.3 0 .2.3v.4q.1.7.8 1l.3.6v.3H22l-.2-.2" clip-rule="evenodd"/><path fill="#fd9023" fill-rule="evenodd" d="m22.4 16.5-.2-.3q0-.5.9-.6.3-.4.7-.3v.1l-.4.2q-.2 0 0 .2v.1l-.1.3h.3q0 .2-.2.2l-.5.2z" clip-rule="evenodd"/><path fill="#fde063" fill-rule="evenodd" d="M22.6 18.6h.4v.2l-.2.2h-.1q0-.1-.2 0zm-.1-1.6q-.2 0-.2-.3h.3z" clip-rule="evenodd"/><path fill="#fdd73b" fill-rule="evenodd" d="M22.4 20.3v.3l-.1-.3" clip-rule="evenodd"/><path fill="#fde063" fill-rule="evenodd" d="M23 18.4v.1zm-3 1.1v-.1h.1m3-2.3v.2z" clip-rule="evenodd"/><path fill="#fdd73b" fill-rule="evenodd" d="m22.7 20.2.2-.2q0 .2-.2.2" clip-rule="evenodd"/><path fill="#fdd632" fill-rule="evenodd" d="M23.5 18.5v.1z" clip-rule="evenodd"/><path fill="#fdd73b" fill-rule="evenodd" d="M22.5 20.2h-.1z" clip-rule="evenodd"/><path fill="#fde372" fill-rule="evenodd" d="M14.6 19.6h-.4q-.3-.2-.4 0t0 .2v.3h-.5l.1.2q-.4.3-.3.8H13v.2l-.3.1v.1h-.2v-.1q0-.3-.2-.5-.2 0 0-.3t.4-.5V20q-.1.3-.3 0H12q0-.2-.3-.2-.3-.2-.4-.6 0-.2-.3-.2-.3.1-.4-.2l-.2-.2-.1-.2.1.2q.2 0 .2.3h-.3q-.6-.4-1.3-.5V18l-.1-.4q0-.2-.4-.2l-.3-.6-.1-.2-.2.1h-.1v-.3l.1-.1q.3-.1.2-.4v-.3h-.3l-.4-.2-.2-.6-.1-.7-.4-.4-.9-.7-.1-.1q-.5-.2-.3-.6.3-.6 1-.4-.1-.3-.4-.4-.2-.3 0-.4.1-.3-.2-.4h-.3q-.3-.2-.2-.5t-.1-.6q-.2 0 0-.3s.1-.3.4-.1c-.3-.2-.5.2-.7 0v-.5l.4-.1q.3-.2.2 0H6v-.1h-.4v-.3h.1l.1-.1v-.3H6q.1.3.5.3l.1-.1q-.3-.4 0-.6t.6-.1.6.2q0 .3.3.1v-.5l.4-.5H9q.2.2.2 0v-.2H9l.2-.3.6-.2h.2q.4.1.3-.2v-.1l.7-.5h.2l.1.4.2.2q.3 0 .4.4-.1.4-.5.2t-.7-.4q.4.1.3.5l.1.2q.4.1.2.5 0 .4-.5.3l-.1-.3q0-.3-.4-.2l.4.2v.4q.3 0 .2.3h-.3l-.3-.1q-.2 0-.2-.2l-.2-.8q-.4.1-.3.5-.1.8-.8.7-.3 0-.5.3l-.3.9-.1.1q-.6.6-.2 1.4.2.6-.3.8H7v-.6c0 .3-.2.5.2.7v.1q0 .7.7.7.2 0 .2.2l-.1.1-.6.3v.5l.2.2q.6.4 1.3.4h.4v.2q-.5.3-.3.7 0 .4-.3.5t-.2.3.3.1c.6 0 .6 0 .8.4q0-.2.3-.5v.4l.3.9q.1.3.5.5l.5.3 1.6.4H14q.2.3 0 .3-.7.1-1.3.5-.4 0 0 .3l.3.5q-.3-.5.2-.4.3 0 .4-.2.2-.4.6-.1.5 0 .4.5" clip-rule="evenodd"/><path fill="#fdda48" fill-rule="evenodd" d="M16 23.1h-.3q-.2-.2-.5 0H15v-.2h-.3v.1l.1.2h.1l-.2.1v.2l.2.3-.2.2q-.4 0-.2-.3l-.2-.2H14q-.3 0-.3-.3l.2-.2q-.2 0-.2-.2c.1-.4-.3-.6-.3-1l.3-.2.2.1v.3h.3v-.1q-.2 0-.1-.1v-.3h.9l.3.2.3.7q0 .2.2 0l.2-.1v.1q-.3.3-.1.5z" clip-rule="evenodd"/><path fill="#fde067" fill-rule="evenodd" d="M13.1 21q-.3-.4.2-.6l-.1-.3v-.2l.2.1q0 .2.2.2l.1-.1v-.2l-.2-.1.1-.1.2-.2q.2-.2.4 0v.1h.4l-.2.4-.2.2.1.3-.2.4q-.2 0-.2-.3-.2 0-.3.3l-.1.2zm1.9-.5q-.2-.2-.4 0l.2-.5h.4l.3-.1h.2v.1l-.2.1q-.2 0-.3.2v.1l.2.2v.2h-.1v-.1q-.1 0 0 .1v.3h-.6q0-.2-.3-.3v-.1l.3.1h.2z" clip-rule="evenodd"/><path fill="#fde067" fill-rule="evenodd" d="m15.5 20.2.5.2h.2q.4 0 .4.4h-.2q0 .2.2.3l-.2.1h-.2q.2-.1 0-.2h-.1v-.2l.1-.1v-.1h-.6l.1-.1q-.2 0-.2-.3m-3 1.3h.5v.2l.3.1h.2q0 .4-.4.3c-.6-.2-.6 0-.6-.6" clip-rule="evenodd"/><path fill="#fddc4d" fill-rule="evenodd" d="M17.3 21.6v.4l-.4-.2z" clip-rule="evenodd"/><path fill="#fde063" fill-rule="evenodd" d="M19 18.7v-.3q.3 0 .2.3z" clip-rule="evenodd"/><path fill="#fde067" fill-rule="evenodd" d="M12.9 21.3h.2q0 .2-.2 0" clip-rule="evenodd"/><path fill="#fddc4d" fill-rule="evenodd" d="M17.5 21.5h-.2zm0 .5v-.3z" clip-rule="evenodd"/><path fill="#fde067" fill-rule="evenodd" d="m13 21.2.1-.1zm.4 0" clip-rule="evenodd"/><path fill="#fddc4d" fill-rule="evenodd" d="M17 21.6h-.1" clip-rule="evenodd"/><path fill="#fde067" fill-rule="evenodd" d="M14.4 20.4v.1m2.2.5v.2zm0 .2" clip-rule="evenodd"/><path fill="#fddc4d" fill-rule="evenodd" d="M17.5 21.7h-.1m-.5.1" clip-rule="evenodd"/><path fill="#fdda48" fill-rule="evenodd" d="M16 23.3h-.2l.1-.1z" clip-rule="evenodd"/><path fill="#fddd52" fill-rule="evenodd" d="M22.4 21.1q0 .3-.3.4v-.2l-.2-.2z" clip-rule="evenodd"/><path fill="#fdd93b" fill-rule="evenodd" d="M22.6 21.7v.1z" clip-rule="evenodd"/><path fill="#fddd52" fill-rule="evenodd" d="M22.4 20.8v-.1" clip-rule="evenodd"/><path fill="#fdd634" fill-rule="evenodd" d="m1.7 12.5-.3.1q-.3 0-.1.3v.1H1v-.3h.1c.1 0 .2-.3.3-.1zm.2.2-.2-.2.1-.2q0-.1.2 0h.1q.2.1.1.2l-.1.1z" clip-rule="evenodd"/><path fill="#fde268" fill-rule="evenodd" d="M5 9.2h.4l.2-.1.2.3-.3-.1-.1.2q-.2.3 0 .2h.1v.5q.1.1 0 .2-.1 0 0 .1l.2.1q.2 0 .5.3.1 0 0 .2l-.1.2v.1h.1v.1l.2.2q.3.1.2.4v.1h-.2q-.1-.3-.4-.1h-.2v.3h-.1l-.2.1q0 .2.2.3t.2.3H4.5l-.2.2v-.4l.4-.2.2-.2v-.2l-.5-.2L4 12v-.3l-.4-.4h-.2V11H4q0-.3.2-.1l.1.1h.1l-.1-.3H4l-.9-.1v-.1h.6q.2 0 .1-.2 0-.2.2-.2t.1-.2v-.3L4 9.5v-.3h.1v.1l.1-.2v-.2h.3q.1.2.3 0H5V9z" clip-rule="evenodd"/><path fill="#fdd73b" fill-rule="evenodd" d="M3.4 12.5h-.1q-.2 0 0-.2-.1-.2 0-.2h.3l.4.1.2.2v.4L4 13h-.2v-.6l-.1.3h-.1q0-.2-.3-.2" clip-rule="evenodd"/><path fill="#fdda45" fill-rule="evenodd" d="M2.2 12.5v-.2h.1l.2.2zm-.2.1h.2z" clip-rule="evenodd"/><path fill="#fdd634" fill-rule="evenodd" d="M1.9 12.9v-.2zm.4.4" clip-rule="evenodd"/><path fill="#fdde5b" fill-rule="evenodd" d="m12.4 3.3.2-.1h.1v.1h-.1v.3h.3v.1q0 .3.2.2l-.2.2h.1v.1h.1v.2h.2v.2h-.2v.2h.3q.1.3.4.4l-.1.1h-.3l-.3-.1q-.2-.2-.5 0-.3.1-.6-.2v-.2h.1l.1-.2v.1H12l-.3-.2v-.1q.1-.3-.2-.4l-.1-.1h-.1q-.2.2-.5.2h-.1q0 .3-.2.3t-.1.2-.2.1H10V5v-.3q-.3-.2 0-.2v-.1q-.2-.2 0-.3h-.1v-.4h.2q.1-.2.2 0l.1.1q.3 0 .4-.3v-.1h.2v.1q0 .3.2.2h.2q.2.1.4 0 0-.2.2-.1l.2.3h.1v-.3h-.1.1z" clip-rule="evenodd"/><path fill="#fde36e" fill-rule="evenodd" d="M10.3 5.7q.2.2 0 .2l-.1.2q0-.2-.3-.2 0 .3-.2.2l-.2.1q-.1.2-.2 0l-.1-.1.1-.2v-.2H9q0-.3.2-.5l.3-.3h.2q.4 0 .4.5v.3" clip-rule="evenodd"/><path fill="#fddc4e" fill-rule="evenodd" d="M9.8 4v.2h-.2v.1q-.1-.1-.2 0l-.5.2q-.2.1-.4 0V4H8l.4-.2q.3 0 .5-.3h.3v.1h.3q0 .2.2.3" clip-rule="evenodd"/><path fill="#fde36d" fill-rule="evenodd" d="M6.2 6.2h-.3v-.1q.2-.1 0-.3l.1-.1.1-.2h.2v-.1l.2-.1.5.2v.3l.1.2h-.4q0 .1-.2 0z" clip-rule="evenodd"/><path fill="#fddc4e" fill-rule="evenodd" d="M11.7 4.5q.2 0 .3.2t-.4.4h-.4L11 5v-.2q-.2 0 0-.1v-.1l-.2-.3v-.1q.5 0 .8.3" clip-rule="evenodd"/><path fill="#fde36e" fill-rule="evenodd" d="M11.7 4.5h-.2q0-.3-.1-.1H11l-.2-.1-.3.2-.1-.1.1-.4h.5c0-.2.2 0 .2-.2q.3 0 .1.2c.1.1.5 0 .3.4m-.6.7q0 .4-.6.5v-.2q0-.4.2-.4h.2zm-2-.3h.3V5l-.1.1h-.3z" clip-rule="evenodd"/><path fill="#fde36e" fill-rule="evenodd" d="M11.2 5q.2-.1.2 0h.2q0 .5-.3.5v-.2q-.3 0-.1-.2" clip-rule="evenodd"/><path fill="#fddf60" fill-rule="evenodd" d="M7 4q0-.2.2 0v.2z" clip-rule="evenodd"/><path fill="#fdde5b" fill-rule="evenodd" d="M9.8 4q-.2 0-.2-.3z" clip-rule="evenodd"/><path fill="#fddf60" fill-rule="evenodd" d="M7.3 4v-.2q0-.2.2 0zm.5 1.7V6zm.3 0" clip-rule="evenodd"/><path fill="#fde36e" fill-rule="evenodd" d="m9 6.3.2.1z" clip-rule="evenodd"/><path fill="#fddf60" fill-rule="evenodd" d="M6.5 6h.2l-.2.2z" clip-rule="evenodd"/><path fill="#fde36e" fill-rule="evenodd" d="M10.8 4.6q-.1 0 0 0M9.2 6l-.1.2z" clip-rule="evenodd"/><path fill="#fde067" fill-rule="evenodd" d="M4.4 7.7q.3-.1.4.4v.2h-.2l-.2-.4z" clip-rule="evenodd"/><path fill="#fde268" fill-rule="evenodd" d="m3.7 8.8.3.4h-.2z" clip-rule="evenodd"/><path fill="#fddd4f" fill-rule="evenodd" d="m3 10.8.2.3-.1-.3m.1.5" clip-rule="evenodd"/><path fill="#fde067" fill-rule="evenodd" d="M4.4 7.5v.2zm1.1-3.3" clip-rule="evenodd"/><path fill="#fddc4c" fill-rule="evenodd" d="M23.4 21v.1m-.9-.1h.1m.4.2" clip-rule="evenodd"/><path fill="#fddf60" fill-rule="evenodd" d="m7.4 3.4-.2.3H7v-.3zm-.6.6" clip-rule="evenodd"/><path fill="#fdd93d" fill-rule="evenodd" d="M10.9 3.3h-.2q0-.3.1-.1" clip-rule="evenodd"/><path fill="#fdd62f" fill-rule="evenodd" d="M11.9 2.4h.2V2l-.3-.1-.2-.3v-.1h.2l.3.1h.4q-.2 0-.2.2v.5q.2 0 .3.2v.1h.3l.1-.2q0 .4-.2.5h-.4q-.2.3-.5.1v-.7m.1-1.1v.2z" clip-rule="evenodd"/><path fill="#fdd942" fill-rule="evenodd" d="M7 20.8v-.2l-.2-.2-.3.2h-.2l.2-.6.1-.2h.1v.4l.1-.1h.1l.2.1h.2l.2.4.1.2H9q.2.1 0 .4v.5l-.3-.1-.2-.4v.8l.4.2h.5l.1.5v.2l-.1.1H9q-.3.2-.4 0h-.4q-.3 0-.2-.3v-.1l-.1.4-.4.1v-.4q0 .3-.3.3v.3h-.3l-.2.1v-.2l.1-.1v-.3.3h-.3v-.3q.2-.1 0-.4v-.1h.2q.1.2.2 0h.3v-.1L7 22l-.2-.6q0-.2.2-.3t0-.2z" clip-rule="evenodd"/><path fill="#fcd21f" fill-rule="evenodd" d="m7.2 23 .2-.2.1-.2h.1v.5l-.2.1-.1.2H7v-.1z" clip-rule="evenodd"/><path fill="#fdd942" fill-rule="evenodd" d="M9.4 22.9v-.1c.2-.1.2.2.3 0v.4h-.1v.3h-.4l.2-.1z" clip-rule="evenodd"/><path fill="#fdd942" fill-rule="evenodd" d="M9.3 23.3h-.2v-.1z" clip-rule="evenodd"/><path fill="#fdd62f" fill-rule="evenodd" d="M13.1 1.9v-.2z" clip-rule="evenodd"/><path fill="#fdda4b" fill-rule="evenodd" d="M24.6 14.5v-.2l.2.3q0 .3.1.1h.3l-.3.3v.5q-.4 0-.4-.3z" clip-rule="evenodd"/><path fill="#fcd11b" fill-rule="evenodd" d="m25 15.4.1-.1v.2zm1.4.6v.1" clip-rule="evenodd"/><path fill="#fddd54" fill-rule="evenodd" d="M27.4 13.7h-.1" clip-rule="evenodd"/><path fill="#fde26d" fill-rule="evenodd" d="m8.6 17.5.3-.2.1.3.1.2v.3h.2c.2.2.5 0 .6.3l.5.4h.2v-.3l.3.1v.3l.3-.1h.2v.5l.2.1h.2q0 .2.3.2v.3q-.2.1 0 .5.2.2-.2.3-.3.3-.3-.1-.2 0-.2-.2l-.1-.1-.1-.1h-.3q-.4 0-.4-.4 0 .4-.3.4-.4 0-.5-.3v-.3h.5l-.2-.1-.5-.2-.3-.1v.2H9l.1.2q-.1.2-.4.2l-.1-.2h-.2v-.1h.3l.1-.2h-.2l.2-.1v-.4l.4.1v-.3l-.1-.2-.5-.5z" clip-rule="evenodd"/><path fill="#fddf5e" fill-rule="evenodd" d="M9.7 19.9h.2q0 .3.2.2h.3v-.2l.1-.2h.2v.1q-.1 0 0 .2h.2l.4.1q-.1 0 0 .2l.1.1H11q0 .2-.3 0l.1-.1h-.5v.4h.6l-.2.2.1.1.2.3q.2 0 .3.2H11v.2l.6.1v.4l.1.1.2.1.2.1.3.4h-1.1v-.3H11q-.3 0-.4-.2h-.1v.2h-.1l-.2-.1h-.1l-.2-.2q.3-.1.1-.4l.1-.2h.2q-.1-.2-.5-.2l-.4-1v-.2zm2.9 1.6.1.3v.1h.3q.5.2.6 0h.2v.3l.2.2q.2 0 0 .2l.1.4-.2.2.3.3-.1.2H14q0-.3-.2-.1h-.2q0-.2-.2 0h-.2v-.2h.3v-.1h-.2l.1-.2h.3l-.2-.1v-.6h-.2l-.2-.2h-.5V22l-.1-.1q-.2-.1-.3-.4v-.2q.2-.1.3.1z" clip-rule="evenodd"/><path fill="#fde067" fill-rule="evenodd" d="m12.4 21.4-.2-.1v.4l.2.2-.1.2H12V22l-.1-.2q0-.2-.2-.2t-.1-.3h.1q.2 0 .3-.2V21h-.3l-.3-.2v-.2q.3 0 .2.2h.1q0-.2.2-.2l.1-.2h-.2v-.1l-.1-.1V20q.2 0 .1-.2h.2l.2.1v.2h.3q.2 0 0 .1l-.3.3-.2.2h.2q.3 0 .3.4z" clip-rule="evenodd"/><path fill="#fdd630" fill-rule="evenodd" d="m11.7 24.4-.1-.3-.1-.2-.2-.2v-.5l.2.3h.3v-.2h.4l.2.5q0 .4-.3.3H12z" clip-rule="evenodd"/><path fill="#fdd835" fill-rule="evenodd" d="m14 24.6-.1-.2h-.1v.2h-.2q0-.2-.1-.1v-.1l-.1-.2V24h.1q.1-.1.3.1h.1l.2.1v.4q0 .1-.2 0" clip-rule="evenodd"/><path fill="#fde26d" fill-rule="evenodd" d="M10.3 20.7v.1h-.2v-.4h.1z" clip-rule="evenodd"/><path fill="#fdd630" fill-rule="evenodd" d="M11.9 23h.2l.1.2q-.4 0-.3-.3" clip-rule="evenodd"/><path fill="#fdd323" fill-rule="evenodd" d="M14 24.6h.2v.2z" clip-rule="evenodd"/><path fill="#fdda48" fill-rule="evenodd" d="M14.2 24.6H14V24v.5" clip-rule="evenodd"/><path fill="#fdd835" fill-rule="evenodd" d="M14 23.7v.2q-.2 0 0-.2m-.6.3v-.1" clip-rule="evenodd"/><path fill="#fddd50" fill-rule="evenodd" d="M9.7 19.9v.3l-.1.2-.1-.1.2.5q.2.3.2.7l-.1.3q-.3 0-.4-.2l-.1-.1v.3h-.1l.2.4-.2.1h-.5l-.3-.3q.2-.1 0-.4v-.4q0-.2.2-.1l.2.5H9v-.2q-.2-.2 0-.4v-.2h-.5q0 .3-.2.2t-.6-.2q.1-.3.5-.3h.1l.5.1h.1l-.1-.1-.1-.1v-.1l.4.1h.1v-.5l.2-.3q0 .2.3.3m0 3-.2-.1v-.2h-.2v-.1l.1-.1v-.2l.2.2h.2l-.1.2z" clip-rule="evenodd"/><path fill="#fddc49" fill-rule="evenodd" d="M12.4 24.7v.2z" clip-rule="evenodd"/><path fill="#fdd836" fill-rule="evenodd" d="M25.8 14.4h-.1" clip-rule="evenodd"/><path fill="#fd9f40" fill-rule="evenodd" d="M7.2 14.1q.3.4.2.8v.7q0 .7-.8.8h-.8q-.2 0-.2-.2l.2-.2H6q.3-.1.2-.4h-.1q-.3-.2-.1-.5l-.1-.5.2-.2.4-.1v-.2q0-.2.2-.2t.2.3l.1.5z" clip-rule="evenodd"/><path fill="#fddc5b" fill-rule="evenodd" d="m6.6 16.4.5-.3q.3-.3.3-.7V15v1q.2 0 .2.2l.1.2v.2l-.1.2z" clip-rule="evenodd"/><path fill="#fde372" fill-rule="evenodd" d="m8.6 17.6.2.1q0 .2-.2.2h-.1q-.1 0 0-.1z" clip-rule="evenodd"/><path fill="#fddf5e" fill-rule="evenodd" d="M8.2 18.1H8v-.4h.1z" clip-rule="evenodd"/><path fill="#fde372" fill-rule="evenodd" d="M8 17.3V17q.2 0 0 0z" clip-rule="evenodd"/><path fill="#fddd4f" fill-rule="evenodd" d="M6.5 19h-.2z" clip-rule="evenodd"/><path fill="#fddd50" fill-rule="evenodd" d="M7.6 20.8v-.2zm0-.2" clip-rule="evenodd"/><path fill="#fd992d" fill-rule="evenodd" d="m5.6 16.2.2.3h-.5zm.3.3v-.1h.3-.3" clip-rule="evenodd"/><path fill="#fead46" fill-rule="evenodd" d="M6.6 14.1v.3h-.3l-.1.1H6v.1l.2.1v.2q-.3 0-.1.1v.7H6q0-.2-.2-.2v-.2h-.4l.4-.2-.2-.1h-.4q-.2-.1-.2 0l-.2.1h-.2l.1-.1.1-.1v-.1q-.2 0-.2-.2v-.2l.2-.1.2-.4h1l.2.1zm-.9 1.4" clip-rule="evenodd"/><path fill="#fd992d" fill-rule="evenodd" d="m5.8 16-.1.2z" clip-rule="evenodd"/><path fill="#fd9837" fill-rule="evenodd" d="M6.1 14q0-.2.2-.2H6l-.1-.1-.3-.1h-.2q0 .2-.1 0H5l.1-.2h.1q.3 0 0-.2l.3-.1h.2v.1q.6 0 1.2.5.3.2.3.4v.6l-.3-.4V14h-.2l-.1.1z" clip-rule="evenodd"/><path fill="#fddd4f" fill-rule="evenodd" d="M4.3 13.3q0-.3.2-.1zm.3-.1q0-.2.1 0z" clip-rule="evenodd"/><path fill="#fddf5f" fill-rule="evenodd" d="m6.3 20.5.2.1h.2v.1q.1.3-.1.5v.1l-.4.1h-.3l-.1-.3v-.6z" clip-rule="evenodd"/><path fill="#fdd836" fill-rule="evenodd" d="M5.7 20q.1-.4-.4-.3 0-.4.4-.3l.4.1.1.4-.1.3H6q0-.3-.3-.1" clip-rule="evenodd"/><path fill="#fddd4f" fill-rule="evenodd" d="M4.5 19v.1h-.1m-.2.9" clip-rule="evenodd"/><path fill="#fde36e" fill-rule="evenodd" d="m13.1 5.1.3.2.1.2q.2 0 .2-.2v-.1h.1q.3-.2.5 0h.1l.3-.1.4-.1.4.1v.1l.2.3v.7h.2l.4.2h.1q0 .3.3.4l.4.2.3-.1h.1l.3.2q0 .3-.2.2v-.1h-.1l-.1.1q-.2.4-.5.4l-.4-.5q0-.2-.3-.2l-.8-.2q-.2 0-.4.3-.6.3-1 0h-.2q-.4-.3-1-.3-.2 0-.2-.3.2-.3 0-.5-.4-.2-.6.1-.2-.3-.6-.4H11v-.2h.2l.3-.1q0-.5.5-.5l.2.2.3.1z" clip-rule="evenodd"/><path fill="#fde36e" fill-rule="evenodd" d="M16.2 5.7 16 6h-.2v-.1l.1-.1z" clip-rule="evenodd"/><path fill="#fde062" fill-rule="evenodd" d="M16.3 6.4q-.3 0-.4-.2.3 0 .4.2" clip-rule="evenodd"/><path fill="#fdde59" fill-rule="evenodd" d="M13.4 4.6V4h.1q.1-.2.3-.1h.2l-.2.1q.2.3 0 .6zm.4.5-.3-.1q-.1 0 0-.2zm-.9-1.4h-.2l-.2-.1q.3-.1.4 0m.3.9q-.2 0 0-.1m-.8-1v.1m-.1.4V4m.8.8" clip-rule="evenodd"/><path fill="#fdd529" fill-rule="evenodd" d="M15.4 2.4h-.3q0-.1 0 0z" clip-rule="evenodd"/><path fill="#fee478" fill-rule="evenodd" d="m13.8 7 .2-.1h.1v.2q.2.1.2 0h.5l.1-.2h.3l.1-.2h.3l.5.1.3.1V7h.2v.3l.2.3q.4 0 .4-.2l.1-.2h.4v-.1L18 7h.2v.5q.1.2.2 0v-.1h.4l.3.1h.6q0 .3-.3.2t-.1.2q0 .2-.2.2h-.4l.4.2q0 .3.2.2h.1q0-.2.3-.3l.1.1v.5l.1.3v.3h.2l.3-.2V9H20v-.2l.2-.2h.3l-.1.2V9q.3 0 .5.2v.2l-.3.3.3.3v.1l-.1.2v.2l.3.1v.3H21q0-.2-.3-.2h-.3v.3q0 .3-.2.2h-.4v.9h.5l.2.1h.1l.2-.3q.4-.2.9-.2l-.4.4v.1q.1.3.5.2l-.1.5v.1q.2 0 .3.2l-.4.3h-.1l-.4.1q-.4 0-.3.4 0 .5-.4.5-.2 0-.2.3h.3c.3 0 0 .3.2.3q0 .3-.3.4l-.2.3h-.6q0-.2-.1 0l-.3.2q0 .4-.5.3 0 .2-.2 0h-.2l-.1-.2-.1-.3h-.3l-.5-.2q0-.2.3-.2t.2-.3q-.1-.8.5-1.1-.3 0-.5-.2h1q.6.1 1-.2l.3-.3q.3-.2 0-.5h-.4l-.6.4q-.7.1-1-.4l-.2-.6q-.6-.4 0-1 .6-.2 0-.5-.7-.4-.4-1.3.1-.1 0-.4l-.4.1q-.2.2-.4 0-1-.5-.8-1.5 0-.2-.2-.3l-.3.1q-.5.5-1.2.5-.5.1-.5-.4z" clip-rule="evenodd"/><path fill="#fde268" fill-rule="evenodd" d="M22.3 8.5q0 .1 0 0" clip-rule="evenodd"/><path fill="#fde36f" fill-rule="evenodd" d="m21.7 13.3.4-.1.1-.2h.3l.1.1-.1.2q-.4.2-.8 0" clip-rule="evenodd"/><path fill="#fde36f" fill-rule="evenodd" d="m22 13.1-.2-.2q.2 0 .3.2" clip-rule="evenodd"/><path fill="#fda12e" fill-rule="evenodd" d="m23.8 15.3-.6.2v.1q0 .2-.2.1h-.3l-.2.2q0 .3-.2.2v.1q-.4-.2-.4-.6h.1l.2.1q.3-.1.3-.4l.2-.1q.4 0 .2-.3v-1.1l.2-.5.7.1q-.4 0-.4.4v.3h.2l.1.1.1.3h.2v.3q.2.3-.2.5" clip-rule="evenodd"/><path fill="#fd9939" fill-rule="evenodd" d="m23.1 13.3-.1.5-.7.5h-.4q-.4 0-.7.3-.2 0-.1-.2V14q0-.6.5-.7z" clip-rule="evenodd"/><path fill="#fee478" fill-rule="evenodd" d="m14.6 19.6-.1-.3-.2-.1-.5-.1-.1.2q-.3.3-.6.1-.2 0-.1.2v.4l-.2-.2-.1-.4q-.3 0-.4-.2l.2-.2.1-.1q.5 0 .6-.4h.2l.7-.1.6-.2q1-.2 1.9-.6l1-.8q.3-.3.4-.2h.3q.2 0 .2.2v.5h.2q.3 0 .2-.3h.1l.3-.3.1-.2.3.1-.1.3q-.3.1-.3.6v.4l-.1.2h-.4v.1q-.4 0-.3.3 0 .2-.2.2H18l-.4.3h-.1q-.2.3-.4 0l-.2-.2q-.5.4-.9 0h-.2q-.2 0-.2.2t-.2.1l-.1.1v.2h.3q0 .2.1 0l.4.1-.6.2-.1.2H15v-.4z" clip-rule="evenodd"/><path fill="#68552e" fill-rule="evenodd" d="m18 16.6-.4.3q-.4.5-1 .7h-.7v-.2l1.3-.7.7-.4q0-.2.3-.3z" clip-rule="evenodd"/><path fill="#28190d" fill-rule="evenodd" d="m17.7 16.5-.2-.5q0-.4.5-.4h.2v.4l-.3.3z" clip-rule="evenodd"/><path fill="#fee478" fill-rule="evenodd" d="M14.4 20.4h-.2V20l.3.1z" clip-rule="evenodd"/><path fill="#fddf5e" fill-rule="evenodd" d="m17.4 20.7.1-.5h.1q0 .3-.2.4" clip-rule="evenodd"/><path fill="#fee478" fill-rule="evenodd" d="M15 20.6v.1l-.1.1h-.1v-.1zm1.1-.8h-.2z" clip-rule="evenodd"/><path fill="#fddd52" fill-rule="evenodd" d="m21.7 16.3.2.1z" clip-rule="evenodd"/><path fill="#fde067" fill-rule="evenodd" d="M14.5 19.9q-.2 0 0 0m.1.3" clip-rule="evenodd"/><path fill="#fde36f" fill-rule="evenodd" d="M20.6 18h-.2v-.1zm-.7.1" clip-rule="evenodd"/><path fill="#fddd52" fill-rule="evenodd" d="M21.3 19.6q0 .2-.2.2l-.3.2-.2-.3h.5z" clip-rule="evenodd"/><path fill="#fddf5e" fill-rule="evenodd" d="m20 21-.1.1m-.2-.3h.1" clip-rule="evenodd"/><path fill="#fddd52" fill-rule="evenodd" d="M20.9 19.6h-.1" clip-rule="evenodd"/><path fill="#fdd836" fill-rule="evenodd" d="m24.6 14.5-.1.4z" clip-rule="evenodd"/><path fill="#fda945" fill-rule="evenodd" d="m21.2 14.6.1-.2.2-.2h.4q0-.2.1-.1 0 .3.2.2l.2-.1q.2-.4.5-.3l.1.2v.8q0 .3-.2.5v-.1h-.2q0 .3-.2.4h-.2l-.1-.1h-.2l-.6-.4v-.3H21v-.3" clip-rule="evenodd"/><path fill="#fde36f" fill-rule="evenodd" d="M21.6 13.3q-.3.2-.5.6l-.3 1.1-.1-.2h-.1q0 .2-.2 0h-.2v-.4h.3q.2 0 .3-.2v-.6l.3-.2z" clip-rule="evenodd"/><path fill="#fee57c" fill-rule="evenodd" d="m18 13.7.1.1h.4l-.5.7v.4q.2.5-.2.5h-.3l-.1.1q-.3.3-.8.3H10l-.2.6-.2-.2-.2-.2q0-.3-.2-.1h-.3q-.3.2-.4-.2v-.3l.1-.1q.6 0 .4-.4v-.4l.1-.2.2-.2h.1l.8-.7.3-.6h-.6q-.2.3-.6.5-.7.2-1-.5v-.3l-.8-.2h-.1l-.1-.2v-.5l-.2-.1q-.2 0-.1-.1v-.6q-.1 0 0 0h.3v.2q-.3.1-.1.3h.4l.2-.3-.1-.4-.2-.4v-.4q.2-.3 0-.4l.1-.2Q8 9.2 8 9q0-.4.3-.6V8l.5-.1q0-.1.1 0L9 8q.3-.1.3-.4l.1-.2q.3 0 0-.2v-.1l.1-.2.2-.3h.3q0 .5.3.6v.1l-.2.2h.2q.2 0 .3.2h.2v-.1l-.2-.1.2-.1q.2 0 .3-.2l.2-.2v-.2l-.5-.3.1-.3-.3-.4q.4 0 .6.3l.4.2h.1L12 6l.2-.1q.2-.4.5-.1.2 0 .2.2v.2q-.2.2 0 .5l.4-.1h.1q0 .2.3.1l.2.2h.1q.1.3 0 .4v.2q0 .2.2.1h.6q0-.2.2-.1l.2-.1q.2-.1.3-.4h.3l.4.2V8q0 .3.2.4l.3.3.3.3h.2q.2-.4.6-.2.3 0 0 .3l-.1.6v.1l.1.5.2.1.4.2.2.2v.1l-.3.2-.1.1q-.2.1-.3.4t.3.5q.3.2.1.4v.1h-.4q-.4 0-.3.3 0 .3.2.5z" clip-rule="evenodd"/><path fill="#4b391e" fill-rule="evenodd" d="m17.3 16.7-.3.3-.6.3-.4.2q-.7.5-1.4.5h-.4q-.3-.1-.4.2H13q-.2.2-.4 0l-1.5-.3q0-.2.2-.2l.8.1q-.4.1-.8-.2 0-.3.2-.4.5-.2 1 .2h.4q.5-.2 1 0 .6.4 1-.1 0-.3.4-.4t1-.5l.1-.2q.3-.3.7-.3t.3.5z" clip-rule="evenodd"/><path fill="#574426" fill-rule="evenodd" d="M15.4 17h-.2l-.1.2-.1.2-.3.2-.3.1h-.2q-.4-.3-1-.3-.4.2-.7.1v-.1l-.3-.2-.5.1h-.1l-.1.1v.1q-.4.1-.5-.1c-.2-.1-.2.3-.4.1q-.3 0-.5-.4 0-.2.2-.3t.3-.3l.3-.3q.1.2.4.3.6.5 1.3.5t1.6 0h.8q.3-.2.4 0" clip-rule="evenodd"/><path fill="#302112" fill-rule="evenodd" d="m9.8 12.8.2-.1.2.5v.2l-.9.7h-.6q-.7 0-1-.4l-.2-.1v-.1q0-.3.2-.4.3.8.8.8h.2q0-.2-.2-.2-.7-.2-.6-.8v-.2h.2v.1q0 .5.5.5l.9-.1z" clip-rule="evenodd"/><path fill="#594525" fill-rule="evenodd" d="m12.7 18.3.4-.1V18l.1-.2.2.1q0 .2.3.2h.1V18h-.2q.5-.2 1-.1h.5l.3-.1.5-.3h.6l.2.1-1.5.6-1.1.2h-1z" clip-rule="evenodd"/><path fill="#67522b" fill-rule="evenodd" d="M10.6 17.5v-.2q0-.2.1-.1l.3.2.3.1.5.2.7.2v.1h-.4l-1-.2z" clip-rule="evenodd"/><path fill="#574426" fill-rule="evenodd" d="M10 15.8h.9l.3.1-.2.1h-.4v.1h-.1l-.4 1-.2-.5v-.4z" clip-rule="evenodd"/><path fill="#755a2c" fill-rule="evenodd" d="m7.7 13.1-.2.2v.1h-.1v-.2h-.1v-.4q.3-.4.7-.4v.3l-.1.1q0 .2-.2.2" clip-rule="evenodd"/><path fill="#fdb249" fill-rule="evenodd" d="m7 13.7-.5-.2h-.3q-.2-.3-.5-.2h-.1v-.1l.2-.1h.1l.4.1z" clip-rule="evenodd"/><path fill="#fde36e" fill-rule="evenodd" d="M10.2 7v-.3h.2l.3.1.1.1-.1.2z" clip-rule="evenodd"/><path fill="#fde26d" fill-rule="evenodd" d="m10.5 18.5-.3-.1v-.1l.3-.2zm2.1 1.6-.3.2-.2-.1V20h.2l.2-.1z" clip-rule="evenodd"/><path fill="#fde067" fill-rule="evenodd" d="M12.6 20v-.2z" clip-rule="evenodd"/><path fill="#553d1f" fill-rule="evenodd" d="M8 12.8v-.3z" clip-rule="evenodd"/><path fill="#fde36e" fill-rule="evenodd" d="M10.8 7.4q-.3 0-.1-.3z" clip-rule="evenodd"/><path fill="#755a2c" fill-rule="evenodd" d="M8.1 12.8v-.3z" clip-rule="evenodd"/><path fill="#fddf5e" fill-rule="evenodd" d="M14 23v-.3h.1l.1.2v.1zm.8-2" clip-rule="evenodd"/><path fill="#fddf60" fill-rule="evenodd" d="M4.3 9.4 4 9.3z" clip-rule="evenodd"/><path fill="#fdde59" fill-rule="evenodd" d="m12 4.9-.3.2v.2h-.3l.1-.2.2-.3.4-.3h.1zm1.7.4.1.3h-.5v-.2l.1-.1zm-.6-.2-.2.1h-.3V5z" clip-rule="evenodd"/><path fill="#fddc4e" fill-rule="evenodd" d="m11.7 4.4-.2-.3V4h.3l.1.3zm.6-.3q0 .1-.1 0zm-.3.4v.1z" clip-rule="evenodd"/><path fill="#fdde59" fill-rule="evenodd" d="M12 4.7q.2-.1.2 0z" clip-rule="evenodd"/><path fill="#fddc4e" fill-rule="evenodd" d="M12.3 4.6h-.2zm0-.6" clip-rule="evenodd"/><path fill="#fdd630" fill-rule="evenodd" d="M6.8 23.1v-.2l.1-.2h.2v.2zm.4-.1v.3H7v-.1q0-.2.2-.3m-.5.3.1-.1z" clip-rule="evenodd"/><path fill="#fddc49" fill-rule="evenodd" d="m11.3 20.3-.2-.1h.2" clip-rule="evenodd"/><path fill="#fddf5e" fill-rule="evenodd" d="M8.7 19.6q-.1 0 0 0m.3 0" clip-rule="evenodd"/><path fill="#fdd942" fill-rule="evenodd" d="M11.9 22.9v-.1m-2.7-1.6" clip-rule="evenodd"/><path fill="#fddf5e" fill-rule="evenodd" d="M9.4 20v-.1" clip-rule="evenodd"/><path fill="#fddd4f" fill-rule="evenodd" d="M6.5 21.1v.1m.2-.5" clip-rule="evenodd"/><path fill="#fde36f" fill-rule="evenodd" d="M17.5 7.2q0-.1.1 0m-.1-.1-.1.1" clip-rule="evenodd"/><path fill="#3e2b16" fill-rule="evenodd" d="M17.3 16.7v-.3l.2-.2-.2-.2q-.5-.1-.7.4l-.2.2v-.2l-.1-.2q0-.3.4-.5l.7-.2h.4l.2.1-.3.1q-.2.3 0 .4v.4z" clip-rule="evenodd"/><path fill="#776436" fill-rule="evenodd" d="M18 13.7h-.2l-.2-.2q0-.2.3-.3h.3l.4.2h1.3v.1q0 .3-.3.3z" clip-rule="evenodd"/><path fill="#47331b" fill-rule="evenodd" d="M18.1 13.3H18q-.5 0-.4-.6.1-.2.5 0h.2l.5.3h.7q0 .3-.2.2h-.5q-.4-.1-.6.1" clip-rule="evenodd"/><path fill="#5b4122" fill-rule="evenodd" d="M19.4 13h-.2q.3 0 .4-.3l.2-.2.3.1h.1q.4.3.2.5 0 .3-.4.4h-.1v-.2h.1q.2-.3 0-.3z" clip-rule="evenodd"/><path fill="#3a1a0d" fill-rule="evenodd" d="M20.1 12.6h-.3z" clip-rule="evenodd"/><path fill="#5b4122" fill-rule="evenodd" d="M20.1 12.6H20z" clip-rule="evenodd"/><path fill="#fd8d33" fill-rule="evenodd" d="M22 15.6h.2v.2q-.3 0-.1-.2" clip-rule="evenodd"/><path fill="#fd9023" fill-rule="evenodd" d="m23 15.5.1.1zm-.8.3" clip-rule="evenodd"/><path fill="#3e2b16" fill-rule="evenodd" d="m17.7 16.5.2-.2q0 .2-.2.2" clip-rule="evenodd"/><path fill="#6f735a" fill-rule="evenodd" d="m11.2 16-.1-.2h-.2 4l-.1.2z" clip-rule="evenodd"/><path fill="#745f3c" fill-rule="evenodd" d="M14.9 15.9h.4l.9-.1h.5l-.2.2-.1.3h-1.1l-.5-.1z" clip-rule="evenodd"/><path fill="#553d1f" fill-rule="evenodd" d="M8.1 12.8q.4.6 1 .5.1-.2.4 0H8.3l-.3-.1z" clip-rule="evenodd"/><path fill="#604d29" fill-rule="evenodd" d="M18 12.6h-.4v.3l.3.4h-.1q0 .2-.2.2v-.1l-.2-.8.2-.2z" clip-rule="evenodd"/><path fill="#201109" fill-rule="evenodd" d="M10.2 13.2q-.3-.2-.2-.5h.3c.3.3 0 .4 0 .5" clip-rule="evenodd"/><path fill="#8d6d3a" fill-rule="evenodd" d="M9.6 13.3h-.4l.4-.4.2-.1z" clip-rule="evenodd"/><path fill="#513d21" fill-rule="evenodd" d="M10.2 13.2q.2-.2 0-.4h.2v.3l-.4.4z" clip-rule="evenodd"/><path fill="#6f735a" fill-rule="evenodd" d="M10.9 15.8h-.4q0-.2.4 0" clip-rule="evenodd"/><path fill="#847876" fill-rule="evenodd" d="m16.2 16 .1.2v.2q-.2.3-.8.5H15l.2-.2.2-.2.2-.2q.2-.2.5-.2" clip-rule="evenodd"/><path fill="#fafaf8" fill-rule="evenodd" d="m16.2 16-.4.4h-.2q-.5.5-1.3.7H13q-.3-.3-.4-.2h-.1q-.3-.1-.1-.4l.5-.4q.8-.2 1.5 0l.4-.1z" clip-rule="evenodd"/><path fill="#9a8c89" fill-rule="evenodd" d="m13 16.9.9.1h.3v.1h-1.5l-1-.2-.4-.3q-.1-.3.1-.3.4 0 .7.3l.6.2z" clip-rule="evenodd"/><path fill="#46341c" fill-rule="evenodd" d="M10.5 16q.2-.3.3 0t0 .2l-.3.6q0 .3-.2 0-.1-.3.1-.8" clip-rule="evenodd"/><path fill="#a49291" fill-rule="evenodd" d="m14.3 17 1.3-.5v.3q-.3 0-.5.2z" clip-rule="evenodd"/><path fill="#312212" fill-rule="evenodd" d="m10.5 16-.1.9-.3.1v-.5z" clip-rule="evenodd"/><path fill="#847970" fill-rule="evenodd" d="m10.8 16.2.1-.2h.5v.3l-.1.3-.3-.1z" clip-rule="evenodd"/><path fill="#281b0f" fill-rule="evenodd" d="M7.7 13.1 8 13v.2q0 .3.4.4h.4l.1.1v.4h-.6q-.6-.4-.5-.9" clip-rule="evenodd"/><path fill="#2e1b0e" fill-rule="evenodd" d="m18.1 13.3.1-.1q0-.3.3-.1h.7q.1.4-.3.4h-.4q-.3 0-.4-.2" clip-rule="evenodd"/><path fill="#372816" fill-rule="evenodd" d="m18.5 13.5.6-.2v-.2h.3l.3-.2q.4.1 0 .4v.2h.1zm1.4-.1h.1" clip-rule="evenodd"/><path fill="#291f10" fill-rule="evenodd" d="M19.9 13.4h-.2v-.2l.2-.2h.4v.4H20z" clip-rule="evenodd"/><path fill="#372816" fill-rule="evenodd" d="M20 12.9h-.3z" clip-rule="evenodd"/><path fill="#f4f3ef" fill-rule="evenodd" d="m11.4 16.3-.2-.3H15h-.4l-.4.1h-.7q-.2.3-.4.1h-.2l-.2.2q.1.2-.1.3l.1.1h-.5z" clip-rule="evenodd"/><path fill="#a49291" fill-rule="evenodd" d="m15.6 16.5.2-.1z" clip-rule="evenodd"/><path fill="#f4f3ef" fill-rule="evenodd" d="M13 16.9h-.3q.1-.2.3 0" clip-rule="evenodd"/></svg>