<svg width="20" height="20" viewBox="0 0 20 20" fill="none" xmlns="http://www.w3.org/2000/svg">
<path d="M13.3586 8.35844C13.6026 8.11437 13.6026 7.71864 13.3586 7.47456C13.1145 7.23048 12.7188 7.23048 12.4747 7.47456L8.74996 11.1993L7.52523 9.97456C7.28116 9.73048 6.88543 9.73048 6.64135 9.97456C6.39727 10.2186 6.39727 10.6144 6.64135 10.8584L8.30802 12.5251C8.55209 12.7692 8.94782 12.7692 9.1919 12.5251L13.3586 8.35844Z" fill="black"/>
<path fill-rule="evenodd" clip-rule="evenodd" d="M9.99996 1.0415C5.05241 1.0415 1.04163 5.05229 1.04163 9.99984C1.04163 14.9474 5.05241 18.9582 9.99996 18.9582C14.9475 18.9582 18.9583 14.9474 18.9583 9.99984C18.9583 5.05229 14.9475 1.0415 9.99996 1.0415ZM2.29163 9.99984C2.29163 5.74264 5.74276 2.2915 9.99996 2.2915C14.2572 2.2915 17.7083 5.74264 17.7083 9.99984C17.7083 14.257 14.2572 17.7082 9.99996 17.7082C5.74276 17.7082 2.29163 14.257 2.29163 9.99984Z" fill="black"/>
</svg>
