<svg xmlns="http://www.w3.org/2000/svg" width="28" height="27" fill="none" viewBox="0 0 28 27"><path fill="#ed5f95" fill-rule="evenodd" d="m9.7 26.3-.3-.1.6-.3.2-.1q0-.6.7-.8.3 0 .4.2t.6.2q.6-.3 1.1 0l.2.2v.1h.4v.1l.4.5q-.2.1-.4 0h-1.5q0 .2.2.3t.5.2q-.3.2-.7 0-1.2 0-2.4-.5" clip-rule="evenodd"/><path fill="#f28fb4" fill-rule="evenodd" d="M26.1 19.9v.1q.1.3 0 .4l-.2-.1h.1v.2q-.6 0-.4.6 0 .3-.2.3l-.2.3h-.7l.1-.3q.5-.5.8-1.2l.2-.2.3-.2z" clip-rule="evenodd"/><path fill="#f5a6c5" fill-rule="evenodd" d="m0 17 .1-.3h.2l.2.4.3 1.3v.5H.6v-.2l-.2-.2V18l-.2-.2z" clip-rule="evenodd"/><path fill="#ed6196" fill-rule="evenodd" d="M5.5 2.5H6l-.4 1H5v.2h-.4q.2-.5.6-.9z" clip-rule="evenodd"/><path fill="#f499bb" fill-rule="evenodd" d="M8.8 1.1V.7h.5q.3 0 .5.4l-.4.2h-.3V1q-.1.3-.3.2V1" clip-rule="evenodd"/><path fill="#f5a7c5" fill-rule="evenodd" d="M27.7 15.4v.3l-.2.1q-.4 0-.3-.4v-.1h.3z" clip-rule="evenodd"/><path fill="#ee709f" fill-rule="evenodd" d="M8.7 26h-.3v-.5h.2q0 .2.2.2l.3.2-.1.2z" clip-rule="evenodd"/><path fill="#f3a3c2" fill-rule="evenodd" d="M23.1 23.7h.1c0 .2-.4.2-.3.5q0 .2 0 0h-.2l-.2-.2q0-.2.2-.2z" clip-rule="evenodd"/><path fill="#f49dbd" fill-rule="evenodd" d="M7.1 2v-.5l.2.2V2q0 .2-.2 0" clip-rule="evenodd"/><path fill="#ee6b9c" fill-rule="evenodd" d="M13.6 26v-.2l-.1-.1v-.3.3h-.2q0-.2-.3-.1h-.1q-.3 0-.3-.2h-.1q-.1.2-.4 0l-.2.1q0 .2-.3 0-.2 0-.3-.2v-.2H11l-.4.1-.2.3-.2.3h-.1q0-.6-.4-.4-.4 0-.4-.2v-.5q.2-.2.4 0 .6.4.6-.4-.3.5-.7.2-.4-.4-.7 0l-.3.2-.6-.2-.4-.3q0-.4.4-.4l-.2-.3q0-.2.3-.2t0-.3l-.4.7q0 .2-.2.3t-.3-.2q0-.2-.2-.2-.4-.2 0-.5V23q0-.3-.4-.3l-.1.1q-.2.4-.6.6l-.3-.5-.9-1.8v-.8h.1q-.2-.3-.5-.3h-.1c0 .5-.2.2-.4.1q-.6 0-.3-.6l.2-.2-.4-.2-.5-.3A1 1 0 0 1 2 18q0-.2.3-.2h.3q.5 0 .7.2v-.2l.8-.4q.8-.2 1.4-.8l.2-.1s0 .4.2.3v.3l-.2.1q-.2.4.1.4h.5v.2h-.6l-.4.2q0 .3-.3.1h-.2l-.4.1.3.3.3.3q.2 0 0 .3-.3.6.4.9.2 0 .2-.2t.3-.2.2.4.2.4q.2.2.4 0h.6l.1.2v.8q-.3.4 0 .6.5.3 0 .7.7-.2 1.6-.2.4 0 .6.3h.5l.6-.1q.3 0 .3.2t-.2.2q-.5.1-.5.5h.2q.4.1.6.4v.3c-.3 0 0 .1 0 .2l-.2.3q.2 0 .3-.3.3.2.4.7c.2-.3 0-.7.3-.8q.4-.2.8.1v-.3q0-.5.4-.6t.7.2q0 .3.3.5c.2.1.1.7-.1.9q-.3 0 0 .2.2.4-.2.6z" clip-rule="evenodd"/><path fill="#e69" fill-rule="evenodd" d="M13.8 25.8h.2v-.5l.3-.2q0-.5.6-.5l.6-.5q0-.4.4-.2.3.2.2.6v.2l.2.2q0 .2.1 0 .3-.3.6 0l.3.1q.4 0 .4.5-.2.3 0 .5v.2h-.3l-.2.2q-.3-.1-.4.2h-.3l-.6-.3.1.2h-.4q-.1-.2-.4-.2v.4h-2.3q0-.4.6-.3.3.2.5 0l-.4-.5z" clip-rule="evenodd"/><path fill="#ec558e" fill-rule="evenodd" d="M14 26.3v.1q0 .2-.3.2l-.5-.1H13q0 .2-.2.2H12l-.1-.2q-.1-.1 0-.2l.3-.2.7.1h.2l.2-.1.1.2h.2z" clip-rule="evenodd"/><path fill="#ec5890" fill-rule="evenodd" d="m10.1 25.7.1.1v.2H10q-.1.3-.4.1h-.1L9 26v-.2q0-.5.3-.4.6 0 .8.3" clip-rule="evenodd"/><path fill="#e69" fill-rule="evenodd" d="M13.3 25.7h.2v.1h-.3v-.1z" clip-rule="evenodd"/><path fill="#ef6f9f" fill-rule="evenodd" d="m13.3 25.7-.2-.1v-.2l.2.1z" clip-rule="evenodd"/><path fill="#e69" fill-rule="evenodd" d="M13 26h.2zm0 0v-.1m.2-.2" clip-rule="evenodd"/><path fill="#f07ba8" fill-rule="evenodd" d="m15.8 26.5-.1-.3h.2l.2.1q.3 0 .4.3h.1v-.1l.2-.2h.1l.2.1v.2l-.4.1h-.4q-.1.2-.2 0h-.8v-.1h.1v-.1z" clip-rule="evenodd"/><path fill="#f28fb5" fill-rule="evenodd" d="M17.2 26.6v-.2h.2v-.2h.4V26h.4l.2-.1.3.1v.3l-.1.2H18l-.5.1z" clip-rule="evenodd"/><path fill="#ec5790" fill-rule="evenodd" d="m15.5 26.6-.1.1H15q.1-.2 0-.4v-.1h.5l.2.2v.2z" clip-rule="evenodd"/><path fill="#ec558e" fill-rule="evenodd" d="m16.4 0 .1.2q-.2.2-.4 0-.4 0-.2.4v.3l-.7.4-.5.1h-.1l-.1-.2-.8-.5q-.2-.2-.4 0-.1.2-.4.1h-1l-.2-.2h.4l1-.2V.3h1l.1-.1q0-.3.2-.1h.2q.3.7.7.3c0-.2-.4 0-.4-.3q0-.2.2 0z" clip-rule="evenodd"/><path fill="#e6216b" fill-rule="evenodd" d="m14.9.1.2.1h.4v.3l-.2.1h-.6l-.2-.2V0z" clip-rule="evenodd"/><path fill="#eb4e88" fill-rule="evenodd" d="M23.1 23.7H23v-.4h-.4q-.2 0-.3-.2v-.4q1-.3 1.3-1.1l-.4.4q-.3.3-.6.1v-.3l-.1-.3q-.3 0-.4.2c.5.2.2.5.2.8l-1-.2-.1-.1V22q0-.3.3-.4h.2v-.1q-.1-.7.5-.4h.8q-.2-.2 0-.3 0-.3.4-.1h.4l-.2-.4h.8-.8q-.3 0-.3-.4h.3q.2 0 .2-.2.1-.5.7-.2h.2l.5.1v.1q0 .3.3.4l-.2.5v.1l-.1.2q-.2 0-.2.3l-.3.1-.5.3v.3q.3.4-.2.6l-.2-.1h-.2v.8l-.2.2q0 .2-.2.1z" clip-rule="evenodd"/><path fill="#e72b71" fill-rule="evenodd" d="M25.7 20q-.4.2-.5-.2-.2 0-.1-.3l.2-.6.3-.3q.3 0 .4.5h-.1c-.3 0 0 .2 0 .3v.5z" clip-rule="evenodd"/><path fill="#ed6598" fill-rule="evenodd" d="M24 22.6q0-.2.2-.3v-.2l-.2-.3v-.2h.4q0-.2.3-.2l-.2.3v.1l.1.2h-.1v.5q-.4 0-.5.3-.3 0-.2.4l-.2-.1v-.3l.2-.2z" clip-rule="evenodd"/><path fill="#e93c7d" fill-rule="evenodd" d="M25.8 19.9v-.6l-.2-.2V19h.2l.1.1.3.3-.1.4zm-.6-.1.5.2-.2.2h-.2q-.2 0-.2-.2z" clip-rule="evenodd"/><path fill="#e93c7d" fill-rule="evenodd" d="M25.7 20v-.2h.1z" clip-rule="evenodd"/><path fill="#eb518a" fill-rule="evenodd" d="M11.7.6h1q.3 0 .2.2v.1l-.8.3-.5.2q-.3.2 0 .7.3.3 0 .5.2.5-.4.7-.4 0-.6-.6h.3q.3 0 .2-.2l-.5-.4v-.5q0-.3-.2-.4V1h.1q.4 0 .6-.3h.1q.3-.2.5 0" clip-rule="evenodd"/><path fill="#f38fb4" fill-rule="evenodd" d="M9.8.6h.5V1H10V.8q-.2 0-.2-.2m.7.4-.2-.1V.8h.1z" clip-rule="evenodd"/><path fill="#e8377a" fill-rule="evenodd" d="M19.7 1.1h.1l.3.2.3.2q.5.6-.2 1l-.1-.2V3q0 .2-.2.2-.3-.1-.4-.5 0 .5.3.4l.4.3h.3q.3 0 .2.4 0 .3.2.4l.1.2-.2.5q0 .3.3.3h.3q.4.6-.1.5-.4.2-.6 0 0-.1-.4 0v-.1l-.2-.3V5h-.2v-.1l-.1-.2q-.4-.2-.4-.4t.3-.2l.1-.1q-.2-.3-.4 0-.2.5-.5.3l-.3-.3h-.1q-.7 0-.4-.8l.2.1.3.2.1-.2q.4-.5.4-1 .1-.4.5-.4h.4l-.1-.4z" clip-rule="evenodd"/><path fill="#ea4785" fill-rule="evenodd" d="M20.2 2.4v-.2h.3V2l-.1-.5q.3 0 .6.4l.6.4h.2q0 .3.3.3c0 .2-.5 0-.2.4l.2-.3h.1l.5.5-.2.6-.1.2h-.2c0-.7-.5-.4-.7-.3l-.3-.7q-.3 0-.2-.4v-.2h-.3q-.2.4-.5.2-.1-.1 0-.2" clip-rule="evenodd"/><path fill="#e30b5d" fill-rule="evenodd" d="m19.7 1.1.2.2.1.1.1.4-.3.3-.2-.2q-.6.1-1.1-.4l-.2-.4q.1-.2.4-.1h.4l.5.1z" clip-rule="evenodd"/><path fill="#e51463" fill-rule="evenodd" d="M19.6 1.1q-.3.2-.5-.2h.3z" clip-rule="evenodd"/><path fill="#ed6397" fill-rule="evenodd" d="m.2 16.7-.2-1v-.6l.1-1v-.4h.2v.6l.2.2q.1 0 0 .4-.2 0-.2-.2v-.1H.2v.1l.1.8.2.4q.3 0 .2.3t-.3.1q-.2 0 0 .1 0 .2-.2.3" clip-rule="evenodd"/><path fill="#eb4f89" fill-rule="evenodd" d="M.2 13.7H0v-.3q.4 0 .2.3" clip-rule="evenodd"/><path fill="#ea4885" fill-rule="evenodd" d="M1.2 19.4.7 19v-1q-.2-.5.3-.8h.4v.2h.1l.2.1.1.2q-.4.5 0 .8v.2z" clip-rule="evenodd"/><path fill="#eb508a" fill-rule="evenodd" d="m1 17.3.1.1-.1.2q-.3 0-.3.2v.6l-.1-.5-.2-.8-.2-.4q.2-.2 0-.4h.4V16l-.1-.2h.4l.1.2v.5H.8l.1.2v.5" clip-rule="evenodd"/><path fill="#ed6397" fill-rule="evenodd" d="m.2 16.7.2.3q-.2 0-.2-.3" clip-rule="evenodd"/><path fill="#e73076" fill-rule="evenodd" d="M26.5 8.2v.4l.2.5q-.1-.1-.2 0l-.3.2-.2-.1V9l.2-.3v-.1L26 8q.1.3-.1.3-.7-.1-.9.5V9q-.3.1-.4 0v-.7q.4-.3.1-.7v-.2l.1-.4h.4q.4 0 .3.4.2.2.5 0l.2.3q0 .3.3.5" clip-rule="evenodd"/><path fill="#e6216b" fill-rule="evenodd" d="M25.4 7.4q0-.3-.3-.3-.2.1-.2 0v-.2h.3q.5 0 .5.3l.2.1v.3h-.5q-.2 0 0-.2" clip-rule="evenodd"/><path fill="#e73076" fill-rule="evenodd" d="M25.2 7H25l.2-.5v-.2l.3.4.1.2h.2l.2.5q-.3 0-.3-.2-.2-.2-.5-.2" clip-rule="evenodd"/><path fill="#ec558e" fill-rule="evenodd" d="m24.2 4.7.3.4q.2 0 .3.3h-.2q-.3 0-.5-.3 0-.3-.4-.3-.3-.2 0-.4l.3.1z" clip-rule="evenodd"/><path fill="#e6216b" fill-rule="evenodd" d="M25.3 6.2v.2q-.5-.2-.5-.6.4 0 .5.4" clip-rule="evenodd"/><path fill="#e8397b" fill-rule="evenodd" d="M24.6 5.5h.2v.3z" clip-rule="evenodd"/><path fill="#ea4785" fill-rule="evenodd" d="m4 4.2.2-.2q.1-.2.4-.3H5v.2l.4.5.8-.2v-.5q.5-.1.7.2l.3.3.3.1h.2c.1 0 .3.3.5.1l.1.5q0 .3-.2.2t-.5.2l-.3.2-.5-.7q-.4-.3-.4.1h-.1q.5.3.2.7l-.2.2H6q-.2-.4 0-.8-.5 0-.3.5.2 0 0 .2l-.4.2v-.4q.1-.4-.5-.4-.2 0-.2-.2v-.3q.2-.3-.1-.3z" clip-rule="evenodd"/><path fill="#e72e75" fill-rule="evenodd" d="M7.1 4.2q-.2-.5-.7-.4h-.1q.3.3.1.6h-.1q-.3 0-.5.2 0 .2-.3 0-.2 0-.2-.3T4.8 4v-.1l.2-.2v-.4h.3l.2.1h1q.4-.1.7-.5l.5-.1 1 .2v.2l-.1.3v.2l-.1.1H8q-.3 0-.2-.4-.2-.2-.4.3h.1q.3.3 0 .4z" clip-rule="evenodd"/><path fill="#e7276f" fill-rule="evenodd" d="M6.4 3.4H6l-.4.1v-.2l.1-.2q.1 0 0-.1v-.2l.3-.2h.3l.3.3z" clip-rule="evenodd"/><path fill="#ea4785" fill-rule="evenodd" d="M5 3.5v.2z" clip-rule="evenodd"/><path fill="#e61c68" fill-rule="evenodd" d="m9.1 1.1.3.1h.2c.3.3-.1.4-.1.6l-.2.2-.1.1-.1.1q0 .3-.4.3h-.3l.1-.4q-.7-.4-.2-.8l.1-.2h.4v.2H9z" clip-rule="evenodd"/><path fill="#e72c72" fill-rule="evenodd" d="M8.3 1.3v.3q-.2.2 0 .2t.4.3l-.3.3h-.1q-.1-.2-.4-.2-.2 0-.3-.3l-.3-.1v-.1l.2-.2.4-.1q.1-.3.4-.1" clip-rule="evenodd"/><path fill="#e52067" fill-rule="evenodd" d="M27 16v.4q-.2.4-.1.8v.8l-.1.2-.4-.4h-.1q-.3 0-.5-.3l.2-.4q.6-1.1.4-2.2v-.2q1-.2.7.7z" clip-rule="evenodd"/><path fill="#ec5b92" fill-rule="evenodd" d="M26.2 19.4H26V19q0-.3.2-.5v-.3l.3-.3.2.2v.2h.1q0 .3-.3.5l-.1.2v.2h-.1z" clip-rule="evenodd"/><path fill="#ef6095" fill-rule="evenodd" d="m26.8 17.7.1-.2v-.2q-.3-.2-.1-.5l.1-.4q.2.3 0 .4v.1q0 .2.2.2v.5z" clip-rule="evenodd"/><path fill="#ea4a86" fill-rule="evenodd" d="M26.8 18.4h-.1v-.2l.1-.2z" clip-rule="evenodd"/><path fill="#e51765" fill-rule="evenodd" d="M.3 11.1v-.2q.3-.4.2-.8l.1-.4h.2q.2.3.6.2h.1l.6.6h.3q.4 0 .5.3.2.3-.2.4l-.3.1q-.3 0-.5.2-.3.1-.6-.1v.2q0 .4-.3.5T.5 12l-.1-.1v-.7" clip-rule="evenodd"/><path fill="#e6236c" fill-rule="evenodd" d="M1.5 10h-.3q-.2.1-.2 0-.2 0-.4-.3l.4-1 .3-.6c.2 0 .3.3.4 0h.2q0 .3.2.4.1.4-.1.8-.6 0-.5-.5-.3.6.3.6h.4l.1.1q0 .4-.3.4z" clip-rule="evenodd"/><path fill="#ec558e" fill-rule="evenodd" d="M1.4 8h-.1v-.3l.3-.3.1-.3h.1V8h-.1z" clip-rule="evenodd"/><path fill="#e93e7e" fill-rule="evenodd" d="M4.5 4.9q.2.3.3.1h.3q.2 0 .1.2v.3q0 .2-.2.3-.4 0-.1.4 0 .3-.2.3-.5 0-.5-.6L4 5.7q-.2.2 0 .6 0 .8-1 .5l.1-.4q.3 0 .2-.3v-.4l-.1-.3-.1-.1.3-.3.1-.2.4-.4z" clip-rule="evenodd"/><path fill="#e72b71" fill-rule="evenodd" d="M4.5 4.9h-.2L4 4.7l-.1-.3.1-.2h.5l.2.1-.1.3z" clip-rule="evenodd"/><path fill="#ee5e94" fill-rule="evenodd" d="M3 5.3h.2q0 .4-.4.6v-.4z" clip-rule="evenodd"/><path fill="#e83478" fill-rule="evenodd" d="m9.4 1.3.2-.2h.2L10 1v.5c.3.3 0 .3-.1.4h-.1c-.1 0-.2-.3-.3 0h-.1v-.2l.2-.2z" clip-rule="evenodd"/><path fill="#e93c7d" fill-rule="evenodd" d="m.3 11.1.2.7.3.6q.5-.4.4-.9 0-.2.2-.1.4.2.4.6v.6l.3-.3.1-.2q.3 0 .4.3 0 .3-.2.4l.2.3q0 .2-.4.3t-.7-.4c.1.5-.3.5-.4.8l-.4.6H.4q-.2-.1 0-.3l-.2-.4-.1-.3H0q.3-.7.2-1.5v-.5z" clip-rule="evenodd"/><path fill="#e6236c" fill-rule="evenodd" d="M25 9v-.2h1.3L26 9v.1l.1.1h.1l.2-.2h.3l.3.4v.2q.1.3-.1.5-.3-.4-.9-.6l-.4-.1h-.5q0-.3-.2-.4" clip-rule="evenodd"/><path fill="#f181ab" fill-rule="evenodd" d="M26.9 10.1v-.5h.2l.1.3.1.3v.2l.2.1v.1q-.2.1 0 .2v.9l.1.1v.3q-.3.2-.4 0v-.3L27 11v-.5l-.1-.2z" clip-rule="evenodd"/><path fill="#e51463" fill-rule="evenodd" d="M19.1 1h-.6l-.1.2.2.2q0 .5-.3.3h-.1l-.2.1q-.3.1-.5-.1-.1-.3-.3 0l-.3.1h-.5c0-.3-.4-.5 0-.7V1q.7-.1.6-.7h.3c0 .2.5 0 .3.4h-.1q.4.5.7 0h.6z" clip-rule="evenodd"/><path fill="#e93b7c" fill-rule="evenodd" d="m17.5.6-.2-.1h.5l.6.2-.1.3-.3.2-.6-.2zm1.1.1h-.2q.1-.1.2 0" clip-rule="evenodd"/><path fill="#eb528b" fill-rule="evenodd" d="M27 16v-.3q0-.2.2-.3l.3.3v.3q0 .4-.3.3V16z" clip-rule="evenodd"/><path fill="#ee6e9e" fill-rule="evenodd" d="M27.2 16.3h.2V16l.1.3v.2h-.2v.3q-.4-.3 0-.6" clip-rule="evenodd"/><path fill="#f292b7" fill-rule="evenodd" d="M27.2 12h.3q0 .2 0 0h.1l.1.2q-.2.3 0 .6.1.3-.2.7v.4h.3v.4h-.2l-.3-.1H27V14q0-.3.3-.2V13l-.2-.1.1-.4z" clip-rule="evenodd"/><path fill="#f181ab" fill-rule="evenodd" d="m27.7 12.8-.2-.3q0-.2.2-.2z" clip-rule="evenodd"/><path fill="#ea4885" fill-rule="evenodd" d="M1.2 19.7h-.1v-.3h.1q.3 0 .2.3z" clip-rule="evenodd"/><path fill="#f184ad" fill-rule="evenodd" d="M1.2 19.7h.3l.2.3.2.3.1.2.1.2q.2.2 0 .5V21l-.4-.7-.2-.3h-.2v-.2z" clip-rule="evenodd"/><path fill="#e8397b" fill-rule="evenodd" d="M23.7 4.5v.3h.4l.2.4.1.2.2.1v.2l-.3.2q-.3 0-.4.3t-.4 0V6q.3-.4-.2-.5-.5-.2-.8.1-.5 0-.6-.4-.2 0-.2-.2v-.1q-.5-.1-.5-.5l-.1-.1q0-.3-.3-.5 0-.2.3-.3h.1l.2.1.4-.1h.4V4h.2v-.5l.3-.2.1.1c0 .2.4.2.1.5h.1q.3 0 .4.2.3.1.3.5" clip-rule="evenodd"/><path fill="#eb4e88" fill-rule="evenodd" d="M23.4 4h-.2l-.4-.2q.3-.2 0-.3v-.2q.2 0 .3.3l.2.1zm1 18" clip-rule="evenodd"/><path fill="#e51a67" fill-rule="evenodd" d="M7.3 1.8h.4l-.1.1v.2h.5q.3 0 .2.2-.6-.1-.6.5h-.3q0 .3-.3.4l-.2.1-.2.1h-.3l.1-.6.2-.1q.6-.2.1-.5V2h.5z" clip-rule="evenodd"/><path fill="#ef6d9d" fill-rule="evenodd" d="m6.1 2.3.4-.1.1-.1h.2l-.2.5H6z" clip-rule="evenodd"/><path fill="#ed6096" fill-rule="evenodd" d="M22.6 24.2v.2h-.3l-.4.3q-.2-.2-.2-.5l.4-.1h.5" clip-rule="evenodd"/><path fill="#f39abb" fill-rule="evenodd" d="M21.4 25.2v.1H21v-.1l-.4.2V25h.1q.4-.4.6 0z" clip-rule="evenodd"/><path fill="#ea4986" fill-rule="evenodd" d="M21.3 25h-.6q0-.6.6-.4l.4.1-.2.3z" clip-rule="evenodd"/><path fill="#ed6096" fill-rule="evenodd" d="M21.9 24.7h-.1" clip-rule="evenodd"/><path fill="#f182ac" fill-rule="evenodd" d="M27.8 14.6v.2l-.2.5h-.4V15z" clip-rule="evenodd"/><path fill="#f18db4" fill-rule="evenodd" d="m27.2 15.4-.1.3-.1-.2q0-.2.2-.2z" clip-rule="evenodd"/><path fill="#ed5f95" fill-rule="evenodd" d="M10.1 25.7h-.3v-.1h-.2v.2l-.1-.1q0-.4-.3-.2-.2 0-.1.3l-.4-.1q-.2 0-.1-.2v-.2q.3 0 .4-.2l-.3-.3v.5l-.2.1v.4h-.2l-.2-.1-.7-.2.1-.2q.5-.1.6-.6-.4 0-.5-.2-.3-.2-.6 0-.4 0-.4-.4v-.2q-.2-.6-.7-.3-.4 0-.5-.3l.2-.5q.3 0 .3.4H6l.1-.3h.3v-.2q0-.2.2-.3t.3.2.3.3v.1q0 .2-.2.2 0 .4.2.3h.3l-.2.2.3.3.1-.5v-.1h.2q0-.5.3-.5l.3.5H8l-.3.1.3.1.1.1v.1H8l-.2.2v.3q.3.2.6 0v.1l.2.2h.2v-.2q.3-.4.6-.1h.2q.2.4.5.1v-.2h.2l.2.1v.1l-.3.5H10l-.2-.2h-.3q-.1.1 0 .4l.2.3v-.2h.2v.1h.3z" clip-rule="evenodd"/><path fill="#eb4b87" fill-rule="evenodd" d="M8.6 25.3v.1h-.1" clip-rule="evenodd"/><path fill="#e20055" fill-rule="evenodd" d="m17 .3.1.3q-.1.5-.6.4-.4.2-.7-.5l-.1-.2q.3-.2.5-.1h.3z" clip-rule="evenodd"/><path fill="#ec5890" fill-rule="evenodd" d="m5.6 22.8-.1.5q.2.1 0 .4-.1.4-.4.2-.2 0-.1-.3 0-.2-.3-.4.2.3 0 .6l-.3-.6v-.1l-.7-.3-.2-.2.1-.1q.1-.2 0-.2v-.1q0-.4.3-.3l.7-.2q.2.4 0 .6t0 .3q0 .2.4.1.2-.1 0-.3 0-.4-.4-.6l-.3-.3h-.6V21h.1v-.4l-.6-.3V20l-.3-1h-.2l-.3.1q0 .3-.2.4H2l-.1-.2q0-.2-.3-.5l-.1-.3q-.3-.1-.1-.4l.2-.4h.5v.4q.2 0 .2.2.1.3.5.2l.4.3.4.2h.1v.2q-.3 0-.3.5v.1H4l.1.2q.1-.1 0-.2v-.1h.6l.3.2-.2.2v.3l-.2.2-.1-.4q-.3.2-.2.5.2.1.4 0 .3.3.4.7v.2q.3 0 .3.4v.1z" clip-rule="evenodd"/><path fill="#ea4784" fill-rule="evenodd" d="m5.9 24.8-.2-.1-.2-.3V24h.3l.3.2q.5-.2.7.3l.2.1q.3 0 .3.2l-.2.1q-.4.2-.7 0H6" clip-rule="evenodd"/><path fill="#ea4281" fill-rule="evenodd" d="M5.7 24h-.2l-.1.1q0 .2-.3.1l-.4-.4v-.3q-.2-.3 0-.4l.4.4v.3h.3v-.1q.2 0 0-.2v-.2l.2.1.3.1v.3q0 .2-.2.2" clip-rule="evenodd"/><path fill="#ed5f95" fill-rule="evenodd" d="M5.1 24.2h.4l-.1.2zm-.1-.1" clip-rule="evenodd"/><path fill="#eb538c" fill-rule="evenodd" d="M5.9 23.9v-.4H6q.3-.3.4 0l.3.5v.1q-.1 0 0 0v.2H7l.4-.1v.2h.3q.2.2.5.2-.3.1-.1.6l-.7.2-.7-.2-.4-.3H7q0-.2-.2-.2-.3.1-.3-.2v-.2H6z" clip-rule="evenodd"/><path fill="#e51a67" fill-rule="evenodd" d="m22.6 24-.3.1h-.1L22 24h-.3v-.1l-.1-.1q.3-.2.3-.5.1-.4.4-.3h.1q0 .2.2.3l.3.3v.1h-.2z" clip-rule="evenodd"/><path fill="#eb4e88" fill-rule="evenodd" d="M23 23.7h-.2z" clip-rule="evenodd"/><path fill="#ea4986" fill-rule="evenodd" d="M20.6 25.2v.4l-.5.2h-.4q-.4-.4-.7-.1-.2.2-.5 0v-.4q.3-.4 0-.7V24h.4q.3 0 .3-.2 0-.5.5-.5h.2q.1-.2.4 0h.7l.2.2v.3h-.3v-.1q-.2.5-.6.2H20q-.3 0-.1.3l.2-.3.7.2q0 .2-.2.3-.6.2 0 .5z" clip-rule="evenodd"/><path fill="#f3a2c1" fill-rule="evenodd" d="m19.7 25.7.4.1v.1H20v.1l-.7.1H19q-.2-.1-.1-.4l.4-.1z" clip-rule="evenodd"/><path fill="#f18db4" fill-rule="evenodd" d="M20.6 25.6v-.2l.2-.1.2-.1.1.2-.4.1z" clip-rule="evenodd"/><path fill="#ec4a86" fill-rule="evenodd" d="M6.1 2.6h.2l-.1.1z" clip-rule="evenodd"/><path fill="#eb4583" fill-rule="evenodd" d="M2.3 6.3v-.2h.2q0-.2.3-.3c.2.5-.2.5-.4.6" clip-rule="evenodd"/><path fill="#f3a2c1" fill-rule="evenodd" d="M19.9 26q-.3 0-.3.2l-.1.1H19l.1-.1c.2 0 .4-.4.6-.2" clip-rule="evenodd"/><path fill="#f28fb5" fill-rule="evenodd" d="M19.2 26.2h-.4v-.1c0-.3.2 0 .3 0z" clip-rule="evenodd"/><path fill="#f077a4" fill-rule="evenodd" d="M19 26.2h.1v.1" clip-rule="evenodd"/><path fill="#ee709f" fill-rule="evenodd" d="M8 25.7h.3z" clip-rule="evenodd"/><path fill="#eb4c88" fill-rule="evenodd" d="m3.8 21-.1.4H3q0-.4-.4-.3-.2.2 0 .5-.4 0-.4-.4l-.2-.5.4-.1H3q.5.1.8.5" clip-rule="evenodd"/><path fill="#e73176" fill-rule="evenodd" d="m2.5 21.6-.1-.5.1-.1h.2l.3.4v.2h.1v.1l.5.5q.2.1 0 .4h-.2q-.1-.3-.4-.3z" clip-rule="evenodd"/><path fill="#eb4583" fill-rule="evenodd" d="M1.8 7q.3-.2.3-.5l.2-.2q0 .7-.5.8" clip-rule="evenodd"/><path fill="#f28fb4" fill-rule="evenodd" d="M25.3 21.7h-.1" clip-rule="evenodd"/><path fill="#f5a7c5" fill-rule="evenodd" d="M27.5 16h-.1v-.2zm0-.2" clip-rule="evenodd"/><path fill="#ef72a1" fill-rule="evenodd" d="M5.5 20q-.3 0-.5-.3l-.2-.3.2-.3.1-.1v-.2l-.2-.2-.2-.1-.3-.3.2-.3h.2l.4.1.1-.2.3-.1h.8q.3-.1.4.1l.6 1 .9 1.2q0 .3.3.5l.3.4q.6.8 1.3 1.1.3 0 .5.3l.1.2v.1h-.1q-.5.3-.8.2t-.3-.2-.2 0H7.7l-.3.2v-.2l.1-.1v-.1q.3 0 .2-.2l-.1-.2q-.3 0-.3-.2l-.2-.1v-.2q.3 0 .3-.3-.2 0-.1-.3l.2-.3v-.1l-.4-.1h-.2q0 .3-.2.2h-.3l-.2-.3-.1-.1L6 20v-.3l-.3-.1v.5z" clip-rule="evenodd"/><path fill="#ef6f9f" fill-rule="evenodd" d="m14.4 25.2-.3.1h-.3l.1-.3h.2v-.3l.1-.4-.2-.1-.1-.4-.4-.2q-.4 0-.5.2v.8h-.2l-.2-.3h-.2l-.2.1H12v.2q-.2.3-.1.5l-.2.1h-.1l-.2-.2q.1-.3-.1-.6H11l-.2-.2h.2V24l-.2-.3h-.3q0-.2.2-.2.5 0 .4-.6v-.1l2 .1h.8q.7.1 1.6-.2l.4.1q.3.3.5.1h.5l.7.5q.4 0 .1.3v.5q-.1.2.1.2h.1q-.3.5.2.8.3.2 0 .4h-.5v-.1l-.2-.3H17q-.2 0-.2-.2h-.3l-.4.2V25H16q-.2-.2 0-.2v-.6q-.2-.3-.4 0 0 .2-.2.2v.1q-.1.2-.3.2h-.2l-.3.2z" clip-rule="evenodd"/><path fill="#f079a5" fill-rule="evenodd" d="M6 16.8h-.4l.2-.4q0-.3.3-.4t.2-.6q.3-.7 1-1l.1.1q-.1-.4.3-.4.3 0 .4.2 0 .3.2.4l.3.3q.2.3-.1.3t-.3.4L8 16q-.5.2 0 .3c.3.2.2.2.5 0q.7-.2.5-.8 0-.3.3 0 .5.5.5 1.1v.6q.3-.2.2-.4t0-.4h.5q.2 0 0 .4 0 .2.3.4.4.1.6.6l-.1.4H11q-.2-.2-.5-.2-.4.2-1 0c-.2-.2-.6 0-1-.2l-.5-.2-.1-.1-.2-.2a1 1 0 0 0-1-.6h-.4z" clip-rule="evenodd"/><path fill="#ec5a91" fill-rule="evenodd" d="M2.2 17.9h-.4q0-.2-.2-.3h-.1v-.2h-.3V17l-.2-.2q-.2 0-.3-.2t.1 0H1V16H.9v-.5l-.2-.4-.2-.1v-.4l-.1-.2q.3 0 .1-.2v-.1q.3 0 .4-.3l.1-.1.1-.3.4-.2-.1-.2h.2l.5.3q0 .2-.2.3l-.5.6v.5l-.1.8v.6l.1.3q0 .4.2.4v.1l.1.1v.1h.1v.1H2v.1h.2v.1h.1v.1l.3.2q-.3 0-.3.2" clip-rule="evenodd"/><path fill="#dd324e" fill-rule="evenodd" d="M5.8 16.3v.1l-.3.2q-.3.4-.9.6l-1.1.5q-.3.2-.5 0c-.2 0 0-.2-.2-.3v-.6q.4-.2.9-.1c.4 0 .7.3 1-.2l.5-.1q.3-.1.4-.5t.5-.3q.2.2-.1.5z" clip-rule="evenodd"/><path fill="#e66893" fill-rule="evenodd" d="m16 22.9-.1-.1h-.1q-.6 0-1 .3h-1.1v.2l-.3-.2q-.2-.2-.4 0l-.3-.1h-.6q-.5 0-.8-.2H11l-.3-.2h1.5a9 9 0 0 0 3.4 0q1-.1 1.8-.7l.1-.1.3-.3h.2q.1-.2.2 0-.3.8-1 1.2c-.4.2-.8 0-1.1.3z" clip-rule="evenodd"/><path fill="#321322" fill-rule="evenodd" d="m5.9 17 .1-.1c.6-.5 1.6-.3 1.9.2v.6l-1-.2h-.1v-.1H5.6l.1-.3z" clip-rule="evenodd"/><path fill="#ef72a1" fill-rule="evenodd" d="M11.1 22.8h.2v.5l-.3.3h-.8v-.2l.2-.1V23l.4-.1h.2z" clip-rule="evenodd"/><path fill="#622640" fill-rule="evenodd" d="M5.7 17v.3q.3-.2.6-.1h.2q.1-.2.2 0v.1l.2.1v.1q-.3.2-.5 0h-.6q-.3 0-.3-.3z" clip-rule="evenodd"/><path fill="#783851" fill-rule="evenodd" d="M7.8 17.2V17l-.4-.2h-1l-.4.1v-.1l.4-.2.5-.1h.3q.3 0 .5.3.3 0 .2.4" clip-rule="evenodd"/><path fill="#b25279" fill-rule="evenodd" d="m6.4 17.6.4-.1H7l.1.1q.3.4.4.9v.3l-.5-.6V18q-.1-.2-.4-.3z" clip-rule="evenodd"/><path fill="#ea4885" fill-rule="evenodd" d="M4.7 20.8v.2h-.5v-.6l.2-.2.1-.1.1.6z" clip-rule="evenodd"/><path fill="#ec5890" fill-rule="evenodd" d="M3 17.7h.5v.3l-.1.1h-.1q0-.3-.2-.3h-.5q0-.2.2-.1z" clip-rule="evenodd"/><path fill="#ed5f95" fill-rule="evenodd" d="M11.1 24.4h.2l-.1.4h-.3v-.3z" clip-rule="evenodd"/><path fill="#ef6f9f" fill-rule="evenodd" d="M13.5 25.3v.4l-.1-.2z" clip-rule="evenodd"/><path fill="#ec5a91" fill-rule="evenodd" d="M2.6 17.7v.1h-.2z" clip-rule="evenodd"/><path fill="#ef6f9f" fill-rule="evenodd" d="M13.6 25.3q-.1 0 0 0" clip-rule="evenodd"/><path fill="#eb528b" fill-rule="evenodd" d="M17.7 26h-.1v-.3l-.3-.1h.2l.2-.1.4.2q.1.4-.2.3z" clip-rule="evenodd"/><path fill="#f07ba8" fill-rule="evenodd" d="M17.5 26.4h-.2l-.1-.1v-.1h.2zm.3-.2h-.1V26h.1zm-.2 0h-.2zm-.4-.2" clip-rule="evenodd"/><path fill="#ed5f95" fill-rule="evenodd" d="M13.6 26.3v.1" clip-rule="evenodd"/><path fill="#e69" fill-rule="evenodd" d="m15.6 26.6.1-.1" clip-rule="evenodd"/><path fill="#ed6297" fill-rule="evenodd" d="M18.2 25.6q.1-.2 0-.2v-.1H18l-.4-.5.1-.2.2-.2.2-.1q.3-.5.8-.4-.1-.5-.5-.8v-.3l.2-.1c.3.3.7 0 1 .3q.3 0 .2.4-.2.3-.5.1v.5h-.1q-.2.4-.4.2h-.4v.2q0 .2.3.2v.4q0 .3-.2.5v.2h.3q.1-.2.4-.2h.2l.2.1q0 .2-.3 0H19v.5h-.2l-.3-.2q-.2 0-.3-.2z" clip-rule="evenodd"/><path fill="#ef6f9f" fill-rule="evenodd" d="m18.2 25.7.2.2-.2.2-.2-.1h-.2.2q.2-.1 0-.2 0-.2.2-.1" clip-rule="evenodd"/><path fill="#ee6498" fill-rule="evenodd" d="M18.8 26.2v.1h-.2v-.1l.1-.1z" clip-rule="evenodd"/><path fill="#f07ba8" fill-rule="evenodd" d="M18.2 26h.2zm-.2 0h.2zm.2 0q0 .2 0 0" clip-rule="evenodd"/><path fill="#e8397b" fill-rule="evenodd" d="m15.8.5.2.3q.3.3.5.2t0 .2l-.1-.1v.2q0 .2 0 0h.1v.3h.7q0-.3.3 0L17 2q.3 0 .4.2h-.2v.4l-.4-.1q-.7.1-.3.7v.1h-.9c-.2 0-.5.2-.4-.2q0-.2-.2-.3l.4-.7.5.2q.1.2.2 0v-.1q-.4-.6 0-1l-.2-.2-.1-.1z" clip-rule="evenodd"/><path fill="#eb4c88" fill-rule="evenodd" d="m15.4 2.3-.1.2q0 .2-.2.3v.1H15q-.2-.2 0-.4c-.3-.2-.5.2-.7.2l-.1-.1-.1-.1-.2-.3q.3 0 .1-.1v-.4q-.4-.2-.1-.5.4 0 .7.2h.1q.3-.3.5-.1v.1l-.2.1v.1q0 .5.4.6" clip-rule="evenodd"/><path fill="#e94080" fill-rule="evenodd" d="M14.6 1.4v.1h-.1l-.4-.2h-.4l-.1.1h-.2l-.2-.3V.7l.5-.2h.1v.3q.3-.2.4 0V1q0 .2.3.2z" clip-rule="evenodd"/><path fill="#eb4c88" fill-rule="evenodd" d="M13.2.7V1q.2 0 .3.4h.1q0 .5-.5.6-.3 0-.5-.2l.4-.2q-.5-.3 0-.6V.8z" clip-rule="evenodd"/><path fill="#ee6e9e" fill-rule="evenodd" d="m15.9 1 .2.2c-.3.4-.3.4-.8.2l-.1-.1.1-.2.2-.1z" clip-rule="evenodd"/><path fill="#eb4c88" fill-rule="evenodd" d="M14.6 1.3V1q.1 0 0 .2" clip-rule="evenodd"/><path fill="#ed6096" fill-rule="evenodd" d="M21.6 21.7H21l-.2.1-.3.1-.2-.2q-.1-.1 0-.4.1-.2.4 0-.1-.5.1-1l.3.1q.4.3.7 0t.5 0l-.2-.4q.1-.2.6-.3l-.1-.9q0-.2.3-.2h.5q.6 0 .6-.6l.1-.2h.3q.5 0 .2.3l.2.4.3.1q.1.6-.4 1l-.2.2-.3-.3-.4.2v.4h-.2l-.3-.1v.2l.4.1h.2q0-.2.2 0h.1l.3-.1v.1l-.5.1h-.4l.2.3q.1.1 0 .2H23v.2h.3l-.3.2h-1q-.4-.2-.3.1z" clip-rule="evenodd"/><path fill="#ed6297" fill-rule="evenodd" d="M21.2 22v.2q.2.3.4.1l.3.1q0 .2-.2.3t-.7.5q-.4.3-1 0V23q0-.3-.4-.2c-.2 0-.6-.6-.6-.8.2-.3 1-.4 1.2-.2v.1q.1-.4.4-.1z" clip-rule="evenodd"/><path fill="#e94080" fill-rule="evenodd" d="M22.3 23q-.2 0-.3.4l-.1.3h-.3v.2h-.2l-.2-.4v-.1l.2-.2V23q-.2-.3.1-.3l.6-.1h.1v-.4l.1-.1v-.2H22l-.1-.1v-.1l.3-.2h.3l.2.2-.1.3q0 .2.1 0h.4q0-.2.2-.3t.2-.3h.1v.4l-.1.2-.1.2q-.2 0-.2.2t-.2.2l-.3.1h-.3z" clip-rule="evenodd"/><path fill="#e93c7d" fill-rule="evenodd" d="m24.8 19.6.1-.3v-.1l.2-.6v-1h.4l.1-.1h.2q.3 0 .3.2h.2q0 .5-.3.4t-.2.2q.1-.1.4 0v.6H26q0 .3-.2.2V19l-.3-.3v.2q-.2 0-.3.2l-.1.4v.3q-.3 0-.4-.2" clip-rule="evenodd"/><path fill="#ec5890" fill-rule="evenodd" d="M22.2 22.6q-.3.3-.7.2h-.1v.2h.1l-.1.1v.2q-.2 0-.3.2H21l-.2.1h-.4q-.2-.2-.5-.2l-.1-.2v-.3q0-.2.2 0 .2 0 0 .1l.1.2h.9V23q0-.2.2-.2l.6-.2v-.2h-.3q-.2.2-.2-.1l.3-.1h.3l.3.3zm-1.1-.6h-.3l-.2-.1.3-.2h.2l.2-.1h.2v.2l-.2.2z" clip-rule="evenodd"/><path fill="#e72c72" fill-rule="evenodd" d="M23 23.7h-.2v-.2q-.2 0-.2-.2h.3q0-.3.2 0v.1z" clip-rule="evenodd"/><path fill="#e93a7c" fill-rule="evenodd" d="M23.6 23v-.3h-.2v-.3q.2-.3.5 0v.2l-.2.3" clip-rule="evenodd"/><path fill="#e93c7d" fill-rule="evenodd" d="M25 20h-.2v-.1h.1z" clip-rule="evenodd"/><path fill="#ed6096" fill-rule="evenodd" d="M24.4 20v-.1" clip-rule="evenodd"/><path fill="#ec5890" fill-rule="evenodd" d="M21.6 21.7q.2 0 0 0" clip-rule="evenodd"/><path fill="#eb4e88" fill-rule="evenodd" d="m23.6 23 .1-.1m.2-.3" clip-rule="evenodd"/><path fill="#ed5e94" fill-rule="evenodd" d="M12.7 1.7q0 .3.3.2t.5-.3l.1-.2.1-.2h.2q-.2.5.3.5v.1L14 2q-.4.2-.3.5-.1.2-.3.2 0 .4.3.4.6 0 .8.4.1.2-.2.4H14q-.4-.3-.5-.2c-.1.2-.4.4 0 .7v.3H13q-.3-.3-.4-.7v-.1l.4-.2q.2 0 0 .2.3-.3 0-.7h-.5q-.2.7-.8.7l-.2.7h-.2l-.2-.3v-.1l.1-.3v-.5l.2-.3.2-.2h-.1l-.1-.2.1-.1q.5.1.6-.4l.1-.3.3-.2z" clip-rule="evenodd"/><path fill="#e94080" fill-rule="evenodd" d="m12.3 2-.2.5q-.1.4-.5.2v-.1l.1-.2h-.1l-.1-.3-.2-.2.1-.4.2-.4h.2q0 .2.1.1h.3v.4q.3 0 .1.3" clip-rule="evenodd"/><path fill="#e93f7f" fill-rule="evenodd" d="M11 2.8h-.4l-.2.1v.3q-.4.2-.8 0l-.3-.1q0-.2-.3-.4l.1-.1q.6 0 1-.2l.5.1.1-.5v.1l.2.1q.2 0 .3.2l-.2.1z" clip-rule="evenodd"/><path fill="#e83478" fill-rule="evenodd" d="M10.7 2v.6h-.3q0-.2-.3-.2l-.3-.5q.3 0 .4-.4l.2-.3h.2l.1.2z" clip-rule="evenodd"/><path fill="#e94080" fill-rule="evenodd" d="M12.6 1.7c-.3 0-.1-.4-.3-.5V1h.1q0 .3.2.1V1h.4v.4l.1.1v.3h-.4" clip-rule="evenodd"/><path fill="#ed5e94" fill-rule="evenodd" d="M10.3 3.2v-.4h.3v.1l.4.2.2.2h-.4q-.2 0-.2.4l-.1.1h.2V4h-.1l-.2.1q-.4-.2-.1-.9" clip-rule="evenodd"/><path fill="#e83478" fill-rule="evenodd" d="m11 2.8-.1-.2q0-.3.3-.2v.4zM10.3.9h.2v.3q-.3 0-.4-.2z" clip-rule="evenodd"/><path fill="#e83076" fill-rule="evenodd" d="m10.1 1 .4.2-.1.2q-.2 0-.1.3l-.1.1h-.4.2v-.1l-.1-.2v-.1z" clip-rule="evenodd"/><path fill="#ed6095" fill-rule="evenodd" d="m20 4.9.1.1v.1q.2 0 0 .1l-.3.2.5.1.6.5-.5.1h-.2l.1.7-.3.2q.6-.1.6.5l-.2.1q-.4-.1-.8.1c-.2.1-.4.4-.7.1v-.2q0-.9 1-1l-.4-.3V6h-.2q-.2.1-.3-.2v-.1q-.4 0-.4-.3.3-.4.9-.4.1 0 0-.1 0-.3.3-.2z" clip-rule="evenodd"/><path fill="#ea4483" fill-rule="evenodd" d="m20.8 6-.5-.3v-.2h.3q.2 0 .4.3v-.2h.5q0-.2-.2-.3V5l.3.1.3.7.4-.1h.1l.1.1v.4q0-.2.3 0v.6l-.1.1-.4.2v-.5h-.5q-.4.5-1 0l.3.5v.1h-.4l-.2-.2-.1-.1-.1-.2z" clip-rule="evenodd"/><path fill="#ec5790" fill-rule="evenodd" d="M19.5 4.9q.2.2 0 .2l-.9.3H18l-.3-.2-.1-.2c-.2-.2.2-.2 0-.4q-.4 0-.4-.3 0-.4.6-.1l-.2-1 .2-.3.3-.1q.2.2 0 .4l-.1.4v.3q.1.2.3 0h.3l.2.2q0 .4.2.6 0 .3-.2.3z" clip-rule="evenodd"/><path fill="#e6216b" fill-rule="evenodd" d="m18 1.8.1-.2h.4v-.1q.4 0 .6.3h.3l.2.1-.3.2q-.2 0-.1.3v.3L19 3q-.2 0 0 .2v.1q-.2 0-.2.3h-.2l-.2-.4q0-.5-.3-.8-.2-.2 0-.4l.4-.1h-.3q-.2 0-.1-.2" clip-rule="evenodd"/><path fill="#e72f75" fill-rule="evenodd" d="m18 1.8.6.1q-.2.3-.5.3H18v.3q.3 0 .3.3l.1.2v.3h-.2V3l-.1-.2-.1.1V3h-.3q-.4.3-.4-.2h-.1l-.1-.1v-.4h.4v-.6h-.3v-.2h.4v.2h.2z" clip-rule="evenodd"/><path fill="#eb4f89" fill-rule="evenodd" d="m22.4 5.9-.5.1-.3-.7-.1-.1h-.2q0 .1-.1 0-.4 0-.4-.3-.2-.5.2-.5h.3v.1q.1.4.5.3-.2.3.1.3l.2.3.2.2h.1z" clip-rule="evenodd"/><path fill="#ea4382" fill-rule="evenodd" d="M19.5 4.9 19 5h-.2l.1-.1h.3q0-.3-.2-.4V4l.1.2h.2l.1-.3q0-.2.2-.3l.4.2v.1l-.2.2h-.2v.2q0 .2.3 0v.3z" clip-rule="evenodd"/><path fill="#e72970" fill-rule="evenodd" d="M20.2 2.4v.1q.3.1.5.5v.4H20l-.1-.2.2-.5-.1-.3v-.2z" clip-rule="evenodd"/><path fill="#e72b71" fill-rule="evenodd" d="M21.3 4.4H21l-.2-.1h-.3v-.4h-.1.2q0-.2.2-.2.1.2.4.2v.2q-.3 0 0 .3" clip-rule="evenodd"/><path fill="#ea4785" fill-rule="evenodd" d="m20.9 3.7-.2.1-.1-.3-.2-.2h.2l.5-.2v.5z" clip-rule="evenodd"/><path fill="#eb4c88" fill-rule="evenodd" d="M20.3 5.5h-.4q0 .2-.2.1l-.1-.2q.2-.2.6-.2z" clip-rule="evenodd"/><path fill="#eb4e89" fill-rule="evenodd" d="M19.9 3.2h-.2q-.2 0-.3-.2v-.3h.2q.2 0 .1.2z" clip-rule="evenodd"/><path fill="#ea4483" fill-rule="evenodd" d="M20.8 4.9q0 .3.2.2h.1q.2 0 0 .2H21l-.3-.2z" clip-rule="evenodd"/><path fill="#eb4c88" fill-rule="evenodd" d="m20 4.9-.2-.2z" clip-rule="evenodd"/><path fill="#ea4483" fill-rule="evenodd" d="M21.2 5.3h.1z" clip-rule="evenodd"/><path fill="#eb4c88" fill-rule="evenodd" d="M20.1 5H20zm.1.2" clip-rule="evenodd"/><path fill="#e8377a" fill-rule="evenodd" d="m21.1 3.2-.3.1h-.2v-.2q0-.4-.4-.6h.1q.3.1.4-.1t.3-.1l.2.3H21v.2h.3V3q0 .4-.2.3" clip-rule="evenodd"/><path fill="#e72d73" fill-rule="evenodd" d="M22 2.7q.2 0 .1.2V3l-.1.1-.4-.2v-.2h.5" clip-rule="evenodd"/><path fill="#ec5d93" fill-rule="evenodd" d="m21.1 3.2.1-.1v-.2q.2 0 .2.2v.6h-.2v-.2q-.2-.2 0-.2z" clip-rule="evenodd"/><path fill="#eb4f89" fill-rule="evenodd" d="M.8 15.2v.2q.3.2.2.3H.9v.1q.2.1 0 .1H.5q-.4 0-.3-.6v-.7h.1v.3h.2v.1q.2 0 .3.2" clip-rule="evenodd"/><path fill="#ec5a91" fill-rule="evenodd" d="M.3 14.1v.3zm.1.8-.1-.2zm-.1-1.2.1.2zm.1.9" clip-rule="evenodd"/><path fill="#eb4f89" fill-rule="evenodd" d="M.2 13.9h.1m-.1.6" clip-rule="evenodd"/><path fill="#e83478" fill-rule="evenodd" d="M1.5 19.7q0-.2-.3-.3 0-.3.4-.5h.1q.2.3 0 .7 0 .2-.2 0" clip-rule="evenodd"/><path fill="#eb508a" fill-rule="evenodd" d="M1.2 17.2v.1H1q0-.3.2-.1" clip-rule="evenodd"/><path fill="#ec5890" fill-rule="evenodd" d="M1.5 17.6h.1q0 .2-.1 0m0-.1q-.2 0 0 0m-.3-.3H1v-.4h.2z" clip-rule="evenodd"/><path fill="#ea4885" fill-rule="evenodd" d="M1 17.2v.1" clip-rule="evenodd"/><path fill="#ea4382" fill-rule="evenodd" d="M22.7 7v-.2h.4V7q0 .6.3 1.2l.2-.6q.1-.2-.2-.3t-.1-.2q.6-.1 1 .2l.1.2.1.6.1.2v.2l-.3.2h-.1v.1l-.6.5q-.4 0-.3-.3v-.3l-.4.1h-.1q-.4-.8-1-1.4l.4-.3h.1q.2.2.4 0" clip-rule="evenodd"/><path fill="#e51865" fill-rule="evenodd" d="m26.3 8.7-.3.1h-1q0-.4.4-.6l.2-.1h.2q.1.2.2 0V8h.1l.2.4z" clip-rule="evenodd"/><path fill="#e6256e" fill-rule="evenodd" d="m24.6 8.3-.2-.3q-.3-.2 0-.5h.3l.2.2q.3 0 0 .2v.4z" clip-rule="evenodd"/><path fill="#ea4382" fill-rule="evenodd" d="m24.7 7.4-.1.2h-.1l-.1-.2-.2-.4q-.1-.3.2-.2h.6V7z" clip-rule="evenodd"/><path fill="#e51865" fill-rule="evenodd" d="M25 9h.2v.3q-.7.2-.6-.3v-.1l.2.1z" clip-rule="evenodd"/><path fill="#ea4a87" fill-rule="evenodd" d="M24.6 8.9q0 .2-.2.2l-.3-.4h.5z" clip-rule="evenodd"/><path fill="#ec5991" fill-rule="evenodd" d="M24.6 8.6h-.3q0-.2.3-.2z" clip-rule="evenodd"/><path fill="#e6236c" fill-rule="evenodd" d="M26.3 8.7h.1z" clip-rule="evenodd"/><path fill="#e51865" fill-rule="evenodd" d="M26 8h-.1" clip-rule="evenodd"/><path fill="#e6216b" fill-rule="evenodd" d="m25 6.8-.6.1c-.1-.3-.4 0-.6 0l-.3-.1v-.1c.1-.2-.2-.4 0-.6h.2v.1q.2-.5.6-.3 0 .2.2.3.4-.1.3.4l.5-.2-.2.2z" clip-rule="evenodd"/><path fill="#e41060" fill-rule="evenodd" d="m25.3 6.4-.3.1q0 .2-.3.2h-.1v-.1l.1-.1v-.2h-.5q-.2-.2 0-.3v-.1q.3 0 .3-.3h.1l.3.2.1.3h.1q0 .2.2.3" clip-rule="evenodd"/><path fill="#ed6297" fill-rule="evenodd" d="M10.5 4c.2.3.4.1.6.2l.2.3.1.1q0-.3.2-.5V4q.7.4 1 1 0 .3-.3.5h-.1l-.9-.3v-.3q-.3.3-.6 0l.1.3v.4h-.2.1q0 .4-.2.2-.3 0-.1-.4H10c-.4-.4-.4 0-.6.2q-.6.6-1.1 0-.2-.2-.5-.1-.3 0-.1.3t-.2.5c-.2 0-.4.4-.6 0V6l-.1-.3v-.1q.2 0 .3-.2l.4-.3L8 5h.1v-.5l.1-.1h.4l.2.3c.2.3.3 0 .5.1v-.2q0-.5.4-.9h.3v.1l.2.4h-.1z" clip-rule="evenodd"/><path fill="#e93c7d" fill-rule="evenodd" d="M8.3 4.5H8v.3l-.3-.3q-.2-.2-.5 0-.1 0 0-.2H7q0-.2.3-.3t0-.3h-.1v-.1q0-.2.2-.3t.3-.2l.1.3v.2l.2.1h.2l.2.1.3.2.1.3-.3.1z" clip-rule="evenodd"/><path fill="#ec5d93" fill-rule="evenodd" d="m4.7 6.5.2-.2q-.2 0-.3-.2v-.3l.3-.1q.2 0 .3-.2v.3l.3-.1h.1l-.2-.5.1-.1.3-.2H6v.3q0 .3.2.5c0 .3-.3 0-.4.2q-.3.3-.7.3v.3l-.1.2h-.1z" clip-rule="evenodd"/><path fill="#ed6297" fill-rule="evenodd" d="M6.4 5.6q.3-.3 0-.5L6.3 5v-.1l-.1-.2.3-.2h.3v.2q0 .2.3.2l.1.1v.5l-.3.2-.3.2q-.3 0-.2-.3" clip-rule="evenodd"/><path fill="#ee679a" fill-rule="evenodd" d="M6.4 5.6q0 .3.2.2.1.4-.2.3-.4 0-.6-.3 0-.1.2 0l.2-.1z" clip-rule="evenodd"/><path fill="#e93e7e" fill-rule="evenodd" d="M4.5 4.8v-.2z" clip-rule="evenodd"/><path fill="#eb4f89" fill-rule="evenodd" d="M8.6 4.4h.2v-.2q-.2 0-.3-.4v-.4l.2-.2h.1l.4.4h.2v-.2l-.1-.3h.3q.2.2.4 0v.1h.3V4h.2l-.2.2h-.1L10 4v-.3l-.2.1q0 .2-.2.3v.5h-.1V5h-.3q-.2.2-.3 0t-.2-.2v-.1z" clip-rule="evenodd"/><path fill="#e51a67" fill-rule="evenodd" d="M8.7 3H8l-.4-.2.7-.2q.4 0 .4.3z" clip-rule="evenodd"/><path fill="#e72c72" fill-rule="evenodd" d="M8.7 3v-.6H9q0-.2.2-.2.3.1 0 .4l-.1.2q0 .2-.3.3" clip-rule="evenodd"/><path fill="#eb4f89" fill-rule="evenodd" d="M8.7 3H9v-.2h.4v.3q0 .5-.6.1z" clip-rule="evenodd"/><path fill="#e93c7d" fill-rule="evenodd" d="m8.5 3.4.1.1-.1.2zm-.5 0v.1z" clip-rule="evenodd"/><path fill="#e93b7d" fill-rule="evenodd" d="M6.3 2.7h.2v-.2l.1-.2.2-.2q.3 0 .3.3l-.1.3-.5.1z" clip-rule="evenodd"/><path fill="#e30a5c" fill-rule="evenodd" d="M8.7 2.4V3v-.2h-.2l-.2.1-.1-.1q-.2.2-.5.1v-.2l.1-.3H8q.2-.2.3 0l.1.1z" clip-rule="evenodd"/><path fill="#e83478" fill-rule="evenodd" d="m9.2 2 .2-.1q0 .2-.1 0m-.2.2.1-.2z" clip-rule="evenodd"/><path fill="#e72c72" fill-rule="evenodd" d="m9 2.2.1-.1" clip-rule="evenodd"/><path fill="#d00624" fill-rule="evenodd" d="M26.4 14.8q.4.7.1 1.3v.4q0 .4-.4.7H26l-.1.2q-.5 0-.4-.6l.4-.6q.3 0 .2-.4v-.9q.2-.2.3-.1" clip-rule="evenodd"/><path fill="#d4152c" fill-rule="evenodd" d="m25.5 16.8.1.3v.1l.3.1h.1v-.1.2h-.2l-.2.2h-.4v.1l-.3.1h-.8q0-.5.3-.6.5-.2.6-.6.3-.1.5.2" clip-rule="evenodd"/><path fill="#ea4b86" fill-rule="evenodd" d="M27.3 14v.3l-.1.5v.5H27v-.6h-.2q0 .2-.1.1l-.3-.1-.2-.4v-.1q.4-.3.9 0z" clip-rule="evenodd"/><path fill="#d51431" fill-rule="evenodd" d="M26.2 14.9v1.3h-.3q-.4-.1-.1-.5V15q0-.3.2-.4t.4.1z" clip-rule="evenodd"/><path fill="#ea4a86" fill-rule="evenodd" d="M26.2 18.3H26l-.3.2h-.1v-.1l.1-.2V18h.4l.2-.3h.1l.1.4q0 .3-.2.2z" clip-rule="evenodd"/><path fill="#ef7ca8" fill-rule="evenodd" d="M26.5 18v-.3l.3.4-.1.1z" clip-rule="evenodd"/><path fill="#eb528b" fill-rule="evenodd" d="M27 15.5v.2z" clip-rule="evenodd"/><path fill="#ea4a86" fill-rule="evenodd" d="M26.5 18.6v-.2zm.2-.1v-.1" clip-rule="evenodd"/><path fill="#e72e74" fill-rule="evenodd" d="m.8 12.5-.2-.1-.1-.6.2.2H1q.3-.1.1-.4v-.4l.7.2v-.2h.6v.1q-.2.1 0 .3t.2-.1V11H3l-.1-.4h-.7v-.2q-.4-.1-.6-.5h.1l.1-.2q.4 0 .6-.3.3 0 .3.3-.2 0-.3.4.2.3.6.3c-.1-.2-.5-.3-.3-.7.2 0 .5-.5.6 0h.4v.2q0 .4.2.1H4v.4q-.3.2-.2.5-.1.3-.5.6v.4q-.4.5 0 .6.3 0 .2.2l-.3.2h-.8l-.1-.2.1-.1.1-.2v-.3q-.1.2-.1 0h-.2v.1H2v.4h-.2l-.2-.1v-.8l-.2-.2-.1-.2q-.2 0 0 .3l-.2.3v.3l-.2.2z" clip-rule="evenodd"/><path fill="#e3095c" fill-rule="evenodd" d="M.6 11.1v-1h.2l.3.6z" clip-rule="evenodd"/><path fill="#e72e74" fill-rule="evenodd" d="M2.4 11.3h.3zq-.2 0 0-.1" clip-rule="evenodd"/><path fill="#e93c7d" fill-rule="evenodd" d="m2.6 9.8-.1-.1q0-.2-.2-.2h-.1L2 9.3v-.5q.3-.1 0-.2V8l.1-.2h.3v-.1h.2q.2.1.3.4c-.1.4-.3 0-.5 0l.2.8v.2h-.2.2q.5 0 .7.4v.3l-.3.1-.1-.1q-.1.2-.2.1z" clip-rule="evenodd"/><path fill="#e41362" fill-rule="evenodd" d="M2 9.3h.2v.2H2q0 .2-.2 0h-.4L1.3 9l.2-.2h.2v.1q-.2.1 0 .3l.1.2z" clip-rule="evenodd"/><path fill="#e73076" fill-rule="evenodd" d="M2.1 8.2v.4q-.3 0-.2-.2L1.8 8l-.2.4q-.2-.1-.2-.4l.2-.2H2V8" clip-rule="evenodd"/><path fill="#e6236c" fill-rule="evenodd" d="m2.1 8-.3-.2V7l.3-.2q0-.3.3-.4v-.1l.1-.2q.4 0 .3-.3l.1-.2.3-.3h.3v1H3q0 .2-.2.2v.1q0 1-.8 1.4m-.3 0" clip-rule="evenodd"/><path fill="#eb4c88" fill-rule="evenodd" d="M2.5 9.2q.3-.1.5-.5s.3 0 0-.2V8q-.3-.3 0-.5.3 0 .2-.3t.2-.3Q3 7 3 6.7h.3q0-.2.1-.1h.3q.3 0 .2-.2-.1 0 0-.2h.2l.2.6v.6q-.2 0-.2.2h.2l.1-.2q.3-.1.5.1H5v.1q.5 0 .3.4v.2q0 .2-.3.2h-.9q.4.3.3.6v.2q-.3-.1-.5-.4-.4-.2-.4.1V9l.1.2.2.2q-.2.2-.4 0 .3 0 .2.4h-.3v-.2L3 9.4q0-.2-.2 0h-.1z" clip-rule="evenodd"/><path fill="#ec5b92" fill-rule="evenodd" d="M4.2 7v-.3q-.2 0-.2-.3l-.2-.1v-.2q-.2 0 0-.2l.1-.2v-.2h.2v.3l.2.1-.1.2.2.1q0 .2.3.3V7z" clip-rule="evenodd"/><path fill="#e73076" fill-rule="evenodd" d="M2.1 8q0-.3.2-.4.3 0 .3-.4l.2-.6q.2 0 .3-.2v.4H3c.2.5-.3.7-.4 1h-.3l.1.1z" clip-rule="evenodd"/><path fill="#eb4f89" fill-rule="evenodd" d="m9 2.2.2-.3h.3l.1-.1h.2q0 .3.3.4v.2q0 .3-.2.2H9z" clip-rule="evenodd"/><path fill="#d71c37" fill-rule="evenodd" d="M2.6 13h.3l.3-.1h.5q.4-.2.3.3 0 .3-.3.2-.5-.1-.9.4l-1 .9h-.6v-.5l.5-.6q.3 0 .4-.3z" clip-rule="evenodd"/><path fill="#e51564" fill-rule="evenodd" d="M27.1 10.4v.6c-.3.2-1 .2-1.2 0l.3-.2-.5-.4-.1-.2v-.1l-.1-.1v-.2l.1-.2v-.3h.5v.1l.1.2h.4l.2.1.1.4v.2z" clip-rule="evenodd"/><path fill="#e73076" fill-rule="evenodd" d="M25.4 10h.2v.1l-.4.2h-.1l-.5-.1-.2-.2v-.3h.1-.3v-.3q.2 0 .1-.2V9l.3-.1v.2l.5.1h.5v.5h-.2z" clip-rule="evenodd"/><path fill="#e6236c" fill-rule="evenodd" d="m25.7 10.3.1.1.3.3h.1v.2h-.3l.6.2h.6l.1.4v.3H27v-.2h-.6l.4.5v.2h.1q.3.5.2.7-.3.1-.5-.2l-.1-.4q0-.1-.2 0h-.2q-.1-.2-.3-.1-.3 0-.3-.3l.1-.3c.4-.1 0-.3 0-.3q-.5-.2-.2-.7v-.1q0-.2.2-.3" clip-rule="evenodd"/><path fill="#e6236c" fill-rule="evenodd" d="M27.3 12.2v.2h-.5q0-.5.4-.6v.4m-.1-1.8-.2-.1zq.2 0 0 .1" clip-rule="evenodd"/><path fill="#e72f75" fill-rule="evenodd" d="M18.2 1.5v.2z" clip-rule="evenodd"/><path fill="#e83076" fill-rule="evenodd" d="m26.8 12.3.4.1h.1l-.1.5.1.6v.3h-.2v.2l-.2-.6q0 .3-.4.2-.4-.2-.7-.1v-.1h-.1q-.3-.3 0-.4l.4-.8h.2c.2.2 0 .4.3.5l.2.1.2.2v-.5q-.2 0-.2-.2" clip-rule="evenodd"/><path fill="#e6226b" fill-rule="evenodd" d="M26.4 13.6q.3 0 .5-.2.2.2.2.6v.1h-.7l-.2.1q-.2 0-.2-.3.1-.2.4-.3" clip-rule="evenodd"/><path fill="#f181ab" fill-rule="evenodd" d="M27.3 12.5v-.2zm0-.3V12" clip-rule="evenodd"/><path fill="#e93b7d" fill-rule="evenodd" d="M3.8 21h-.2l-.2-.1-.1-.2-.4-.1-.2-.4q.1-.7-.2-.5l-.3.3-.3.3q-.3 0-.2-.3.2-.2.2-.5h.3l.1-.3q0-.3.3-.3H3q.2.3 0 .5l.3.3q.2.1 0 .2v.2q0 .2.3 0 0 .3.3.5t.1.4" clip-rule="evenodd"/><path fill="#e72c72" fill-rule="evenodd" d="M1.9 20.3V20l.4-.2v-.2l.3-.1q.3 0 .4.2l-.1.2-.1.2v-.2q-.1 0 0 .2h.1v.4h-.2q0 .2-.1 0l-.4-.1H2z" clip-rule="evenodd"/><path fill="#ea4885" fill-rule="evenodd" d="M2 19.4v.4l-.3.2-.2-.3.2-.2v-.6l.3.3z" clip-rule="evenodd"/><path fill="#e93b7d" fill-rule="evenodd" d="M2.2 20.4q.2 0 .3.2H2z" clip-rule="evenodd"/><path fill="#ed6196" fill-rule="evenodd" d="M22.4 5.9v-.3h.4q.6-.3.8.2V6l-.4.3-.4-.2-.3-.2" clip-rule="evenodd"/><path fill="#eb4f89" fill-rule="evenodd" d="m23.6 6-.1-.2-.3-.2H23l-.4.1h-.1q0-.3.2-.4h.4q.1.3.4.1.2 0 .2.3z" clip-rule="evenodd"/><path fill="#eb4e88" fill-rule="evenodd" d="M23 4.4v.2q0 .2-.4.3l.1-.1v-.2l-.3-.3v-.2l.3-.1.3.2z" clip-rule="evenodd"/><path fill="#ea4785" fill-rule="evenodd" d="M21.2 3.7h.2z" clip-rule="evenodd"/><path fill="#ec558e" fill-rule="evenodd" d="M24.5 5.5h-.1z" clip-rule="evenodd"/><path fill="#eb4f89" fill-rule="evenodd" d="M23.4 6.1h.2z" clip-rule="evenodd"/><path fill="#e83277" fill-rule="evenodd" d="M21.3 23.5v.1q0 .3.2.3v-.1h.3l.2.1q0 .2-.2.2v.6H21l-.3.3v.2l-.4-.1q-.2 0-.2-.3v-.3l.2-.1.4-.2h.2q.4 0 .2-.3v-.3z" clip-rule="evenodd"/><path fill="#e94080" fill-rule="evenodd" d="m21.8 24.1.2-.2.2.2-.4.2z" clip-rule="evenodd"/><path fill="#ea4986" fill-rule="evenodd" d="m20.6 25.2.1-.2zm.4 0h.1" clip-rule="evenodd"/><path fill="#eb4b87" fill-rule="evenodd" d="M8.6 25.3v-.6q.5 0 .6.4l-.1.2z" clip-rule="evenodd"/><path fill="#ea4986" fill-rule="evenodd" d="M3.6 22.2h-.2l-.3-.3v-.2l.6-.2h.1q.1-.2.3 0v-.1h.2q0 .2.3.3l-.2.3h-.5v.1z" clip-rule="evenodd"/><path fill="#ea4986" fill-rule="evenodd" d="M4.6 21.7q.3 0 .4.3v.2l.1.1q.2.2.1.4l-.3.1h-.4l-.1-.1v-.3h-.2q0-.2.2-.1l.2-.2z" clip-rule="evenodd"/><path fill="#e83277" fill-rule="evenodd" d="M3.7 21.5v.3H3v-.6l.2.1h.2z" clip-rule="evenodd"/><path fill="#ea4986" fill-rule="evenodd" d="m3.7 22.6-.1-.4.3.2z" clip-rule="evenodd"/><path fill="#eb4c88" fill-rule="evenodd" d="m4 21-.2-.4q.3.2.1.4" clip-rule="evenodd"/><path fill="#ea4281" fill-rule="evenodd" d="M5.5 23.7h-.2z" clip-rule="evenodd"/><path fill="#ed5f95" fill-rule="evenodd" d="m5.9 23.9.1.1v.4q-.4-.1-.3-.5z" clip-rule="evenodd"/><path fill="#ec5890" fill-rule="evenodd" d="M21.1 23.9q.4 0 .1.3 0 .2-.2 0h-.8L20 24l.3-.1.2.1h.2l.2-.2z" clip-rule="evenodd"/><path fill="#e83277" fill-rule="evenodd" d="M20 24v.3l-.2.1-.2-.1-.1-.1q0-.2.2-.2z" clip-rule="evenodd"/><path fill="#ee70a0" fill-rule="evenodd" d="M20 25.2h.1l.1.3-.2.1z" clip-rule="evenodd"/><path fill="#e94080" fill-rule="evenodd" d="m21.3 23.5-.1.1-.2-.1z" clip-rule="evenodd"/><path fill="#f077a4" fill-rule="evenodd" d="M19.2 26.2V26h.2q.4-.2.4 0l-.3.2z" clip-rule="evenodd"/><path fill="#ee689b" fill-rule="evenodd" d="m3 21.5-.4-.4V21l.1-.1H3v.4q.3.3 0 .4z" clip-rule="evenodd"/><path fill="#ea4986" fill-rule="evenodd" d="M3 21.7q.3 0 .1-.2v-.2l.1.1v.3zm0-.2v.2z" clip-rule="evenodd"/><path fill="#f078a5" fill-rule="evenodd" d="M27.6 14.4h-.2v-.1z" clip-rule="evenodd"/><path fill="#f076a4" fill-rule="evenodd" d="M27.4 14.8q0 .1 0 0" clip-rule="evenodd"/><path fill="#5f263e" fill-rule="evenodd" d="M7.8 17.2H8l.1.1.3.6.2.5q0 .3-.3.2.3.5.4 1.1l1.2.5.5.7v.2h-.6q-.5-.5-1.1-.8v.3l-.4-.6q0-.6-.6-1.2v-.4h.1q-.1-.5 0-.8.3 0 .2-.2z" clip-rule="evenodd"/><path fill="#732d49" fill-rule="evenodd" d="M10.2 22h-.4q-.5-.4-.9-1 .3-.1.4 0l.3.3q.3 0 .5.3z" clip-rule="evenodd"/><path fill="#8b4161" fill-rule="evenodd" d="M7.7 18.8v.1q.5.5.5 1.1l-.2-.3-.7-1 .2-.2v.1h.1z" clip-rule="evenodd"/><path fill="#b73d4d" fill-rule="evenodd" d="m12.2 22.8-1.2-.2h-.2l-.2-.3h.9l.6.2z" clip-rule="evenodd"/><path fill="#771725" fill-rule="evenodd" d="M10.8 22.3h-.2l-.4-.2v-.5l.1-.3h.1q0 .3.4.7z" clip-rule="evenodd"/><path fill="#732d49" fill-rule="evenodd" d="M8.6 20.6q.4 0 .3.3-.3 0-.3-.3m.3.4" clip-rule="evenodd"/><path fill="#ee6c9d" fill-rule="evenodd" d="M20.2 22q0-.2-.2-.1h-.2l-.2.1H19v.2q.2 0 .2.3t.2.2l.2.2h-.5l-.4-.1h-.3v.1l.2.1q0 .3.2.4l.3.5-.1.1h-.5l-.2.1-.2.4H18l-.3-.3-.1-.6h.2v-.1h-.2q-.2 0-.3-.3H17V23q-.3-.2-.4 0H16v-.1h.3q0-.2.3-.2.4.2.8-.1l.2-.2q.2 0 .2-.3l.4-.5.1-.2.1-.2.3-.2q.2-.4.6-.7l1.1-1.5.3-.3q.1-.5.6-.3l.3.2q.6 0 .5-.3V18l-.2-.2-.1-.1-.4-.4q0-.5-.5-.7h-.1l-.1-.1h-.4l-.2-.2q-.2-.4.1-.7.5-.3.6-.7t.4-.3q-.3 0-.1-.3.1-.5.5-1l.3-.4q.2-.5.6-.2v-.1l.2-.3h.9c-.3.3 0 .5 0 .8l-.2.2-.6.3q-1 .4-1 1.5c0 1.1.7 2.2 1.9 2.4l.3.2.2.1v.8h-.3l-.2.1q0 .3-.3.1h-.5v-.1q-.2 0-.1.2v.6l.1.2v.1l-.6.2v.2h.2v.3l-.1-.1H22l-.3.2q-.2.2-.4 0-.4-.4-.4.2l-.2.3.3.2v.2h-.2q0-.2-.2-.2h-.1l-.1.2.1.2.1.2z" clip-rule="evenodd"/><path fill="#ed6297" fill-rule="evenodd" d="M17.4 24.5h-.2q-.1-.2-.2 0h-.1v-.1q-.3-.1-.2-.2l.1-.2h.1q0-.2.1-.1zm.3-.3q.2-.1.3.2l-.4.2v-.2z" clip-rule="evenodd"/><path fill="#ed6297" fill-rule="evenodd" d="M17 23.9h-.5l.1-.2.1-.2z" clip-rule="evenodd"/><path fill="#e69" fill-rule="evenodd" d="M18.2 25.7H18l-.4-.2h.5zm-2.2-1" clip-rule="evenodd"/><path fill="#db3072" fill-rule="evenodd" d="M8 14.4q0-.2-.3-.3-.8-.2-1.2-.8-.2 0-.1-.3v-.3q-.5-.8 0-1.3.2-.2 0-.3V11l.2-1.2q.2-.2.5 0c.2.5.6.3 1 .3h.2q.6 0 .6.6 0 .2.2.3t.3-.3l.1-.4q-.2.2-.3-.2l.3-.3.1-.2.6-.4q.3.2.1.5v1q.5 0 .4.4 0 .6.3 1l.1.4q-.1.5.4.6 0 .3-.2.4l-.3-.1c-.3 0-.6-.2-.7.3l-.4.2-.6.2-1 .5z" clip-rule="evenodd"/><path fill="#ef73a2" fill-rule="evenodd" d="M8 14.4h.2l.1.2q.6 0 1 .4l.4.1q.4.6 1 .8.8.2.3.8.3 0 .5-.2.4 0 .6.3l.1.3q.1.4-.3.4.3 0 .4.3 0 .3.3.5 0 .2.2 0 .4 0 .6.2t.1.5-.4.1-.7 0H12l-1.4.1-1.6-.8-.3-.3q0-.2-.3-.3t-.1-.4l.1.1h.2l.2.1h.5q.3 0 .5.2.3.1.8 0h.5l.1.2h.2q.3 0 .1-.3l-.4-.5h-.3l-.1-.1v-.7l-.3-.1q-.2 0-.2.2v.2c.3.1 0 .3 0 .5h-.3v-.5q.1-.2-.1-.5v-.3l-.3-.4-.1-.2h-.1v.3q.3.6-.2.6h-.3v.4h-.5q.1-.2-.1-.2l-.4-.2V16q0-.2.3-.2v-.4h.1q0-.2.2-.2h.2q-.2-.4-.6-.6z" clip-rule="evenodd"/><path fill="#de3654" fill-rule="evenodd" d="m5.8 16.3.3-.6h-.3l-.1.4-.2.2q-.2 0-.3.2H5l-.3.1-.2.3-.2.1-.3-.2-.7-.1-.2.2h-.3q-1 .1-1.2-1.3v-.4q-.1-.4.4-.4l.2-.1q.1-.5.6-.6.2-.2.3.1l-.1.3h.2q.4-.2.4 0 .1.3-.2.4l-.3.2h.2q.9.1 1 1h.1q.4-.7 1.3-.7-.3-.2-.4-.6-.2-.2-.3 0-.3 0-.4-.3 0-.4-.3-.6l-.7.3c-.2 0-.3.3-.5 0 0-.2-.3-.4 0-.6q.3-.3.5-.2.3.2.6 0l.6.1q.1.3.5.4l.8 1.1c.1-.2-.3-.4.1-.6q.4.8 0 1.7z" clip-rule="evenodd"/><path fill="#ee6e9e" fill-rule="evenodd" d="M6.1 16q.4-.7 0-1.6l-.3-.5-.1-.2-.2-.3-.1-.1q-.2-.3-.2-.7l.6-.2.2.1.2.3.2.1q0 .6.6.8l.7.4-.2.2q-.1.1 0 .2l-.5.1-.2.2-.2.2-.1.2-.2.7q0 .2-.2.2" clip-rule="evenodd"/><path fill="#a24465" fill-rule="evenodd" d="M8.2 17.4q0 .3.3.4l.2.3h-.1q-.3 0-.3-.2-.3-.2-.3-.6z" clip-rule="evenodd"/><path fill="#ee6b9c" fill-rule="evenodd" d="m6.4 16.6-.4.2q.1-.2.4-.2" clip-rule="evenodd"/><path fill="#db2b49" fill-rule="evenodd" d="m5.8 13.8.3.6v.4l.1.3v.3q-.3-.1-.1-.3l-.1-.2-.4-.5q0-.4-.6-.5l-.2-.2-.1-.1q-.2-.3-.4 0h-.8q0-.2-.2-.2v.3H3v.5h-.2q0-.2 0 0l-.3.2q-.2 0-.3.2v.2h-.5q-.2 0-.1.3v.8q.2.1.1.3l.1.2q.3.3.7.3l.2.1.1.6q-.2.2-.4 0h-.6l-.1-.2h-.1V17q-.4-.3-.3-.6l-.1-.2v-.3l-.1-.1v-1.2h.3l.4-.2.4-.4h.1q.2 0 .2-.2h.1l.1-.1.2-.3.7-.1h.2v-.2q0-.2-.2-.2h-.5.3l.2-.2h.7v.2s-.3.1 0 .2q.3 0 .5.3c.2-.3.4.2.6 0l.2.2z" clip-rule="evenodd"/><path fill="#d71f38" fill-rule="evenodd" d="M2 17.3v-.1h.4q.3.3.5.2v.3h-.5l-.1-.1h-.1v-.1z" clip-rule="evenodd"/><path fill="#ec5890" fill-rule="evenodd" d="m1.4 16.4.2.5h-.1q-.2 0-.1-.2z" clip-rule="evenodd"/><path fill="#eb508a" fill-rule="evenodd" d="M.8 15.2.6 15q.2 0 .2.2m.4.4v.2q-.1-.2 0-.2" clip-rule="evenodd"/><path fill="#db2b49" fill-rule="evenodd" d="M1.3 14.2v.3z" clip-rule="evenodd"/><path fill="#ea4885" fill-rule="evenodd" d="M1.5 17.2h-.1" clip-rule="evenodd"/><path fill="#ec5890" fill-rule="evenodd" d="M1.3 16.2v.1zm1.1 1.5h.1m-.9-.5q0-.2 0 0m-.4-.6q.2 0 0 0m.1-.8h.1" clip-rule="evenodd"/><path fill="#7e1e2f" fill-rule="evenodd" d="m18 21.6-.4.2q-.2.1-.2-.1-.4-.6-1.2-1l-.2-.2-.3-.2h-.1V20h1l1.3.8q.2 0 0 .2z" clip-rule="evenodd"/><path fill="#ca333c" fill-rule="evenodd" d="m15.8 20.3.3.1v.3q.4.3.6.7.2.5.9.5 0 .2-.2.2t-.4.2l-.2.1-1 .2q0-.2.3-.2t.5-.2h-.5l-.2-1.5-.2-.3z" clip-rule="evenodd"/><path fill="#7f283b" fill-rule="evenodd" d="m12.2 22.8-.1-.2h.7l.2-.1h2.6v.1q-.8.3-1.7.3H13z" clip-rule="evenodd"/><path fill="#b92a37" fill-rule="evenodd" d="m17.6 22-.7-.1-.1-.2-.3-.6-.1-.2-.2-.2.6.2.5.4.1.3.2.2z" clip-rule="evenodd"/><path fill="#350d20" fill-rule="evenodd" d="m18.5 21.2-.2.2-.2.1H18c0-.4-.1-1 .5-1.1q.2 0 .4-.3h.4l-.1.3-.6.7z" clip-rule="evenodd"/><path fill="#b92a37" fill-rule="evenodd" d="M15.6 22.6v-.2l.5-.2h.1l.4-.1h.2l-.2.2-.5.2-.3.1z" clip-rule="evenodd"/><path fill="#4e2237" fill-rule="evenodd" d="m7.4 18.5-.2-.5-.3-.3v-.2h.4l.5.1-.1.2q.2.2 0 .3h-.1v.1H8v.2q-.3 0-.2.2v.2h-.1z" clip-rule="evenodd"/><path fill="#4e2237" fill-rule="evenodd" d="M6.8 17.5H7q0 .2 0 0m-.1-.1" clip-rule="evenodd"/><path fill="#622640" fill-rule="evenodd" d="M6.8 17.5H7v.2z" clip-rule="evenodd"/><path fill="#dd324e" fill-rule="evenodd" d="M2.5 17.7h.1q0-.2.2-.1v.1z" clip-rule="evenodd"/><path fill="#e69" fill-rule="evenodd" d="M17.8 26h-.1z" clip-rule="evenodd"/><path fill="#ed5e94" fill-rule="evenodd" d="M17.7 3.2v.4l.1.1q.3 0 0 .2l.2.1v.2q-.2.2-.3 0l-.3.1.5.3.1.1v.1h-.2V5q-.2 0-.2-.2-.3-.3-.6 0-.5.4-1.2.4-.4-.2 0-.5.2 0 .1-.3l-.3.2V5q-.4.2-.5 0c0-.5-.5-.4-.7-.6l-.2-.2.1-.1.3-.3q.3 0 .3.2-.2-.4.4-.4l.4-.2h.9q.4.3.7-.2c.1-.3.3 0 .5 0" clip-rule="evenodd"/><path fill="#ea4a86" fill-rule="evenodd" d="M17.7 3.2h-.4l-.2.3q0 .2-.3.1l-.3-.3-.3-.4.2-.2.1-.2.2.1h.4c.1.2.2 0 .3.2V3h.5q-.2 0-.2.2" clip-rule="evenodd"/><path fill="#eb4b87" fill-rule="evenodd" d="M15.3 1.3h.2l.2.2h.1l.3-.3q.2-.1 0 .1v.9h.2v.2l-.3.3-.1-.1-.2-.2-.3-.1c0-.2-.4-.2 0-.5z" clip-rule="evenodd"/><path fill="#eb4c88" fill-rule="evenodd" d="M15.6 3.4q-.2.5-.7.3v.1l-.2.4v-.3h-.3l.1-.3.1-.1.2-.1v-.2q0-.3.2-.3h.2q.1.1 0 .4v.1z" clip-rule="evenodd"/><path fill="#eb528d" fill-rule="evenodd" d="M17.6 2.4h-.3q0-.4-.5-.2L17 2l.2-.2.3-.1z" clip-rule="evenodd"/><path fill="#e6256d" fill-rule="evenodd" d="m16 3-.1.2h-.4V3l.3-.2h.2z" clip-rule="evenodd"/><path fill="#ea4a86" fill-rule="evenodd" d="M16.2 3.4v.1l-.3.1-.2-.2q0-.2.1 0zm.2-.1v.2l-.1-.2" clip-rule="evenodd"/><path fill="#e72f75" fill-rule="evenodd" d="M17.2 2.3H17z" clip-rule="evenodd"/><path fill="#ee6b9c" fill-rule="evenodd" d="M14.6 3.5h-.2q0-.2-.3-.2h-.6q.2-.2 0-.4l-.1-.3h.3v-.4L14 2v.1q-.1.3.1.4h.1v.2l.7.5v.1z" clip-rule="evenodd"/><path fill="#ed5e94" fill-rule="evenodd" d="m14.9 3.2-.3-.1q0-.2-.1-.1-.2 0-.3-.2v-.1l.2-.1q.1-.3.4-.2h.3v.2l-.1.1V3q-.3.2-.1.3" clip-rule="evenodd"/><path fill="#e72e75" fill-rule="evenodd" d="m15.3 1.4.1.2q.3.4-.1.4l.2.3-.4-.1-.2-.2v-.5z" clip-rule="evenodd"/><path fill="#ed5e94" fill-rule="evenodd" d="M14.1 2.5v-.3.1zm-.1-.3V2q.1 0 0 0" clip-rule="evenodd"/><path fill="#ec558e" fill-rule="evenodd" d="M15.3 1.4v-.1" clip-rule="evenodd"/><path fill="#eb4c88" fill-rule="evenodd" d="M13.9 1.2h-.2zm-.2 0v.2z" clip-rule="evenodd"/><path fill="#ea4f88" fill-rule="evenodd" d="M24.5 17.7h.6l.1.3.1.2q.2.1 0 .2v.1l-.2.1h-.2l-.3-.1V18l.1-.1z" clip-rule="evenodd"/><path fill="#d9243d" fill-rule="evenodd" d="M24.5 17.7v.1H24z" clip-rule="evenodd"/><path fill="#ec5890" fill-rule="evenodd" d="M20.7 21.5h-.1" clip-rule="evenodd"/><path fill="#ee6c9d" fill-rule="evenodd" d="M21.1 21.7h-.2zm-1.1.7q0-.2.2-.1v.1l-.1.2H20z" clip-rule="evenodd"/><path fill="#ec5890" fill-rule="evenodd" d="M21.2 22.2h-.1" clip-rule="evenodd"/><path fill="#ee6c9d" fill-rule="evenodd" d="M20.2 22v.1" clip-rule="evenodd"/><path fill="#ea4986" fill-rule="evenodd" d="M21.3 23.5H21l.2-.3V23l.2.1q.2.2 0 .2l-.2.2" clip-rule="evenodd"/><path fill="#e83277" fill-rule="evenodd" d="M21.7 23.5h-.1" clip-rule="evenodd"/><path fill="#e52067" fill-rule="evenodd" d="m25.6 17.6.2-.1zm-.2 0h.1" clip-rule="evenodd"/><path fill="#e94080" fill-rule="evenodd" d="M21.3 23v.2z" clip-rule="evenodd"/><path fill="#ed6297" fill-rule="evenodd" d="M19.7 23v-.1" clip-rule="evenodd"/><path fill="#f078a5" fill-rule="evenodd" d="M13 4.6h.9V5l.1.2.2.5q0 .2-.2.3-.5.1-.6-.2h-.1q-.2 0-.3.3-.3.3-.6-.1v.3h-.1q-.2.1-.2 0v-.1H12c-.4-.3-.1-.4 0-.5q.4-.2.6-.6v-.3q-.1-.4.4-.2" clip-rule="evenodd"/><path fill="#ee6b9c" fill-rule="evenodd" d="m13.8 4.7-.3.1q-.3.2-.4 0H13v-.1h.5v-.1q0-.2-.3-.3v-.2l.2-.3.2-.2h.2v.1h.4v.2h.3l-.1.1-.2.1.1.2h.1l.2.2.4.2.1.3h.2l.2-.4v-.2l.2-.3h.2v.3q0 .4-.2.4t-.1.2l.1.1q-.1.3-.5.2-.2 0-.5-.4h-.3q-.3.1-.6-.2" clip-rule="evenodd"/><path fill="#ee6b9c" fill-rule="evenodd" d="M13 4.6h-.3V5h-.2l-.1-.1v-.1h-.2l-.1-.2v-.3l-.2.1-.2-.4h-.2q0-.2.3-.3h.3l.3-.3q0-.2.2-.3l.1-.1.3.1.2.2.1.2q0 .4-.3.5v-.2h-.2l-.1.2q0 .4.2.5z" clip-rule="evenodd"/><path fill="#ef709f" fill-rule="evenodd" d="m11.1 4.2-.5.2v-.7l-.1-.1q-.1-.3.1-.3h.6l.2.6z" clip-rule="evenodd"/><path fill="#eb4c88" fill-rule="evenodd" d="m12.2 1.2.2.1v.2l.1.2q0 .2-.2.2l-.1-.2H12v-.3z" clip-rule="evenodd"/><path fill="#ed6297" fill-rule="evenodd" d="m11.1 4.1.3-.1-.2.2" clip-rule="evenodd"/><path fill="#eb4f89" fill-rule="evenodd" d="m10.4 2.8-.1.4q-.2-.3 0-.4" clip-rule="evenodd"/><path fill="#ed6297" fill-rule="evenodd" d="m10.6 3.7.2.1-.2.2z" clip-rule="evenodd"/><path fill="#eb4f89" fill-rule="evenodd" d="M10.5 3.7v.1" clip-rule="evenodd"/><path fill="#ef71a0" fill-rule="evenodd" d="m20 6.6-.3.1q-.3 0-.3.3l-.3.2v.4h-.2v.1q.1.8-1 .6l-.2-.1-.2-.2h-.2q-.2-.3 0-.6h.2l.6.1q.3 0 .2-.3l-.1-.4q-.2-.4.2-.3l.3-.1h1.1z" clip-rule="evenodd"/><path fill="#ee689a" fill-rule="evenodd" d="M18 8.2h.5q.3 0 .3-.3v-.2q.3.2.4.1l.8-.4.4.2q-.1.4-.6.6l-.5 1-.5.3-.1-.2-.1-.2-.4-.5-.2-.2h-.1z" clip-rule="evenodd"/><path fill="#ec5790" fill-rule="evenodd" d="M19.5 6.4h-.1l-.3.1H19q0-.2-.3 0-.3 0-.4-.3l-.2-.4v-.1c.2-.1.1-.5.5-.2q0 .2.3.2h.2V6l.1-.1q0-.1.2 0h.1q.2 0 .1.2z" clip-rule="evenodd"/><path fill="#d11059" fill-rule="evenodd" d="m19.8 8.1.6-.4.1-.1.4-.2h.1l-.2.5-.6.7-.2.2q-.2 0-.2-.3z" clip-rule="evenodd"/><path fill="#eb4f89" fill-rule="evenodd" d="M20.8 6q0 .3-.3.5v.2l-.2.1-.1-.1v-.4L20 6q0-.1.1 0zm.2 1.3-.4.2v-.2q0-.2-.3-.2H20v-.2h.5l.1.1q.2 0 .3.3" clip-rule="evenodd"/><path fill="#cd074d" fill-rule="evenodd" d="M20.8 7.7v-.2q.2 0 .2-.2.6-.2 1 .1l.5.7q.3.3.3.7-.3.2-.6 0v-.3c.1-.3-.2-.1-.3-.2q0-.2-.3-.3-.3-.3-.8-.2" clip-rule="evenodd"/><path fill="#eb4f89" fill-rule="evenodd" d="M22 7.4h-.3q-.3-.2-.7-.1v-.1l-.1-.2q-.2 0-.2-.3l.6.2q.2-.3.4-.2l.3-.2q.3 0 .4.2V7h-.2q-.2.2 0 .4zm.5-1.4h.5l-.1.1v.1h.3v.2q.3 0 .3.3c-.1 0-.1.4-.4.1l-.4-.2.1-.2q0-.2-.3 0zm.2 1-.2.3h-.1v-.1z" clip-rule="evenodd"/><path fill="#ed6095" fill-rule="evenodd" d="M20.8 7.3h-.1z" clip-rule="evenodd"/><path fill="#ed6598" fill-rule="evenodd" d="M18.2 5.8q.3.2.2.4t.2.2h.1q-.1.4-.4.2v-.1q-.1 0 0 .2V7l.1.2-.1.4-.2.1q0-.2-.2-.1h-.2q-.2 0-.2-.2c.2-.2-.2-.2-.2-.3l.1-.2q.2-.3 0-.4c-.4 0-.6-.5-1-.5v.1H16q0-.4.3-.5.7-.3 1.2-.8l.2.2v.2h.1q.3.3.2.5h-.1l-.1.1.2-.1z" clip-rule="evenodd"/><path fill="#ef73a2" fill-rule="evenodd" d="M17.7 5.3V5h.3l.2.2v.5l-.3-.1z" clip-rule="evenodd"/><path fill="#ed6598" fill-rule="evenodd" d="M18.2 5.8v-.5q.2-.1.2 0l.2.2h-.2z" clip-rule="evenodd"/><path fill="#e8397b" fill-rule="evenodd" d="m17.4 2.8-.2-.1z" clip-rule="evenodd"/><path fill="#d01058" fill-rule="evenodd" d="M22 8.2h.2l.1.2v.2H22q.3.3.7.2.4.3.4.8v.5l-.1.2q0 .2-.2.3l-.2-.2q-.3-.3-.2-.8-.1-.4-.5-.6c-.4-.1-.1-.4-.2-.6z" clip-rule="evenodd"/><path fill="#ec5991" fill-rule="evenodd" d="m23 9.5-.1-.7.1-.3h.2l.3.4-.1.2.2.2V9h.3v-.1l.2-.2q.3.1.3.4 0 .5-.4.4-.3.1-.3.4t-.2.3-.2-.2z" clip-rule="evenodd"/><path fill="#eb4f89" fill-rule="evenodd" d="M23.3 7v.2q.3 0 .4.2l.1.1-.2.4v.4H23l.1-.3-.1-.1q-.2-.1 0-.4l-.1-.3V7h.1q.2-.1.2 0" clip-rule="evenodd"/><path fill="#e8397b" fill-rule="evenodd" d="M23.3 7h-.2v-.2h.2l.2-.1h.7l.2.2h-.2V7q.3.2.2.4l-.4-.2z" clip-rule="evenodd"/><path fill="#eb4f89" fill-rule="evenodd" d="M22.8 7.7h-.2v-.1l.2-.1zm0 0" clip-rule="evenodd"/><path fill="#e8397b" fill-rule="evenodd" d="M23.2 6.3h.4v.4h-.1q-.1 0 0-.1z" clip-rule="evenodd"/><path fill="#ef71a0" fill-rule="evenodd" d="m12.6 5 .1-.2zq0 .3-.2.4l-.4.3-.2.2V6l.2.1-1.2.4q.2.3 0 .8l-.9.5A2 2 0 0 0 9 9l-.1.5q-.3.1-.3-.1l-.2-.5c-.2 0-.4.3-.5 0q-.2-.3.1-.6.3 0 .2-.3c-.2-.2.1-.4-.1-.5l-.2.3q-.1.3-.4 0-.4 0 0-.3h-.1v-.4q.4-.2.3-.4v-.1c-.5-.1-.2-.3-.1-.4l.2-.2-.2-.3v-.2l.6-.2.3.3q0 .3.3.2h.5q0-.2.2-.2 0-.3.3-.4h.2v.1h.2l.2-.1v.3l.1.3.1-.2.2-.1v-.2q-.4-.2-.2-.6h.1l.2.2h.5v.3h.6q.2 0 0 .3h.2q0-.2.3-.5" clip-rule="evenodd"/><path fill="#ee679a" fill-rule="evenodd" d="m7.6 6.2-.1.3.4-.1v.2h-.1q-.1.1 0 .2V7h-.2l-.2.3.1.2v.3h.2l.2-.1v-.4q.3 0 .4.3v.1q-.2 0 0 .2.3.5-.1.5l-.3.1V9h.3l.1-.2h.2V9l.2.4h.1v.3h-.3l-.1-.2h-.1v-.1L8 9.3Q7.4 9 6.6 9q-.6-.2-1.1.3-.4 0-.3-.4v-.1q0 .2-.3.2h-.2q0 .3-.2.3L4.3 9v-.3l-.1-.1H4v-.2l.5-.2.2.1h.5L5 8.2l.2-.2q.1 0 0-.1v-.1H5v-.1q-.5-.2-.8-.8h1l.1-.1.7.7.1-.2q-.3-.3-.2-.8 0-.3.6-.3H7l.2.2z" clip-rule="evenodd"/><path fill="#ef71a0" fill-rule="evenodd" d="m6.1 7.5-.2.2q0-.3-.2-.3l-.3-.3V7l-.2-.2q0-.3-.2-.5v-.1s.1-.3.2 0c.1-.2.3 0 .4-.2l.2-.2.2.2h.5v-.2l.1-.1q0-.3.2 0v.4H7v.2h-.5q-.4 0-.6.2V7l.3.2v.3" clip-rule="evenodd"/><path fill="#ee679a" fill-rule="evenodd" d="M7 5.7q.2-.2.4-.1v.2z" clip-rule="evenodd"/><path fill="#eb4f89" fill-rule="evenodd" d="M10.3 4.2H10z" clip-rule="evenodd"/><path fill="#ea4785" fill-rule="evenodd" d="M8.6 4.4h-.3z" clip-rule="evenodd"/><path fill="#ee679a" fill-rule="evenodd" d="M7 6.1Q6.6 6 7 6zm-2 .2q.2 0 .3.2v.3L5 6.7z" clip-rule="evenodd"/><path fill="#ef71a0" fill-rule="evenodd" d="m5 6.7.2.1-.1.2h-.5v-.2z" clip-rule="evenodd"/><path fill="#ee679a" fill-rule="evenodd" d="m4.9 6.7-.3.1.1-.3q.2 0 .2.2" clip-rule="evenodd"/><path fill="#e93a7c" fill-rule="evenodd" d="M8.7 3.2q.3.2.5-.1l.3.5q0 .2-.2.2h-.2q-.2-.4-.5-.6" clip-rule="evenodd"/><path fill="#d4152c" fill-rule="evenodd" d="m26 16.3-.3.4h-.1q-.4 0-.1-.2 0-.4.4-.2" clip-rule="evenodd"/><path fill="#e52067" fill-rule="evenodd" d="M26 17.2v.1" clip-rule="evenodd"/><path fill="#d4152c" fill-rule="evenodd" d="M25.6 16.7v.1" clip-rule="evenodd"/><path fill="#d9243d" fill-rule="evenodd" d="M24 17.7h-.4l-.6-.3-.8-.7c-.5-.7-.6-.7-.5-1.6q0-.6.4-1.2l.4-.3q.5 0 .9-.4h.2q0-.1.2 0v.1c-.2.1 0 .4-.3.5l-.1.1q-.6 0-1.1.3v.1q-.1.8.1 1.4 0 .3.3.5v.3l.5.4h.3q.5-.4 1.1-.3h.4v.4q-.3 0-.3.2l-.2.1q-.2 0-.2.2H24z" clip-rule="evenodd"/><path fill="#d81f3c" fill-rule="evenodd" d="m23.8 13.3.2-.2.1-.1h.7q0 .3-.4.2.2.3.6.5h.1q.3 0 .5.3v.1q.3.3.7.2l.1.4H26v1.1h-.1q-.2 0-.1.2l.1.3h-.2l-.1.2q-.2 0 0 .2v.1h-.2l-.2-.1-.2-.1.1-.2q.4-.3.2-.6t0-.3h.1l-.1-.2q0-.8-.8-1.4l-.5-.2q-.2 0-.2-.2z" clip-rule="evenodd"/><path fill="#d4132b" fill-rule="evenodd" d="m26.3 14.3-.2.2q-.3 0-.2-.2h-.1q-.2 0-.2-.2l-.3-.2q0-.2-.3-.2v.1l-.4-.2h-.1q0-.4-.3-.4h.6q.3-.2.5 0l.6.4.1.3z" clip-rule="evenodd"/><path fill="#ed5e94" fill-rule="evenodd" d="M3.7 12.8h-.2l-.2-.1-.2-.1-.1-.2v-.3l.2-.1q0-.2.2-.2.5.4 1 .4v.2h-.1q0 .2 0 0l.1-.1.2-.1q0 .2.3.2.4 0 .3.2 0 .3.1.2l.1.1v.4l-.5-.2-.2-.1h-.1l-.2-.2z" clip-rule="evenodd"/><path fill="#e93b7d" fill-rule="evenodd" d="M3.4 9v-.3l.5.1h.3V9l.1.3v.3q.3.4-.2.3-.3 0-.3.3v.1l-.3-.1.1-.2v-.1q0-.3-.3-.4h.4l-.3-.2z" clip-rule="evenodd"/><path fill="#ea4282" fill-rule="evenodd" d="m3.3 11.6.1-.3.3-.2v-.2h.1q.7-.2.9.4v.1q.1.3-.2.3H4q-.4.3-.7-.1" clip-rule="evenodd"/><path fill="#eb548d" fill-rule="evenodd" d="m3.3 11.6.3.1q0 .2.2 0H4q.2-.2.4 0 .2 0 .2.3l-.1.2-.2.1q-.4 0-.6-.2h-.3v-.2h-.2l-.1.1v-.4" clip-rule="evenodd"/><path fill="#ea4784" fill-rule="evenodd" d="M3.8 11h-.2v-.2l.3-.3v-.3q-.2 0-.1-.2l.1-.2h.4v-.3h.3v.6q-.3.2-.3.6-.1.2-.5.2" clip-rule="evenodd"/><path fill="#e93c7d" fill-rule="evenodd" d="m2.6 9.8.4.5.1.2h-.4q-.2 0-.3-.2-.2-.1-.2-.4 0-.2.2-.2z" clip-rule="evenodd"/><path fill="#ea4483" fill-rule="evenodd" d="M2.4 11.3h.3v.3l-.1.2-.3-.1-.2-.3z" clip-rule="evenodd"/><path fill="#e93e7e" fill-rule="evenodd" d="m2.6 7.8.2-.6H3q.2 0 .1-.1v-.3l.2.2.3-.1h.1q0 .3-.3.3v.3q0 .2-.3.2v.5h-.2z" clip-rule="evenodd"/><path fill="#e73076" fill-rule="evenodd" d="M2.8 8.2H3v.6q0 .4-.6.3v-.8h-.1V8h.3v.2z" clip-rule="evenodd"/><path fill="#e6236c" fill-rule="evenodd" d="M2.1 8.2H2V8h.1" clip-rule="evenodd"/><path fill="#eb528b" fill-rule="evenodd" d="m3.8 11 .4-.2v-.4l.3-.3v-.5h-.2V9l.1.2h.2V9l.3-.1.3-.1.1.3.2.1-.1.5V11l-.1.2q-.1-.2-.4 0l-.3.2-.1-.2q-.1 0 0-.2z" clip-rule="evenodd"/><path fill="#ec5b92" fill-rule="evenodd" d="M4.2 7c.2.2.4 0 .5.3q0 .2.3.4l-.4-.1h-.3v-.1l-.1-.2zq-.1 0 0-.2" clip-rule="evenodd"/><path fill="#e83679" fill-rule="evenodd" d="m4.4 7.6-.2.4q0-.3-.3-.4l.3-.1z" clip-rule="evenodd"/><path fill="#e93e7e" fill-rule="evenodd" d="M3 8.6v-.3l.3.3z" clip-rule="evenodd"/><path fill="#e94281" fill-rule="evenodd" d="m25.6 10.3-.2.3-.2-.4v-.1h.5v.1z" clip-rule="evenodd"/><path fill="#e6236c" fill-rule="evenodd" d="M25.6 9.6h.2v.1zm-.1.2v-.2h.1zm-.1.2v-.2h.1zm.2.1" clip-rule="evenodd"/><path fill="#ea4a87" fill-rule="evenodd" d="m23 9.5.4.2v.4h.2v-.3q0-.3.3-.4.4 0 .5-.3v.1q.1.3 0 .2l-.2.2h.2l.1.1v.3q-.5 0-.5.4v.2q.1.2-.2.4l-.6.1-.2.3q-.1.2-.2 0V11l.3-.7zm2.2.7q.3 0 .2.4l-.4.6q0 .7-.5 1h-.2q-.6-.5 0-.9.1 0 0-.1V11l.2-.5v-.1q.4 0 .6-.2z" clip-rule="evenodd"/><path fill="#e94281" fill-rule="evenodd" d="M25.1 10.3v.3l-.2.1-.2-.1q0-.1-.2 0 0-.4.2-.5z" clip-rule="evenodd"/><path fill="#ea4a87" fill-rule="evenodd" d="m24.7 10.1-.2.4q-.6 0 0-.5zm-.2-.4" clip-rule="evenodd"/><path fill="#e94281" fill-rule="evenodd" d="M25 11.2v-.4l.4-.2v.5l.2.1h.2v.1l.1.3h.1v.1h-.2l-.2.1v.3h.1q0 .2.1 0h.2v.1q.3.3 0 .5-.1 0 0 .2h-.1l-.2.1v.3q.1.1.2 0l.4-.2v.1l.1.4q0 .2-.4.3v-.2l-.7-.5q.2-.6.5-.7-.6-.2-1 0h-.1V12q.6-.3.2-1" clip-rule="evenodd"/><path fill="#e41161" fill-rule="evenodd" d="m27.2 11.8-.4.5h-.1l-.2-.5h-.3v-.1q.3-.3.5-.2h.3v.2z" clip-rule="evenodd"/><path fill="#e94281" fill-rule="evenodd" d="m26.6 12.7-.1.2h-.1v-.7h.1zM26 12" clip-rule="evenodd"/><path fill="#e41161" fill-rule="evenodd" d="M27 11.7q.2 0 0 0" clip-rule="evenodd"/><path fill="#e93b7d" fill-rule="evenodd" d="m2.8 20.2-.2-.1v-.3zm-.6.2" clip-rule="evenodd"/><path fill="#6a2c46" fill-rule="evenodd" d="m9 18.4.4.4q.3.4.8.3h2.1v.2q-.5-.2-.8.2H10q.5.4.4 1v.4h-.2l-.2-.2v-.2l-.1-.1q-.2 0-.3-.2l-.2.1h-.1q0-.2-.2-.3l-.2-.1h-.2q0 .2-.1 0l-.1-.2q.2-.1 0-.3l-.2-.4q0-.2-.2-.3l.3-.2v-.1z" clip-rule="evenodd"/><path fill="#45192c" fill-rule="evenodd" d="m9 21-.2-.1-.1-.3-.3-.4h.3l.2.2.2.1q.3 0 .3.2l.8.4q0 .3-.4.1l-.2.1q-.2 0-.5-.3z" clip-rule="evenodd"/><path fill="#771725" fill-rule="evenodd" d="M10.2 21v-.2h.5q0 .4-.3.4z" clip-rule="evenodd"/><path fill="#6a2c46" fill-rule="evenodd" d="m8.3 17.9.3.2-.1.3q-.3-.2-.2-.5" clip-rule="evenodd"/><path fill="#360e19" fill-rule="evenodd" d="m10.2 21 .2.3-.1.1q0 .2-.2.2t-.5-.3V21z" clip-rule="evenodd"/><path fill="#5f263e" fill-rule="evenodd" d="m7.4 18.5.2.2q-.2 0-.2-.2" clip-rule="evenodd"/><path fill="#d85a61" fill-rule="evenodd" d="m12.1 22.6-.6-.2v-.1l.1-.5q0-.2.3-.2l1.3-.2v-.2h.1l.1-.3h1.2l.2-.1h.1l.2.2q0 .3-.3.3l.8.2q0 .3-.2.3l-1.3-.1h-.3c-.5.3-1.4 0-1.6.8z" clip-rule="evenodd"/><path fill="#972230" fill-rule="evenodd" d="M11.4 22.4h-.6l-.1-.3h.2q.3 0 .5.3" clip-rule="evenodd"/><path fill="#c02f3a" fill-rule="evenodd" d="M10.9 22.1h-.2l-.3-.4v-.5l.3-.4h.2z" clip-rule="evenodd"/><path fill="#ed6397" fill-rule="evenodd" d="m24.4 11.3-.3.3v.3q.3 0 .4.3h-.8c.5.2.3.6.4.9h-.5l-.1-.4h-.2v-.1l.2-.3h-.6l-.3.2v.1q.3 0 .1.2h-.3l-.2-.2-.3.4q0 .2-.3.3.1-.6.5-1l.7-.8.2-.3.2-.2q.5.2.9 0v-.1q.2 0 .3.2z" clip-rule="evenodd"/><path fill="#ec5e94" fill-rule="evenodd" d="M21.6 13.2v.4q0 .2-.3.2.2.4 0 .4-.3.2 0 .4l-.3.1-.1.3q0 .3-.3.4l-.1.1q0 .3-.3.3t-.1.1v.4l-.4-.2-.4.2q-.2-.2-.1-.5l-.3-.3v-.1l.1-.2h.3l1-.7.5-.6q0-.3.3-.4c.1 0 .2-.4.5-.3" clip-rule="evenodd"/><path fill="#71324d" fill-rule="evenodd" d="M22.2 18v.3q0 .4-.4.2h-.2l-.3-.2h-.2l-.3.1q0 .3-.4.5h-.1l-.6.5h-.4v-.3l.3-.4.5-.3q.7-.1.6-.8 0-.3.2-.1.3 0 .4.3v.1q.3.3.8.2z" clip-rule="evenodd"/><path fill="#652842" fill-rule="evenodd" d="M19.4 19.1v.3h.2l.4-.4.3-.3h.1v.1l-.6 1.1-.4.4v-.2q0-.2-.2-.3-.4 0-.2-.3v-.1l.2-.2h.2" clip-rule="evenodd"/><path fill="#5a223a" fill-rule="evenodd" d="M19 19.4v.3h.5q0 .3.1.1h.1l-.1.2-.2.3-.4.4q0 .3-.4.4l.1-.2q.2-.4.6-.6h-.2l-.2-.1q-.4.1-.6-.1 0-.3.4-.5l.1-.2z" clip-rule="evenodd"/><path fill="#3d1829" fill-rule="evenodd" d="m20.3 16.3.5.1v.4l-.1.3q-.3 0-.3-.4-.2.4-.5.4v-.4zm1.2 1 .3.3-.3.4-.2-.1v-.3q-.2 0-.5-.3l.1-.4c.2 0 .5-.3.5.2z" clip-rule="evenodd"/><path fill="#5f2942" fill-rule="evenodd" d="M21.5 17.3h-.1q-.3 0-.1-.3v-.1h-.5v-.4h.2q.4.2.5.6z" clip-rule="evenodd"/><path fill="#260c18" fill-rule="evenodd" d="M21.5 18v-.3h.4l.2.2q.1.5-.5.2z" clip-rule="evenodd"/><path fill="#481c30" fill-rule="evenodd" d="m21.6 18 .1.1q.3.1.4-.2v.3l-.1.1h-.2l-.5-.2V18z" clip-rule="evenodd"/><path fill="#ec5e94" fill-rule="evenodd" d="m20.3 16.3-.3.4q-.3 0-.2-.3l.3-.1z" clip-rule="evenodd"/><path fill="#8e4566" fill-rule="evenodd" d="M21.3 18.3q.2 0 .3.2z" clip-rule="evenodd"/><path fill="#5a223a" fill-rule="evenodd" d="M18.5 21.2q0-.3.1-.1z" clip-rule="evenodd"/><path fill="#ed6397" fill-rule="evenodd" d="M23.6 13.2h-.2z" clip-rule="evenodd"/><path fill="#3d1829" fill-rule="evenodd" d="M22 17.7h-.2z" clip-rule="evenodd"/><path fill="#5f2942" fill-rule="evenodd" d="M20.9 16.5h-.1" clip-rule="evenodd"/><path fill="#ee6a9c" fill-rule="evenodd" d="M11.5 16.5v.2l-.2.1H11v-.3q.4 0 .1-.4l-.5-.2q-.3 0-.3-.3h-.1l-.4-.1v-.3q.1-.2.5-.2.6-.1.7-.7c.2-.3 0-.7.4-.8l.1-.4v-.3l.8-1.4.2-.3h.1q.3.3 0 .7-.1.4-.5.9-.3 0-.3.6.5 0 .9-.2h.4l.1.3q0 .3-.3.3t-.4.2q.7 0 .7.7l1.3-.4q.3 0 .4.3 0 .2-.2.3l-.1.2c.2-.5.6 0 .8-.2q.2 0 .3.3t-.2.4v.1q0 .4-.3.5-.4 0-.4-.4h-.1q-.2.4-.6 0-.3-.1 0-.5h.2q-.3 0-.3-.2v-.2.3h-.4q.4.2.2.5t-.5 0q-.3 0-.5-.2-.5-.1-.8 0h-.2l-.5-.3q.3.1.3.4 0 .5.3.3.4.2 0 .4z" clip-rule="evenodd"/><path fill="#d92a6c" fill-rule="evenodd" d="m12.3 11.4-.7 1.4-.2.3H11v-.9q-.2 0-.3-.3v-.3l-.1-.1-.2-.1q.2 0 .2-.2v-.5h-.3l-.1-.2v-.2L10 10v-.2q.2-.2 0-.5l-.1.1q0 .2-.2 0l-.1.1v.2q0 .3-.2.2-.5-.4-.1-.7v-.6l1-.7.2.1q1-.4 1 .6v.1q.3.1.5.4t0 .7q-.4.3-.1.8 0 .5.2.8" clip-rule="evenodd"/><path fill="#dc3678" fill-rule="evenodd" d="m7.3 12.7-.2-.4h-.3l-.1-.2v-.2l.2-.1.2-.1q0-.3.3-.4l.2-.1q.3 0 .2-.2v-.1q.2 0 .2-.3h.5v.2l.2.2.3.5q0 .4.4.4l.3.1v.4q-.3 0-.4.3-.2.1-.3.4 0 .2 0 0-.3 0-.4-.2v.1q-.2.3 0 .2.3.1.3.4l-.4.5q-.2.2-.3 0-.3 0-.3-.2v-.2h-.4l-.3-.3v-.2L7 13z" clip-rule="evenodd"/><path fill="#d9296c" fill-rule="evenodd" d="M5.3 11.2v-.3q.5-.3.9-1t1.2-.4l1 .5-.2.1-.7.1h-.2L7 10q0-.2-.2-.2h-.3v.7l-.1.2v.2q0 .2.2.3h.1l-.2.2-.1.1v.1q-.3.3-.2.6 0 .4.2.4l.1.1v.2h-.4l-.2-.3V12q-.2-.3-.5-.2-.3-.3-.2-.6" clip-rule="evenodd"/><path fill="#d72369" fill-rule="evenodd" d="m11.3 13.5-.2.5-.1.3h-.8q-.8 0-1 .7l-.6-.2-.3-.2v-.2h.2l.5-.2.6-.4h.5l.2-.3.1-.3q.1-.1.2 0h.3l.3.1z" clip-rule="evenodd"/><path fill="#d9296b" fill-rule="evenodd" d="m8.2 10.1.2-.1q.4-.2 1 0v.1l-.1.1.4-.1v.1q-.2.1-.2.3v.1q.2.2 0 .2l-.1.3h-.2l-.5-.2.1-.4v-.1l-.6-.2" clip-rule="evenodd"/><path fill="#dc3678" fill-rule="evenodd" d="M7.4 10.9q-.2 0-.2-.2v-.2q.1-.2.2 0l.3.2v.2z" clip-rule="evenodd"/><path fill="#d92a6c" fill-rule="evenodd" d="m10.3 10.7-.1.2H10v-.1zm-1-.6q0-.3.2-.2z" clip-rule="evenodd"/><path fill="#ef70a0" fill-rule="evenodd" d="M12.3 19.1q.4 0 .4-.3.2.4.5.2h.2v-.2l-.3-.4H13l-.2.2-.2-.1q0-.3-.2-.4l-.1-.3q.4 0 .7-.3t.4.1l-.3-.3v-.1l.3-.1q.2-.2.6.1.2.4-.1.6l-.4.3q.4 0 .5.2l.2.1v-.2q.1-.7.8-.6c.3 0 0 0 0 0l.2-.4.4-.2q-.3 0-.4-.4v-.1q.6-.6 1 0 .1.3.5.2t.5.6q0 .2-.3.1-.2 0-.2.2l.2.1c.3-.4.8-.2 1.2-.3h.2q.3 0 .4.2t-.2.4l-1.1.7-.9.3-.8.2h-3.3" clip-rule="evenodd"/><path fill="#cf0d57" fill-rule="evenodd" d="M10.2 14.2q0-.2.2 0h.3l.1-.1h.1v.2q0 .6-.6.7l-.1.1h-1v-.5l.6-.4z" clip-rule="evenodd"/><path fill="#ee6a9c" fill-rule="evenodd" d="M13 17.2q0 .2.2.2l.1.1v.3l-.1-.1v-.2H13v.2q0 .2-.3.1h-.5l-.1-.1-.4-.1q0-.2.3-.2h.1q-.2-.2 0-.3h.6z" clip-rule="evenodd"/><path fill="#944162" fill-rule="evenodd" d="m10.5 19.1-.3.1h-.4q-.5-.2-.7-.7z" clip-rule="evenodd"/><path fill="#ee6a9c" fill-rule="evenodd" d="m12 16.8-.2-.2-.3-.1q0-.4.6-.2l.1.1v.2-.1h.2l.3.1v.1q-.3.3-.6.1" clip-rule="evenodd"/><path fill="#7a334f" fill-rule="evenodd" d="M8.5 18.4V18h.2l.3.3-.1.1h-.1z" clip-rule="evenodd"/><path fill="#ee6a9c" fill-rule="evenodd" d="M12 16.8h.4l.3-.1-.2.3h-.3z" clip-rule="evenodd"/><path fill="#df3b59" fill-rule="evenodd" d="M3 14.2h.3l1-.5h.3v.9h.2q0 .1.1 0l.2-.1h.2v.2l.3.2h.1l-.1.1v.2h.2l.1.2h-.1q0 .2-.2.1H5l-.1.1q0 .2-.3.3l-.1.2v.2h-.3V16q-.3-.2-.3-.5t-.4-.2H3q-.2 0-.2-.2L3 15q.5 0 .6-.3t-.3 0H3z" clip-rule="evenodd"/><path fill="#db2b49" fill-rule="evenodd" d="M5 14.3q-.2 0-.1-.2h.2z" clip-rule="evenodd"/><path fill="#ed6096" fill-rule="evenodd" d="m5.3 11.2.2.6.4.7h-.5l-.2.2q.1-.7-.6-.7l-.1-.3.3-.1q0-.2-.2-.2l.2-.3.4-.1z" clip-rule="evenodd"/><path fill="#d71c37" fill-rule="evenodd" d="m4.9 13 .6.3v.4q-.2 0-.3-.3H5v.2l-.3-.3q-.2-.2-.5-.1l-.1-.2h.1l.2-.1z" clip-rule="evenodd"/><path fill="#d41a5f" fill-rule="evenodd" d="m5.9 12.5-.2-.3-.2-.4q0-.2.2-.2t.3.4z" clip-rule="evenodd"/><path fill="#d71c37" fill-rule="evenodd" d="M5.8 13.8v.3q-.3 0-.2-.4h.1z" clip-rule="evenodd"/><path fill="#db3072" fill-rule="evenodd" d="M6.2 12.8q.2 0 .2.2z" clip-rule="evenodd"/><path fill="#e72e74" fill-rule="evenodd" d="M3.7 12.8h.5zm.9.1h-.2z" clip-rule="evenodd"/><path fill="#4b1d31" fill-rule="evenodd" d="m18.8 19.6-.4.4.2.1h.3q-.1.4-.4.4h-.2l-.1.2q-.2 0 0 .2t0 .2l-.2.4q-.2 0-.2-.3l.1-.2h-.2q-.2 0-.4-.3l-.2-.1q-.3 0-.4-.3v-.1l.5-.2.1-.7q.2 0 .3-.3 0-.4.3 0l.2.3-.2-.4-.1-.4h.9q0-.2.4 0v.2c0 .4-.4.6-.3 1" clip-rule="evenodd"/><path fill="#3e1829" fill-rule="evenodd" d="M17.3 19.4v.3q.2 0 0 .3l-.4.2H16l-.4-.2q-.2-.4.2-.4h.6q.4 0 .3-.3l.2-.2z" clip-rule="evenodd"/><path fill="#bc3b44" fill-rule="evenodd" d="M15.6 20.2v.1h-.3l-.1.1h-.4l-.1.1h-1.5q0 .3-.3.2-.1-.1-.2 0h-.5c0-.3-.4 0-.3-.4l1.2-.2z" clip-rule="evenodd"/><path fill="#3a0910" fill-rule="evenodd" d="M15.6 20.2H13q.2-.4.7-.3h.8q.6-.2 1.2 0l.2.1q.2 0 .2.2z" clip-rule="evenodd"/><path fill="#e04c53" fill-rule="evenodd" d="M14.7 20.5v-.2h.3q.1.2.2 0h.6v.1l.1.2.1.7q0 .4-.3.7l-.3-.2.1-.3q.2-.7-.3-.8H15z" clip-rule="evenodd"/><path fill="#b92a37" fill-rule="evenodd" d="m16.2 20.7-.1-.3z" clip-rule="evenodd"/><path fill="#d24048" fill-rule="evenodd" d="m15.7 21.9.2-.6v-.7l.2.2.1 1.1-.1.3-.4.3q-.3-.3 0-.6" clip-rule="evenodd"/><path fill="#d24048" fill-rule="evenodd" d="M16 20.6h-.2v-.2z" clip-rule="evenodd"/><path fill="#bd4852" fill-rule="evenodd" d="M12.7 22.6h-.4v-.2l1.7-.6q.7 0 1 .6v.2l-1.3-.1H13q0 .1-.2 0" clip-rule="evenodd"/><path fill="#b73d4d" fill-rule="evenodd" d="M13 22.6q0-.2.3-.2h1.3l.4.2z" clip-rule="evenodd"/><path fill="#bd4852" fill-rule="evenodd" d="M15.6 22.6h-.5l-.1-.2q0-.2.3-.2t.3.4" clip-rule="evenodd"/><path fill="#b73d4d" fill-rule="evenodd" d="M12.3 22.6h.3zm.4 0h.2zm-.2 0q0-.2 0 0m-.3-.1" clip-rule="evenodd"/><path fill="#bd4852" fill-rule="evenodd" d="M12.2 22.5H12" clip-rule="evenodd"/><path fill="#ce5159" fill-rule="evenodd" d="M12.2 22.5H12l.1-.2.2-.4.3-.1h.3l.4-.1.2-.1h.6q.3.2.5 0h.1q.2.3.5.2l.4.1v.6l-.2-.1q-.3-.3-.4 0l-.1-.1-.3-.2q-.3-.3-.8-.2l-.7.2-.2.1q-.2.3-.5.2z" clip-rule="evenodd"/><path fill="#ef73a2" fill-rule="evenodd" d="m17.6 4.8-.4.5q-.1.1-.2 0-.3.4-.7.3l-.1.3-.1.2h.2V6h.5l.2.3h.3q0 .3.2.2l.2.1q0 .4-.4.5l-.2.1h-.6q-.5-.3-.8.2h-.3l-1-1.4q-.2-.2.2-.5c-.1.3-.4-.1-.5.1H14l-.1-.4.4-.1-.4-.1v-.3l.4.1h.4l.2.2.3.2h.5L16 5h.3l.4-.2.2-.2h.5z" clip-rule="evenodd"/><path fill="#ed5e94" fill-rule="evenodd" d="m14.6 3.5.3-.2v.1q0 .3-.1.1zm-.9-1" clip-rule="evenodd"/><path fill="#ee6b9c" fill-rule="evenodd" d="M14.1 5.6v-.2h.2q.1.4.1 0h.3v.3h-.2q-.3.3 0 .4h.1q0 .4.4.5v.2q0 .3.3.1l.1.1v.2q0 .1.2 0l.3-.1.1-.2h.2l.2.3h.1q.3-.2.7 0l.1-.1q.3 0 .5.3h-.3l-.3.1q0 .1-.2 0h-1l-.2.1-.5.4-.4-.2q-.5 0-.8.4l-.4.2h-.1l-.1-.2c.2-.2.2-.7.6-.7l.3-.3L14 7q-.2.7-.8 1v.6l-.1.1q-.4.3-.8 0l-.7-1-.8-.3V7l-.1-.2q.1-.2 0-.2l-.1-.1q.3-.2.5-.1.2 0 .2-.2v-.1h.7l.2.3q.3-.5.5 0l.5.6q0-.3.3-.5l-.5-.2q-.2 0-.2-.3l.3-.4.1.1h.2V6q.5.3.6-.2" clip-rule="evenodd"/><path fill="#ef71a0" fill-rule="evenodd" d="M13.3 7h-.2l-.2-.2v-.2l-.2-.2q0-.3-.3 0h-.1v-.6h.2V6q.1.3.4 0l.1.2.5.2h.3v.2q-.4 0-.4.3z" clip-rule="evenodd"/><path fill="#ee6b9c" fill-rule="evenodd" d="M13.9 5h.5v.2H14z" clip-rule="evenodd"/><path fill="#ef71a0" fill-rule="evenodd" d="M12.3 6.4H12zm-.3-.2q.1 0 0 0" clip-rule="evenodd"/><path fill="#ed5e94" fill-rule="evenodd" d="M15.9 4.3v.2h-.1zM12.7 4l-.2.2q0-.2.2-.2" clip-rule="evenodd"/><path fill="#d72267" fill-rule="evenodd" d="m17.6 8 .1.2.2.3v.7l-.3-.2q-.7-.2-.3-.8l.2-.1" clip-rule="evenodd"/><path fill="#ed6598" fill-rule="evenodd" d="M15.8 7.4H17q.1.2.3.1-.1.3.1.4h-.2q-.4-.4-.9-.4z" clip-rule="evenodd"/><path fill="#d82769" fill-rule="evenodd" d="M17.8 8.6v-.4h.1v.4" clip-rule="evenodd"/><path fill="#ed6598" fill-rule="evenodd" d="M17.4 8h.2z" clip-rule="evenodd"/><path fill="#d82769" fill-rule="evenodd" d="M17.7 8.2V8" clip-rule="evenodd"/><path fill="#d51c62" fill-rule="evenodd" d="M22.8 11.5q-.1.5-.5.8l-.1.1V12H22q-.3.3-.4.1v-.3q.6-.2.8-.8l-.2-.2h-.4q0-.3.3-.4.2 0 .2-.2h-.6v-.6q.1 0 0-.2h-.1l-.1-.7q-.4.4-.7 0l-.2.1-.9.7-.3-.1q-.3 0-.2-.3 0-.6.6-1 0 .3.2.5l.2-.2v-.2q.3 0 .3-.3t.3-.2q.4.2.9.2.3 0 .2.3v.7h.3q.1.3.4.5l-.1.4v.1q.2 0 .1.2l.1.2q0 .2.2.2v-.2l.2-.1q0 .5-.2.8z" clip-rule="evenodd"/><path fill="#d82769" fill-rule="evenodd" d="M19.2 9.1q0 .3.3.2l-.1.8q.1.5-.4.5-.3-.2-.3 0 0 .4-.3.3l-.4-.7q-.2-.2-.5 0l-.6.2h-.1q-.3-.3-.1-.4h.2q.4.1.5-.4-.4-.3-.4-.9v-.5q0-.2.2-.2v.1h.2v.4l-.1.2.2.2q.4 0 .4.2c.2.1.5-.2.7.1q0 .5-.4.3v.2l.3.2v-.3q0-.2.2-.3h.1q.1.1.2 0z" clip-rule="evenodd"/><path fill="#d3175c" fill-rule="evenodd" d="M18.5 9.2h-.6v-.9l.3.3zq0 .3-.1.1" clip-rule="evenodd"/><path fill="#dd3373" fill-rule="evenodd" d="M18.5 9.2h.1l.1.1v.6q0 .4-.3 0-.3 0-.3-.4v-.1h.3z" clip-rule="evenodd"/><path fill="#d82769" fill-rule="evenodd" d="M18.2 8.6q-.2 0-.2-.3z" clip-rule="evenodd"/><path fill="#ed6095" fill-rule="evenodd" d="m20.4 6.1.2.1v.1h-.1z" clip-rule="evenodd"/><path fill="#d11059" fill-rule="evenodd" d="M21.7 8h-.9v-.3h.7q0 .2.2.2" clip-rule="evenodd"/><path fill="#ed6196" fill-rule="evenodd" d="M23.2 6.3v.2h-.1v-.1z" clip-rule="evenodd"/><path fill="#ef73a2" fill-rule="evenodd" d="m17.8 5.8.1-.1m-.1.2" clip-rule="evenodd"/><path fill="#ea4382" fill-rule="evenodd" d="m23.6 9.3-.2.1h-.1z" clip-rule="evenodd"/><path fill="#d41a62" fill-rule="evenodd" d="m9.5 9.9-.2.1H9q-.2.2-.4 0H8v-.3l-.2.1h-.1q0-.2-.2-.2h-.1q-.4-.2-.7 0-.4.2-.4.5v.1l-.2.1q0 .2-.2.2l-.3.4q0 .2-.1 0h-.1v-.2q.1 0 0 0-.2-.5 0-1 .2.3 0 .6.2-.4.6-.6l.5-.4h.2q1-.2 1.7.3h.2q.4.2.3-.1l.3-.8q0-.5.5-.7.1-.2.4-.3t.4.3h-.1l-.2.1v.2l-.3.2-.3.1v.1q.2 0 .1.2l-.1.2-.2.4z" clip-rule="evenodd"/><path fill="#cf0955" fill-rule="evenodd" d="m10.4 8-.4-.3q.4-.3.9-.4h.6l.3.3q0 .3-.2.2z" clip-rule="evenodd"/><path fill="#ca004b" fill-rule="evenodd" d="m6 9.7-.4.4-.1.2-.2.2v-.7l.2-.5.7-.4h.4q.1.4-.2.4c0 .2-.4.1-.4.4" clip-rule="evenodd"/><path fill="#cd0451" fill-rule="evenodd" d="m6.4 9.3.1-.2.1-.1H7l1.2.2.1.2h.1l.1.1q0 .3-.2.2l-.4-.2q-.3 0-.3-.2z" clip-rule="evenodd"/><path fill="#ef74a2" fill-rule="evenodd" d="m7 6.7.1.2-.2.1v.7h-.1l-.2.1v-.2L6.2 7l.2-.1h.2l.2-.3" clip-rule="evenodd"/><path fill="#ec5a91" fill-rule="evenodd" d="M6.2 8.7q-.3 0-.3-.3L6 8h.4v.3l.1.2z" clip-rule="evenodd"/><path fill="#d41a62" fill-rule="evenodd" d="m8.3 9.4-.1-.2z" clip-rule="evenodd"/><path fill="#ee679a" fill-rule="evenodd" d="M6.1 7.3q.1 0 0 0m-.1.2" clip-rule="evenodd"/><path fill="#dc2e4a" fill-rule="evenodd" d="m23.9 13.4.1.2q.2-.2.2 0l.1.1q.3 0 .4.3l.2.1q.2 0 .3.3l.2.8.1.3h.1v.2l-.3-.1.2.4-.1.3q-.3 0-.4.3h-.2l-.1.2h-1l-.2.2H23l-.5-.5h-.2l.2-.1v-.2l-.2-.1v-.4q-.2 0-.2-.3v-.7q-.2-.3 0-.5v-.1l.2-.1h.4l.3-.2h.3v.1l.1.2h.1q.2.5-.3.4H23q-.4-.4-.4 0l-.1.2v.1l.4.8v.2q0 .5.4.4h1.1V16q-.5 0-.2-.4 0-.2.4-.2l.1-.7-.5-.2c0-.1-.4-.1-.3-.5l-.5-.2q.2-.2 0-.2v-.1l.3-.2" clip-rule="evenodd"/><path fill="#d4132b" fill-rule="evenodd" d="M23.8 13.1h.2z" clip-rule="evenodd"/><path fill="#ec5c92" fill-rule="evenodd" d="M24.7 12.5q.3 0 .4-.3l.3.2h.6q-.1.3-.4.3l-.1.2v.2l-.2.1h-.5l-.2-.1h-.3q0-.5.4-.6" clip-rule="evenodd"/><path fill="#ee6e9e" fill-rule="evenodd" d="m24.7 12.5-.1.2-.1.1-.1.2H24q-.3 0-.2-.1v-.2q-.1-.2.1-.3h-.3V12h.6l.2.1.1.1z" clip-rule="evenodd"/><path fill="#d9243d" fill-rule="evenodd" d="M23.9 13.4h-.1" clip-rule="evenodd"/><path fill="#ee6e9e" fill-rule="evenodd" d="m4.6 12 .4-.1h.2v.3q.3.2 0 .5v-.1q0-.2-.2-.2h-.3v-.2z" clip-rule="evenodd"/><path fill="#e72e74" fill-rule="evenodd" d="M4.9 13h-.3z" clip-rule="evenodd"/><path fill="#eb528b" fill-rule="evenodd" d="M4.6 11.4H5q0 .4-.4.3.3-.1.1-.3" clip-rule="evenodd"/><path fill="#d9296c" fill-rule="evenodd" d="M5.3 10.6h.2l-.2.3z" clip-rule="evenodd"/><path fill="#eb4c88" fill-rule="evenodd" d="m4.4 7.6-.2-.1z" clip-rule="evenodd"/><path fill="#ec5991" fill-rule="evenodd" d="m24.4 11.1-.3-.2-.6.3-.3-.2q0-.1.2 0l.3-.1q0-.1.2 0v-.3h-.2v-.1h.1q.3-.2.1-.3 0-.2.2-.2h.4l-.2.3.2.2.1.4v.1z" clip-rule="evenodd"/><path fill="#ec5c92" fill-rule="evenodd" d="M24.6 12.4v-.2h-.1V12q.3-.2.3-.5v-.2q-.2 0 0-.1h.1l.2.1v.7h-.2l-.2.3z" clip-rule="evenodd"/><path fill="#ec5991" fill-rule="evenodd" d="M24.4 11.3q.2 0 0 0" clip-rule="evenodd"/><path fill="#ed6196" fill-rule="evenodd" d="M26 13.7v-.2h.2z" clip-rule="evenodd"/><path fill="#612a42" fill-rule="evenodd" d="M10.4 20.5v-.3q-.2 0 0-.1V20q-.4-.2-.6-.5h.7l.3.6v.6h-.3z" clip-rule="evenodd"/><path fill="#7c3b56" fill-rule="evenodd" d="M12.3 19.1h1.5q-.1.5-.5.5h-.7l-.1-.1v-.2z" clip-rule="evenodd"/><path fill="#471d30" fill-rule="evenodd" d="M10.8 20.2q-.3-.3-.3-.8h.1l.1.1.5-.1h.4z" clip-rule="evenodd"/><path fill="#612a42" fill-rule="evenodd" d="M11.6 19.5v-.2q.2-.3.6-.1h.2l.1.2-.3.2z" clip-rule="evenodd"/><path fill="#7f3451" fill-rule="evenodd" d="M10.5 20.6h.5v.2h-.3l-.5-.2h.2" clip-rule="evenodd"/><path fill="#612a42" fill-rule="evenodd" d="m11.2 19.4-.4.1v.2h-.1v-.3h.1q.3-.1.4 0m-.6 0" clip-rule="evenodd"/><path fill="#e05f66" fill-rule="evenodd" d="m12.3 20.7.4-.1.2.4q-.1.5.4.3h.1q0 .3-.3.3h-.9v.2q-.3.2-.4-.1-.2 0-.3-.4.8.1.8-.6" clip-rule="evenodd"/><path fill="#e65961" fill-rule="evenodd" d="M15.1 20.7h.4l.2.6q0 .2-.2.2-.3.3-.5 0 0-.2-.1-.1h-.2l.4-.4-.2-.2h-.3q-.1-.4.4-.2z" clip-rule="evenodd"/><path fill="#d64249" fill-rule="evenodd" d="M11 20.8v-.1h.2v.2l.2.8v.6l-.5-.2v-.3q-.3 0-.1-.2V21z" clip-rule="evenodd"/><path fill="#e2545c" fill-rule="evenodd" d="M11.4 22.3q-.2-.1 0-.4h-.1l-.1-.4-.1-.3v-.4l.4.5q.2.1.3.4t0 .4q0 .2-.3.2" clip-rule="evenodd"/><path fill="#c8414a" fill-rule="evenodd" d="M15 20.6h-.3v.2l-.2.1h-.9l-.1-.4h1.2z" clip-rule="evenodd"/><path fill="#e05f66" fill-rule="evenodd" d="M13.5 20.5v.1q.2.1 0 .3l-.1.3c-.1 0-.2.3-.4.1q-.3 0-.2-.4v-.3l.5-.1z" clip-rule="evenodd"/><path fill="#ed656b" fill-rule="evenodd" d="M12.8 20.6v.5l.3.2h.1l.2-.1q-.1.3-.4.3-.2 0-.2-.2v-.2zv-.2z" clip-rule="evenodd"/><path fill="#b8414c" fill-rule="evenodd" d="m13.5 21 .4-.1h.5l-.3.1z" clip-rule="evenodd"/><path fill="#c8414a" fill-rule="evenodd" d="M14.9 20.8h.2v.2q-.2 0-.2-.2m-.3 0v.2q-.2 0 0-.2" clip-rule="evenodd"/><path fill="#b8414c" fill-rule="evenodd" d="M14.6 20.8v.2z" clip-rule="evenodd"/><path fill="#d00e57" fill-rule="evenodd" d="m21.6 12 .1.1.2-.1.4-.2h.1v.3l-.2.3-.6.8-.3.2-.2.2q-.4 0-.2-.4l.4-.7q0-.4.3-.4" clip-rule="evenodd"/><path fill="#d71e60" fill-rule="evenodd" d="M21 13.2q-.3.3.1.4l-.2.3c-.3 0-.5-.2-.4.2l-.1.2h-1q-.3-.4 0-.9l-.7-.4q-.2-.2-.4 0v.6q0 .3-.2.2t-.4.2h-.2q-.2 0-.3-.3v-.1l-.1-.2v-.1q0-.2.2-.3.5-.1.9-.5.4-.3.1-.7v-.5q-.1-.3.1-.4h.1v-.4h.2v-.2l.3.1v.3q0 .3.2.5l.2.4v.1h.3q.3 0 .3.2v.5h.1q.2.2.1.4l.1.4h.4z" clip-rule="evenodd"/><path fill="#eb538c" fill-rule="evenodd" d="M19.2 15.8v.3l.1.2q.2 0 0 .3v.1H19q-.7-.1-1.3-.4-.3-.1-.4-.4-.4.4-.7 0-.3-.3 0-.7v-.6l.3-.2.4-.2.1-.1.2.1q0 .3-.2.4t-.1.4q.5-.4.9-.3v.1q.2.5.5.2.2 0 .3.3l-.1.1.3.1z" clip-rule="evenodd"/><path fill="#d31052" fill-rule="evenodd" d="m17.7 14 .2-.4h.2v.2l.1-.2v-.5L18 13v-.1h.4l.3-.1.1.3.4.2h.2v.3h-.2v.4l.2.2h.8q.2-.1 0-.2v-.2h.6l-.4.7h-.2l-.5.1q-.4.3-.7-.2v-.1c-.3-.2-.6.2-.9 0l-.2.1-.3-.1z" clip-rule="evenodd"/><path fill="#cd084c" fill-rule="evenodd" d="M19.1 14.3q.2 0 .1.2l.2.1h.3c.1-.3.4 0 .6-.2v.1l-.5.5-.3.1-.2.2h-.2l-.4-.3-.2-.2-.2-.1-.1-.1H18l-.1-.2.2-.1.2-.1.1.1h.1l.1-.2h.3z" clip-rule="evenodd"/><path fill="#ed6d9d" fill-rule="evenodd" d="M19.3 16.6v-.3l.2-.3h.4q0 .3.2.3l-.3.1.2.2-.1.5-.7.4q-.4.3-.6-.2l-.3-.3q-.2 0-.3-.2l.3-.2h.4q0 .4.4.3v.1-.3z" clip-rule="evenodd"/><path fill="#e94180" fill-rule="evenodd" d="M18.9 15.4h-.1" clip-rule="evenodd"/><path fill="#481c30" fill-rule="evenodd" d="m20.9 17.2.5.4v.3h-.2l-.1-.2-.4-.2q.3.6-.1.8l-.4.2-.6.3c-.3-.1-.1-.4-.3-.6-.2-.3.2-.4.3-.6h.2q.2 0 .3-.3.2-.2.6-.2z" clip-rule="evenodd"/><path fill="#3d1627" fill-rule="evenodd" d="M19.7 17.6q0 .2-.3.3v.1l.1.2v.3l.1.3-.2.3-.2.1-.1.2-.2.1v.1q-.3 0-.2-.3t.3-.3l-.1-.3.1-.2-.4.1q0 .2-.1 0H18q0-.2.2-.3l1.2-.9h.2z" clip-rule="evenodd"/><path fill="#5a223a" fill-rule="evenodd" d="m19 19.4.2-.2z" clip-rule="evenodd"/><path fill="#31101f" fill-rule="evenodd" d="M19.7 17.6v-.4l.2-.1q.3 0 .3-.4h.3v.2h.1q.1.2.1 0h.2v.3h-.5v.1l.1.2v.1h-.1l-.2-.2-.3.2z" clip-rule="evenodd"/><path fill="#3d1829" fill-rule="evenodd" d="m21 17-.1-.2z" clip-rule="evenodd"/><path fill="#ef73a2" fill-rule="evenodd" d="m15.5 15.2-.1-.3h-.8v.2l-.1.1h-.1q0-.3.2-.5l.1-.1q0-.3-.2-.3h-.6l-.1.2-.2.2-.2-.1-.1.1-.1.1h-.3v-.2q0-.5-.2-.5l-.4-.1.1-.5h.1q.3.2.5 0V13h-.3l-.2.3h-.9v-.2l.3-.6.2-.2.1-.3q.2-.1.3-.4.1-.2 0-.4V11q0-.3.2-.3.6 0 1.1-.2.2-.2.4 0l.7-.2h.3v.2l.7 1 1 1.6c0 .2-.4.2-.3.3v.5q.1.2-.1.2H16q-.2-.2-.5 0 0 .3.2.5h.1q.2.3 0 .4l-.1.1v.1z" clip-rule="evenodd"/><path fill="#ed6397" fill-rule="evenodd" d="M19.1 16.7v.3q-.3-.1-.4.1l-.1-.4h-.1l-.4.1q.3 0 .4.2l.2.3.1.3.4-.2q-.2.6-.8.6l.2-.3-.4-.2h-1q0 .2-.2.2l-.4.2v-.2l-.1-.3q0-.4.3 0h.2V17q-.1-.4-.5-.1-.2.1-.3-.1 0-.6-.7-.5h-.1l-.2.2.1.2q.1.3.5.2 0 .3-.3.3l-.3.2q-.2 0 0 .2h.1v.1H15q-.3.2-.5 0-.2 0 0 .2v.1q-.3 0-.1.3v.2h-.5l-.2-.4-.1.2-.1-.2V18l.5-.5v-.1h-.2v-.2h-1.5l-.1-.1.2-.1.3-.3q0-.2.2 0c.3.2.4-.2.7-.2v-.2l-.2-.3q-.2.4-1 .5h-.2l-.1-.2c0-.2.3 0 .3-.3l-.2-.3-.4.1-.2.2-.2-.3v-.4H11l-.1-.1q0-.2.3-.1l.4.2q.4 0 .6-.3v.2h.4q0 .2.3.2l.2.2h.3l.2-.1q0-.2-.2-.3l-.1-.1q-.2 0 0-.1h.5l.2.2v.5h.2v.1h.1v-.2l.2-.2.2.2q0 .3.2.4l.2-.1v-.3h.2v-.2q.3 0 .1-.2h.1q0-.2.3-.2c.1.2.5 0 .4.5q.2-.5.5-.2v.1q-.3 0-.1.2v.3l.2.1h.1l.3-.1v-.2h.1q0 .2.3.3 0 .3.3.2l.4.2.7.1z" clip-rule="evenodd"/><path fill="#ec5990" fill-rule="evenodd" d="m11.8 15.8.3-.3.2.2.2.1v.4h-.2l-.2.1h-.3l-.3.2v.1h-.2v-.1q0-.2.4-.3h.1V16z" clip-rule="evenodd"/><path fill="#d72369" fill-rule="evenodd" d="m10.3 15 .6-.7-.2.4q-.1.3-.5.3" clip-rule="evenodd"/><path fill="#ed6397" fill-rule="evenodd" d="m13.9 15-.2-.1v-.1h.3z" clip-rule="evenodd"/><path fill="#d92a6c" fill-rule="evenodd" d="m12.4 11.1-.1.3c-.3-.2 0-.2 0-.3zm.1-.1q-.1-.1 0-.2" clip-rule="evenodd"/><path fill="#d41a62" fill-rule="evenodd" d="m12.5 11-.2.2v.1H12l-.1-.2V11l-.2-.4v-.4l.2-.4q.3-.1 0-.4 0-.5-.5-.6v-.3l-.2-.3-.1-.1h-.7V8l.8-.2h.4v-.1q.4.3.6.7l.1.3q.4.9.2 1.8z" clip-rule="evenodd"/><path fill="#db3072" fill-rule="evenodd" d="M10.5 9.3q-.1-.6.4-.3h.2l.2.3v.1l-.4.2h-.4z" clip-rule="evenodd"/><path fill="#612b44" fill-rule="evenodd" d="M13.2 19.5h.4v-.1l.2-.3H15q.4.4 0 .5h-.2c-.3 0-.6.4-.9 0l-.5.2h-.1z" clip-rule="evenodd"/><path fill="#6b2e47" fill-rule="evenodd" d="M18.4 18q.5-.2.8-.6l.7-.3-.1.1v.1l-.1.1-.2.2-.8.5-.3.2-.3.2h-.3q-.2.3-.5.3v-.1l.9-.6z" clip-rule="evenodd"/><path fill="#441e31" fill-rule="evenodd" d="M14.9 19.6q.3-.1.2-.4h.5l1.3-.3q-.6.5-1.3.6-.4.2-.7.1" clip-rule="evenodd"/><path fill="#6b2e47" fill-rule="evenodd" d="M17 18.9h-.6l.3-.1.5-.2v.2z" clip-rule="evenodd"/><path fill="#612b44" fill-rule="evenodd" d="M15.6 19.1q-.3.3-.4 0z" clip-rule="evenodd"/><path fill="#ee6a9c" fill-rule="evenodd" d="M13 17.2h.2z" clip-rule="evenodd"/><path fill="#612b44" fill-rule="evenodd" d="M13.5 19.1v.1h-.1" clip-rule="evenodd"/><path fill="#ee6a9c" fill-rule="evenodd" d="m12.4 16.5.5-.2.4-.2v-.2h.1l.4.5q0 .2-.2.2h-.2l-.1.1v.2l-.2-.1-.4-.1z" clip-rule="evenodd"/><path fill="#ef73a2" fill-rule="evenodd" d="M12.2 16.5v.2h-.1z" clip-rule="evenodd"/><path fill="#3e1829" fill-rule="evenodd" d="m17.3 18.7.5-.2.1.5-.2-.1v.3h-.2l-.2.2q-.2 0 0-.3c.2-.1-.2-.1-.2-.2v-.1z" clip-rule="evenodd"/><path fill="#622942" fill-rule="evenodd" d="M18 19h.1l.2.2v.2h-.4z" clip-rule="evenodd"/><path fill="#5a223a" fill-rule="evenodd" d="M18.4 20.2v.1" clip-rule="evenodd"/><path fill="#290f1b" fill-rule="evenodd" d="M17.2 18.9h.2l-.1.2v.3l-.3-.2h-.2v.5h-1.1l-.1.2h-1.2v-.1c0-.3.3 0 .5-.2h.1l.7-.2h.1q.2-.2.6-.2.2-.2.5-.2l.1-.1z" clip-rule="evenodd"/><path fill="#4b1d31" fill-rule="evenodd" d="M17.2 20v-.1h.1z" clip-rule="evenodd"/><path fill="#ed656b" fill-rule="evenodd" d="m11.5 21.3-.3-.5q.2 0 .3-.3h.8v.8q-.3.1-.8 0" clip-rule="evenodd"/><path fill="#7b354f" fill-rule="evenodd" d="M11.2 20.7q0-.4.3-.7.8 0 1.4.2h.3-.1l-1 .2h-.3l-.3.1z" clip-rule="evenodd"/><path fill="#e2545c" fill-rule="evenodd" d="M11.5 20.5h.7l-.4.1z" clip-rule="evenodd"/><path fill="#c8414a" fill-rule="evenodd" d="M15.5 20.3h-.3zm-.3.1H15z" clip-rule="evenodd"/><path fill="#371524" fill-rule="evenodd" d="M13.3 20.2q0-.2.2 0z" clip-rule="evenodd"/><path fill="#371524" fill-rule="evenodd" d="M13 20.2h-1.6q-.2.5-.6 0V20h.3v-.3q.3 0 .5-.2h.4q.5 0 .6.2v-.2h.2q.3 0 .4.3h1.2l-.1.1h-.7q-.4 0-.7.3" clip-rule="evenodd"/><path fill="#c8414a" fill-rule="evenodd" d="m15.1 20.7-.1-.1h.1" clip-rule="evenodd"/><path fill="#ed6598" fill-rule="evenodd" d="M12.5 11V8.5h.7q0 .5.3.8.1-.3.5-.2l.5-.1h.5q.3.6.1 1.2l-.1-.1-.6.3-.3-.1h-.2l-.7.3-.3.1-.2-.1h-.1z" clip-rule="evenodd"/><path fill="#ec5c93" fill-rule="evenodd" d="m14.5 9.1-.5.3q-.2-.3-.3 0l-.2.2q0-.4-.3-.5v-.5h.2l.3.1v-.3q.2 0 .3-.3l.3-.2q.2 0 .1-.2v-.1h.3q0 .2.2.2l.1-.1.3.2-.2.7-.1.6zc-.2-.3.2-.6 0-.9l-.2.3q-.2 0-.2.3l.3.1z" clip-rule="evenodd"/><path fill="#ef75a3" fill-rule="evenodd" d="M13.2 8.4q-.2 0-.1-.2l.2-.3v-.1q0-.2.3-.2t.2-.2l.2-.6h.1l.1.1q0 .2.2.2l.1.2-.2.1q-.1.2-.4.3t-.1.2l-.1.3q-.1 0 0 .1l-.1.1z" clip-rule="evenodd"/><path fill="#cb0050" fill-rule="evenodd" d="M15 8.6q0-.4.3-.7l.1-.1.4-.2.5-.2q.2 0 .3.2l-.2.1q-.7.2-.9.8 0 .4-.5.7z" clip-rule="evenodd"/><path fill="#ed6598" fill-rule="evenodd" d="M13.4 8.4h.5q0 .6-.4.5l-.1-.1q0-.2-.2-.2z" clip-rule="evenodd"/><path fill="#d01059" fill-rule="evenodd" d="m16.3 7.4-.2.1h-.3z" clip-rule="evenodd"/><path fill="#d72267" fill-rule="evenodd" d="M17.5 8v.2h-.3q0-.2-.2 0h-.6V9l-.2.6-.3.6v.5l.2.6v.3l-.2-.2-.5-.7-.2-.4c.2-.2 0-.4.3-.5v-.2l-.2-.7v-.2l.8-.9q.2-.2.5-.1l.6.1z" clip-rule="evenodd"/><path fill="#d01059" fill-rule="evenodd" d="M17.2 7.9q-.3.2-.7 0h-.1L16 8v.1h-.2v.3h-.2v.2q0 .2-.3.2v.6q.3 0 0 .2h.1q.2 0 .2.2t-.2.2 0 .1v.1l-.3.2v-.1l-.2-1v-.7.5l.4-.5v-.3l.2-.3.3-.1.2-.3h.4l-.2-.2q.4 0 .7.3z" clip-rule="evenodd"/><path fill="#d82769" fill-rule="evenodd" d="M17.4 8h-.1z" clip-rule="evenodd"/><path fill="#db3071" fill-rule="evenodd" d="M19.5 11.8h-.1v-.3q0-.5-.4-.8l.3-.5v-.1q-.1-.5.2-.8.2.2.2 0l.4-.2.1-.2h.3l.9.2.3.3v1q0 .3-.2.3l-.5-.1q-.4-.2-.6.2 0 .5-.6.4h-.1.1q.5.3-.2.6" clip-rule="evenodd"/><path fill="#d82769" fill-rule="evenodd" d="m19.6 11.8.1-.2.2-.2-.1-.2.5-.2v-.2l.2-.2v-.1q.3-.2.5 0h.6v-.2q-.2 0-.1-.1.2-.3 0-.6h.1v-.2h.2q0 .2.2.1v.1h-.2v.1h.1l-.2.3.2.1h.1q0-.2.3-.1l.1.2v.2q-.3 0-.5.3h.4l.1.1v.3l-.1.2q0 .3-.3.4h-.4v.2q-.3.4-.4 0-.2-.2-.3 0l-.4.4.2.1q-.4.3-.4.8-.4 0-.1-.4v-.2l-.2-.2-.1-.3V12q0-.3-.3-.2" clip-rule="evenodd"/><path fill="#d71e60" fill-rule="evenodd" d="M20.4 12.2q.4 0 .4-.4l.1-.1h.3v.2l.2.1h.2v.1q-.3.2-.3.4 0 .4-.3.7l-.2-.2-.1-.6z" clip-rule="evenodd"/><path fill="#d82769" fill-rule="evenodd" d="M21.7 9.4q-.3 0-.5-.3L21 9l-.5-.2v-.3h.2l.2.3h.3l.4-.2v.1l-.1.2h.1v.2z" clip-rule="evenodd"/><path fill="#d71e60" fill-rule="evenodd" d="M21.6 11.8h-.1v-.1z" clip-rule="evenodd"/><path fill="#d00e57" fill-rule="evenodd" d="M22 12h-.1" clip-rule="evenodd"/><path fill="#da2c6d" fill-rule="evenodd" d="M18.4 11q-.2.3 0 .6v.2l.2.4-.3.3q-.2.3-.6.4 0 .3-.4.2h-.1v.2h-.1v.1H17l-.1-.1V13l.3-.5c0-.2.4 0 .4-.3h-.3q-.3 0-.4-.2l.2-.3q.2-.2 0-.5l-.2-1 .5-.2.3-.2q.3 0 .4.3.3.3.3.7" clip-rule="evenodd"/><path fill="#db3273" fill-rule="evenodd" d="M17 10.3v.3l.1.1v.5q.2 0 .2.2.2.4-.2.4v.4h.5q0-.1.1 0v.2l-.1.2h-.2l-.1.1q0 .2-.2.2l-.1.1v.2l-.2-.2-.2-.3-.1-.1-.6-1h.2l-.2-.5v-.3l.6-.5z" clip-rule="evenodd"/><path fill="#db3273" fill-rule="evenodd" d="m16.4 8.2.5-.1h.1v.2q.3 0 .1.2v.7q.3 0 .2.2 0 .1.2 0h.1v.2h-.1q-.1.4-.5.2-.3 0-.5.3-.1.3-.5.5h-.2V10l.3-.5.2-.5-.3-.1v-.1h.3l.1-.1v-.2q-.2-.2 0-.3" clip-rule="evenodd"/><path fill="#da2c6d" fill-rule="evenodd" d="M15.8 10.6q.3 0 .3-.3h.1l.2-.1q0-.3.3-.4h.2q.2-.1.2 0h.2l.2-.2v.2q0 .2-.3.3h-.4v.1q-.3 0-.3.3l-.1.1-.5.2z" clip-rule="evenodd"/><path fill="#cd0451" fill-rule="evenodd" d="m6 9.7.1-.2.4-.1v.1q-.3 0-.4.3" clip-rule="evenodd"/><path fill="#dd3450" fill-rule="evenodd" d="M23.4 13.9h.5q0 .1.2 0v.4l.3.3h.4l.1.2q.2.1 0 .2v.3l-.1.2-.1.1h-.3l-.1.3v.1h.3v.2q0 .5-.5.2h-1L23 16h-.2v-.2h.2v-.2h-.2v-.1q0-.4-.2-.4h-.1l.1-.2v-.2l-.2-.2v-.1h.2q.2 0 0 0 0-.4.2-.3.4 0 .6.3l.2-.2q0-.2-.2-.1h-.2l.1-.1zm.2.3" clip-rule="evenodd"/><path fill="#ec5c92" fill-rule="evenodd" d="m24.5 12.2.1.1" clip-rule="evenodd"/><path fill="#471d30" fill-rule="evenodd" d="M10.8 20.2h.2q0 .2.2.1l.1-.1h.1l-.1.3-.2.2h-.4zm2.4-.4H13l-.2-.3h.4q.2.1 0 .3m-.5-.3v.2h-.2q0-.2 0 0-.2.1-.2-.1H12l.4-.2zm-.9 0" clip-rule="evenodd"/><path fill="#e2545c" fill-rule="evenodd" d="m11.2 20.7.3-.2v.3h-.3z" clip-rule="evenodd"/><path fill="#d92a6c" fill-rule="evenodd" d="m20.9 13 .1.2-.3.1h-.4v-.9h.4q.3.1.2.3z" clip-rule="evenodd"/><path fill="#d82769" fill-rule="evenodd" d="M19 10.7h.3v.5l.1.3v.3c-.2-.2 0-.4-.3-.5l-.2-.4z" clip-rule="evenodd"/><path fill="#ea518a" fill-rule="evenodd" d="m17 13.4.2.2.3.4v.1q-.3.3-.6 0-.1-.4.1-.7" clip-rule="evenodd"/><path fill="#e83f7f" fill-rule="evenodd" d="M17.5 14.1h.2v.2z" clip-rule="evenodd"/><path fill="#da2c6d" fill-rule="evenodd" d="m17.2 13.6-.1-.2zm0 0" clip-rule="evenodd"/><path fill="#ee6a9c" fill-rule="evenodd" d="M17 13.4v.5q0 .3.2.3h.3l-.1.2H17q-.2 0-.1.3v.6h-.4v.3q0 .1-.2 0v-.2q0-.2-.2-.2t-.2-.2l-.1-.3v-.2l.4-.1-.4.1h-.2l-.1-.1V14l.1-.1v-.2h.1l.2.1.3.1h.2q.3 0 .2-.2v-.2l-.2-.2.3-.2V13l.2.2z" clip-rule="evenodd"/><path fill="#e83f7f" fill-rule="evenodd" d="m18.1 14.5.2.1.1.2h-.2l-.1-.1q-.2.2-.4.1l-.2.1-.1.3h-.1q0-.3-.2-.4l.3-.2q.4 0 .3-.4l.3.2z" clip-rule="evenodd"/><path fill="#e94180" fill-rule="evenodd" d="M19 15.9v.3q-.3 0-.4-.4v-.2h.4z" clip-rule="evenodd"/><path fill="#e84180" fill-rule="evenodd" d="m18.3 14.9.1-.1h.2l.1.2-.2.3z" clip-rule="evenodd"/><path fill="#d71e60" fill-rule="evenodd" d="m18.6 13.1-.2-.1zm-.9 1.1" clip-rule="evenodd"/><path fill="#d31052" fill-rule="evenodd" d="M18.6 14.8h-.2v-.2zm-.4-.3H18" clip-rule="evenodd"/><path fill="#3d1627" fill-rule="evenodd" d="m19.9 17.6.2-.2v.2zm-.2-.3" clip-rule="evenodd"/><path fill="#ee6a9c" fill-rule="evenodd" d="m15.9 15-.3.1V15q0-.3.2 0m-4.1.3" clip-rule="evenodd"/><path fill="#471d30" fill-rule="evenodd" d="M14.4 19.9h-.6l-.4-.1q0-.2.2-.2h.2c.1-.3.2 0 .2 0h.9-.3z" clip-rule="evenodd"/><path fill="#441e31" fill-rule="evenodd" d="M17.3 18.7h-.1zm-.1.2H17l.2-.1" clip-rule="evenodd"/><path fill="#e93f7f" fill-rule="evenodd" d="M14.5 9.1H14c.2-.2-.1-.3 0-.4q0-.2.3-.2h.1v-.3q.2 0 .3.2v.4q-.2 0-.2.3" clip-rule="evenodd"/><path fill="#ee6b9c" fill-rule="evenodd" d="M13.4 8.3h-.2z" clip-rule="evenodd"/><path fill="#d82769" fill-rule="evenodd" d="M17 8.2V8m2.8 3.2h-.1q0-.2 0 0" clip-rule="evenodd"/><path fill="#d71e60" fill-rule="evenodd" d="M20 12.4h.1M20 12" clip-rule="evenodd"/><path fill="#ef73a2" fill-rule="evenodd" d="m15.8 14.5.2-.2.1-.1h.2v.4zm.1.5.2-.1v.1z" clip-rule="evenodd"/></svg>