<svg width="20" height="20" viewBox="0 0 20 20" fill="none" xmlns="http://www.w3.org/2000/svg">
<path fill-rule="evenodd" clip-rule="evenodd" d="M5.20825 6.66667C5.20825 4.0203 7.35355 1.875 9.99992 1.875C12.6463 1.875 14.7916 4.0203 14.7916 6.66667V9.16667C14.7916 11.813 12.6463 13.9583 9.99992 13.9583C7.35355 13.9583 5.20825 11.813 5.20825 9.16667V6.66667ZM9.99992 3.125C8.04391 3.125 6.45825 4.71066 6.45825 6.66667V9.16667C6.45825 11.1227 8.04391 12.7083 9.99992 12.7083C11.9559 12.7083 13.5416 11.1227 13.5416 9.16667V6.66667C13.5416 4.71066 11.9559 3.125 9.99992 3.125ZM8.54158 6.66667C8.54158 6.32149 8.82141 6.04167 9.16658 6.04167H10.8333C11.1784 6.04167 11.4583 6.32149 11.4583 6.66667C11.4583 7.01184 11.1784 7.29167 10.8333 7.29167H9.16658C8.82141 7.29167 8.54158 7.01184 8.54158 6.66667ZM3.33325 7.70833C3.67843 7.70833 3.95825 7.98815 3.95825 8.33333V9.16667C3.95825 12.5034 6.6632 15.2083 9.99992 15.2083C13.3366 15.2083 16.0416 12.5034 16.0416 9.16667V8.33333C16.0416 7.98815 16.3214 7.70833 16.6666 7.70833C17.0118 7.70833 17.2916 7.98815 17.2916 8.33333V9.16667C17.2916 12.9832 14.3594 16.1149 10.6249 16.4319V18.3333C10.6249 18.6785 10.3451 18.9583 9.99992 18.9583C9.65474 18.9583 9.37492 18.6785 9.37492 18.3333V16.4319C5.64042 16.1149 2.70825 12.9832 2.70825 9.16667V8.33333C2.70825 7.98815 2.98807 7.70833 3.33325 7.70833ZM7.70825 9.16667C7.70825 8.82149 7.98807 8.54167 8.33325 8.54167H11.6666C12.0118 8.54167 12.2916 8.82149 12.2916 9.16667C12.2916 9.51184 12.0118 9.79167 11.6666 9.79167H8.33325C7.98807 9.79167 7.70825 9.51184 7.70825 9.16667Z" fill="#FFAA00"/>
</svg>
