<svg width="141" height="141" viewBox="124 351 141 141" fill="none" xmlns="http://www.w3.org/2000/svg">
  <path d="M205.367 472.505C193.246 472.505 181.979 468.858 172.597 462.604C171.842 462.1 172.521 460.975 173.369 461.3C179.932 463.811 187.055 465.188 194.5 465.188C194.815 465.188 195.13 465.186 195.443 465.181C196.365 465.166 196.375 463.79 195.469 463.618C185.149 461.661 175.287 456.69 167.299 448.702C159.312 440.714 154.341 430.854 152.384 420.534C152.212 419.628 150.835 419.638 150.82 420.56C150.815 420.873 150.813 421.187 150.813 421.501C150.813 428.946 152.19 436.07 154.702 442.633C155.026 443.481 153.901 444.16 153.398 443.405C147.143 434.023 143.496 422.755 143.496 410.634C143.496 377.957 169.986 351.468 202.662 351.468C199.984 351.159 197.261 351 194.5 351C155.564 351 124 382.564 124 421.5C124 440.969 131.891 458.594 144.649 471.352C157.407 484.11 175.032 492.001 194.5 492.001C233.437 492.001 265.001 460.437 265.001 421.501C265.001 418.74 264.842 416.017 264.533 413.339C264.533 446.015 238.044 472.505 205.367 472.505Z" fill="white"/>
  <path d="M237.632 368.112C237.732 367.209 239.044 367.209 239.144 368.111L239.602 372.219C239.641 372.573 239.92 372.852 240.274 372.891L244.381 373.348C245.284 373.449 245.284 374.761 244.381 374.861L240.274 375.318C239.92 375.358 239.641 375.637 239.602 375.991L239.144 380.098C239.044 381.001 237.732 381.001 237.632 380.098L237.174 375.991C237.135 375.637 236.856 375.358 236.502 375.318L232.395 374.861C231.492 374.761 231.492 373.449 232.395 373.348L236.502 372.891C236.856 372.852 237.135 372.573 237.174 372.219L237.632 368.112Z" fill="white"/>
  <path d="M201.712 394.489C201.812 393.586 203.124 393.586 203.225 394.489L204.638 407.183C204.677 407.537 204.956 407.816 205.31 407.855L218.003 409.268C218.906 409.368 218.906 410.68 218.003 410.781L205.31 412.193C204.956 412.233 204.677 412.512 204.638 412.866L203.225 425.56C203.124 426.462 201.812 426.462 201.712 425.56L200.299 412.866C200.26 412.512 199.981 412.233 199.627 412.193L186.933 410.781C186.031 410.68 186.031 409.368 186.933 409.268L199.627 407.855C199.981 407.816 200.26 407.537 200.299 407.183L201.712 394.489Z" fill="white"/>
  <path d="M235.385 370.286C235.422 369.954 235.278 369.625 235.005 369.431C227.053 363.783 217.334 360.46 206.837 360.46C192.117 360.46 178.922 366.991 169.992 377.312C178.835 368.094 191.276 362.355 205.058 362.355C214.992 362.355 224.228 365.336 231.924 370.452C232.704 370.971 233.639 371.205 234.569 371.102C234.998 371.054 235.337 370.715 235.385 370.286Z" fill="white"/>
  <path d="M242.207 377.108C241.778 377.155 241.439 377.494 241.391 377.923C241.343 378.355 241.482 378.785 241.767 379.114C249.166 387.64 253.647 398.767 253.647 410.943C253.647 424.725 247.907 437.166 238.69 446.009C249.011 437.078 255.541 423.884 255.541 409.164C255.541 397.261 251.269 386.357 244.177 377.897C243.694 377.321 242.954 377.024 242.207 377.108Z" fill="white"/>
</svg>
