<svg width="20" height="20" viewBox="0 0 20 20" fill="none" xmlns="http://www.w3.org/2000/svg">
<path fill-rule="evenodd" clip-rule="evenodd" d="M10.0001 1.0415C9.49614 1.0415 9.03212 1.16674 8.52406 1.37686C8.03348 1.57974 7.46368 1.87876 6.75416 2.25111L5.03124 3.15526C4.16043 3.61223 3.46355 3.97793 2.92548 4.33726C2.36803 4.70954 1.93868 5.10151 1.62602 5.63249C1.3144 6.16168 1.17421 6.7347 1.10699 7.4171C1.04174 8.07948 1.04174 8.89413 1.04175 9.91864V10.081C1.04174 11.1055 1.04174 11.9202 1.10699 12.5826C1.17421 13.265 1.3144 13.838 1.62602 14.3672C1.93868 14.8982 2.36803 15.2901 2.92548 15.6624C3.46355 16.0217 4.16042 16.3874 5.03122 16.8444L6.75409 17.7485C7.46364 18.1209 8.03346 18.4199 8.52406 18.6228C9.03212 18.8329 9.49614 18.9582 10.0001 18.9582C10.504 18.9582 10.968 18.8329 11.4761 18.6228C11.9667 18.4199 12.5365 18.1209 13.246 17.7486L14.9689 16.8444C15.8397 16.3875 16.5366 16.0217 17.0747 15.6624C17.6321 15.2901 18.0615 14.8982 18.3741 14.3672C18.6858 13.838 18.8259 13.265 18.8932 12.5826C18.9584 11.9202 18.9584 11.1056 18.9584 10.081V9.91863C18.9584 8.89412 18.9584 8.07948 18.8932 7.4171C18.8259 6.7347 18.6858 6.16168 18.3741 5.63249C18.0615 5.10151 17.6321 4.70954 17.0747 4.33726C16.5366 3.97793 15.8397 3.61223 14.9689 3.15526L13.246 2.25112C12.5365 1.87877 11.9667 1.57974 11.4761 1.37686C10.968 1.16674 10.504 1.0415 10.0001 1.0415ZM7.30908 3.37157C8.05051 2.98248 8.57008 2.7105 9.00177 2.53197C9.42194 2.3582 9.71713 2.2915 10.0001 2.2915C10.283 2.2915 10.5782 2.3582 10.9984 2.53197C11.4301 2.7105 11.9497 2.98248 12.6911 3.37157L14.3577 4.24619C15.2658 4.72273 15.9038 5.05844 16.3805 5.37677C16.6157 5.53382 16.8004 5.67965 16.9496 5.82629L14.1741 7.21407L7.09087 3.48608L7.30908 3.37157ZM5.7873 4.17016L5.64242 4.24619C4.73434 4.72273 4.09636 5.05844 3.61968 5.37677C3.38451 5.53382 3.19971 5.67966 3.05053 5.82629L10.0001 9.30106L12.7977 7.90224L5.95899 4.30291C5.89255 4.26794 5.83501 4.2227 5.7873 4.17016ZM2.44815 6.92264C2.40606 7.10088 2.37425 7.30327 2.35097 7.53965C2.29245 8.13367 2.29175 8.88684 2.29175 9.9511V10.0486C2.29175 11.1128 2.29245 11.866 2.35097 12.46C2.4082 13.041 2.51693 13.4167 2.70314 13.7329C2.88831 14.0474 3.15614 14.3133 3.61968 14.6229C4.09636 14.9412 4.73434 15.2769 5.64242 15.7535L7.30908 16.6281C8.05051 17.0172 8.57008 17.2892 9.00177 17.4677C9.13808 17.5241 9.26123 17.5692 9.37508 17.6044V10.3861L2.44815 6.92264ZM10.6251 17.6044C10.7389 17.5692 10.8621 17.5241 10.9984 17.4677C11.4301 17.2892 11.9497 17.0172 12.6911 16.6281L14.3577 15.7535C15.2658 15.2769 15.9038 14.9412 16.3805 14.6229C16.844 14.3133 17.1119 14.0474 17.297 13.7329C17.4832 13.4167 17.592 13.041 17.6492 12.46C17.7077 11.866 17.7084 11.1128 17.7084 10.0486V9.9511C17.7084 8.88684 17.7077 8.13367 17.6492 7.53965C17.6259 7.30327 17.5941 7.10088 17.552 6.92264L14.7917 8.30277V10.8332C14.7917 11.1783 14.5119 11.4582 14.1667 11.4582C13.8216 11.4582 13.5417 11.1783 13.5417 10.8332V8.92777L10.6251 10.3861V17.6044Z" fill="#FF0004"/>
</svg>
