<svg width="24" height="24" viewBox="0 0 24 24" fill="none" xmlns="http://www.w3.org/2000/svg">
<rect width="24" height="24" rx="8" fill="white" fill-opacity="0.1"/>
<g clip-path="url(#clip0_233_41012)">
<path fill-rule="evenodd" clip-rule="evenodd" d="M10.4577 3.9375L10.5 3.9375C10.8107 3.9375 11.0625 4.18934 11.0625 4.5C11.0625 4.81066 10.8107 5.0625 10.5 5.0625C9.06989 5.0625 8.05389 5.0637 7.28314 5.16732C6.52857 5.26877 6.09384 5.45902 5.77643 5.77643C5.45902 6.09384 5.26877 6.52857 5.16732 7.28314C5.0637 8.05388 5.0625 9.06988 5.0625 10.5C5.0625 10.8107 4.81066 11.0625 4.5 11.0625C4.18934 11.0625 3.9375 10.8107 3.9375 10.5L3.9375 10.4577C3.93749 9.07937 3.93748 7.98764 4.05235 7.13323C4.17057 6.25392 4.41966 5.54221 4.98093 4.98093C5.54221 4.41966 6.25392 4.17057 7.13323 4.05235C7.98764 3.93748 9.07937 3.93749 10.4577 3.9375ZM16.7169 5.16732C15.9461 5.0637 14.9301 5.0625 13.5 5.0625C13.1893 5.0625 12.9375 4.81066 12.9375 4.5C12.9375 4.18934 13.1893 3.9375 13.5 3.9375L13.5423 3.9375C14.9206 3.93749 16.0124 3.93748 16.8668 4.05235C17.7461 4.17057 18.4578 4.41966 19.0191 4.98093C19.5803 5.5422 19.8294 6.25392 19.9476 7.13323C20.0625 7.98764 20.0625 9.07937 20.0625 10.4577V10.5C20.0625 10.8107 19.8107 11.0625 19.5 11.0625C19.1893 11.0625 18.9375 10.8107 18.9375 10.5C18.9375 9.06989 18.9363 8.05389 18.8327 7.28314C18.7312 6.52857 18.541 6.09384 18.2236 5.77643C17.9062 5.45902 17.4714 5.26877 16.7169 5.16732ZM4.5 12.9375C4.81066 12.9375 5.0625 13.1893 5.0625 13.5C5.0625 14.9301 5.0637 15.9461 5.16732 16.7169C5.26877 17.4714 5.45902 17.9062 5.77643 18.2236C6.09384 18.541 6.52857 18.7312 7.28314 18.8327C8.05389 18.9363 9.06988 18.9375 10.5 18.9375C10.8107 18.9375 11.0625 19.1893 11.0625 19.5C11.0625 19.8107 10.8107 20.0625 10.5 20.0625H10.4577C9.07937 20.0625 7.98764 20.0625 7.13323 19.9476C6.25392 19.8294 5.5422 19.5803 4.98093 19.0191C4.41966 18.4578 4.17057 17.7461 4.05235 16.8668C3.93748 16.0124 3.93749 14.9206 3.9375 13.5423L3.9375 13.5C3.9375 13.1893 4.18934 12.9375 4.5 12.9375ZM19.5 12.9375C19.8107 12.9375 20.0625 13.1893 20.0625 13.5V13.5423C20.0625 14.9206 20.0625 16.0124 19.9476 16.8668C19.8294 17.7461 19.5803 18.4578 19.0191 19.0191C18.4578 19.5803 17.7461 19.8294 16.8668 19.9476C16.0124 20.0625 14.9206 20.0625 13.5423 20.0625H13.5C13.1893 20.0625 12.9375 19.8107 12.9375 19.5C12.9375 19.1893 13.1893 18.9375 13.5 18.9375C14.9301 18.9375 15.9461 18.9363 16.7169 18.8327C17.4714 18.7312 17.9062 18.541 18.2236 18.2236C18.541 17.9062 18.7312 17.4714 18.8327 16.7169C18.9363 15.9461 18.9375 14.9301 18.9375 13.5C18.9375 13.1893 19.1893 12.9375 19.5 12.9375Z" fill="white"/>
</g>
<defs>
<clipPath id="clip0_233_41012">
<rect width="18" height="18" fill="white" transform="translate(3 3)"/>
</clipPath>
</defs>
</svg>
