<svg width="22" height="22" viewBox="0 0 22 22" fill="none" xmlns="http://www.w3.org/2000/svg">
<path fill-rule="evenodd" clip-rule="evenodd" d="M17.3122 2C17.7318 2 18.072 2.34019 18.072 2.75984V7.05812C18.072 7.47777 17.7318 7.81796 17.3122 7.81796H13.0139C12.5943 7.81796 12.2541 7.47777 12.2541 7.05812C12.2541 6.63847 12.5943 6.29828 13.0139 6.29828H15.4052C12.5225 4.02579 8.33066 4.21937 5.671 6.87903C2.80256 9.74746 2.80256 14.3981 5.671 17.2665C8.53943 20.135 13.1901 20.135 16.0585 17.2665C17.9803 15.3448 18.6155 12.6227 17.9605 10.17C17.8522 9.76458 18.0931 9.34814 18.4986 9.23986C18.904 9.13159 19.3205 9.37249 19.4287 9.77793C20.2179 12.7332 19.4539 16.0203 17.1331 18.3411C13.6712 21.803 8.05833 21.803 4.59643 18.3411C1.13452 14.8792 1.13452 9.26636 4.59643 5.80445C7.87083 2.53005 13.0695 2.35271 16.5524 5.27242V2.75984C16.5524 2.34019 16.8925 2 17.3122 2Z" fill="#FFAA00"/>
<path d="M10.5301 15.7227C10.0533 15.7227 9.63528 15.636 9.27612 15.4626C8.91697 15.2892 8.63212 15.0539 8.42158 14.7567C8.21413 14.4563 8.09647 14.1204 8.06861 13.7488L8.06396 13.6838H9.3365L9.34579 13.7163C9.37985 13.8804 9.44951 14.0306 9.55478 14.1668C9.66315 14.3 9.80093 14.4068 9.96812 14.4873C10.1353 14.5647 10.3242 14.6034 10.5347 14.6034C10.7762 14.6034 10.9883 14.5508 11.171 14.4455C11.3537 14.3402 11.4961 14.1962 11.5983 14.0136C11.7035 13.8278 11.7562 13.6157 11.7562 13.3773V13.368C11.7562 13.1296 11.7035 12.9191 11.5983 12.7364C11.4961 12.5537 11.3537 12.4113 11.171 12.3091C10.9883 12.2069 10.7778 12.1559 10.5394 12.1559C10.3722 12.1559 10.2174 12.1806 10.0749 12.2302C9.93252 12.2766 9.80402 12.3478 9.68947 12.4438C9.62754 12.4933 9.56871 12.5506 9.51298 12.6156C9.46035 12.6776 9.41545 12.7441 9.3783 12.8153H8.17543L8.4866 8.84912H12.6757V9.96375H9.578L9.41081 11.8726H9.49441C9.5842 11.7208 9.69875 11.5908 9.83808 11.4824C9.98051 11.3741 10.1431 11.2905 10.3257 11.2316C10.5115 11.1728 10.7112 11.1434 10.9248 11.1434C11.3428 11.1434 11.7128 11.2378 12.0348 11.4267C12.3599 11.6156 12.6138 11.8756 12.7965 12.2069C12.9823 12.5351 13.0752 12.9129 13.0752 13.3401V13.3494C13.0752 13.8201 12.9668 14.2334 12.7501 14.5895C12.5364 14.9455 12.2376 15.2242 11.8537 15.4254C11.4729 15.6236 11.0317 15.7227 10.5301 15.7227Z" fill="#FFAA00"/>
</svg>
