<svg width="22" height="22" viewBox="0 0 22 22" fill="none" xmlns="http://www.w3.org/2000/svg">
<path d="M2.75 5.9802C2.75 5.61858 3.04948 5.32544 3.41892 5.32544H7.80805C7.81401 4.55431 7.89758 3.49716 8.66284 2.76533C9.26508 2.18939 10.0907 1.83337 11 1.83337C11.9092 1.83337 12.7349 2.18939 13.3371 2.76533C14.1024 3.49716 14.186 4.55431 14.1919 5.32544H18.5811C18.9505 5.32544 19.25 5.61858 19.25 5.9802C19.25 6.34181 18.9505 6.63496 18.5811 6.63496H3.41892C3.04948 6.63496 2.75 6.34181 2.75 5.9802Z" fill="#FF3F42"/>
<path fill-rule="evenodd" clip-rule="evenodd" d="M10.6293 20.1667H11.3707C13.9215 20.1667 15.1969 20.1667 16.0262 19.3546C16.8554 18.5425 16.9403 17.2104 17.11 14.5462L17.3544 10.7073C17.4465 9.26168 17.4925 8.53889 17.0765 8.08087C16.6605 7.62285 15.958 7.62285 14.553 7.62285H7.44704C6.042 7.62285 5.33947 7.62285 4.92346 8.08087C4.50745 8.53889 4.55349 9.26168 4.64555 10.7073L4.89004 14.5462C5.05972 17.2104 5.14456 18.5425 5.97381 19.3546C6.80307 20.1667 8.07848 20.1667 10.6293 20.1667ZM9.39242 11.1728C9.35464 10.7751 9.01774 10.485 8.63992 10.5247C8.26211 10.5645 7.98646 10.9191 8.02424 11.3168L8.48258 16.1414C8.52036 16.5391 8.85726 16.8292 9.23507 16.7895C9.61289 16.7497 9.88854 16.3951 9.85075 15.9974L9.39242 11.1728ZM13.3601 10.5247C13.7379 10.5645 14.0135 10.9191 13.9758 11.3168L13.5174 16.1414C13.4796 16.5391 13.1427 16.8292 12.7649 16.7895C12.3871 16.7497 12.1115 16.3951 12.1492 15.9974L12.6076 11.1728C12.6454 10.7751 12.9823 10.485 13.3601 10.5247Z" fill="#FF3F42"/>
</svg>
