<svg width="22" height="22" viewBox="0 0 20 20" fill="none" xmlns="http://www.w3.org/2000/svg">
<path fill-rule="evenodd" clip-rule="evenodd" d="M9.11965 1.0415H10.8803C12.4118 1.04149 13.6248 1.04148 14.5742 1.16912C15.5512 1.30047 16.342 1.57724 16.9656 2.20087C17.2097 2.44495 17.2097 2.84068 16.9656 3.08476C16.7216 3.32883 16.3258 3.32883 16.0817 3.08476C15.7291 2.73208 15.246 2.52069 14.4076 2.40797C13.5512 2.29283 12.4224 2.2915 10.8333 2.2915H9.16667C7.57765 2.2915 6.44876 2.29283 5.59237 2.40797C4.75397 2.52069 4.27093 2.73208 3.91825 3.08476C3.56558 3.43743 3.35419 3.92047 3.24147 4.75888C3.12633 5.61526 3.125 6.74415 3.125 8.33317V11.6665C3.125 13.2555 3.12633 14.3844 3.24147 15.2408C3.35419 16.0792 3.56558 16.5622 3.91825 16.9149C4.27093 17.2676 4.75397 17.479 5.59237 17.5917C6.44876 17.7068 7.57765 17.7082 9.16667 17.7082H10.8333C12.4224 17.7082 13.5512 17.7068 14.4076 17.5917C15.246 17.479 15.7291 17.2676 16.0817 16.9149C16.6617 16.335 16.8373 15.4338 16.8678 13.3241C16.8728 12.979 17.1567 12.7032 17.5018 12.7082C17.8469 12.7132 18.1227 12.9971 18.1177 13.3422C18.0884 15.3651 17.9575 16.8069 16.9656 17.7988C16.342 18.4224 15.5512 18.6992 14.5742 18.8306C13.6248 18.9582 12.4118 18.9582 10.8803 18.9582H9.11966C7.58819 18.9582 6.37516 18.9582 5.42581 18.8306C4.4488 18.6992 3.65801 18.4224 3.03437 17.7988C2.41073 17.1752 2.13397 16.3844 2.00261 15.4074C1.87498 14.458 1.87499 13.245 1.875 11.7135V8.28616C1.87499 6.75469 1.87498 5.54166 2.00261 4.59232C2.13397 3.6153 2.41073 2.82451 3.03437 2.20087C3.65801 1.57724 4.4488 1.30047 5.42581 1.16912C6.37516 1.04148 7.58819 1.04149 9.11965 1.0415ZM15.0943 5.87114C15.9782 4.98718 17.4114 4.98718 18.2954 5.87114C19.1793 6.75509 19.1793 8.18826 18.2954 9.07222L14.3326 13.035C14.117 13.2506 13.9712 13.3965 13.8078 13.5239C13.6156 13.6739 13.4077 13.8024 13.1876 13.9072C13.0006 13.9964 12.8049 14.0616 12.5156 14.158L10.7792 14.7367C10.3959 14.8645 9.97323 14.7648 9.68749 14.479C9.40175 14.1933 9.30197 13.7706 9.42976 13.3873L9.99689 11.6859C10.0008 11.6741 10.0047 11.6624 10.0085 11.6509C10.1049 11.3616 10.1701 11.1659 10.2593 10.9789C10.3641 10.7588 10.4927 10.5509 10.6426 10.3587C10.77 10.1954 10.9159 10.0495 11.1315 9.83393C11.1401 9.82535 11.1488 9.81666 11.1576 9.80785L15.0943 5.87114ZM17.4115 6.75502C17.0157 6.35922 16.374 6.35922 15.9782 6.75502L15.8267 6.90651C15.8349 6.93441 15.8443 6.96409 15.8552 6.99527C15.9335 7.22121 16.0823 7.52006 16.3644 7.80214C16.6464 8.08421 16.9453 8.23296 17.1712 8.31135C17.2024 8.32217 17.2321 8.3316 17.26 8.33982L17.4115 8.18833C17.8073 7.79254 17.8073 7.15082 17.4115 6.75502ZM16.3054 9.29446C16.0405 9.15532 15.7544 8.95995 15.4805 8.68602C15.2066 8.41208 15.0112 8.12605 14.872 7.86115L12.0415 10.6917C11.7906 10.9426 11.7025 11.0322 11.6282 11.1275C11.5341 11.2481 11.4535 11.3786 11.3877 11.5167C11.3357 11.6258 11.295 11.7445 11.1827 12.0812L10.8492 13.0819L11.0846 13.3173L12.0854 12.9838C12.422 12.8716 12.5408 12.8308 12.6499 12.7788C12.7879 12.713 12.9184 12.6324 13.039 12.5383C13.1343 12.464 13.2239 12.376 13.4748 12.1251L16.3054 9.29446ZM6.04167 7.49984C6.04167 7.15466 6.32149 6.87484 6.66667 6.87484H12.0833C12.4285 6.87484 12.7083 7.15466 12.7083 7.49984C12.7083 7.84502 12.4285 8.12484 12.0833 8.12484H6.66667C6.32149 8.12484 6.04167 7.84502 6.04167 7.49984ZM6.04167 10.8332C6.04167 10.488 6.32149 10.2082 6.66667 10.2082H8.75C9.09518 10.2082 9.375 10.488 9.375 10.8332C9.375 11.1783 9.09518 11.4582 8.75 11.4582H6.66667C6.32149 11.4582 6.04167 11.1783 6.04167 10.8332ZM6.04167 14.1665C6.04167 13.8213 6.32149 13.5415 6.66667 13.5415H7.91667C8.26184 13.5415 8.54167 13.8213 8.54167 14.1665C8.54167 14.5117 8.26184 14.7915 7.91667 14.7915H6.66667C6.32149 14.7915 6.04167 14.5117 6.04167 14.1665Z" fill="#FFAA00"/>
</svg>
