<svg width="16" height="16" viewBox="0 0 16 16" fill="none" xmlns="http://www.w3.org/2000/svg">
<path d="M11.333 9.33317C11.7012 9.33317 11.9997 9.03469 11.9997 8.6665C11.9997 8.29831 11.7012 7.99984 11.333 7.99984C10.9648 7.99984 10.6663 8.29831 10.6663 8.6665C10.6663 9.03469 10.9648 9.33317 11.333 9.33317Z" fill="black" fill-opacity="0.35"/>
<path d="M11.333 11.9998C11.7012 11.9998 11.9997 11.7014 11.9997 11.3332C11.9997 10.965 11.7012 10.6665 11.333 10.6665C10.9648 10.6665 10.6663 10.965 10.6663 11.3332C10.6663 11.7014 10.9648 11.9998 11.333 11.9998Z" fill="black" fill-opacity="0.35"/>
<path d="M8.66634 8.6665C8.66634 9.03469 8.36786 9.33317 7.99968 9.33317C7.63149 9.33317 7.33301 9.03469 7.33301 8.6665C7.33301 8.29831 7.63149 7.99984 7.99968 7.99984C8.36786 7.99984 8.66634 8.29831 8.66634 8.6665Z" fill="black" fill-opacity="0.35"/>
<path d="M8.66634 11.3332C8.66634 11.7014 8.36786 11.9998 7.99968 11.9998C7.63149 11.9998 7.33301 11.7014 7.33301 11.3332C7.33301 10.965 7.63149 10.6665 7.99968 10.6665C8.36786 10.6665 8.66634 10.965 8.66634 11.3332Z" fill="black" fill-opacity="0.35"/>
<path d="M4.66634 9.33317C5.03453 9.33317 5.33301 9.03469 5.33301 8.6665C5.33301 8.29831 5.03453 7.99984 4.66634 7.99984C4.29815 7.99984 3.99968 8.29831 3.99968 8.6665C3.99968 9.03469 4.29815 9.33317 4.66634 9.33317Z" fill="black" fill-opacity="0.35"/>
<path d="M4.66634 11.9998C5.03453 11.9998 5.33301 11.7014 5.33301 11.3332C5.33301 10.965 5.03453 10.6665 4.66634 10.6665C4.29815 10.6665 3.99968 10.965 3.99968 11.3332C3.99968 11.7014 4.29815 11.9998 4.66634 11.9998Z" fill="black" fill-opacity="0.35"/>
<path fill-rule="evenodd" clip-rule="evenodd" d="M4.66634 1.1665C4.94248 1.1665 5.16634 1.39036 5.16634 1.6665V2.17498C5.60767 2.1665 6.09389 2.1665 6.62865 2.1665H9.37062C9.90539 2.1665 10.3917 2.1665 10.833 2.17498V1.6665C10.833 1.39036 11.0569 1.1665 11.333 1.1665C11.6092 1.1665 11.833 1.39036 11.833 1.6665V2.2179C12.0063 2.23111 12.1704 2.24772 12.3257 2.26859C13.1073 2.37368 13.7399 2.59509 14.2388 3.094C14.7378 3.59291 14.9592 4.22554 15.0643 5.00716C15.1664 5.76663 15.1664 6.73704 15.1663 7.9622V9.37078C15.1664 10.5959 15.1664 11.5664 15.0643 12.3259C14.9592 13.1075 14.7378 13.7401 14.2388 14.239C13.7399 14.7379 13.1073 14.9593 12.3257 15.0644C11.5662 15.1665 10.5958 15.1665 9.37065 15.1665H6.62873C5.40357 15.1665 4.43313 15.1665 3.67366 15.0644C2.89205 14.9593 2.25941 14.7379 1.7605 14.239C1.26159 13.7401 1.04018 13.1075 0.935098 12.3259C0.832989 11.5664 0.832998 10.596 0.833008 9.37078V7.96223C0.832998 6.73705 0.832989 5.76663 0.935098 5.00716C1.04018 4.22554 1.26159 3.59291 1.7605 3.094C2.25941 2.59509 2.89205 2.37368 3.67366 2.26859C3.82894 2.24772 3.99305 2.23111 4.16634 2.2179V1.6665C4.16634 1.39036 4.3902 1.1665 4.66634 1.1665ZM3.80691 3.25968C3.13618 3.34985 2.74975 3.51897 2.46761 3.80111C2.18547 4.08325 2.01636 4.46968 1.92618 5.1404C1.91091 5.25399 1.89814 5.37358 1.88746 5.49984H14.1119C14.1012 5.37358 14.0884 5.25399 14.0732 5.1404C13.983 4.46968 13.8139 4.08325 13.5317 3.80111C13.2496 3.51897 12.8632 3.34985 12.1924 3.25968C11.5073 3.16757 10.6042 3.1665 9.33301 3.1665H6.66634C5.39513 3.1665 4.49202 3.16757 3.80691 3.25968ZM1.83301 7.99984C1.83301 7.43049 1.83322 6.93499 1.84173 6.49984H14.1576C14.1661 6.93499 14.1663 7.43049 14.1663 7.99984V9.33317C14.1663 10.6044 14.1653 11.5075 14.0732 12.1926C13.983 12.8633 13.8139 13.2498 13.5317 13.5319C13.2496 13.814 12.8632 13.9832 12.1924 14.0733C11.5073 14.1654 10.6042 14.1665 9.33301 14.1665H6.66634C5.39513 14.1665 4.49202 14.1654 3.80691 14.0733C3.13618 13.9832 2.74975 13.814 2.46761 13.5319C2.18547 13.2498 2.01636 12.8633 1.92618 12.1926C1.83407 11.5075 1.83301 10.6044 1.83301 9.33317V7.99984Z" fill="black" fill-opacity="0.35"/>
</svg>
