<svg width="16" height="16" viewBox="0 0 16 16" fill="none" xmlns="http://www.w3.org/2000/svg">
<path fill-rule="evenodd" clip-rule="evenodd" d="M6.62905 2.1665H9.37094C10.5961 2.16649 11.5665 2.16649 12.326 2.26859C13.1076 2.37368 13.7403 2.59509 14.2392 3.094C14.7381 3.59291 14.9595 4.22554 15.0646 5.00716C15.1667 5.76663 15.1667 6.73706 15.1667 7.96223V8.03745C15.1667 9.26262 15.1667 10.233 15.0646 10.9925C14.9595 11.7741 14.7381 12.4068 14.2392 12.9057C13.7403 13.4046 13.1076 13.626 12.326 13.7311C11.5665 13.8332 10.5961 13.8332 9.37094 13.8332H6.62906C5.40388 13.8332 4.43346 13.8332 3.67398 13.7311C2.89237 13.626 2.25973 13.4046 1.76082 12.9057C1.26192 12.4068 1.0405 11.7741 0.935418 10.9925C0.833309 10.233 0.833318 9.26262 0.833328 8.03745V7.96223C0.833318 6.73705 0.833309 5.76663 0.935418 5.00716C1.0405 4.22554 1.26192 3.59291 1.76082 3.094C2.25973 2.59509 2.89237 2.37368 3.67398 2.26859C4.43346 2.16649 5.40388 2.16649 6.62905 2.1665ZM3.80723 3.25968C3.1365 3.34985 2.75007 3.51897 2.46793 3.80111C2.18579 4.08325 2.01668 4.46968 1.9265 5.1404C1.83439 5.82551 1.83333 6.72862 1.83333 7.99984C1.83333 9.27105 1.83439 10.1742 1.9265 10.8593C2.01668 11.53 2.18579 11.9164 2.46793 12.1986C2.75007 12.4807 3.1365 12.6498 3.80723 12.74C4.49234 12.8321 5.39545 12.8332 6.66666 12.8332H9.33333C10.6045 12.8332 11.5077 12.8321 12.1928 12.74C12.8635 12.6498 13.2499 12.4807 13.5321 12.1986C13.8142 11.9164 13.9833 11.53 14.0735 10.8593C14.1656 10.1742 14.1667 9.27105 14.1667 7.99984C14.1667 6.72862 14.1656 5.82551 14.0735 5.1404C13.9833 4.46968 13.8142 4.08325 13.5321 3.80111C13.2499 3.51897 12.8635 3.34985 12.1928 3.25968C11.5077 3.16757 10.6045 3.1665 9.33333 3.1665H6.66666C5.39545 3.1665 4.49234 3.16757 3.80723 3.25968ZM3.61588 5.01308C3.79267 4.80094 4.10795 4.77228 4.32009 4.94906L5.75935 6.14845C6.38132 6.66676 6.81315 7.02545 7.17772 7.25992C7.53062 7.4869 7.76995 7.56309 8 7.56309C8.23004 7.56309 8.46937 7.4869 8.82227 7.25992C9.18684 7.02545 9.61867 6.66676 10.2406 6.14845L11.6799 4.94906C11.892 4.77228 12.2073 4.80094 12.3841 5.01308C12.5609 5.22522 12.5322 5.5405 12.3201 5.71728L10.8558 6.93755C10.2649 7.42999 9.78592 7.82912 9.36321 8.10099C8.92288 8.38419 8.49405 8.56309 8 8.56309C7.50594 8.56309 7.07711 8.38419 6.63678 8.10099C6.21407 7.82912 5.73514 7.42999 5.14424 6.93756L3.6799 5.71728C3.46776 5.5405 3.4391 5.22522 3.61588 5.01308Z" fill="white"/>
</svg>
