<svg width="22" height="22" viewBox="0 0 22 22" fill="none" xmlns="http://www.w3.org/2000/svg">
<path d="M14.8159 6.26737C17.772 8.27688 19.25 9.28164 19.25 11.0001C19.25 12.7186 17.772 13.7234 14.8159 15.7329C13.9999 16.2876 13.1905 16.8099 12.4468 17.2451C11.7943 17.6269 11.0554 18.0219 10.2903 18.4096C7.34121 19.904 5.86665 20.6513 4.54414 19.824C3.22163 18.9966 3.10143 17.2647 2.86105 13.8009C2.79307 12.8213 2.75 11.861 2.75 11.0001C2.75 10.1392 2.79307 9.17893 2.86105 8.19935C3.10144 4.73551 3.22163 3.00359 4.54414 2.17628C5.86665 1.34896 7.34121 2.0962 10.2903 3.59068C11.0554 3.97837 11.7943 4.37332 12.4468 4.75514C13.1905 5.19035 13.9999 5.71264 14.8159 6.26737Z" fill="#FFAA00"/>
</svg>
