<svg width="20" height="20" viewBox="0 0 20 20" fill="none" xmlns="http://www.w3.org/2000/svg">
<path d="M8.33337 11.6667H10M10 11.6667H11.6667M10 11.6667V13.3333M10 11.6667V10" stroke="black" stroke-width="1.25" stroke-linecap="round"/>
<path d="M1.66663 5.79129C1.66663 5.05585 1.66663 4.68813 1.72442 4.38183C1.97883 3.03343 3.03355 1.9787 4.38195 1.7243C4.68825 1.6665 5.05597 1.6665 5.79141 1.6665C6.11365 1.6665 6.27476 1.6665 6.4296 1.68098C7.09717 1.74341 7.73039 2.0057 8.24658 2.4336C8.3663 2.53285 8.48023 2.64677 8.70808 2.87463L9.16663 3.33317C9.84644 4.01299 10.1863 4.35289 10.5934 4.57936C10.817 4.70376 11.0542 4.80201 11.3003 4.87215C11.7482 4.99984 12.2289 4.99984 13.1903 4.99984H13.5017C15.6953 4.99984 16.7922 4.99984 17.5051 5.64106C17.5707 5.70004 17.6331 5.76245 17.6921 5.82803C18.3333 6.54096 18.3333 7.63778 18.3333 9.83142V11.6665C18.3333 14.8092 18.3333 16.3805 17.357 17.3569C16.3807 18.3332 14.8093 18.3332 11.6666 18.3332H8.33329C5.1906 18.3332 3.61925 18.3332 2.64294 17.3569C1.66663 16.3805 1.66663 14.8092 1.66663 11.6665V5.79129Z" stroke="black" stroke-width="1.25"/>
</svg>
